<svg width="608.7" height="832.7" viewBox="0 0 608.7 832.7" xmlns="http://www.w3.org/2000/svg" xmlns:xlink="http://www.w3.org/1999/xlink" overflow="hidden"><defs></defs><g><g opacity="0.45"><path d="M465.6 486.9 509.6 421.1C509.6 421.1 588.8 381.4 600.3 377.9 608.2 375.5 602.3 370.1 583.8 370.4 591.5 367.8 598 364.6 597.2 361.7 596.3 358.1 585.1 358.6 571.4 362.6 575.5 358.3 578.9 353.7 577.2 351.7 573.7 347.4 528 375.9 526.4 377 524.9 376.9 523.6 376.6 522.9 376 519.1 372.9 535.7 342.4 524.9 342 514.1 341.5 506.5 365.2 506.5 365.2 506.5 365.2 478.9 381.1 477.9 404.7 477.3 419.2 438.1 468.7 438.1 468.7L465.6 486.9Z" stroke="#000000" stroke-width="10" stroke-linecap="round" stroke-linejoin="round" fill="none"/><path d="M522.3 374.2C522.3 375 522.5 375.7 522.9 376 523.6 376.6 524.9 376.9 526.4 377 528 375.8 573.6 347.4 577.2 351.7 578.9 353.7 575.5 358.3 571.4 362.6 585.1 358.6 596.3 358.1 597.2 361.7 598 364.7 591.4 367.8 583.8 370.4 602.3 370.1 608.2 375.5 600.5 377.9 581.3 374.2 561.3 381.3 543.2 390.3 530.1 384.9 515.5 390.6 503.7 396.1 511.4 389.8 519.1 383.4 522.3 374.2Z" stroke="#000000" stroke-width="10" stroke-linecap="round" stroke-linejoin="round" fill="none"/><path d="M438 468.6C438 468.6 459.3 441.7 470.7 421.8 479.4 428.6 491.8 432.1 503.2 430.7L465.6 486.9 438 468.6Z" stroke="#000000" stroke-width="10" stroke-linecap="round" stroke-linejoin="round" fill="none"/><path d="M273.7 403.4C280.5 393.5 294 390.8 303.9 397.5 348.9 427.7 402.2 461.6 425.4 473.9 435 460.9 451.4 437 466.1 414.6 476.1 425.1 487.6 434 500.1 441.6 454.7 510.4 447.4 515.2 443.8 517.5 430.7 526 417.1 519.1 396 507.2 383.7 500.3 367.3 490.3 347.2 477.5 313.2 456 279.8 433.5 279.4 433.3 269.5 426.7 266.9 413.3 273.7 403.4Z" stroke="#000000" stroke-width="10" stroke-linecap="round" stroke-linejoin="round" fill="none"/><path d="M330.3 827.7C334.1 795.3 336.7 762.5 338.6 729.7 340.3 699.6 342.6 668.8 339 638.9L164.1 633.3C152.9 667.1 143.3 727.8 158.5 827.7L330.3 827.7Z" stroke="#000000" stroke-width="10" stroke-linecap="round" stroke-linejoin="round" fill="none"/><path d="M330.3 827.7C334.1 795.3 336.7 762.5 338.6 729.7 340.3 699.6 342.6 668.8 339 638.9L164.1 633.3C152.9 667.1 143.3 727.8 158.5 827.7L330.3 827.7Z" stroke="#000000" stroke-width="10" stroke-linecap="round" stroke-linejoin="round" fill="none"/><path d="M180.8 827.7C179.6 825.1 178.6 822.4 177.8 819.5 166 779.4 159.2 726.9 190.3 697.9 204.1 685.2 249.3 715.6 259 681.9 257.4 687.2 255.8 694.3 254.2 699.6 282.8 697.2 315.7 693.3 340.9 675.4 340.9 674.3 340.9 673.3 340.9 672.2 318.3 682.8 293.2 688.2 267.4 689.5L264.3 654.1 251.2 689.7C218.4 689.2 185.1 682.4 155 671.2 149.3 706.9 147.7 757.7 158.4 827.7L180.8 827.7Z" stroke="#000000" stroke-width="10" stroke-linecap="round" stroke-linejoin="round" fill="none"/><path d="M180.8 827.7C179.6 825.1 178.6 822.4 177.8 819.5 166 779.4 159.2 726.9 190.3 697.9 204.1 685.2 249.3 715.6 259 681.9 257.4 687.2 255.8 694.3 254.2 699.6 282.8 697.2 315.7 693.3 340.9 675.4 340.9 674.3 340.9 673.3 340.9 672.2 318.3 682.8 293.2 688.2 267.4 689.5L264.3 654.1 251.2 689.7C218.4 689.2 185.1 682.4 155 671.2 149.3 706.9 147.7 757.7 158.4 827.7L180.8 827.7Z" stroke="#000000" stroke-width="10" stroke-linecap="round" stroke-linejoin="round" fill="none"/><path d="M194.1 530.5C188.5 516.5 118.8 443.2 156.7 408.7 194.6 374.2 279.6 389.2 279.6 389.2 318.7 393.3 332.5 423.7 329.7 462.4 327.8 485.6 318 506.5 313.4 529.8 309 555.7 318.5 572.1 328.2 595 337.9 620 340.7 646 340.8 672.3 318.2 682.9 293.1 688.3 267.3 689.6L264.2 654.2 251.1 689.8C218.3 689.3 185 682.5 154.9 671.3 163.5 617.6 181.5 597.8 181.5 597.8 209.2 560.9 199.7 544.5 194.1 530.5Z" stroke="#000000" stroke-width="10" stroke-linecap="round" stroke-linejoin="round" fill="none"/><path d="M194.1 530.5C188.5 516.5 118.8 443.2 156.7 408.7 194.6 374.2 279.6 389.2 279.6 389.2 318.7 393.3 332.5 423.7 329.7 462.4 327.8 485.6 318 506.5 313.4 529.8 309 555.7 318.5 572.1 328.2 595 337.9 620 340.7 646 340.8 672.3 318.2 682.9 293.1 688.3 267.3 689.6L264.2 654.2 251.1 689.8C218.3 689.3 185 682.5 154.9 671.3 163.5 617.6 181.5 597.8 181.5 597.8 209.2 560.9 199.7 544.5 194.1 530.5Z" stroke="#000000" stroke-width="10" stroke-linecap="round" stroke-linejoin="round" fill="none"/><path d="M194.1 530.5C188.5 516.5 118.8 443.2 156.7 408.7 194.6 374.2 279.6 389.2 279.6 389.2 318.7 393.3 332.5 423.7 329.7 462.4 327.8 485.6 318 506.5 313.4 529.8 309 555.7 318.5 572.1 328.2 595 337.9 620 340.7 646 340.8 672.3 318.2 682.9 293.1 688.3 267.3 689.6L264.2 654.2 251.1 689.8C218.3 689.3 185 682.5 154.9 671.3 163.5 617.6 181.5 597.8 181.5 597.8 209.2 560.9 199.7 544.5 194.1 530.5Z" stroke="#000000" stroke-width="10" stroke-linecap="round" stroke-linejoin="round" fill="none"/><path d="M194.1 530.5C188.5 516.5 118.8 443.2 156.7 408.7 194.6 374.2 279.6 389.2 279.6 389.2 318.7 393.3 332.5 423.7 329.7 462.4 327.8 485.6 318 506.5 313.4 529.8 309 555.7 318.5 572.1 328.2 595 337.9 620 340.7 646 340.8 672.3 318.2 682.9 293.1 688.3 267.3 689.6L264.2 654.2 251.1 689.8C218.3 689.3 185 682.5 154.9 671.3 163.5 617.6 181.5 597.8 181.5 597.8 209.2 560.9 199.7 544.5 194.1 530.5Z" stroke="#000000" stroke-width="10" stroke-linecap="round" stroke-linejoin="round" fill="none"/><path d="M321.9 580.2C323.9 584.9 326.1 589.7 328.3 594.9 331 601.8 333.1 608.9 334.9 615.9 311.1 630.6 285.8 651.1 258.1 646.7 227.9 641.3 200.9 625.4 172.6 612.5 177.8 602.1 181.9 597.6 181.9 597.6 186.9 590.9 190.7 584.9 193.5 579.4 235.1 594.1 281.6 597.1 321.9 580.2Z" stroke="#000000" stroke-width="10" stroke-linecap="round" stroke-linejoin="round" fill="none"/><path d="M321.9 580.2C323.9 584.9 326.1 589.7 328.3 594.9 331 601.8 333.1 608.9 334.9 615.9 311.1 630.6 285.8 651.1 258.1 646.7 227.9 641.3 200.9 625.4 172.6 612.5 177.8 602.1 181.9 597.6 181.9 597.6 186.9 590.9 190.7 584.9 193.5 579.4 235.1 594.1 281.6 597.1 321.9 580.2Z" stroke="#000000" stroke-width="10" stroke-linecap="round" stroke-linejoin="round" fill="none"/><path d="M249 421.2C227.3 421.3 204.2 409.2 197 389.6 226.6 383.6 259 386.3 273.9 388.2 275.2 404.2 266.9 421.1 249 421.2Z" stroke="#000000" stroke-width="10" stroke-linecap="round" stroke-linejoin="round" fill="none"/><path d="M249 421.2C227.3 421.3 204.2 409.2 197 389.6 226.6 383.6 259 386.3 273.9 388.2 275.2 404.2 266.9 421.1 249 421.2Z" stroke="#000000" stroke-width="10" stroke-linecap="round" stroke-linejoin="round" fill="none"/><path d="M289.2 426.9C287.2 434.7 275.2 438.6 265.1 436.7 257.2 434.2 251.9 428.3 249.1 421.2 266.9 421.1 275.1 404.2 273.9 388.2 279.3 388.9 282.4 389.4 282.4 389.4 282.7 389.4 283 389.5 283.2 389.5 291 400.5 294 414.3 289.2 426.9Z" stroke="#000000" stroke-width="10" stroke-linecap="round" stroke-linejoin="round" fill="none"/><path d="M289.2 426.9C287.2 434.7 275.2 438.6 265.1 436.7 257.2 434.2 251.9 428.3 249.1 421.2 266.9 421.1 275.1 404.2 273.9 388.2 279.3 388.9 282.4 389.4 282.4 389.4 282.7 389.4 283 389.5 283.2 389.5 291 400.5 294 414.3 289.2 426.9Z" stroke="#000000" stroke-width="10" stroke-linecap="round" stroke-linejoin="round" fill="none"/><path d="M214.9 444.6C189.2 437.4 187.3 413.6 188.8 391.5 191.5 390.8 194.2 390.1 197 389.5 204 408.5 225.8 420.3 246.8 421 244.2 435.6 230.3 447.9 214.9 444.6Z" stroke="#000000" stroke-width="10" stroke-linecap="round" stroke-linejoin="round" fill="none"/><path d="M214.9 444.6C189.2 437.4 187.3 413.6 188.8 391.5 191.5 390.8 194.2 390.1 197 389.5 204 408.5 225.8 420.3 246.8 421 244.2 435.6 230.3 447.9 214.9 444.6Z" stroke="#000000" stroke-width="10" stroke-linecap="round" stroke-linejoin="round" fill="none"/><path d="M214.6 385.8C214.9 397.2 224.5 406.1 235.9 405.8L235.9 405.8C247.4 405.5 256.4 396 256.1 384.7L255.8 375.7C255.5 364.3 245.9 355.4 234.5 355.7L234.5 355.7C223 356 214 365.5 214.3 376.8L214.6 385.8Z" stroke="#000000" stroke-width="10" stroke-linecap="round" stroke-linejoin="round" fill="none"/><path d="M234.5 355.7C246 355.4 255.5 364.3 255.8 375.7L256.1 384.7C256.1 385.1 256.1 385.6 256.1 386.1 241.9 385 227.7 381.8 214.4 376.5 214.3 365.2 223.2 356 234.5 355.7Z" stroke="#000000" stroke-width="10" stroke-linecap="round" stroke-linejoin="round" fill="none"/><path d="M398.4 466.7 372 511.9 308.6 524.4C308.6 524.4 314.4 498.6 319.5 493.2 324.6 487.8 375.1 461.1 398.4 465.9L398.4 466.7Z" stroke="#000000" stroke-width="10" stroke-linecap="round" stroke-linejoin="round" fill="none"/><path d="M410.1 485.8 401.2 471.1C401.2 471.1 349.7 471.6 315.3 498.1 315.3 498.1 246.6 456.1 201.2 441.9L190.2 459 309.8 521.4 410.1 485.8Z" stroke="#000000" stroke-width="10" stroke-linecap="round" stroke-linejoin="round" fill="none"/><path d="M284.7 634.1C299.2 626.4 342.2 609.1 342.2 609.1 353.1 581.4 415.9 484.7 415.9 484.7L413.4 481.5C413.4 481.5 357 486.2 323.9 502.2 323.9 502.2 315.5 507.1 304.8 502.1 294.1 497 210.8 455.6 185.2 452.4L166.4 592C166.4 592 252.5 624.7 261 631.2 268.1 636.6 280.7 636.2 284.7 634.1Z" stroke="#000000" stroke-width="10" stroke-linecap="round" stroke-linejoin="round" fill="none"/><path d="M347.3 545.8C354.7 556.1 342.5 563.5 342.7 572.3 351 570.7 359.4 571.2 365 566.4 354.6 584.1 345.7 600.2 342.1 609.1 342.1 609.1 327.6 615 312.5 621.4 296.6 619.9 281.2 614 267.5 613.1 235.2 610.4 202 600.7 168.5 592.9 167.1 592.3 166.2 592 166.2 592L172.1 548.1C233 567.5 299.6 597.4 347.3 545.8Z" stroke="#000000" stroke-width="10" stroke-linecap="round" stroke-linejoin="round" fill="none"/><path d="M304.8 502.1C315.6 507.2 323.9 502.2 323.9 502.2 326.6 500.9 329.5 499.6 332.5 498.4L285 634C284.9 634.1 284.8 634.1 284.7 634.2 280.7 636.3 268 636.7 261.1 631.3 261 631.2 260.9 631.2 260.8 631.1L295.8 497.8C300.1 499.8 303.2 501.3 304.8 502.1Z" stroke="#000000" stroke-width="10" stroke-linecap="round" stroke-linejoin="round" fill="none"/><path d="M187.6 449.6C205.9 451.8 296.2 495.6 305.7 500.4 315.2 505.3 323.8 501.4 323.8 501.4 364.8 482.9 413.4 481.5 413.4 481.5L415.9 484.7C415.9 484.7 384.6 482.2 323.6 504.7 323.6 504.7 315 510.2 303.7 502.9 303.7 502.9 211.1 457.3 184.9 452.4L187.6 449.6Z" stroke="#000000" stroke-width="10" stroke-linecap="round" stroke-linejoin="round" fill="none"/><path d="M395.9 462.8 398.4 466.7C383.9 467.8 334.4 473.5 315 501.3L311.9 498.9C331.6 470.7 378.4 464.2 395.9 462.8Z" stroke="#000000" stroke-width="10" stroke-linecap="round" stroke-linejoin="round" fill="none"/><path d="M250.9 563.9C267.8 568.9 280.9 572.4 280.9 572.4 291.8 568.3 298.4 567.7 310.1 565.8 319.6 564.1 325.5 560.8 331.9 554.3 336.4 549.7 340.4 541.2 347 540.1 357.1 545.5 338.3 558 337.4 568 350.9 572.3 360.5 558.3 372.8 556 377.3 569.6 356 577.4 346.8 581.3 356.4 578.6 356.7 576.5 366 572.6 363.8 587.2 356.6 588.7 344.1 592.1 352 590.1 354 589.6 362 587.2 362.8 593.8 356.2 598.4 349.2 600.8 346 601.3 342.9 602 339.8 602.7 342.4 602.6 345.8 602 349.2 600.8 351.8 600.4 354.4 600.1 357 600.1 362.5 610.8 327.5 616.3 315.1 615.4 301.2 614.3 285.4 607.4 271.4 603.1 271.4 603.1 259.6 602.1 242.8 599.1 243.9 587.1 246.7 575.3 250.9 563.9Z" stroke="#000000" stroke-width="10" stroke-linecap="round" stroke-linejoin="round" fill="none"/><path d="M250.9 563.9C267.8 568.9 280.9 572.4 280.9 572.4 291.8 568.3 298.4 567.7 310.1 565.8 319.6 564.1 325.5 560.8 331.9 554.3 336.4 549.7 340.4 541.2 347 540.1 357.1 545.5 338.3 558 337.4 568 350.9 572.3 360.5 558.3 372.8 556 377.3 569.6 356 577.4 346.8 581.3 356.4 578.6 356.7 576.5 366 572.6 363.8 587.2 356.6 588.7 344.1 592.1 352 590.1 354 589.6 362 587.2 362.8 593.8 356.2 598.4 349.2 600.8 346 601.3 342.9 602 339.8 602.7 342.4 602.6 345.8 602 349.2 600.8 351.8 600.4 354.4 600.1 357 600.1 362.5 610.8 327.5 616.3 315.1 615.4 301.2 614.3 285.4 607.4 271.4 603.1 271.4 603.1 259.6 602.1 242.8 599.1 243.9 587.1 246.7 575.3 250.9 563.9Z" stroke="#000000" stroke-width="10" stroke-linecap="round" stroke-linejoin="round" fill="none"/><path d="M243.5 593.2C243.9 593.4 244.2 593.7 244.6 593.9 255.9 599.6 268.8 596 279.3 601.1 295.5 608.8 311.8 615.1 329.9 613.5 336.1 612.9 342 611.9 347.9 610.4 337.8 614.1 322.5 615.8 315.1 615.3 301.2 614.2 285.4 607.3 271.4 603 271.4 603 259.6 602 242.8 599 243 597.1 243.2 595.1 243.5 593.2Z" stroke="#000000" stroke-width="10" stroke-linecap="round" stroke-linejoin="round" fill="none"/><path d="M243.5 593.2C243.9 593.4 244.2 593.7 244.6 593.9 255.9 599.6 268.8 596 279.3 601.1 295.5 608.8 311.8 615.1 329.9 613.5 336.1 612.9 342 611.9 347.9 610.4 337.8 614.1 322.5 615.8 315.1 615.3 301.2 614.2 285.4 607.3 271.4 603 271.4 603 259.6 602 242.8 599 243 597.1 243.2 595.1 243.5 593.2Z" stroke="#000000" stroke-width="10" stroke-linecap="round" stroke-linejoin="round" fill="none"/><path d="M139.3 492.7C141.1 460.7 144.6 430 144.8 428.7 146.1 417.5 156 409.5 166.9 410.8 177.8 412.1 185.7 422.3 184.4 433.5 179.6 475.3 176.6 525.7 178.8 544.4 196.4 549.1 240.7 558.5 284.9 567.4 282.1 581 279.3 594.5 279.4 608 236.7 599.5 168.5 585.3 156.2 580 140 572.9 139 551 138.4 539.3 137.9 527.6 138.2 511.9 139.3 492.7Z" stroke="#000000" stroke-width="10" stroke-linecap="round" stroke-linejoin="round" fill="none"/><path d="M28.8 224.7C30.2 238.8 75.8 362.8 16.1 333.7L16.1 333.7 16.1 333.7C29.2 354.6 56.4 374.2 81.6 357.5 86.8 377.6 69.1 390.4 51.8 390.5 86 401.4 117.6 401.5 146.9 379.7 144.3 384.7 146.4 390.9 143.9 397.4 174.7 389.6 213.9 387.4 231.2 355.6 264.8 360.3 320.3 378.6 349.3 353.6 344 347.8 340.1 340.2 337.7 332.5 360.2 352.5 394.6 333.3 417.2 323.2L417.2 323.2C370.2 326.2 341.7 262.4 341.5 229.1L28.8 224.7Z" stroke="#000000" stroke-width="10" stroke-linecap="round" stroke-linejoin="round" fill="none"/><path d="M28.8 224.7C30.2 238.8 75.8 362.8 16.1 333.7L16.1 333.7 16.1 333.7C29.2 354.6 56.4 374.2 81.6 357.5 86.8 377.6 69.1 390.4 51.8 390.5 86 401.4 117.6 401.5 146.9 379.7 144.3 384.7 146.4 390.9 143.9 397.4 174.7 389.6 213.9 387.4 231.2 355.6 264.8 360.3 320.3 378.6 349.3 353.6 344 347.8 340.1 340.2 337.7 332.5 360.2 352.5 394.6 333.3 417.2 323.2L417.2 323.2C370.2 326.2 341.7 262.4 341.5 229.1L28.8 224.7Z" stroke="#000000" stroke-width="10" stroke-linecap="round" stroke-linejoin="round" fill="none"/><path d="M339.7 167C338.2 160.2 337 153.4 336.4 146.5 333.6 130.7 329.3 115.5 317.3 103.1 294 77.9 261.9 61.1 225.6 64 161.9 69 97.6 89.8 67.6 148.6 46.9 185.5 57.4 230.6 76.4 266.9 73.1 267.7 70.1 269.1 67.6 271.3 52 283 50.6 308.2 65.2 323.1 71.8 330.8 80.2 339.5 91.8 342.8 100.9 344.3 112 342.2 118.9 336.6 136.4 352.7 153 367.9 182.8 372.8 243.2 379.4 313.3 369.6 350.2 313.8 380.2 265.4 350.8 217.2 339.7 167Z" stroke="#000000" stroke-width="10" stroke-linecap="round" stroke-linejoin="round" fill="none"/><path d="M124.9 295.8C120.1 276.8 118.2 257.1 114.9 237.7 169.1 263 226 213 241.1 162.6 248.1 184.2 246.7 215.6 221.3 225 272.9 221.4 313.1 166.3 309.6 115.9 320.1 125.2 328.9 136 336.4 147.6 336.4 147.3 336.3 146.9 336.3 146.6 333.5 130.8 329.2 115.6 317.2 103.2 293.9 78 261.8 61.2 225.5 64.1 161.9 69 97.6 89.8 67.6 148.6 46.9 185.5 57.4 230.6 76.4 266.9 76.1 267 75.8 267.1 75.4 267.2 94.6 269.7 112.5 281.3 124.9 295.8Z" stroke="#000000" stroke-width="10" stroke-linecap="round" stroke-linejoin="round" fill="none"/><path d="M268.1 264.7C266.5 268.9 265.4 273.4 268.5 276.9 270.3 278 273.6 272.5 276.1 270.3 273.7 267.6 270.5 266.4 268.1 264.7Z" stroke="#000000" stroke-width="10" stroke-linecap="round" stroke-linejoin="round" fill="none"/><path d="M242.5 343.4C244.6 346.3 247.2 348.7 251.2 349.6 255.9 350 258.5 347.8 260.6 344.1 254 347.5 247.7 346.6 242.5 343.4Z" stroke="#000000" stroke-width="10" stroke-linecap="round" stroke-linejoin="round" fill="none"/><path d="M354.1 217.5C376.1 172.2 356.9 112.2 356.9 112.2 326.7 8.7 268 37.4 268 37.4 208.1-19.4 101.8 49.8 101.8 49.8-34.9 135.1 22.9 279.3 55.1 294.7 68.8 252.5 110.7 282.1 110.7 282.1 105.4 261 106 223.1 106 223.1 142.2 278.3 247.3 168.3 243.6 117.2 243.6 117.2 258.7 205.2 220 208.8 220 208.8 300.7 206.9 299.4 105.3 299.4 105.3 333.9 136.9 338.5 167.3L354.1 217.5Z" stroke="#000000" stroke-width="10" stroke-linecap="round" stroke-linejoin="round" fill="none"/><path d="M354.1 217.5C376.1 172.2 356.9 112.2 356.9 112.2 326.7 8.7 268 37.4 268 37.4 208.1-19.4 101.8 49.8 101.8 49.8-34.9 135.1 22.9 279.3 55.1 294.7 68.8 252.5 110.7 282.1 110.7 282.1 105.4 261 106 223.1 106 223.1 142.2 278.3 247.3 168.3 243.6 117.2 243.6 117.2 258.7 205.2 220 208.8 220 208.8 300.7 206.9 299.4 105.3 299.4 105.3 333.9 136.9 338.5 167.3L354.1 217.5Z" stroke="#000000" stroke-width="10" stroke-linecap="round" stroke-linejoin="round" fill="none"/><path d="M120.8 126.6C122.6 125.5 126.4 125.1 128.5 125.9 142.7 132.3 150.3 151 165.7 150.4 197.6 151.2 225.5 120.3 228 88 206.7 106.6 181 129.5 149.9 117.9 137.8 113.2 135.2 97 126.9 91 119.4 84 106.1 95.9 94.5 95.1 84.8 95.1 75.7 90.1 72.8 80.7 71.9 78.1 71.2 75.4 70.9 72.8 48.4 93 33.9 115.2 25.4 137.4 56 149.8 92.3 143.2 120.8 126.6Z" stroke="#000000" stroke-width="10" stroke-linecap="round" stroke-linejoin="round" fill="none"/><path d="M120.8 126.6C122.6 125.5 126.4 125.1 128.5 125.9 142.7 132.3 150.3 151 165.7 150.4 197.6 151.2 225.5 120.3 228 88 206.7 106.6 181 129.5 149.9 117.9 137.8 113.2 135.2 97 126.9 91 119.4 84 106.1 95.9 94.5 95.1 84.8 95.1 75.7 90.1 72.8 80.7 71.9 78.1 71.2 75.4 70.9 72.8 48.4 93 33.9 115.2 25.4 137.4 56 149.8 92.3 143.2 120.8 126.6Z" stroke="#000000" stroke-width="10" stroke-linecap="round" stroke-linejoin="round" fill="none"/><path d="M333.5 147.2C334.1 154.1 335.3 160.9 336.8 167.7 335.6 160.9 334.7 154 333.5 147.2Z" stroke="#000000" stroke-width="10" stroke-linecap="round" stroke-linejoin="round" fill="none"/><path d="M154.1 241.1C149.5 224.9 159.6 204.8 176.5 201 179.5 200.3 178.5 195.7 175.5 196.4 156.3 200.7 144.3 223.3 149.6 242.1 150.3 245 154.9 244 154.1 241.1L154.1 241.1Z" stroke="#000000" stroke-width="10" stroke-linecap="round" stroke-linejoin="round" fill="none"/><path d="M295.6 165.2C311.4 159.7 324.7 165.7 328.3 180.3 328.9 182.7 332.8 180.6 332.2 178.2 328.3 162.1 313.1 155 295.6 161.1 293 162.1 293 166.1 295.6 165.2L295.6 165.2Z" stroke="#000000" stroke-width="10" stroke-linecap="round" stroke-linejoin="round" fill="none"/><path d="M310.8 199.9C313.4 201.9 315.1 206.2 315.2 209.7 315.3 213.6 313.6 218.5 310.2 218.8 309.6 218.8 309.1 218.3 309 217.6 308.7 214.8 309.9 212 310.3 209.3 310.7 206.2 310.2 203.1 310.6 200.1 310.6 199.9 310.7 199.8 310.8 199.9L310.8 199.9Z" stroke="#000000" stroke-width="10" stroke-linecap="round" stroke-linejoin="round" fill="none"/><path d="M290.8 235.6C292.6 249.4 301.5 259.9 310.7 259.2 319.9 258.4 325.9 246.7 324.1 232.9 322.3 219.1 313.4 208.6 304.2 209.4 295 210.1 289 221.9 290.8 235.6Z" stroke="#000000" stroke-width="10" stroke-linecap="round" stroke-linejoin="round" fill="none"/><path d="M305.9 254.8C299.7 254.4 294.4 246.3 294 236.8 293.6 227.3 298.3 220 304.5 220.5 310.7 220.9 316 229 316.4 238.4 316.8 247.9 312.1 255.2 305.9 254.8Z" stroke="#000000" stroke-width="10" stroke-linecap="round" stroke-linejoin="round" fill="none"/><path d="M304.8 248.9C301.2 248.6 298 243.9 297.8 238.3 297.6 232.7 300.4 228.4 304 228.6 307.7 228.9 310.8 233.6 311 239.2 311.2 244.9 308.4 249.2 304.8 248.9Z" stroke="#000000" stroke-width="10" stroke-linecap="round" stroke-linejoin="round" fill="none"/><path d="M299 236.2C297.4 236.3 296 234.3 295.9 231.6 295.8 228.9 296.9 226.6 298.5 226.5 300.1 226.3 301.5 228.4 301.6 231.1 301.7 233.8 300.6 236.1 299 236.2Z" stroke="#000000" stroke-width="10" stroke-linecap="round" stroke-linejoin="round" fill="none"/><path d="M307.9 240C311.2 240.3 313.7 242.6 315.6 245.5 314.1 251.3 310.4 255.1 305.8 254.8 305.7 254.8 305.6 254.8 305.4 254.7 305.1 251 303.9 246.9 303.5 243.8 303.3 241.5 305.6 239.6 307.9 240Z" stroke="#000000" stroke-width="10" stroke-linecap="round" stroke-linejoin="round" fill="none"/><path d="M195.5 222.8C198.1 224.7 199.7 228.8 199.8 232.2 199.9 235.9 198.1 240.7 194.6 241 194 241.1 193.5 240.5 193.4 239.8 193.1 237.1 194.4 234.4 194.8 231.8 195.3 228.8 194.8 225.8 195.2 222.9 195.3 222.9 195.4 222.8 195.5 222.8L195.5 222.8Z" stroke="#000000" stroke-width="10" stroke-linecap="round" stroke-linejoin="round" fill="none"/><path d="M174.8 257.5C176.4 270.7 185.3 280.8 194.6 279.9 203.9 279 210.2 267.6 208.6 254.4 207 241.2 198.1 231.2 188.8 232 179.4 232.9 173.1 244.3 174.8 257.5Z" stroke="#000000" stroke-width="10" stroke-linecap="round" stroke-linejoin="round" fill="none"/><path d="M190 275.5C183.8 275.2 178.5 267.5 178.2 258.4 177.9 249.3 182.8 242.1 189.1 242.5 195.3 242.8 200.6 250.5 200.9 259.6 201.2 268.7 196.3 275.9 190 275.5Z" stroke="#000000" stroke-width="10" stroke-linecap="round" stroke-linejoin="round" fill="none"/><path d="M190.4 269.7C186.7 269.5 183.6 264.9 183.4 259.6 183.3 254.2 186.1 250 189.8 250.2 193.5 250.4 196.6 255 196.8 260.3 196.9 265.7 194.1 269.9 190.4 269.7Z" stroke="#000000" stroke-width="10" stroke-linecap="round" stroke-linejoin="round" fill="none"/><path d="M184.8 256.9C183.2 257.1 181.8 255.1 181.7 252.5 181.6 249.9 182.8 247.7 184.4 247.5 186 247.3 187.4 249.3 187.5 251.9 187.6 254.5 186.4 256.8 184.8 256.9Z" stroke="#000000" stroke-width="10" stroke-linecap="round" stroke-linejoin="round" fill="none"/><path d="M192.3 261.2C195.7 261.5 198.1 263.6 200.1 266.4 198.5 272 194.7 275.7 190.1 275.5 190 275.5 189.9 275.5 189.8 275.4 189.6 271.8 188.4 267.9 188 264.9 187.6 262.7 189.9 260.9 192.3 261.2Z" stroke="#000000" stroke-width="10" stroke-linecap="round" stroke-linejoin="round" fill="none"/><path d="M76.6 291.7C71.1 293.8 69.4 301.2 69.8 307.9 71.4 301.7 75.1 295.5 80.7 295.7 85.8 295.7 89.6 297.6 92.7 300.5 88.9 299.3 85.4 296.4 81.8 299.1 78.6 302.1 76.3 307.2 77.7 311.9 80.3 304.9 88.9 300.5 95.4 303.6 96.9 304.3 98.2 305.4 99.4 306.9 98.8 306.8 98.2 306.7 97.6 306.6 93.9 306.3 90.3 307.7 92.3 310.8 93.7 313 98.7 312.9 99.3 316.1 100.6 321.4 93.3 323.5 88.7 321.8 94.1 325.5 101.3 324 104.9 319.2 105 319.1 105 318.9 105.1 318.8 106.3 320.6 107.5 322.3 108.8 323.8 106.9 307.3 97.1 283.9 76.6 291.7Z" stroke="#000000" stroke-width="10" stroke-linecap="round" stroke-linejoin="round" fill="none"/><path d="M76.6 291.7C71.1 293.8 69.4 301.2 69.8 307.9 71.4 301.7 75.1 295.5 80.7 295.7 85.8 295.7 89.6 297.6 92.7 300.5 88.9 299.3 85.4 296.4 81.8 299.1 78.6 302.1 76.3 307.2 77.7 311.9 80.3 304.9 88.9 300.5 95.4 303.6 96.9 304.3 98.2 305.4 99.4 306.9 98.8 306.8 98.2 306.7 97.6 306.6 93.9 306.3 90.3 307.7 92.3 310.8 93.7 313 98.7 312.9 99.3 316.1 100.6 321.4 93.3 323.5 88.7 321.8 94.1 325.5 101.3 324 104.9 319.2 105 319.1 105 318.9 105.1 318.8 106.3 320.6 107.5 322.3 108.8 323.8 106.9 307.3 97.1 283.9 76.6 291.7Z" stroke="#000000" stroke-width="10" stroke-linecap="round" stroke-linejoin="round" fill="none"/><path d="M465.6 486.9 509.6 421.1C509.6 421.1 588.8 381.4 600.3 377.9 608.2 375.5 602.3 370.1 583.8 370.4 591.5 367.8 598 364.6 597.2 361.7 596.3 358.1 585.1 358.6 571.4 362.6 575.5 358.3 578.9 353.7 577.2 351.7 573.7 347.4 528 375.9 526.4 377 524.9 376.9 523.6 376.6 522.9 376 519.1 372.9 535.7 342.4 524.9 342 514.1 341.5 506.5 365.2 506.5 365.2 506.5 365.2 478.9 381.1 477.9 404.7 477.3 419.2 438.1 468.7 438.1 468.7L465.6 486.9Z"/><path d="M522.3 374.2C522.3 375 522.5 375.7 522.9 376 523.6 376.6 524.9 376.9 526.4 377 528 375.8 573.6 347.4 577.2 351.7 578.9 353.7 575.5 358.3 571.4 362.6 585.1 358.6 596.3 358.1 597.2 361.7 598 364.7 591.4 367.8 583.8 370.4 602.3 370.1 608.2 375.5 600.5 377.9 581.3 374.2 561.3 381.3 543.2 390.3 530.1 384.9 515.5 390.6 503.7 396.1 511.4 389.8 519.1 383.4 522.3 374.2Z" opacity="0.44"/><path d="M438 468.6C438 468.6 459.3 441.7 470.7 421.8 479.4 428.6 491.8 432.1 503.2 430.7L465.6 486.9 438 468.6Z" opacity="0.44"/><path d="M273.7 403.4C280.5 393.5 294 390.8 303.9 397.5 348.9 427.7 402.2 461.6 425.4 473.9 435 460.9 451.4 437 466.1 414.6 476.1 425.1 487.6 434 500.1 441.6 454.7 510.4 447.4 515.2 443.8 517.5 430.7 526 417.1 519.1 396 507.2 383.7 500.3 367.3 490.3 347.2 477.5 313.2 456 279.8 433.5 279.4 433.3 269.5 426.7 266.9 413.3 273.7 403.4Z"/><path d="M330.3 827.7C334.1 795.3 336.7 762.5 338.6 729.7 340.3 699.6 342.6 668.8 339 638.9L164.1 633.3C152.9 667.1 143.3 727.8 158.5 827.7L330.3 827.7Z"/><path d="M180.8 827.7C179.6 825.1 178.6 822.4 177.8 819.5 166 779.4 159.2 726.9 190.3 697.9 204.1 685.2 249.3 715.6 259 681.9 257.4 687.2 255.8 694.3 254.2 699.6 282.8 697.2 315.7 693.3 340.9 675.4 340.9 674.3 340.9 673.3 340.9 672.2 318.3 682.8 293.2 688.2 267.4 689.5L264.3 654.1 251.2 689.7C218.4 689.2 185.1 682.4 155 671.2 149.3 706.9 147.7 757.7 158.4 827.7L180.8 827.7Z"/><path d="M194.1 530.5C188.5 516.5 118.8 443.2 156.7 408.7 194.6 374.2 279.6 389.2 279.6 389.2 318.7 393.3 332.5 423.7 329.7 462.4 327.8 485.6 318 506.5 313.4 529.8 309 555.7 318.5 572.1 328.2 595 337.9 620 340.7 646 340.8 672.3 318.2 682.9 293.1 688.3 267.3 689.6L264.2 654.2 251.1 689.8C218.3 689.3 185 682.5 154.9 671.3 163.5 617.6 181.5 597.8 181.5 597.8 209.2 560.9 199.7 544.5 194.1 530.5Z"/><path d="M194.1 530.5C188.5 516.5 118.8 443.2 156.7 408.7 194.6 374.2 279.6 389.2 279.6 389.2 318.7 393.3 332.5 423.7 329.7 462.4 327.8 485.6 318 506.5 313.4 529.8 309 555.7 318.5 572.1 328.2 595 337.9 620 340.7 646 340.8 672.3 318.2 682.9 293.1 688.3 267.3 689.6L264.2 654.2 251.1 689.8C218.3 689.3 185 682.5 154.9 671.3 163.5 617.6 181.5 597.8 181.5 597.8 209.2 560.9 199.7 544.5 194.1 530.5Z"/><path d="M321.9 580.2C323.9 584.9 326.1 589.7 328.3 594.9 331 601.8 333.1 608.9 334.9 615.9 311.1 630.6 285.8 651.1 258.1 646.7 227.9 641.3 200.9 625.4 172.6 612.5 177.8 602.1 181.9 597.6 181.9 597.6 186.9 590.9 190.7 584.9 193.5 579.4 235.1 594.1 281.6 597.1 321.9 580.2Z"/><path d="M249 421.2C227.3 421.3 204.2 409.2 197 389.6 226.6 383.6 259 386.3 273.9 388.2 275.2 404.2 266.9 421.1 249 421.2Z"/><path d="M289.2 426.9C287.2 434.7 275.2 438.6 265.1 436.7 257.2 434.2 251.9 428.3 249.1 421.2 266.9 421.1 275.1 404.2 273.9 388.2 279.3 388.9 282.4 389.4 282.4 389.4 282.7 389.4 283 389.5 283.2 389.5 291 400.5 294 414.3 289.2 426.9Z"/><path d="M214.9 444.6C189.2 437.4 187.3 413.6 188.8 391.5 191.5 390.8 194.2 390.1 197 389.5 204 408.5 225.8 420.3 246.8 421 244.2 435.6 230.3 447.9 214.9 444.6Z"/><path d="M214.6 385.8C214.9 397.2 224.5 406.1 235.9 405.8L235.9 405.8C247.4 405.5 256.4 396 256.1 384.7L255.8 375.7C255.5 364.3 245.9 355.4 234.5 355.7L234.5 355.7C223 356 214 365.5 214.3 376.8L214.6 385.8Z"/><path d="M234.5 355.7C246 355.4 255.5 364.3 255.8 375.7L256.1 384.7C256.1 385.1 256.1 385.6 256.1 386.1 241.9 385 227.7 381.8 214.4 376.5 214.3 365.2 223.2 356 234.5 355.7Z" opacity="0.89"/><path d="M398.4 466.7 372 511.9 308.6 524.4C308.6 524.4 314.4 498.6 319.5 493.2 324.6 487.8 375.1 461.1 398.4 465.9L398.4 466.7Z"/><path d="M410.1 485.8 401.2 471.1C401.2 471.1 349.7 471.6 315.3 498.1 315.3 498.1 246.6 456.1 201.2 441.9L190.2 459 309.8 521.4 410.1 485.8Z"/><path d="M284.7 634.1C299.2 626.4 342.2 609.1 342.2 609.1 353.1 581.4 415.9 484.7 415.9 484.7L413.4 481.5C413.4 481.5 357 486.2 323.9 502.2 323.9 502.2 315.5 507.1 304.8 502.1 294.1 497 210.8 455.6 185.2 452.4L166.4 592C166.4 592 252.5 624.7 261 631.2 268.1 636.6 280.7 636.2 284.7 634.1Z"/><path d="M347.3 545.8C354.7 556.1 342.5 563.5 342.7 572.3 351 570.7 359.4 571.2 365 566.4 354.6 584.1 345.7 600.2 342.1 609.1 342.1 609.1 327.6 615 312.5 621.4 296.6 619.9 281.2 614 267.5 613.1 235.2 610.4 202 600.7 168.5 592.9 167.1 592.3 166.2 592 166.2 592L172.1 548.1C233 567.5 299.6 597.4 347.3 545.8Z" opacity="0.33"/><path d="M304.8 502.1C315.6 507.2 323.9 502.2 323.9 502.2 326.6 500.9 329.5 499.6 332.5 498.4L285 634C284.9 634.1 284.8 634.1 284.7 634.2 280.7 636.3 268 636.7 261.1 631.3 261 631.2 260.9 631.2 260.8 631.1L295.8 497.8C300.1 499.8 303.2 501.3 304.8 502.1Z"/><path d="M187.6 449.6C205.9 451.8 296.2 495.6 305.7 500.4 315.2 505.3 323.8 501.4 323.8 501.4 364.8 482.9 413.4 481.5 413.4 481.5L415.9 484.7C415.9 484.7 384.6 482.2 323.6 504.7 323.6 504.7 315 510.2 303.7 502.9 303.7 502.9 211.1 457.3 184.9 452.4L187.6 449.6Z"/><path d="M395.9 462.8 398.4 466.7C383.9 467.8 334.4 473.5 315 501.3L311.9 498.9C331.6 470.7 378.4 464.2 395.9 462.8Z"/><path d="M250.9 563.9C267.8 568.9 280.9 572.4 280.9 572.4 291.8 568.3 298.4 567.7 310.1 565.8 319.6 564.1 325.5 560.8 331.9 554.3 336.4 549.7 340.4 541.2 347 540.1 357.1 545.5 338.3 558 337.4 568 350.9 572.3 360.5 558.3 372.8 556 377.3 569.6 356 577.4 346.8 581.3 356.4 578.6 356.7 576.5 366 572.6 363.8 587.2 356.6 588.7 344.1 592.1 352 590.1 354 589.6 362 587.2 362.8 593.8 356.2 598.4 349.2 600.8 346 601.3 342.9 602 339.8 602.7 342.4 602.6 345.8 602 349.2 600.8 351.8 600.4 354.4 600.1 357 600.1 362.5 610.8 327.5 616.3 315.1 615.4 301.2 614.3 285.4 607.4 271.4 603.1 271.4 603.1 259.6 602.1 242.8 599.1 243.9 587.1 246.7 575.3 250.9 563.9Z"/><path d="M243.5 593.2C243.9 593.4 244.2 593.7 244.6 593.9 255.9 599.6 268.8 596 279.3 601.1 295.5 608.8 311.8 615.1 329.9 613.5 336.1 612.9 342 611.9 347.9 610.4 337.8 614.1 322.5 615.8 315.1 615.3 301.2 614.2 285.4 607.3 271.4 603 271.4 603 259.6 602 242.8 599 243 597.1 243.2 595.1 243.5 593.2Z"/><path d="M139.3 492.7C141.1 460.7 144.6 430 144.8 428.7 146.1 417.5 156 409.5 166.9 410.8 177.8 412.1 185.7 422.3 184.4 433.5 179.6 475.3 176.6 525.7 178.8 544.4 196.4 549.1 240.7 558.5 284.9 567.4 282.1 581 279.3 594.5 279.4 608 236.7 599.5 168.5 585.3 156.2 580 140 572.9 139 551 138.4 539.3 137.9 527.6 138.2 511.9 139.3 492.7Z"/><path d="M28.8 224.7C30.2 238.8 75.8 362.8 16.1 333.7L16.1 333.7 16.1 333.7C29.2 354.6 56.4 374.2 81.6 357.5 86.8 377.6 69.1 390.4 51.8 390.5 86 401.4 117.6 401.5 146.9 379.7 144.3 384.7 146.4 390.9 143.9 397.4 174.7 389.6 213.9 387.4 231.2 355.6 264.8 360.3 320.3 378.6 349.3 353.6 344 347.8 340.1 340.2 337.7 332.5 360.2 352.5 394.6 333.3 417.2 323.2L417.2 323.2C370.2 326.2 341.7 262.4 341.5 229.1L28.8 224.7Z"/><path d="M339.7 167C338.2 160.2 337 153.4 336.4 146.5 333.6 130.7 329.3 115.5 317.3 103.1 294 77.9 261.9 61.1 225.6 64 161.9 69 97.6 89.8 67.6 148.6 46.9 185.5 57.4 230.6 76.4 266.9 73.1 267.7 70.1 269.1 67.6 271.3 52 283 50.6 308.2 65.2 323.1 71.8 330.8 80.2 339.5 91.8 342.8 100.9 344.3 112 342.2 118.9 336.6 136.4 352.7 153 367.9 182.8 372.8 243.2 379.4 313.3 369.6 350.2 313.8 380.2 265.4 350.8 217.2 339.7 167Z"/><path d="M124.9 295.8C120.1 276.8 118.2 257.1 114.9 237.7 169.1 263 226 213 241.1 162.6 248.1 184.2 246.7 215.6 221.3 225 272.9 221.4 313.1 166.3 309.6 115.9 320.1 125.2 328.9 136 336.4 147.6 336.4 147.3 336.3 146.9 336.3 146.6 333.5 130.8 329.2 115.6 317.2 103.2 293.9 78 261.8 61.2 225.5 64.1 161.9 69 97.6 89.8 67.6 148.6 46.9 185.5 57.4 230.6 76.4 266.9 76.1 267 75.8 267.1 75.4 267.2 94.6 269.7 112.5 281.3 124.9 295.8Z" opacity="0.89"/><path d="M268.1 264.7C266.5 268.9 265.4 273.4 268.5 276.9 270.3 278 273.6 272.5 276.1 270.3 273.7 267.6 270.5 266.4 268.1 264.7Z" opacity="0.89"/><path d="M242.5 343.4C244.6 346.3 247.2 348.7 251.2 349.6 255.9 350 258.5 347.8 260.6 344.1 254 347.5 247.7 346.6 242.5 343.4Z" opacity="0.89"/><path d="M354.1 217.5C376.1 172.2 356.9 112.2 356.9 112.2 326.7 8.7 268 37.4 268 37.4 208.1-19.4 101.8 49.8 101.8 49.8-34.9 135.1 22.9 279.3 55.1 294.7 68.8 252.5 110.7 282.1 110.7 282.1 105.4 261 106 223.1 106 223.1 142.2 278.3 247.3 168.3 243.6 117.2 243.6 117.2 258.7 205.2 220 208.8 220 208.8 300.7 206.9 299.4 105.3 299.4 105.3 333.9 136.9 338.5 167.3L354.1 217.5Z"/><path d="M120.8 126.6C122.6 125.5 126.4 125.1 128.5 125.9 142.7 132.3 150.3 151 165.7 150.4 197.6 151.2 225.5 120.3 228 88 206.7 106.6 181 129.5 149.9 117.9 137.8 113.2 135.2 97 126.9 91 119.4 84 106.1 95.9 94.5 95.1 84.8 95.1 75.7 90.1 72.8 80.7 71.9 78.1 71.2 75.4 70.9 72.8 48.4 93 33.9 115.2 25.4 137.4 56 149.8 92.3 143.2 120.8 126.6Z"/><path d="M333.5 147.2C334.1 154.1 335.3 160.9 336.8 167.7 335.6 160.9 334.7 154 333.5 147.2Z" opacity="0.3"/><path d="M154.1 241.1C149.5 224.9 159.6 204.8 176.5 201 179.5 200.3 178.5 195.7 175.5 196.4 156.3 200.7 144.3 223.3 149.6 242.1 150.3 245 154.9 244 154.1 241.1L154.1 241.1Z"/><path d="M295.6 165.2C311.4 159.7 324.7 165.7 328.3 180.3 328.9 182.7 332.8 180.6 332.2 178.2 328.3 162.1 313.1 155 295.6 161.1 293 162.1 293 166.1 295.6 165.2L295.6 165.2Z"/><path d="M310.8 199.9C313.4 201.9 315.1 206.2 315.2 209.7 315.3 213.6 313.6 218.5 310.2 218.8 309.6 218.8 309.1 218.3 309 217.6 308.7 214.8 309.9 212 310.3 209.3 310.7 206.2 310.2 203.1 310.6 200.1 310.6 199.9 310.7 199.8 310.8 199.9L310.8 199.9Z"/><path d="M290.8 235.6C292.6 249.4 301.5 259.9 310.7 259.2 319.9 258.4 325.9 246.7 324.1 232.9 322.3 219.1 313.4 208.6 304.2 209.4 295 210.1 289 221.9 290.8 235.6Z"/><path d="M305.9 254.8C299.7 254.4 294.4 246.3 294 236.8 293.6 227.3 298.3 220 304.5 220.5 310.7 220.9 316 229 316.4 238.4 316.8 247.9 312.1 255.2 305.9 254.8Z"/><path d="M304.8 248.9C301.2 248.6 298 243.9 297.8 238.3 297.6 232.7 300.4 228.4 304 228.6 307.7 228.9 310.8 233.6 311 239.2 311.2 244.9 308.4 249.2 304.8 248.9Z"/><path d="M299 236.2C297.4 236.3 296 234.3 295.9 231.6 295.8 228.9 296.9 226.6 298.5 226.5 300.1 226.3 301.5 228.4 301.6 231.1 301.7 233.8 300.6 236.1 299 236.2Z"/><path d="M307.9 240C311.2 240.3 313.7 242.6 315.6 245.5 314.1 251.3 310.4 255.1 305.8 254.8 305.7 254.8 305.6 254.8 305.4 254.7 305.1 251 303.9 246.9 303.5 243.8 303.3 241.5 305.6 239.6 307.9 240Z" opacity="0.7"/><path d="M195.5 222.8C198.1 224.7 199.7 228.8 199.8 232.2 199.9 235.9 198.1 240.7 194.6 241 194 241.1 193.5 240.5 193.4 239.8 193.1 237.1 194.4 234.4 194.8 231.8 195.3 228.8 194.8 225.8 195.2 222.9 195.3 222.9 195.4 222.8 195.5 222.8L195.5 222.8Z"/><path d="M174.8 257.5C176.4 270.7 185.3 280.8 194.6 279.9 203.9 279 210.2 267.6 208.6 254.4 207 241.2 198.1 231.2 188.8 232 179.4 232.9 173.1 244.3 174.8 257.5Z"/><path d="M190 275.5C183.8 275.2 178.5 267.5 178.2 258.4 177.9 249.3 182.8 242.1 189.1 242.5 195.3 242.8 200.6 250.5 200.9 259.6 201.2 268.7 196.3 275.9 190 275.5Z"/><path d="M190.4 269.7C186.7 269.5 183.6 264.9 183.4 259.6 183.3 254.2 186.1 250 189.8 250.2 193.5 250.4 196.6 255 196.8 260.3 196.9 265.7 194.1 269.9 190.4 269.7Z"/><path d="M184.8 256.9C183.2 257.1 181.8 255.1 181.7 252.5 181.6 249.9 182.8 247.7 184.4 247.5 186 247.3 187.4 249.3 187.5 251.9 187.6 254.5 186.4 256.8 184.8 256.9Z"/><path d="M192.3 261.2C195.7 261.5 198.1 263.6 200.1 266.4 198.5 272 194.7 275.7 190.1 275.5 190 275.5 189.9 275.5 189.8 275.4 189.6 271.8 188.4 267.9 188 264.9 187.6 262.7 189.9 260.9 192.3 261.2Z" opacity="0.7"/><path d="M76.6 291.7C71.1 293.8 69.4 301.2 69.8 307.9 71.4 301.7 75.1 295.5 80.7 295.7 85.8 295.7 89.6 297.6 92.7 300.5 88.9 299.3 85.4 296.4 81.8 299.1 78.6 302.1 76.3 307.2 77.7 311.9 80.3 304.9 88.9 300.5 95.4 303.6 96.9 304.3 98.2 305.4 99.4 306.9 98.8 306.8 98.2 306.7 97.6 306.6 93.9 306.3 90.3 307.7 92.3 310.8 93.7 313 98.7 312.9 99.3 316.1 100.6 321.4 93.3 323.5 88.7 321.8 94.1 325.5 101.3 324 104.9 319.2 105 319.1 105 318.9 105.1 318.8 106.3 320.6 107.5 322.3 108.8 323.8 106.9 307.3 97.1 283.9 76.6 291.7Z"/></g><g><g><g><path d="M455.6 476.9 499.6 411.1C499.6 411.1 578.8 371.4 590.3 367.9 598.2 365.5 592.3 360.1 573.8 360.4 581.5 357.8 588 354.6 587.2 351.7 586.3 348.1 575.1 348.6 561.4 352.6 565.5 348.3 568.9 343.7 567.2 341.7 563.7 337.4 518 365.9 516.4 367 514.9 366.9 513.6 366.6 512.9 366 509.1 362.9 525.7 332.4 514.9 332 504.1 331.5 496.5 355.2 496.5 355.2 496.5 355.2 468.9 371.1 467.9 394.7 467.3 409.2 428.1 458.7 428.1 458.7L455.6 476.9Z" stroke="#FFFFFF" stroke-width="10" stroke-linecap="round" stroke-linejoin="round" fill="none"/><path d="M512.3 364.2C512.3 365 512.5 365.7 512.9 366 513.6 366.6 514.9 366.9 516.4 367 518 365.8 563.6 337.4 567.2 341.7 568.9 343.7 565.5 348.3 561.4 352.6 575.1 348.6 586.3 348.1 587.2 351.7 588 354.7 581.4 357.8 573.8 360.4 592.3 360.1 598.2 365.5 590.5 367.9 571.3 364.2 551.3 371.3 533.2 380.3 520.1 374.9 505.5 380.6 493.7 386.1 501.4 379.8 509.1 373.4 512.3 364.2Z" stroke="#FFFFFF" stroke-width="10" stroke-linecap="round" stroke-linejoin="round" fill="none"/><path d="M428 458.6C428 458.6 449.3 431.7 460.7 411.8 469.4 418.6 481.8 422.1 493.2 420.7L455.6 476.9 428 458.6Z" stroke="#FFFFFF" stroke-width="10" stroke-linecap="round" stroke-linejoin="round" fill="none"/><path d="M263.7 393.4C270.5 383.5 284 380.8 293.9 387.5 338.9 417.7 392.2 451.6 415.4 463.9 425 450.9 441.4 427 456.1 404.6 466.1 415.1 477.6 424 490.1 431.6 444.7 500.4 437.4 505.2 433.8 507.5 420.7 516 407.1 509.1 386 497.2 373.7 490.3 357.3 480.3 337.2 467.5 303.2 446 269.8 423.5 269.4 423.3 259.5 416.7 256.9 403.3 263.7 393.4Z" stroke="#FFFFFF" stroke-width="10" stroke-linecap="round" stroke-linejoin="round" fill="none"/><g><path d="M320.3 817.7C324.1 785.3 326.7 752.5 328.6 719.7 330.3 689.6 332.6 658.8 329 628.9L154.1 623.3C142.9 657.1 133.3 717.8 148.5 817.7L320.3 817.7Z" stroke="#FFFFFF" stroke-width="10" stroke-linecap="round" stroke-linejoin="round" fill="none"/><path d="M320.3 817.7C324.1 785.3 326.7 752.5 328.6 719.7 330.3 689.6 332.6 658.8 329 628.9L154.1 623.3C142.9 657.1 133.3 717.8 148.5 817.7L320.3 817.7Z" stroke="#FFFFFF" stroke-width="10" stroke-linecap="round" stroke-linejoin="round" fill="none"/></g><g><path d="M170.8 817.7C169.6 815.1 168.6 812.4 167.8 809.5 156 769.4 149.2 716.9 180.3 687.9 194.1 675.2 239.3 705.6 249 671.9 247.4 677.2 245.8 684.3 244.2 689.6 272.8 687.2 305.7 683.3 330.9 665.4 330.9 664.3 330.9 663.3 330.9 662.2 308.3 672.8 283.2 678.2 257.4 679.5L254.3 644.1 241.2 679.7C208.4 679.2 175.1 672.4 145 661.2 139.3 696.9 137.7 747.7 148.4 817.7L170.8 817.7Z" stroke="#FFFFFF" stroke-width="10" stroke-linecap="round" stroke-linejoin="round" fill="none"/><path d="M170.8 817.7C169.6 815.1 168.6 812.4 167.8 809.5 156 769.4 149.2 716.9 180.3 687.9 194.1 675.2 239.3 705.6 249 671.9 247.4 677.2 245.8 684.3 244.2 689.6 272.8 687.2 305.7 683.3 330.9 665.4 330.9 664.3 330.9 663.3 330.9 662.2 308.3 672.8 283.2 678.2 257.4 679.5L254.3 644.1 241.2 679.7C208.4 679.2 175.1 672.4 145 661.2 139.3 696.9 137.7 747.7 148.4 817.7L170.8 817.7Z" stroke="#FFFFFF" stroke-width="10" stroke-linecap="round" stroke-linejoin="round" fill="none"/></g><g><path d="M184.1 520.5C178.5 506.5 108.8 433.2 146.7 398.7 184.6 364.2 269.6 379.2 269.6 379.2 308.7 383.3 322.5 413.7 319.7 452.4 317.8 475.6 308 496.5 303.4 519.8 299 545.7 308.5 562.1 318.2 585 327.9 610 330.7 636 330.8 662.3 308.2 672.9 283.1 678.3 257.3 679.6L254.2 644.2 241.1 679.8C208.3 679.3 175 672.5 144.9 661.3 153.5 607.6 171.5 587.8 171.5 587.8 199.2 550.9 189.7 534.5 184.1 520.5Z" stroke="#FFFFFF" stroke-width="10" stroke-linecap="round" stroke-linejoin="round" fill="none"/><path d="M184.1 520.5C178.5 506.5 108.8 433.2 146.7 398.7 184.6 364.2 269.6 379.2 269.6 379.2 308.7 383.3 322.5 413.7 319.7 452.4 317.8 475.6 308 496.5 303.4 519.8 299 545.7 308.5 562.1 318.2 585 327.9 610 330.7 636 330.8 662.3 308.2 672.9 283.1 678.3 257.3 679.6L254.2 644.2 241.1 679.8C208.3 679.3 175 672.5 144.9 661.3 153.5 607.6 171.5 587.8 171.5 587.8 199.2 550.9 189.7 534.5 184.1 520.5Z" stroke="#FFFFFF" stroke-width="10" stroke-linecap="round" stroke-linejoin="round" fill="none"/></g><g><path d="M184.1 520.5C178.5 506.5 108.8 433.2 146.7 398.7 184.6 364.2 269.6 379.2 269.6 379.2 308.7 383.3 322.5 413.7 319.7 452.4 317.8 475.6 308 496.5 303.4 519.8 299 545.7 308.5 562.1 318.2 585 327.9 610 330.7 636 330.8 662.3 308.2 672.9 283.1 678.3 257.3 679.6L254.2 644.2 241.1 679.8C208.3 679.3 175 672.5 144.9 661.3 153.5 607.6 171.5 587.8 171.5 587.8 199.2 550.9 189.7 534.5 184.1 520.5Z" stroke="#FFFFFF" stroke-width="10" stroke-linecap="round" stroke-linejoin="round" fill="none"/><path d="M184.1 520.5C178.5 506.5 108.8 433.2 146.7 398.7 184.6 364.2 269.6 379.2 269.6 379.2 308.7 383.3 322.5 413.7 319.7 452.4 317.8 475.6 308 496.5 303.4 519.8 299 545.7 308.5 562.1 318.2 585 327.9 610 330.7 636 330.8 662.3 308.2 672.9 283.1 678.3 257.3 679.6L254.2 644.2 241.1 679.8C208.3 679.3 175 672.5 144.9 661.3 153.5 607.6 171.5 587.8 171.5 587.8 199.2 550.9 189.7 534.5 184.1 520.5Z" stroke="#FFFFFF" stroke-width="10" stroke-linecap="round" stroke-linejoin="round" fill="none"/></g><g><path d="M311.9 570.2C313.9 574.9 316.1 579.7 318.3 584.9 321 591.8 323.1 598.9 324.9 605.9 301.1 620.6 275.8 641.1 248.1 636.7 217.9 631.3 190.9 615.4 162.6 602.5 167.8 592.1 171.9 587.6 171.9 587.6 176.9 580.9 180.7 574.9 183.5 569.4 225.1 584.1 271.6 587.1 311.9 570.2Z" stroke="#FFFFFF" stroke-width="10" stroke-linecap="round" stroke-linejoin="round" fill="none"/><path d="M311.9 570.2C313.9 574.9 316.1 579.7 318.3 584.9 321 591.8 323.1 598.9 324.9 605.9 301.1 620.6 275.8 641.1 248.1 636.7 217.9 631.3 190.9 615.4 162.6 602.5 167.8 592.1 171.9 587.6 171.9 587.6 176.9 580.9 180.7 574.9 183.5 569.4 225.1 584.1 271.6 587.1 311.9 570.2Z" stroke="#FFFFFF" stroke-width="10" stroke-linecap="round" stroke-linejoin="round" fill="none"/></g><g><path d="M239 411.2C217.3 411.3 194.2 399.2 187 379.6 216.6 373.6 249 376.3 263.9 378.2 265.2 394.2 256.9 411.1 239 411.2Z" stroke="#FFFFFF" stroke-width="10" stroke-linecap="round" stroke-linejoin="round" fill="none"/><path d="M239 411.2C217.3 411.3 194.2 399.2 187 379.6 216.6 373.6 249 376.3 263.9 378.2 265.2 394.2 256.9 411.1 239 411.2Z" stroke="#FFFFFF" stroke-width="10" stroke-linecap="round" stroke-linejoin="round" fill="none"/></g><g><path d="M279.2 416.9C277.2 424.7 265.2 428.6 255.1 426.7 247.2 424.2 241.9 418.3 239.1 411.2 256.9 411.1 265.1 394.2 263.9 378.2 269.3 378.9 272.4 379.4 272.4 379.4 272.7 379.4 273 379.5 273.2 379.5 281 390.5 284 404.3 279.2 416.9Z" stroke="#FFFFFF" stroke-width="10" stroke-linecap="round" stroke-linejoin="round" fill="none"/><path d="M279.2 416.9C277.2 424.7 265.2 428.6 255.1 426.7 247.2 424.2 241.9 418.3 239.1 411.2 256.9 411.1 265.1 394.2 263.9 378.2 269.3 378.9 272.4 379.4 272.4 379.4 272.7 379.4 273 379.5 273.2 379.5 281 390.5 284 404.3 279.2 416.9Z" stroke="#FFFFFF" stroke-width="10" stroke-linecap="round" stroke-linejoin="round" fill="none"/></g><g><path d="M204.9 434.6C179.2 427.4 177.3 403.6 178.8 381.5 181.5 380.8 184.2 380.1 187 379.5 194 398.5 215.8 410.3 236.8 411 234.2 425.6 220.3 437.9 204.9 434.6Z" stroke="#FFFFFF" stroke-width="10" stroke-linecap="round" stroke-linejoin="round" fill="none"/><path d="M204.9 434.6C179.2 427.4 177.3 403.6 178.8 381.5 181.5 380.8 184.2 380.1 187 379.5 194 398.5 215.8 410.3 236.8 411 234.2 425.6 220.3 437.9 204.9 434.6Z" stroke="#FFFFFF" stroke-width="10" stroke-linecap="round" stroke-linejoin="round" fill="none"/></g><path d="M204.6 375.8C204.9 387.2 214.5 396.1 225.9 395.8L225.9 395.8C237.4 395.5 246.4 386 246.1 374.7L245.8 365.7C245.5 354.3 235.9 345.4 224.5 345.7L224.5 345.7C213 346 204 355.5 204.3 366.8L204.6 375.8Z" stroke="#FFFFFF" stroke-width="10" stroke-linecap="round" stroke-linejoin="round" fill="none"/><path d="M224.5 345.7C236 345.4 245.5 354.3 245.8 365.7L246.1 374.7C246.1 375.1 246.1 375.6 246.1 376.1 231.9 375 217.7 371.8 204.4 366.5 204.3 355.2 213.2 346 224.5 345.7Z" stroke="#FFFFFF" stroke-width="10" stroke-linecap="round" stroke-linejoin="round" fill="none"/><g><path d="M388.4 456.7 362 501.9 298.6 514.4C298.6 514.4 304.4 488.6 309.5 483.2 314.6 477.8 365.1 451.1 388.4 455.9L388.4 456.7Z" stroke="#FFFFFF" stroke-width="10" stroke-linecap="round" stroke-linejoin="round" fill="none"/><path d="M400.1 475.8 391.2 461.1C391.2 461.1 339.7 461.6 305.3 488.1 305.3 488.1 236.6 446.1 191.2 431.9L180.2 449 299.8 511.4 400.1 475.8Z" stroke="#FFFFFF" stroke-width="10" stroke-linecap="round" stroke-linejoin="round" fill="none"/><path d="M274.7 624.1C289.2 616.4 332.2 599.1 332.2 599.1 343.1 571.4 405.9 474.7 405.9 474.7L403.4 471.5C403.4 471.5 347 476.2 313.9 492.2 313.9 492.2 305.5 497.1 294.8 492.1 284.1 487 200.8 445.6 175.2 442.4L156.4 582C156.4 582 242.5 614.7 251 621.2 258.1 626.6 270.7 626.2 274.7 624.1Z" stroke="#FFFFFF" stroke-width="10" stroke-linecap="round" stroke-linejoin="round" fill="none"/><path d="M337.3 535.8C344.7 546.1 332.5 553.5 332.7 562.3 341 560.7 349.4 561.2 355 556.4 344.6 574.1 335.7 590.2 332.1 599.1 332.1 599.1 317.6 605 302.5 611.4 286.6 609.9 271.2 604 257.5 603.1 225.2 600.4 192 590.7 158.5 582.9 157.1 582.3 156.2 582 156.2 582L162.1 538.1C223 557.5 289.6 587.4 337.3 535.8Z" stroke="#FFFFFF" stroke-width="10" stroke-linecap="round" stroke-linejoin="round" fill="none"/><path d="M294.8 492.1C305.6 497.2 313.9 492.2 313.9 492.2 316.6 490.9 319.5 489.6 322.5 488.4L275 624C274.9 624.1 274.8 624.1 274.7 624.2 270.7 626.3 258 626.7 251.1 621.3 251 621.2 250.9 621.2 250.8 621.1L285.8 487.8C290.1 489.8 293.2 491.3 294.8 492.1Z" stroke="#FFFFFF" stroke-width="10" stroke-linecap="round" stroke-linejoin="round" fill="none"/><path d="M177.6 439.6C195.9 441.8 286.2 485.6 295.7 490.4 305.2 495.3 313.8 491.4 313.8 491.4 354.8 472.9 403.4 471.5 403.4 471.5L405.9 474.7C405.9 474.7 374.6 472.2 313.6 494.7 313.6 494.7 305 500.2 293.7 492.9 293.7 492.9 201.1 447.3 174.9 442.4L177.6 439.6Z" stroke="#FFFFFF" stroke-width="10" stroke-linecap="round" stroke-linejoin="round" fill="none"/><g><path d="M385.9 452.8 388.4 456.7C373.9 457.8 324.4 463.5 305 491.3L301.9 488.9C321.6 460.7 368.4 454.2 385.9 452.8Z" stroke="#FFFFFF" stroke-width="10" stroke-linecap="round" stroke-linejoin="round" fill="none"/></g></g><g><g><g><path d="M240.9 553.9C257.8 558.9 270.9 562.4 270.9 562.4 281.8 558.3 288.4 557.7 300.1 555.8 309.6 554.1 315.5 550.8 321.9 544.3 326.4 539.7 330.4 531.2 337 530.1 347.1 535.5 328.3 548 327.4 558 340.9 562.3 350.5 548.3 362.8 546 367.3 559.6 346 567.4 336.8 571.3 346.4 568.6 346.7 566.5 356 562.6 353.8 577.2 346.6 578.7 334.1 582.1 342 580.1 344 579.6 352 577.2 352.8 583.8 346.2 588.4 339.2 590.8 336 591.3 332.9 592 329.8 592.7 332.4 592.6 335.8 592 339.2 590.8 341.8 590.4 344.4 590.1 347 590.1 352.5 600.8 317.5 606.3 305.1 605.4 291.2 604.3 275.4 597.4 261.4 593.1 261.4 593.1 249.6 592.1 232.8 589.1 233.9 577.1 236.7 565.3 240.9 553.9Z" stroke="#FFFFFF" stroke-width="10" stroke-linecap="round" stroke-linejoin="round" fill="none"/><path d="M240.9 553.9C257.8 558.9 270.9 562.4 270.9 562.4 281.8 558.3 288.4 557.7 300.1 555.8 309.6 554.1 315.5 550.8 321.9 544.3 326.4 539.7 330.4 531.2 337 530.1 347.1 535.5 328.3 548 327.4 558 340.9 562.3 350.5 548.3 362.8 546 367.3 559.6 346 567.4 336.8 571.3 346.4 568.6 346.7 566.5 356 562.6 353.8 577.2 346.6 578.7 334.1 582.1 342 580.1 344 579.6 352 577.2 352.8 583.8 346.2 588.4 339.2 590.8 336 591.3 332.9 592 329.8 592.7 332.4 592.6 335.8 592 339.2 590.8 341.8 590.4 344.4 590.1 347 590.1 352.5 600.8 317.5 606.3 305.1 605.4 291.2 604.3 275.4 597.4 261.4 593.1 261.4 593.1 249.6 592.1 232.8 589.1 233.9 577.1 236.7 565.3 240.9 553.9Z" stroke="#FFFFFF" stroke-width="10" stroke-linecap="round" stroke-linejoin="round" fill="none"/></g><g><path d="M233.5 583.2C233.9 583.4 234.2 583.7 234.6 583.9 245.9 589.6 258.8 586 269.3 591.1 285.5 598.8 301.8 605.1 319.9 603.5 326.1 602.9 332 601.9 337.9 600.4 327.8 604.1 312.5 605.8 305.1 605.3 291.2 604.2 275.4 597.3 261.4 593 261.4 593 249.6 592 232.8 589 233 587.1 233.2 585.1 233.5 583.2Z" stroke="#FFFFFF" stroke-width="10" stroke-linecap="round" stroke-linejoin="round" fill="none"/><path d="M233.5 583.2C233.9 583.4 234.2 583.7 234.6 583.9 245.9 589.6 258.8 586 269.3 591.1 285.5 598.8 301.8 605.1 319.9 603.5 326.1 602.9 332 601.9 337.9 600.4 327.8 604.1 312.5 605.8 305.1 605.3 291.2 604.2 275.4 597.3 261.4 593 261.4 593 249.6 592 232.8 589 233 587.1 233.2 585.1 233.5 583.2Z" stroke="#FFFFFF" stroke-width="10" stroke-linecap="round" stroke-linejoin="round" fill="none"/></g></g><g><path d="M129.3 482.7C131.1 450.7 134.6 420 134.8 418.7 136.1 407.5 146 399.5 156.9 400.8 167.8 402.1 175.7 412.3 174.4 423.5 169.6 465.3 166.6 515.7 168.8 534.4 186.4 539.1 230.7 548.5 274.9 557.4 272.1 571 269.3 584.5 269.4 598 226.7 589.5 158.5 575.3 146.2 570 130 562.9 129 541 128.4 529.3 127.9 517.6 128.2 501.9 129.3 482.7Z" stroke="#FFFFFF" stroke-width="10" stroke-linecap="round" stroke-linejoin="round" fill="none"/></g></g></g><g><g><path d="M18.8 214.7C20.2 228.8 65.8 352.8 6.1 323.7L6.1 323.7 6.1 323.7C19.2 344.6 46.4 364.2 71.6 347.5 76.8 367.6 59.1 380.4 41.8 380.5 76 391.4 107.6 391.5 136.9 369.7 134.3 374.7 136.4 380.9 133.9 387.4 164.7 379.6 203.9 377.4 221.2 345.6 254.8 350.3 310.3 368.6 339.3 343.6 334 337.8 330.1 330.2 327.7 322.5 350.2 342.5 384.6 323.3 407.2 313.2L407.2 313.2C360.2 316.2 331.7 252.4 331.5 219.1L18.8 214.7Z" stroke="#FFFFFF" stroke-width="10" stroke-linecap="round" stroke-linejoin="round" fill="none"/><path d="M18.8 214.7C20.2 228.8 65.8 352.8 6.1 323.7L6.1 323.7 6.1 323.7C19.2 344.6 46.4 364.2 71.6 347.5 76.8 367.6 59.1 380.4 41.8 380.5 76 391.4 107.6 391.5 136.9 369.7 134.3 374.7 136.4 380.9 133.9 387.4 164.7 379.6 203.9 377.4 221.2 345.6 254.8 350.3 310.3 368.6 339.3 343.6 334 337.8 330.1 330.2 327.7 322.5 350.2 342.5 384.6 323.3 407.2 313.2L407.2 313.2C360.2 316.2 331.7 252.4 331.5 219.1L18.8 214.7Z" stroke="#FFFFFF" stroke-width="10" stroke-linecap="round" stroke-linejoin="round" fill="none"/></g><g><path d="M329.7 157C328.2 150.2 327 143.4 326.4 136.5 323.6 120.7 319.3 105.5 307.3 93.1 284 67.9 251.9 51.1 215.6 54 151.9 59 87.6 79.8 57.6 138.6 36.9 175.5 47.4 220.6 66.4 256.9 63.1 257.7 60.1 259.1 57.6 261.3 42 273 40.6 298.2 55.2 313.1 61.8 320.8 70.2 329.5 81.8 332.8 90.9 334.3 102 332.2 108.9 326.6 126.4 342.7 143 357.9 172.8 362.8 233.2 369.4 303.3 359.6 340.2 303.8 370.2 255.4 340.8 207.2 329.7 157Z" stroke="#FFFFFF" stroke-width="10" stroke-linecap="round" stroke-linejoin="round" fill="none"/><path d="M114.9 285.8C110.1 266.8 108.2 247.1 104.9 227.7 159.1 253 216 203 231.1 152.6 238.1 174.2 236.7 205.6 211.3 215 262.9 211.4 303.1 156.3 299.6 105.9 310.1 115.2 318.9 126 326.4 137.6 326.4 137.3 326.3 136.9 326.3 136.6 323.5 120.8 319.2 105.6 307.2 93.2 283.9 68 251.8 51.2 215.5 54.1 151.9 59 87.6 79.8 57.6 138.6 36.9 175.5 47.4 220.6 66.4 256.9 66.1 257 65.8 257.1 65.4 257.2 84.6 259.7 102.5 271.3 114.9 285.8Z" stroke="#FFFFFF" stroke-width="10" stroke-linecap="round" stroke-linejoin="round" fill="none"/><path d="M258.1 254.7C256.5 258.9 255.4 263.4 258.5 266.9 260.3 268 263.6 262.5 266.1 260.3 263.7 257.6 260.5 256.4 258.1 254.7Z" stroke="#FFFFFF" stroke-width="10" stroke-linecap="round" stroke-linejoin="round" fill="none"/><path d="M232.5 333.4C234.6 336.3 237.2 338.7 241.2 339.6 245.9 340 248.5 337.8 250.6 334.1 244 337.5 237.7 336.6 232.5 333.4Z" stroke="#FFFFFF" stroke-width="10" stroke-linecap="round" stroke-linejoin="round" fill="none"/><g><path d="M344.1 207.5C366.1 162.2 346.9 102.2 346.9 102.2 316.7-1.3 258 27.4 258 27.4 198.1-29.4 91.8 39.8 91.8 39.8-44.9 125.1 12.9 269.3 45.1 284.7 58.8 242.5 100.7 272.1 100.7 272.1 95.4 251 96 213.1 96 213.1 132.2 268.3 237.3 158.3 233.6 107.2 233.6 107.2 248.7 195.2 210 198.8 210 198.8 290.7 196.9 289.4 95.3 289.4 95.3 323.9 126.9 328.5 157.3L344.1 207.5Z" stroke="#FFFFFF" stroke-width="10" stroke-linecap="round" stroke-linejoin="round" fill="none"/><path d="M344.1 207.5C366.1 162.2 346.9 102.2 346.9 102.2 316.7-1.3 258 27.4 258 27.4 198.1-29.4 91.8 39.8 91.8 39.8-44.9 125.1 12.9 269.3 45.1 284.7 58.8 242.5 100.7 272.1 100.7 272.1 95.4 251 96 213.1 96 213.1 132.2 268.3 237.3 158.3 233.6 107.2 233.6 107.2 248.7 195.2 210 198.8 210 198.8 290.7 196.9 289.4 95.3 289.4 95.3 323.9 126.9 328.5 157.3L344.1 207.5Z" stroke="#FFFFFF" stroke-width="10" stroke-linecap="round" stroke-linejoin="round" fill="none"/></g><g><path d="M110.8 116.6C112.6 115.5 116.4 115.1 118.5 115.9 132.7 122.3 140.3 141 155.7 140.4 187.6 141.2 215.5 110.3 218 78 196.7 96.6 171 119.5 139.9 107.9 127.8 103.2 125.2 87 116.9 81 109.4 74 96.1 85.9 84.5 85.1 74.8 85.1 65.7 80.1 62.8 70.7 61.9 68.1 61.2 65.4 60.9 62.8 38.4 83 23.9 105.2 15.4 127.4 46 139.8 82.3 133.2 110.8 116.6Z" stroke="#FFFFFF" stroke-width="10" stroke-linecap="round" stroke-linejoin="round" fill="none"/><path d="M110.8 116.6C112.6 115.5 116.4 115.1 118.5 115.9 132.7 122.3 140.3 141 155.7 140.4 187.6 141.2 215.5 110.3 218 78 196.7 96.6 171 119.5 139.9 107.9 127.8 103.2 125.2 87 116.9 81 109.4 74 96.1 85.9 84.5 85.1 74.8 85.1 65.7 80.1 62.8 70.7 61.9 68.1 61.2 65.4 60.9 62.8 38.4 83 23.9 105.2 15.4 127.4 46 139.8 82.3 133.2 110.8 116.6Z" stroke="#FFFFFF" stroke-width="10" stroke-linecap="round" stroke-linejoin="round" fill="none"/></g><path d="M323.5 137.2C324.1 144.1 325.3 150.9 326.8 157.7 325.6 150.9 324.7 144 323.5 137.2Z" stroke="#FFFFFF" stroke-width="10" stroke-linecap="round" stroke-linejoin="round" fill="none"/><g><path d="M144.1 231.1C139.5 214.9 149.6 194.8 166.5 191 169.5 190.3 168.5 185.7 165.5 186.4 146.3 190.7 134.3 213.3 139.6 232.1 140.3 235 144.9 234 144.1 231.1L144.1 231.1Z" stroke="#FFFFFF" stroke-width="10" stroke-linecap="round" stroke-linejoin="round" fill="none"/></g><g><path d="M285.6 155.2C301.4 149.7 314.7 155.7 318.3 170.3 318.9 172.7 322.8 170.6 322.2 168.2 318.3 152.1 303.1 145 285.6 151.1 283 152.1 283 156.1 285.6 155.2L285.6 155.2Z" stroke="#FFFFFF" stroke-width="10" stroke-linecap="round" stroke-linejoin="round" fill="none"/></g><g><g><path d="M300.8 189.9C303.4 191.9 305.1 196.2 305.2 199.7 305.3 203.6 303.6 208.5 300.2 208.8 299.6 208.8 299.1 208.3 299 207.6 298.7 204.8 299.9 202 300.3 199.3 300.7 196.2 300.2 193.1 300.6 190.1 300.6 189.9 300.7 189.8 300.8 189.9L300.8 189.9Z" stroke="#FFFFFF" stroke-width="10" stroke-linecap="round" stroke-linejoin="round" fill="none"/></g><g><path d="M280.8 225.6C282.6 239.4 291.5 249.9 300.7 249.2 309.9 248.4 315.9 236.7 314.1 222.9 312.3 209.1 303.4 198.6 294.2 199.4 285 200.1 279 211.9 280.8 225.6Z" stroke="#FFFFFF" stroke-width="10" stroke-linecap="round" stroke-linejoin="round" fill="none"/><g><path d="M295.9 244.8C289.7 244.4 284.4 236.3 284 226.8 283.6 217.3 288.3 210 294.5 210.5 300.7 210.9 306 219 306.4 228.4 306.8 237.9 302.1 245.2 295.9 244.8Z" stroke="#FFFFFF" stroke-width="10" stroke-linecap="round" stroke-linejoin="round" fill="none"/><path d="M294.8 238.9C291.2 238.6 288 233.9 287.8 228.3 287.6 222.7 290.4 218.4 294 218.6 297.7 218.9 300.8 223.6 301 229.2 301.2 234.9 298.4 239.2 294.8 238.9Z" stroke="#FFFFFF" stroke-width="10" stroke-linecap="round" stroke-linejoin="round" fill="none"/><path d="M289 226.2C287.4 226.3 286 224.3 285.9 221.6 285.8 218.9 286.9 216.6 288.5 216.5 290.1 216.3 291.5 218.4 291.6 221.1 291.7 223.8 290.6 226.1 289 226.2Z" stroke="#FFFFFF" stroke-width="10" stroke-linecap="round" stroke-linejoin="round" fill="none"/><path d="M297.9 230C301.2 230.3 303.7 232.6 305.6 235.5 304.1 241.3 300.4 245.1 295.8 244.8 295.7 244.8 295.6 244.8 295.4 244.7 295.1 241 293.9 236.9 293.5 233.8 293.3 231.5 295.6 229.6 297.9 230Z" stroke="#FFFFFF" stroke-width="10" stroke-linecap="round" stroke-linejoin="round" fill="none"/></g></g></g><g><g><path d="M185.5 212.8C188.1 214.7 189.7 218.8 189.8 222.2 189.9 225.9 188.1 230.7 184.6 231 184 231.1 183.5 230.5 183.4 229.8 183.1 227.1 184.4 224.4 184.8 221.8 185.3 218.8 184.8 215.8 185.2 212.9 185.3 212.9 185.4 212.8 185.5 212.8L185.5 212.8Z" stroke="#FFFFFF" stroke-width="10" stroke-linecap="round" stroke-linejoin="round" fill="none"/></g><g><path d="M164.8 247.5C166.4 260.7 175.3 270.8 184.6 269.9 193.9 269 200.2 257.6 198.6 244.4 197 231.2 188.1 221.2 178.8 222 169.4 222.9 163.1 234.3 164.8 247.5Z" stroke="#FFFFFF" stroke-width="10" stroke-linecap="round" stroke-linejoin="round" fill="none"/><g><path d="M180 265.5C173.8 265.2 168.5 257.5 168.2 248.4 167.9 239.3 172.8 232.1 179.1 232.5 185.3 232.8 190.6 240.5 190.9 249.6 191.2 258.7 186.3 265.9 180 265.5Z" stroke="#FFFFFF" stroke-width="10" stroke-linecap="round" stroke-linejoin="round" fill="none"/><path d="M180.4 259.7C176.7 259.5 173.6 254.9 173.4 249.6 173.3 244.2 176.1 240 179.8 240.2 183.5 240.4 186.6 245 186.8 250.3 186.9 255.7 184.1 259.9 180.4 259.7Z" stroke="#FFFFFF" stroke-width="10" stroke-linecap="round" stroke-linejoin="round" fill="none"/><path d="M174.8 246.9C173.2 247.1 171.8 245.1 171.7 242.5 171.6 239.9 172.8 237.7 174.4 237.5 176 237.3 177.4 239.3 177.5 241.9 177.6 244.5 176.4 246.8 174.8 246.9Z" stroke="#FFFFFF" stroke-width="10" stroke-linecap="round" stroke-linejoin="round" fill="none"/><path d="M182.3 251.2C185.7 251.5 188.1 253.6 190.1 256.4 188.5 262 184.7 265.7 180.1 265.5 180 265.5 179.9 265.5 179.8 265.4 179.6 261.8 178.4 257.9 178 254.9 177.6 252.7 179.9 250.9 182.3 251.2Z" stroke="#FFFFFF" stroke-width="10" stroke-linecap="round" stroke-linejoin="round" fill="none"/></g></g></g><g><path d="M66.6 281.7C61.1 283.8 59.4 291.2 59.8 297.9 61.4 291.7 65.1 285.5 70.7 285.7 75.8 285.7 79.6 287.6 82.7 290.5 78.9 289.3 75.4 286.4 71.8 289.1 68.6 292.1 66.3 297.2 67.7 301.9 70.3 294.9 78.9 290.5 85.4 293.6 86.9 294.3 88.2 295.4 89.4 296.9 88.8 296.8 88.2 296.7 87.6 296.6 83.9 296.3 80.3 297.7 82.3 300.8 83.7 303 88.7 302.9 89.3 306.1 90.6 311.4 83.3 313.5 78.7 311.8 84.1 315.5 91.3 314 94.9 309.2 95 309.1 95 308.9 95.1 308.8 96.3 310.6 97.5 312.3 98.8 313.8 96.9 297.3 87.1 273.9 66.6 281.7Z" stroke="#FFFFFF" stroke-width="10" stroke-linecap="round" stroke-linejoin="round" fill="none"/><path d="M66.6 281.7C61.1 283.8 59.4 291.2 59.8 297.9 61.4 291.7 65.1 285.5 70.7 285.7 75.8 285.7 79.6 287.6 82.7 290.5 78.9 289.3 75.4 286.4 71.8 289.1 68.6 292.1 66.3 297.2 67.7 301.9 70.3 294.9 78.9 290.5 85.4 293.6 86.9 294.3 88.2 295.4 89.4 296.9 88.8 296.8 88.2 296.7 87.6 296.6 83.9 296.3 80.3 297.7 82.3 300.8 83.7 303 88.7 302.9 89.3 306.1 90.6 311.4 83.3 313.5 78.7 311.8 84.1 315.5 91.3 314 94.9 309.2 95 309.1 95 308.9 95.1 308.8 96.3 310.6 97.5 312.3 98.8 313.8 96.9 297.3 87.1 273.9 66.6 281.7Z" stroke="#FFFFFF" stroke-width="10" stroke-linecap="round" stroke-linejoin="round" fill="none"/></g></g></g></g><g><g><path d="M455.6 476.9 499.6 411.1C499.6 411.1 578.8 371.4 590.3 367.9 598.2 365.5 592.3 360.1 573.8 360.4 581.5 357.8 588 354.6 587.2 351.7 586.3 348.1 575.1 348.6 561.4 352.6 565.5 348.3 568.9 343.7 567.2 341.7 563.7 337.4 518 365.9 516.4 367 514.9 366.9 513.6 366.6 512.9 366 509.1 362.9 525.7 332.4 514.9 332 504.1 331.5 496.5 355.2 496.5 355.2 496.5 355.2 468.9 371.1 467.9 394.7 467.3 409.2 428.1 458.7 428.1 458.7L455.6 476.9Z" fill="#FDDCBE"/><path d="M512.3 364.2C512.3 365 512.5 365.7 512.9 366 513.6 366.6 514.9 366.9 516.4 367 518 365.8 563.6 337.4 567.2 341.7 568.9 343.7 565.5 348.3 561.4 352.6 575.1 348.6 586.3 348.1 587.2 351.7 588 354.7 581.4 357.8 573.8 360.4 592.3 360.1 598.2 365.5 590.5 367.9 571.3 364.2 551.3 371.3 533.2 380.3 520.1 374.9 505.5 380.6 493.7 386.1 501.4 379.8 509.1 373.4 512.3 364.2Z" fill="#FDDCBE" opacity="0.44"/><path d="M428 458.6C428 458.6 449.3 431.7 460.7 411.8 469.4 418.6 481.8 422.1 493.2 420.7L455.6 476.9 428 458.6Z" fill="#FDDCBE" opacity="0.44"/><path d="M263.7 393.4C270.5 383.5 284 380.8 293.9 387.5 338.9 417.7 392.2 451.6 415.4 463.9 425 450.9 441.4 427 456.1 404.6 466.1 415.1 477.6 424 490.1 431.6 444.7 500.4 437.4 505.2 433.8 507.5 420.7 516 407.1 509.1 386 497.2 373.7 490.3 357.3 480.3 337.2 467.5 303.2 446 269.8 423.5 269.4 423.3 259.5 416.7 256.9 403.3 263.7 393.4Z" fill="#FFC226"/><g><path d="M320.3 817.7C324.1 785.3 326.7 752.5 328.6 719.7 330.3 689.6 332.6 658.8 329 628.9L154.1 623.3C142.9 657.1 133.3 717.8 148.5 817.7L320.3 817.7Z" fill="#7064AC"/></g><g><path d="M170.8 817.7C169.6 815.1 168.6 812.4 167.8 809.5 156 769.4 149.2 716.9 180.3 687.9 194.1 675.2 239.3 705.6 249 671.9 247.4 677.2 245.8 684.3 244.2 689.6 272.8 687.2 305.7 683.3 330.9 665.4 330.9 664.3 330.9 663.3 330.9 662.2 308.3 672.8 283.2 678.2 257.4 679.5L254.3 644.1 241.2 679.7C208.4 679.2 175.1 672.4 145 661.2 139.3 696.9 137.7 747.7 148.4 817.7L170.8 817.7Z" fill="#3D5091"/></g><g><path d="M184.1 520.5C178.5 506.5 108.8 433.2 146.7 398.7 184.6 364.2 269.6 379.2 269.6 379.2 308.7 383.3 322.5 413.7 319.7 452.4 317.8 475.6 308 496.5 303.4 519.8 299 545.7 308.5 562.1 318.2 585 327.9 610 330.7 636 330.8 662.3 308.2 672.9 283.1 678.3 257.3 679.6L254.2 644.2 241.1 679.8C208.3 679.3 175 672.5 144.9 661.3 153.5 607.6 171.5 587.8 171.5 587.8 199.2 550.9 189.7 534.5 184.1 520.5Z" fill="#2AA4AF"/></g><g><path d="M184.1 520.5C178.5 506.5 108.8 433.2 146.7 398.7 184.6 364.2 269.6 379.2 269.6 379.2 308.7 383.3 322.5 413.7 319.7 452.4 317.8 475.6 308 496.5 303.4 519.8 299 545.7 308.5 562.1 318.2 585 327.9 610 330.7 636 330.8 662.3 308.2 672.9 283.1 678.3 257.3 679.6L254.2 644.2 241.1 679.8C208.3 679.3 175 672.5 144.9 661.3 153.5 607.6 171.5 587.8 171.5 587.8 199.2 550.9 189.7 534.5 184.1 520.5Z" fill="#FFC226"/></g><g><path d="M311.9 570.2C313.9 574.9 316.1 579.7 318.3 584.9 321 591.8 323.1 598.9 324.9 605.9 301.1 620.6 275.8 641.1 248.1 636.7 217.9 631.3 190.9 615.4 162.6 602.5 167.8 592.1 171.9 587.6 171.9 587.6 176.9 580.9 180.7 574.9 183.5 569.4 225.1 584.1 271.6 587.1 311.9 570.2Z" fill="#D08019"/></g><g><path d="M239 411.2C217.3 411.3 194.2 399.2 187 379.6 216.6 373.6 249 376.3 263.9 378.2 265.2 394.2 256.9 411.1 239 411.2Z" fill="#FDDCBE"/></g><g><path d="M279.2 416.9C277.2 424.7 265.2 428.6 255.1 426.7 247.2 424.2 241.9 418.3 239.1 411.2 256.9 411.1 265.1 394.2 263.9 378.2 269.3 378.9 272.4 379.4 272.4 379.4 272.7 379.4 273 379.5 273.2 379.5 281 390.5 284 404.3 279.2 416.9Z" fill="#E9F2D9"/></g><g><path d="M204.9 434.6C179.2 427.4 177.3 403.6 178.8 381.5 181.5 380.8 184.2 380.1 187 379.5 194 398.5 215.8 410.3 236.8 411 234.2 425.6 220.3 437.9 204.9 434.6Z" fill="#E9F2D9"/></g><path d="M204.6 375.8C204.9 387.2 214.5 396.1 225.9 395.8L225.9 395.8C237.4 395.5 246.4 386 246.1 374.7L245.8 365.7C245.5 354.3 235.9 345.4 224.5 345.7L224.5 345.7C213 346 204 355.5 204.3 366.8L204.6 375.8Z" fill="#FDDCBE"/><path d="M224.5 345.7C236 345.4 245.5 354.3 245.8 365.7L246.1 374.7C246.1 375.1 246.1 375.6 246.1 376.1 231.9 375 217.7 371.8 204.4 366.5 204.3 355.2 213.2 346 224.5 345.7Z" fill="#FDDCBE" opacity="0.89"/><g><path d="M388.4 456.7 362 501.9 298.6 514.4C298.6 514.4 304.4 488.6 309.5 483.2 314.6 477.8 365.1 451.1 388.4 455.9L388.4 456.7Z" fill="#FFFFFF"/><path d="M400.1 475.8 391.2 461.1C391.2 461.1 339.7 461.6 305.3 488.1 305.3 488.1 236.6 446.1 191.2 431.9L180.2 449 299.8 511.4 400.1 475.8Z" fill="#E7E6E6"/><path d="M274.7 624.1C289.2 616.4 332.2 599.1 332.2 599.1 343.1 571.4 405.9 474.7 405.9 474.7L403.4 471.5C403.4 471.5 347 476.2 313.9 492.2 313.9 492.2 305.5 497.1 294.8 492.1 284.1 487 200.8 445.6 175.2 442.4L156.4 582C156.4 582 242.5 614.7 251 621.2 258.1 626.6 270.7 626.2 274.7 624.1Z" fill="#88C655"/><path d="M337.3 535.8C344.7 546.1 332.5 553.5 332.7 562.3 341 560.7 349.4 561.2 355 556.4 344.6 574.1 335.7 590.2 332.1 599.1 332.1 599.1 317.6 605 302.5 611.4 286.6 609.9 271.2 604 257.5 603.1 225.2 600.4 192 590.7 158.5 582.9 157.1 582.3 156.2 582 156.2 582L162.1 538.1C223 557.5 289.6 587.4 337.3 535.8Z" fill="#C2986B" opacity="0.33"/><path d="M294.8 492.1C305.6 497.2 313.9 492.2 313.9 492.2 316.6 490.9 319.5 489.6 322.5 488.4L275 624C274.9 624.1 274.8 624.1 274.7 624.2 270.7 626.3 258 626.7 251.1 621.3 251 621.2 250.9 621.2 250.8 621.1L285.8 487.8C290.1 489.8 293.2 491.3 294.8 492.1Z" fill="#00AD59"/><path d="M177.6 439.6C195.9 441.8 286.2 485.6 295.7 490.4 305.2 495.3 313.8 491.4 313.8 491.4 354.8 472.9 403.4 471.5 403.4 471.5L405.9 474.7C405.9 474.7 374.6 472.2 313.6 494.7 313.6 494.7 305 500.2 293.7 492.9 293.7 492.9 201.1 447.3 174.9 442.4L177.6 439.6Z" fill="#009F56"/><g><path d="M385.9 452.8 388.4 456.7C373.9 457.8 324.4 463.5 305 491.3L301.9 488.9C321.6 460.7 368.4 454.2 385.9 452.8Z" fill="#E7E6E6"/></g></g><g><g><g><path d="M240.9 553.9C257.8 558.9 270.9 562.4 270.9 562.4 281.8 558.3 288.4 557.7 300.1 555.8 309.6 554.1 315.5 550.8 321.9 544.3 326.4 539.7 330.4 531.2 337 530.1 347.1 535.5 328.3 548 327.4 558 340.9 562.3 350.5 548.3 362.8 546 367.3 559.6 346 567.4 336.8 571.3 346.4 568.6 346.7 566.5 356 562.6 353.8 577.2 346.6 578.7 334.1 582.1 342 580.1 344 579.6 352 577.2 352.8 583.8 346.2 588.4 339.2 590.8 336 591.3 332.9 592 329.8 592.7 332.4 592.6 335.8 592 339.2 590.8 341.8 590.4 344.4 590.1 347 590.1 352.5 600.8 317.5 606.3 305.1 605.4 291.2 604.3 275.4 597.4 261.4 593.1 261.4 593.1 249.6 592.1 232.8 589.1 233.9 577.1 236.7 565.3 240.9 553.9Z" fill="#FDDCBE"/></g><g opacity="0.44"><path d="M233.5 583.2C233.9 583.4 234.2 583.7 234.6 583.9 245.9 589.6 258.8 586 269.3 591.1 285.5 598.8 301.8 605.1 319.9 603.5 326.1 602.9 332 601.9 337.9 600.4 327.8 604.1 312.5 605.8 305.1 605.3 291.2 604.2 275.4 597.3 261.4 593 261.4 593 249.6 592 232.8 589 233 587.1 233.2 585.1 233.5 583.2Z" fill="#FDDCBE"/></g></g><g><path d="M129.3 482.7C131.1 450.7 134.6 420 134.8 418.7 136.1 407.5 146 399.5 156.9 400.8 167.8 402.1 175.7 412.3 174.4 423.5 169.6 465.3 166.6 515.7 168.8 534.4 186.4 539.1 230.7 548.5 274.9 557.4 272.1 571 269.3 584.5 269.4 598 226.7 589.5 158.5 575.3 146.2 570 130 562.9 129 541 128.4 529.3 127.9 517.6 128.2 501.9 129.3 482.7Z" fill="#FFC226"/></g></g></g><g><g><path d="M18.8 214.7C20.2 228.8 65.8 352.8 6.1 323.7L6.1 323.7 6.1 323.7C19.2 344.6 46.4 364.2 71.6 347.5 76.8 367.6 59.1 380.4 41.8 380.5 76 391.4 107.6 391.5 136.9 369.7 134.3 374.7 136.4 380.9 133.9 387.4 164.7 379.6 203.9 377.4 221.2 345.6 254.8 350.3 310.3 368.6 339.3 343.6 334 337.8 330.1 330.2 327.7 322.5 350.2 342.5 384.6 323.3 407.2 313.2L407.2 313.2C360.2 316.2 331.7 252.4 331.5 219.1L18.8 214.7Z" fill="#552B16"/></g><g><path d="M329.7 157C328.2 150.2 327 143.4 326.4 136.5 323.6 120.7 319.3 105.5 307.3 93.1 284 67.9 251.9 51.1 215.6 54 151.9 59 87.6 79.8 57.6 138.6 36.9 175.5 47.4 220.6 66.4 256.9 63.1 257.7 60.1 259.1 57.6 261.3 42 273 40.6 298.2 55.2 313.1 61.8 320.8 70.2 329.5 81.8 332.8 90.9 334.3 102 332.2 108.9 326.6 126.4 342.7 143 357.9 172.8 362.8 233.2 369.4 303.3 359.6 340.2 303.8 370.2 255.4 340.8 207.2 329.7 157Z" fill="#FDDCBE"/><path d="M114.9 285.8C110.1 266.8 108.2 247.1 104.9 227.7 159.1 253 216 203 231.1 152.6 238.1 174.2 236.7 205.6 211.3 215 262.9 211.4 303.1 156.3 299.6 105.9 310.1 115.2 318.9 126 326.4 137.6 326.4 137.3 326.3 136.9 326.3 136.6 323.5 120.8 319.2 105.6 307.2 93.2 283.9 68 251.8 51.2 215.5 54.1 151.9 59 87.6 79.8 57.6 138.6 36.9 175.5 47.4 220.6 66.4 256.9 66.1 257 65.8 257.1 65.4 257.2 84.6 259.7 102.5 271.3 114.9 285.8Z" fill="#FDDCBE" opacity="0.89"/><path d="M258.1 254.7C256.5 258.9 255.4 263.4 258.5 266.9 260.3 268 263.6 262.5 266.1 260.3 263.7 257.6 260.5 256.4 258.1 254.7Z" fill="#FDDCBE" opacity="0.89"/><path d="M232.5 333.4C234.6 336.3 237.2 338.7 241.2 339.6 245.9 340 248.5 337.8 250.6 334.1 244 337.5 237.7 336.6 232.5 333.4Z" fill="#FDDCBE" opacity="0.89"/><g><path d="M344.1 207.5C366.1 162.2 346.9 102.2 346.9 102.2 316.7-1.3 258 27.4 258 27.4 198.1-29.4 91.8 39.8 91.8 39.8-44.9 125.1 12.9 269.3 45.1 284.7 58.8 242.5 100.7 272.1 100.7 272.1 95.4 251 96 213.1 96 213.1 132.2 268.3 237.3 158.3 233.6 107.2 233.6 107.2 248.7 195.2 210 198.8 210 198.8 290.7 196.9 289.4 95.3 289.4 95.3 323.9 126.9 328.5 157.3L344.1 207.5Z" fill="#552B16"/></g><g opacity="0.3"><path d="M110.8 116.6C112.6 115.5 116.4 115.1 118.5 115.9 132.7 122.3 140.3 141 155.7 140.4 187.6 141.2 215.5 110.3 218 78 196.7 96.6 171 119.5 139.9 107.9 127.8 103.2 125.2 87 116.9 81 109.4 74 96.1 85.9 84.5 85.1 74.8 85.1 65.7 80.1 62.8 70.7 61.9 68.1 61.2 65.4 60.9 62.8 38.4 83 23.9 105.2 15.4 127.4 46 139.8 82.3 133.2 110.8 116.6Z" fill="#552B16"/></g><path d="M323.5 137.2C324.1 144.1 325.3 150.9 326.8 157.7 325.6 150.9 324.7 144 323.5 137.2Z" fill="#FDDCBE" opacity="0.3"/><g><path d="M144.1 231.1C139.5 214.9 149.6 194.8 166.5 191 169.5 190.3 168.5 185.7 165.5 186.4 146.3 190.7 134.3 213.3 139.6 232.1 140.3 235 144.9 234 144.1 231.1L144.1 231.1Z" fill="#603813"/></g><g><path d="M285.6 155.2C301.4 149.7 314.7 155.7 318.3 170.3 318.9 172.7 322.8 170.6 322.2 168.2 318.3 152.1 303.1 145 285.6 151.1 283 152.1 283 156.1 285.6 155.2L285.6 155.2Z" fill="#603813"/></g><g><g><path d="M300.8 189.9C303.4 191.9 305.1 196.2 305.2 199.7 305.3 203.6 303.6 208.5 300.2 208.8 299.6 208.8 299.1 208.3 299 207.6 298.7 204.8 299.9 202 300.3 199.3 300.7 196.2 300.2 193.1 300.6 190.1 300.6 189.9 300.7 189.8 300.8 189.9L300.8 189.9Z" fill="#552A14"/></g><g><path d="M280.8 225.6C282.6 239.4 291.5 249.9 300.7 249.2 309.9 248.4 315.9 236.7 314.1 222.9 312.3 209.1 303.4 198.6 294.2 199.4 285 200.1 279 211.9 280.8 225.6Z" fill="#FFFFFF"/><g><path d="M295.9 244.8C289.7 244.4 284.4 236.3 284 226.8 283.6 217.3 288.3 210 294.5 210.5 300.7 210.9 306 219 306.4 228.4 306.8 237.9 302.1 245.2 295.9 244.8Z" fill="#883F2A"/><path d="M294.8 238.9C291.2 238.6 288 233.9 287.8 228.3 287.6 222.7 290.4 218.4 294 218.6 297.7 218.9 300.8 223.6 301 229.2 301.2 234.9 298.4 239.2 294.8 238.9Z" fill="#4B1C0D"/><path d="M289 226.2C287.4 226.3 286 224.3 285.9 221.6 285.8 218.9 286.9 216.6 288.5 216.5 290.1 216.3 291.5 218.4 291.6 221.1 291.7 223.8 290.6 226.1 289 226.2Z" fill="#FFFFFF"/><path d="M297.9 230C301.2 230.3 303.7 232.6 305.6 235.5 304.1 241.3 300.4 245.1 295.8 244.8 295.7 244.8 295.6 244.8 295.4 244.7 295.1 241 293.9 236.9 293.5 233.8 293.3 231.5 295.6 229.6 297.9 230Z" fill="#883F2A" opacity="0.7"/></g></g></g><g><g><path d="M185.5 212.8C188.1 214.7 189.7 218.8 189.8 222.2 189.9 225.9 188.1 230.7 184.6 231 184 231.1 183.5 230.5 183.4 229.8 183.1 227.1 184.4 224.4 184.8 221.8 185.3 218.8 184.8 215.8 185.2 212.9 185.3 212.9 185.4 212.8 185.5 212.8L185.5 212.8Z" fill="#552A14"/></g><g><path d="M164.8 247.5C166.4 260.7 175.3 270.8 184.6 269.9 193.9 269 200.2 257.6 198.6 244.4 197 231.2 188.1 221.2 178.8 222 169.4 222.9 163.1 234.3 164.8 247.5Z" fill="#FFFFFF"/><g><path d="M180 265.5C173.8 265.2 168.5 257.5 168.2 248.4 167.9 239.3 172.8 232.1 179.1 232.5 185.3 232.8 190.6 240.5 190.9 249.6 191.2 258.7 186.3 265.9 180 265.5Z" fill="#883F2A"/><path d="M180.4 259.7C176.7 259.5 173.6 254.9 173.4 249.6 173.3 244.2 176.1 240 179.8 240.2 183.5 240.4 186.6 245 186.8 250.3 186.9 255.7 184.1 259.9 180.4 259.7Z" fill="#4B1C0D"/><path d="M174.8 246.9C173.2 247.1 171.8 245.1 171.7 242.5 171.6 239.9 172.8 237.7 174.4 237.5 176 237.3 177.4 239.3 177.5 241.9 177.6 244.5 176.4 246.8 174.8 246.9Z" fill="#FFFFFF"/><path d="M182.3 251.2C185.7 251.5 188.1 253.6 190.1 256.4 188.5 262 184.7 265.7 180.1 265.5 180 265.5 179.9 265.5 179.8 265.4 179.6 261.8 178.4 257.9 178 254.9 177.6 252.7 179.9 250.9 182.3 251.2Z" fill="#883F2A" opacity="0.7"/></g></g></g><g opacity="0.89"><path d="M66.6 281.7C61.1 283.8 59.4 291.2 59.8 297.9 61.4 291.7 65.1 285.5 70.7 285.7 75.8 285.7 79.6 287.6 82.7 290.5 78.9 289.3 75.4 286.4 71.8 289.1 68.6 292.1 66.3 297.2 67.7 301.9 70.3 294.9 78.9 290.5 85.4 293.6 86.9 294.3 88.2 295.4 89.4 296.9 88.8 296.8 88.2 296.7 87.6 296.6 83.9 296.3 80.3 297.7 82.3 300.8 83.7 303 88.7 302.9 89.3 306.1 90.6 311.4 83.3 313.5 78.7 311.8 84.1 315.5 91.3 314 94.9 309.2 95 309.1 95 308.9 95.1 308.8 96.3 310.6 97.5 312.3 98.8 313.8 96.9 297.3 87.1 273.9 66.6 281.7Z" fill="#FDDCBE"/></g></g></g></g></g></g></svg>