<svg width="13.6" height="8.5" viewBox="0 0 13.6 8.5" xmlns="http://www.w3.org/2000/svg" xmlns:xlink="http://www.w3.org/1999/xlink" overflow="hidden"><defs></defs><g><g><g><path d="M3.6 5.6C3.4 6.3 2.6 6.7 1.9 6.5 1.3 6.3 0.9 5.6 1.1 4.9 1.3 4.2 2 3.8 2.7 4 3.4 4.2 3.8 4.9 3.6 5.6Z"/><path d="M3.3 5.5C3.1 6.1 2.6 6.4 2 6.2 1.5 6.1 1.2 5.5 1.3 5 1.5 4.5 2 4.2 2.6 4.3 3.1 4.4 3.5 5 3.3 5.5Z" fill="#252D76"/><path d="M3.1 5.5C3 5.9 2.5 6.2 2.1 6 1.7 5.9 1.4 5.5 1.5 5 1.6 4.6 2.1 4.3 2.5 4.5 3 4.6 3.2 5.1 3.1 5.5Z" fill="#FF0D07"/><path d="M2.4 5.4 2.1 6 2.2 5.4 1.6 5.6 2 5.2 1.5 5 2 5.1 1.9 4.6 2.2 5.1 2.6 4.5 2.5 5.2 3.1 4.9 2.6 5.3 3.1 5.5 2.6 5.4 2.7 5.9Z" fill="#FFC502"/></g><g><path d="M2.7 4C2.1 3.8 1.4 4.1 1.1 4.7 1.5 4.9 2.5 5.6 3.2 6.2 3.4 6 3.5 5.9 3.6 5.6 3.8 4.9 3.4 4.2 2.7 4Z" fill="#AA9E2D"/></g></g><g><g><path d="M7.6 6.8C7.4 7.5 7.8 8.2 8.4 8.5 9.1 8.7 9.8 8.3 10 7.6 10.2 6.9 9.8 6.2 9.1 6 8.5 5.7 7.8 6.1 7.6 6.8Z"/><path d="M7.8 6.9C7.7 7.4 8 8 8.5 8.2 9.1 8.3 9.6 8 9.8 7.5 9.9 7 9.6 6.4 9.1 6.2 8.6 6.1 8 6.4 7.8 6.9Z" fill="#252D76"/><path d="M8 7C7.9 7.4 8.2 7.9 8.6 8 9 8.1 9.5 7.9 9.6 7.4 9.7 7 9.5 6.5 9 6.4 8.6 6.3 8.2 6.5 8 7Z" fill="#FF0D07"/><path d="M8.6 7.3 8.6 8 8.9 7.4 9.2 7.9 9.1 7.3 9.6 7.4 9.1 7.2 9.5 6.9 9 7.1 9 6.4 8.7 7 8.4 6.5 8.5 7.1 8 7 8.5 7.2 8.1 7.5Z" fill="#FFC502"/></g><g><path d="M9.2 5.9C9.8 6.1 10.2 6.7 10.1 7.4 9.6 7.4 8.4 7.3 7.5 7.5 7.4 7.3 7.5 7 7.5 6.8 7.8 6.1 8.5 5.7 9.2 5.9Z" fill="#AA9E2D"/></g></g><g><g><g><g><rect x="4.1" y="2.4" width="0.9" height="3.2" fill="#EBE9F4" transform="matrix(0.2871 -0.9579 0.9579 0.2871 -0.5847 7.1888)"/><path d="M6.1 5 2.7 4 3 3 6.4 4 6.1 5ZM3 3.9 5.8 4.7 6.1 4 3.2 3.2 3 3.9Z" fill="#B48294"/></g><g><path d="M2.9 3.9 2.6 4.8 5.7 5.7 6 4.9Z" fill="#EBE9F4"/><path d="M5.8 5.8 2.4 4.8 2.7 3.9 6.1 4.9 5.8 5.8ZM2.8 4.8 5.6 5.6 5.8 4.9 3 4 2.8 4.8Z" fill="#B48294"/></g><g><path d="M6.3 3.6C4.7 3.1 3.6 2.1 3.7 1.2L3.1 3.1 6.2 4 6.3 3.6Z" fill="#EBE9F4"/><path d="M6.3 4.1 3 3.1 3.6 1.2 3.9 1.3C3.7 2.1 4.8 3 6.4 3.5L6.5 3.5 6.3 4.1ZM3.3 3.1 6.1 3.9 6.2 3.5C4.9 3.2 4 2.5 3.7 1.8L3.3 3.1Z" fill="#B48294"/></g><g><path d="M9.3 5 9.9 3.1C9.5 3.8 8 4.1 6.4 3.6 6.4 3.6 6.4 3.6 6.4 3.6L6.2 4 9.3 5Z" fill="#EBE9F4"/><path d="M9.5 5.1 6.1 4 6.3 3.4 6.4 3.4 6.4 3.4C7.9 4 9.4 3.8 9.7 3L10 3.1 9.5 5.1ZM6.4 4 9.2 4.8 9.6 3.5C8.9 4 7.7 4 6.5 3.7L6.4 4Z" fill="#B48294"/></g><g><path d="M5.7 5.7 5.7 5.7 8.8 6.6 9.1 5.8 6 4.9Z" fill="#EBE9F4"/><path d="M9 6.7 5.6 5.7 5.6 5.7 5.9 4.8 9.3 5.8 9 6.7ZM5.9 5.7 8.7 6.6 8.9 5.9 6.1 5 5.9 5.7Z" fill="#B48294"/></g><g><rect x="7.2" y="3.3" width="0.9" height="3.3" fill="#EBE9F4" transform="matrix(0.2876 -0.9577 0.9577 0.2876 0.7353 10.8235)"/><path d="M9.2 5.9 5.8 4.9 6.1 3.9 9.5 4.9 9.2 5.9ZM6.1 4.9 8.9 5.7 9.2 5 6.3 4.1 6.1 4.9Z" fill="#B48294"/></g></g><g><path d="M6.2 4 3.1 3.1 2.9 3.9 6 4.9 6.2 4ZM5.6 4.6 3.3 3.9 3.5 3.3 5.8 4 5.6 4.6Z" fill="#EBE9F4"/><path d="M2.9 3.9 2.6 4.8 5.7 5.7 6 4.9 2.9 3.9ZM5.4 5.4 3 4.7 3.2 4.1 5.6 4.8 5.4 5.4Z" fill="#EBE9F4"/><path d="M6.3 3.6C4.7 3.1 3.6 2.1 3.7 1.2L3.1 3.1 6.2 4 6.3 3.6ZM5.9 3.8 3.5 3 3.7 2.2C3.7 2.2 4.5 3.1 5.9 3.5L5.9 3.8Z" fill="#EBE9F4"/><path d="M6.4 3.6C6.4 3.6 6.4 3.6 6.4 3.6L6.2 4 9.3 5 9.9 3.1C9.5 3.8 8 4.1 6.4 3.6ZM9 4.7 6.6 4 6.7 3.8C8.1 4.2 9.3 3.9 9.3 3.9L9 4.7Z" fill="#EBE9F4"/><path d="M5.7 5.7 5.7 5.7 8.8 6.6 9 5.8 6 4.9 5.7 5.7ZM6.3 5.1 8.7 5.8 8.5 6.4 6.1 5.6 6.3 5.1Z" fill="#EBE9F4"/><path d="M6 4.9 9.1 5.8 9.3 5 6.2 4 6 4.9ZM6.6 4.2 8.9 5 8.8 5.5 6.4 4.8 6.6 4.2Z" fill="#EBE9F4"/></g><path d="M9.3 5 9.3 4.9 6.5 4 6.6 3.6C6.5 3.6 6.4 3.6 6.4 3.5 6.4 3.5 6.4 3.5 6.4 3.5 6.3 3.5 6.2 3.4 6.1 3.4L6 3.8 3.2 3 3.2 3.1 6 3.9 5.7 4.7 2.9 3.8 2.9 3.9 5.7 4.7 5.5 5.5 2.7 4.7 2.7 4.8 5.5 5.6 5.8 5.7 5.8 5.7 6 5.8 8.9 6.7 8.9 6.6 6 5.7 6.2 5 9.1 5.9 9.1 5.8 6.2 4.8 6.4 4.1 9.3 5Z" fill="#EBE9F4"/></g><g><path d="M0.6 4.3 2.5 4.9 3.6 1.3 3.6 1.1 0 0Z" fill="#FF0000"/></g><g><path d="M10 3 9.9 3.2 8.8 6.8 10.7 7.3 13.6 4.1Z" fill="#FF0000"/></g><g><g><path d="M1.8 1 1.9 1.5 2.3 1.7 1.9 1.9 1.9 2.3 1.5 2 1.1 2.1 1.3 1.7 1.1 1.3 1.5 1.4Z" fill="#FFFF55"/><path d="M1.9 2.4 1.5 2.1 1 2.2 1.2 1.7 1 1.2 1.5 1.3 1.9 0.9 2 1.4 2.5 1.6 2 1.9 1.9 2.4ZM1.1 1.3 1.3 1.6 1.2 2 1.6 2 1.9 2.3 1.9 1.9 2.2 1.7 1.9 1.5 1.8 1.1 1.5 1.4 1.1 1.3Z" fill="#FFB70D"/></g><path d="M1.8 1.3 1.8 1.6 2.1 1.7 1.8 1.8 1.8 2.1 1.6 1.9 1.3 1.9 1.4 1.7 1.3 1.4 1.6 1.5Z" fill="#FFFFFF" opacity="0.5"/><path d="M2.3 1.7 1.9 1.5 1.8 1 1.5 1.4 1.1 1.3 1.3 1.7 1.1 2.1 1.5 2 1.8 2.3 1.9 1.8 2.3 1.7ZM1.6 1.9 1.2 2 1.4 1.7 1.2 1.4 1.5 1.4 1.7 1.2 1.8 1.5 2.1 1.6 1.9 1.8 1.9 2.1 1.6 1.9Z" fill="#FFD703" opacity="0.6"/><g opacity="0.5"><g><path d="M1.8 1.3 1.6 1.5 1.6 1.5 1.6 1.5 1.6 1.7 1.6 1.7 1.6 1.7Z" fill="#FFFFFF" opacity="0.2"/><path d="M1.8 1.3 1.6 1.7 1.6 1.7 1.8 1.5Z" fill="#FFFFFF"/></g><g><path d="M2.1 1.7 1.8 1.5 1.6 1.7 1.6 1.7 2.1 1.7Z" fill="#FFFFFF" opacity="0.2"/><path d="M2.1 1.7 1.6 1.7 1.8 1.8 2.1 1.7 2.1 1.7Z" fill="#FFFFFF"/></g><g><path d="M1.6 1.9 1.8 2.1 1.6 1.7Z" fill="#FFFFFF"/><path d="M1.6 1.7 1.8 2.1 1.8 1.8Z" fill="#FFFFFF" opacity="0.2"/></g><g><path d="M1.6 1.9 1.6 1.7 1.6 1.7 1.3 2Z" fill="#FFFFFF" opacity="0.2"/><path d="M1.3 2 1.6 1.7 1.4 1.7Z" fill="#FFFFFF"/></g><g><path d="M1.6 1.7 1.6 1.7 1.6 1.5 1.6 1.5 1.3 1.4 1.6 1.7Z" fill="#FFFFFF"/><path d="M1.6 1.7 1.3 1.4 1.4 1.7 1.6 1.7Z" fill="#FFFFFF" opacity="0.2"/></g></g></g><g><g><path d="M11.5 3.9 11.6 4.4 12 4.6 11.6 4.8 11.6 5.2 11.2 4.9 10.8 5 11 4.6 10.8 4.2 11.2 4.3Z" fill="#FFFF55"/><path d="M11.6 5.3 11.2 5 10.7 5.1 10.9 4.6 10.6 4.1 11.1 4.2 11.5 3.8 11.6 4.3 12.1 4.5 11.6 4.7 11.6 5.3ZM10.8 4.3 11 4.6 10.8 5 11.2 4.9 11.5 5.2 11.5 4.8 11.8 4.6 11.4 4.4 11.5 4 11.2 4.3 10.8 4.3Z" fill="#FFB70D"/></g><path d="M11.5 4.2 11.5 4.5 11.8 4.6 11.5 4.7 11.5 5 11.3 4.8 11 4.8 11.1 4.6 11 4.3 11.3 4.4Z" fill="#FFFFFF" opacity="0.5"/><path d="M12 4.6 11.6 4.4 11.5 3.9 11.2 4.2 10.7 4.1 11 4.6 10.8 5 11.2 4.9 11.5 5.2 11.6 4.7 12 4.6ZM11.3 4.8 11 4.9 11.1 4.6 10.9 4.3 11.2 4.3 11.4 4.1 11.5 4.4 11.8 4.5 11.5 4.7 11.5 5 11.3 4.8Z" fill="#FFD703" opacity="0.6"/><g opacity="0.5"><g><path d="M11.5 4.2 11.3 4.4 11.3 4.4 11.3 4.4 11.3 4.6 11.3 4.6 11.3 4.6Z" fill="#FFFFFF" opacity="0.2"/><path d="M11.5 4.2 11.3 4.6 11.3 4.6 11.5 4.5Z" fill="#FFFFFF"/></g><g><path d="M11.8 4.6 11.5 4.5 11.3 4.6 11.3 4.6 11.8 4.6Z" fill="#FFFFFF" opacity="0.2"/><path d="M11.8 4.6 11.3 4.6 11.5 4.7 11.8 4.6 11.8 4.6Z" fill="#FFFFFF"/></g><g><path d="M11.3 4.8 11.5 5 11.3 4.6Z" fill="#FFFFFF"/><path d="M11.3 4.6 11.5 5 11.5 4.7Z" fill="#FFFFFF" opacity="0.2"/></g><g><path d="M11.3 4.8 11.3 4.6 11.3 4.6 11 4.9Z" fill="#FFFFFF" opacity="0.2"/><path d="M11 4.9 11.3 4.6 11.1 4.6Z" fill="#FFFFFF"/></g><g><path d="M11.3 4.6 11.3 4.6 11.3 4.4 11.3 4.4 11 4.3 11.3 4.6Z" fill="#FFFFFF"/><path d="M11.3 4.6 11 4.3 11.1 4.6 11.3 4.6Z" fill="#FFFFFF" opacity="0.2"/></g></g></g><path d="M10.5 6.1C9.5 5.8 9.4 5.6 9.7 4.7 10 3.5 10.2 3.2 12 3.6L10 3 9.9 3.2 8.8 6.8 10.7 7.4 13.6 4.1 13.6 4.1C13.5 4.1 13.5 4.2 13.4 4.3 12.9 4.7 11.5 6.3 10.5 6.1Z" fill="#AE3C22" opacity="0.5"/><path d="M9.9 6.7C9.1 6.4 9 6.2 9.2 5.6 9.2 5.5 9.2 5.5 9.2 5.4L8.8 6.8 10.7 7.4 11.6 6.4C10.9 7 10.5 6.9 9.9 6.7Z" fill="#AE3C22" opacity="0.5"/><path d="M1.5 3.4C2.5 3.8 2.7 3.6 2.9 2.7 3.3 1.5 3.3 1.1 1.6 0.5L3.6 1.1 3.5 1.3 2.5 4.9 0.6 4.3 0 0 0 0C0 0.1 0.1 0.2 0.1 0.3 0.3 0.9 0.5 3 1.5 3.4Z" fill="#AE3C22" opacity="0.5"/><path d="M1.7 4.2C2.4 4.4 2.6 4.3 2.8 3.7 2.8 3.6 2.8 3.6 2.9 3.5L2.5 4.9 0.6 4.3 0.4 3C0.6 4 1 4 1.7 4.2Z" fill="#AE3C22" opacity="0.5"/></g><g><path d="M11.2 6.8 10.7 7.3C10.7 7.3 9.7 7 7.6 7.2 6.2 7.4 5.3 7.1 5.3 7.1L5.2 7.1C5 7 4.2 6.7 3.2 5.9 1.6 4.6 0.6 4.3 0.6 4.3L0.5 3.6 11.2 6.8Z" fill="#EFE863"/><g><path d="M1.2 4C1.2 4 1.1 4 1 4.1 1 4.2 1 4.3 1.1 4.3 1.2 4.3 1.3 4.3 1.3 4.2 1.4 4.1 1.3 4 1.2 4Z" fill="#D3C94C"/><path d="M2.1 4.3C2 4.3 1.9 4.3 1.9 4.4 1.9 4.5 1.9 4.6 2 4.6 2.1 4.6 2.2 4.6 2.2 4.5 2.2 4.4 2.1 4.3 2.1 4.3Z" fill="#D3C94C"/><path d="M2.9 4.5C2.8 4.5 2.7 4.5 2.7 4.6 2.7 4.7 2.7 4.8 2.8 4.8 2.9 4.8 3 4.8 3 4.7 3 4.6 3 4.5 2.9 4.5Z" fill="#D3C94C"/><path d="M3.7 4.8C3.6 4.8 3.5 4.8 3.5 4.9 3.5 5 3.5 5.1 3.6 5.1 3.7 5.1 3.8 5.1 3.8 5 3.9 4.9 3.8 4.8 3.7 4.8Z" fill="#D3C94C"/><path d="M4.6 5C4.5 5 4.4 5 4.4 5.1 4.4 5.2 4.4 5.3 4.5 5.3 4.6 5.3 4.7 5.3 4.7 5.2 4.7 5.1 4.6 5 4.6 5Z" fill="#D3C94C"/><path d="M5.4 5.3C5.3 5.3 5.2 5.3 5.2 5.4 5.2 5.5 5.2 5.6 5.3 5.6 5.4 5.6 5.5 5.6 5.5 5.5 5.5 5.4 5.5 5.3 5.4 5.3Z" fill="#D3C94C"/><path d="M6.2 5.5C6.1 5.5 6 5.5 6 5.6 6 5.7 6 5.8 6.1 5.8 6.2 5.8 6.3 5.8 6.3 5.7 6.3 5.6 6.3 5.5 6.2 5.5Z" fill="#D3C94C"/><path d="M7 5.8C6.9 5.8 6.8 5.8 6.8 5.9 6.8 6 6.9 6 7 6.1 7 6.1 7.1 6 7.2 6 7.2 5.9 7.1 5.8 7 5.8Z" fill="#D3C94C"/><path d="M7.9 6C7.8 6 7.7 6 7.7 6.1 7.7 6.2 7.7 6.3 7.8 6.3 7.9 6.3 8 6.3 8 6.2 8 6.1 8 6 7.9 6Z" fill="#D3C94C"/><path d="M8.7 6.3C8.6 6.3 8.5 6.3 8.5 6.4 8.5 6.5 8.5 6.6 8.6 6.6 8.7 6.6 8.8 6.6 8.8 6.5 8.8 6.4 8.8 6.3 8.7 6.3Z" fill="#D3C94C"/><path d="M9.5 6.5C9.4 6.5 9.3 6.5 9.3 6.6 9.3 6.7 9.3 6.8 9.4 6.8 9.5 6.8 9.6 6.8 9.6 6.7 9.7 6.6 9.6 6.5 9.5 6.5Z" fill="#D3C94C"/><path d="M10.4 6.8C10.3 6.8 10.2 6.8 10.2 6.9 10.2 7 10.2 7.1 10.3 7.1 10.4 7.1 10.5 7.1 10.5 7 10.5 6.9 10.5 6.8 10.4 6.8Z" fill="#D3C94C"/></g><g><g><path d="M1.4 4.1C1.4 4.2 1.3 4.2 1.2 4.2 1.1 4.2 1 4.1 1.1 4.1 1.1 4 1.2 3.9 1.3 4 1.3 4 1.4 4.1 1.4 4.1Z" fill="#D37B04"/><path d="M1.3 4.1C1.3 4.2 1.2 4.2 1.1 4.2 1.1 4.2 1.1 4.1 1.1 4 1.1 4 1.2 3.9 1.2 4 1.3 4 1.3 4 1.3 4.1Z" fill="#FFC502"/><path d="M1.3 4C1.3 4.1 1.2 4.1 1.3 4 1.2 4 1.2 4 1.2 4 1.2 4 1.2 3.9 1.3 4 1.3 4 1.3 4 1.3 4Z" fill="#FFC502"/><path d="M1.2 4.1C1.2 4.1 1.1 4.1 1.2 4.1 1.1 4.1 1.1 4.1 1.2 4.1 1.1 4.1 1.1 4.1 1.2 4.1 1.2 4.1 1.2 4.1 1.2 4.1Z" fill="#FFC502"/></g><g><path d="M2.2 4.4C2.2 4.5 2.1 4.5 2 4.5 1.9 4.5 1.9 4.4 1.9 4.3 1.9 4.2 2 4.2 2.1 4.2 2.2 4.2 2.2 4.3 2.2 4.4Z" fill="#D37B04"/><path d="M2.2 4.4C2.2 4.5 2.1 4.5 2 4.5 1.9 4.5 1.9 4.4 1.9 4.3 1.9 4.2 2 4.2 2.1 4.2 2.1 4.2 2.2 4.3 2.2 4.4Z" fill="#FFC502"/><path d="M2.1 4.3C2.1 4.3 2.1 4.3 2.1 4.3 2 4.3 2 4.3 2 4.3 2 4.2 2 4.2 2.1 4.3 2.1 4.2 2.1 4.3 2.1 4.3Z" fill="#FFC502"/><path d="M2 4.4C2 4.4 2 4.4 2 4.4 2 4.4 1.9 4.4 2 4.4 2 4.3 2 4.3 2 4.4 2 4.3 2 4.3 2 4.4Z" fill="#FFC502"/></g><g><path d="M3 4.6C3 4.7 2.9 4.7 2.8 4.7 2.7 4.7 2.7 4.6 2.7 4.5 2.7 4.4 2.8 4.4 2.9 4.4 3 4.5 3 4.6 3 4.6Z" fill="#D37B04"/><path d="M3 4.6C3 4.7 2.9 4.7 2.8 4.7 2.7 4.7 2.7 4.6 2.7 4.5 2.7 4.4 2.8 4.4 2.9 4.4 3 4.5 3 4.5 3 4.6Z" fill="#FFC502"/><path d="M2.9 4.5C2.9 4.6 2.9 4.6 2.9 4.5 2.8 4.5 2.8 4.5 2.8 4.5 2.8 4.5 2.9 4.4 2.9 4.5 2.9 4.5 2.9 4.5 2.9 4.5Z" fill="#FFC502"/><path d="M2.8 4.6C2.8 4.6 2.8 4.6 2.8 4.6 2.8 4.6 2.8 4.6 2.8 4.6 2.8 4.6 2.8 4.6 2.8 4.6 2.8 4.6 2.8 4.6 2.8 4.6Z" fill="#FFC502"/></g><g><path d="M3.9 4.9C3.8 5 3.7 5 3.7 5 3.6 5 3.5 4.9 3.6 4.8 3.6 4.7 3.7 4.7 3.8 4.7 3.8 4.7 3.9 4.8 3.9 4.9Z" fill="#D37B04"/><path d="M3.8 4.9C3.8 5 3.7 5 3.6 5 3.5 5 3.5 4.9 3.5 4.8 3.5 4.7 3.6 4.7 3.7 4.7 3.8 4.7 3.8 4.8 3.8 4.9Z" fill="#FFC502"/><path d="M3.8 4.8C3.8 4.8 3.7 4.8 3.8 4.8 3.7 4.8 3.7 4.8 3.7 4.8 3.6 4.7 3.7 4.7 3.8 4.8 3.8 4.7 3.8 4.8 3.8 4.8Z" fill="#FFC502"/><path d="M3.7 4.9C3.7 4.9 3.6 4.9 3.7 4.9 3.6 4.9 3.6 4.9 3.7 4.9 3.6 4.8 3.6 4.8 3.7 4.9 3.7 4.8 3.7 4.8 3.7 4.9Z" fill="#FFC502"/></g><g><path d="M4.7 5.1C4.7 5.2 4.6 5.2 4.5 5.2 4.4 5.2 4.4 5.1 4.4 5 4.4 4.9 4.5 4.9 4.6 4.9 4.7 5 4.7 5.1 4.7 5.1Z" fill="#D37B04"/><path d="M4.6 5.1C4.6 5.2 4.5 5.2 4.5 5.2 4.4 5.2 4.4 5.1 4.4 5 4.4 5 4.5 4.9 4.6 5 4.6 5 4.7 5 4.6 5.1Z" fill="#FFC502"/><path d="M4.6 5C4.6 5.1 4.5 5.1 4.6 5 4.5 5 4.5 5 4.5 5 4.5 5 4.5 4.9 4.6 5 4.6 5 4.6 5 4.6 5Z" fill="#FFC502"/><path d="M4.5 5.1C4.5 5.1 4.5 5.1 4.5 5.1 4.4 5.1 4.4 5.1 4.5 5.1 4.4 5.1 4.5 5.1 4.5 5.1 4.5 5.1 4.5 5.1 4.5 5.1Z" fill="#FFC502"/></g><g><path d="M5.5 5.4C5.5 5.5 5.4 5.5 5.3 5.5 5.2 5.5 5.2 5.4 5.2 5.3 5.2 5.2 5.3 5.2 5.4 5.2 5.5 5.2 5.5 5.3 5.5 5.4Z" fill="#D37B04"/><path d="M5.5 5.4C5.5 5.5 5.4 5.5 5.3 5.5 5.2 5.5 5.2 5.4 5.2 5.3 5.2 5.2 5.3 5.2 5.4 5.2 5.5 5.2 5.5 5.3 5.5 5.4Z" fill="#FFC502"/><path d="M5.4 5.3C5.4 5.3 5.4 5.3 5.4 5.3 5.3 5.3 5.3 5.3 5.3 5.3 5.3 5.2 5.3 5.2 5.4 5.3 5.4 5.2 5.4 5.3 5.4 5.3Z" fill="#FFC502"/><path d="M5.3 5.4C5.3 5.4 5.3 5.4 5.3 5.4 5.3 5.4 5.3 5.4 5.3 5.4 5.3 5.3 5.3 5.3 5.3 5.4 5.3 5.3 5.3 5.3 5.3 5.4Z" fill="#FFC502"/></g><g><path d="M6.3 5.6C6.3 5.7 6.2 5.7 6.1 5.7 6.1 5.7 6 5.6 6 5.5 6 5.4 6.1 5.4 6.2 5.4 6.3 5.5 6.4 5.6 6.3 5.6Z" fill="#D37B04"/><path d="M6.3 5.6C6.3 5.7 6.2 5.7 6.1 5.7 6 5.7 6 5.6 6 5.5 6 5.4 6.1 5.4 6.2 5.4 6.3 5.5 6.3 5.5 6.3 5.6Z" fill="#FFC502"/><path d="M6.3 5.5C6.2 5.6 6.2 5.6 6.3 5.5 6.2 5.5 6.2 5.5 6.2 5.5 6.1 5.5 6.2 5.4 6.3 5.5 6.2 5.5 6.3 5.5 6.3 5.5Z" fill="#FFC502"/><path d="M6.2 5.6C6.1 5.6 6.1 5.6 6.2 5.6 6.1 5.6 6.1 5.6 6.2 5.6 6.1 5.6 6.1 5.6 6.2 5.6 6.1 5.6 6.2 5.6 6.2 5.6Z" fill="#FFC502"/></g><g><path d="M7.2 5.9C7.2 6 7.1 6 7 6 6.9 6 6.9 5.9 6.9 5.8 6.9 5.7 7 5.7 7.1 5.7 7.2 5.7 7.2 5.8 7.2 5.9Z" fill="#D37B04"/><path d="M7.1 5.8C7.1 5.9 7 5.9 6.9 5.9 6.8 5.9 6.8 5.8 6.8 5.7 6.8 5.6 6.9 5.6 7 5.6 7.1 5.7 7.2 5.8 7.1 5.8Z" fill="#FFC502"/><path d="M7.1 5.8C7.1 5.8 7 5.8 7.1 5.8 7 5.8 7 5.8 7 5.8 7 5.7 7 5.7 7.1 5.8 7.1 5.7 7.1 5.8 7.1 5.8Z" fill="#FFC502"/><path d="M7 5.9C7 5.9 7 5.9 7 5.9 6.9 5.9 6.9 5.9 7 5.9 6.9 5.8 7 5.8 7 5.9 7 5.8 7 5.8 7 5.9Z" fill="#FFC502"/></g><g><path d="M8 6.1C8 6.2 7.9 6.2 7.8 6.2 7.7 6.2 7.7 6.1 7.7 6 7.7 5.9 7.8 5.9 7.9 5.9 8 6 8 6.1 8 6.1Z" fill="#D37B04"/><path d="M8 6.1C8 6.2 7.9 6.2 7.8 6.2 7.8 6.2 7.7 6.1 7.7 6 7.7 5.9 7.8 5.9 7.9 5.9 8 6 8 6 8 6.1Z" fill="#FFC502"/><path d="M7.9 6C7.9 6.1 7.9 6.1 7.9 6 7.8 6 7.8 6 7.8 6 7.8 6 7.8 5.9 7.9 6 7.9 6 7.9 6 7.9 6Z" fill="#FFC502"/><path d="M7.8 6.1C7.8 6.1 7.8 6.1 7.8 6.1 7.8 6.1 7.8 6.1 7.8 6.1 7.8 6.1 7.8 6.1 7.8 6.1 7.8 6.1 7.8 6.1 7.8 6.1Z" fill="#FFC502"/></g><g><path d="M8.8 6.4C8.8 6.5 8.7 6.5 8.6 6.5 8.5 6.5 8.5 6.4 8.5 6.3 8.5 6.2 8.6 6.2 8.7 6.2 8.8 6.2 8.9 6.3 8.8 6.4Z" fill="#D37B04"/><path d="M8.8 6.3C8.8 6.4 8.7 6.4 8.6 6.4 8.5 6.4 8.5 6.3 8.5 6.2 8.5 6.1 8.6 6.1 8.7 6.1 8.8 6.2 8.8 6.3 8.8 6.3Z" fill="#FFC502"/><path d="M8.8 6.3C8.7 6.3 8.7 6.3 8.8 6.3 8.7 6.3 8.7 6.3 8.7 6.3 8.6 6.2 8.7 6.2 8.8 6.3 8.7 6.2 8.8 6.2 8.8 6.3Z" fill="#FFC502"/><path d="M8.6 6.4C8.6 6.4 8.6 6.4 8.6 6.4 8.6 6.4 8.6 6.4 8.6 6.4 8.6 6.3 8.6 6.3 8.6 6.4 8.6 6.3 8.6 6.3 8.6 6.4Z" fill="#FFC502"/></g><g><path d="M9.7 6.6C9.7 6.7 9.6 6.7 9.5 6.7 9.4 6.7 9.4 6.6 9.4 6.5 9.4 6.4 9.5 6.4 9.6 6.4 9.6 6.5 9.7 6.6 9.7 6.6Z" fill="#D37B04"/><path d="M9.6 6.6C9.6 6.7 9.5 6.7 9.4 6.7 9.3 6.7 9.3 6.6 9.3 6.5 9.3 6.4 9.4 6.4 9.5 6.4 9.6 6.5 9.7 6.5 9.6 6.6Z" fill="#FFC502"/><path d="M9.6 6.5C9.6 6.6 9.5 6.6 9.6 6.5 9.5 6.5 9.5 6.5 9.5 6.5 9.5 6.5 9.5 6.4 9.6 6.5 9.6 6.5 9.6 6.5 9.6 6.5Z" fill="#FFC502"/><path d="M9.5 6.6C9.5 6.6 9.5 6.6 9.5 6.6 9.4 6.6 9.4 6.6 9.5 6.6 9.4 6.6 9.4 6.6 9.5 6.6 9.5 6.6 9.5 6.6 9.5 6.6Z" fill="#FFC502"/></g><g><path d="M10.5 6.9C10.5 7 10.4 7 10.3 7 10.2 7 10.2 6.9 10.2 6.8 10.2 6.7 10.3 6.7 10.4 6.7 10.5 6.7 10.5 6.8 10.5 6.9Z" fill="#D37B04"/><path d="M10.5 6.8C10.5 6.9 10.4 6.9 10.3 6.9 10.2 6.9 10.2 6.8 10.2 6.7 10.2 6.6 10.3 6.6 10.4 6.6 10.5 6.7 10.5 6.8 10.5 6.8Z" fill="#FFC502"/><path d="M10.4 6.8C10.4 6.8 10.4 6.8 10.4 6.8 10.3 6.8 10.3 6.8 10.3 6.8 10.3 6.7 10.3 6.7 10.4 6.8 10.4 6.7 10.4 6.7 10.4 6.8Z" fill="#FFC502"/><path d="M10.3 6.8C10.3 6.9 10.3 6.9 10.3 6.8 10.3 6.9 10.3 6.8 10.3 6.8 10.3 6.8 10.3 6.8 10.3 6.8 10.3 6.8 10.3 6.8 10.3 6.8Z" fill="#FFC502"/></g></g><g><path d="M5.4 5.9C5.2 5.8 4.8 5.8 4.4 5.9 3.7 6 3.4 5.9 3.2 5.6 3 5.4 3.2 5.2 3.4 5.2 3.6 5.2 3.6 5.4 3.6 5.5 3.5 5.6 3.5 5.5 3.5 5.5 3.5 5.5 3.5 5.5 3.5 5.5 3.5 5.5 3.4 5.4 3.4 5.5 3.3 5.6 3.4 5.7 3.5 5.7 3.7 5.7 3.8 5.4 3.5 5.3 3.1 5.1 3 5.4 3.1 5.6 3.3 5.9 3.7 6 4 6 4.3 6 4.8 5.8 5.1 5.9 5.5 6 5.6 6.4 5.4 6.6 5.2 6.8 4.9 6.6 5 6.4 5 6.2 5.2 6.2 5.2 6.3 5.2 6.3 5.2 6.3 5.2 6.4 5.2 6.4 5.2 6.4 5.2 6.4 5.2 6.4 5.1 6.4 5.1 6.4 5.1 6.4 5.1 6.5 5.1 6.5 5.1 6.5 5.1 6.5 5.2 6.5 5.3 6.5 5.3 6.3 5.2 6.3 5.1 6.3 5 6.3 5 6.5 4.8 6.6 5.3 6.8 5.5 6.6 5.6 6.4 5.6 6 5.4 5.9Z" fill="#D3C94C"/><path d="M6.1 6.1C6.4 6.1 6.6 6.3 7 6.7 7.5 7.1 7.8 7.2 8.1 7.1 8.4 7 8.3 6.7 8.2 6.6 8 6.5 7.8 6.7 7.9 6.8 7.9 6.9 8 6.8 8 6.8 8 6.8 8 6.8 8 6.7 8 6.7 8.1 6.7 8.1 6.7 8.1 6.8 8 6.8 7.9 6.8 7.7 6.8 7.8 6.5 8.1 6.6 8.4 6.7 8.4 7 8.1 7.1 7.8 7.3 7.4 7.1 7.1 6.9 6.9 6.7 6.6 6.3 6.3 6.2 5.9 6.1 5.7 6.5 5.7 6.7 5.8 6.9 6.1 7 6.2 6.8 6.3 6.6 6.1 6.5 6 6.6 6 6.6 6 6.6 6 6.7 6 6.7 6 6.7 6 6.7 6 6.7 6.1 6.7 6 6.8 6 6.8 6 6.9 5.9 6.8 5.9 6.8 5.9 6.8 5.9 6.8 5.9 6.7 5.9 6.6 6.1 6.6 6.2 6.6 6.3 6.7 6.2 6.9 6.2 7 5.7 7 5.7 6.7 5.6 6.4 5.8 6.1 6.1 6.1Z" fill="#D3C94C"/><path d="M5.8 5.7C5.8 5.7 5.6 5.9 5.7 6.2 5.7 6.2 5.9 6 5.8 5.7Z" fill="#D3C94C"/><path d="M5.4 5.7C5.4 5.7 5.4 5.9 5.6 6 5.6 6 5.6 5.8 5.4 5.7Z" fill="#D3C94C"/><path d="M6.1 5.9C6.1 5.9 6 6.1 5.8 6.1 5.8 6.1 5.9 5.9 6.1 5.9Z" fill="#D3C94C"/></g><g><path d="M5.4 5.9C5.2 5.8 4.9 5.8 4.4 5.9 3.7 6 3.4 5.8 3.2 5.6 3 5.3 3.2 5.1 3.4 5.2 3.6 5.2 3.6 5.4 3.6 5.5 3.5 5.6 3.5 5.5 3.5 5.5 3.5 5.5 3.5 5.5 3.5 5.5 3.5 5.5 3.4 5.4 3.4 5.5 3.3 5.6 3.4 5.7 3.5 5.7 3.7 5.7 3.8 5.4 3.5 5.3 3.2 5 3 5.3 3.1 5.6 3.3 5.9 3.7 6 4.1 5.9 4.4 5.9 4.9 5.7 5.2 5.8 5.5 5.9 5.6 6.3 5.4 6.5 5.2 6.6 4.9 6.5 5 6.3 5 6.1 5.2 6.1 5.2 6.2 5.2 6.2 5.2 6.2 5.2 6.3 5.2 6.3 5.2 6.3 5.2 6.3 5.2 6.3 5.1 6.3 5.1 6.3 5.1 6.3 5.1 6.4 5.1 6.4 5.1 6.4 5.1 6.4 5.2 6.4 5.3 6.4 5.3 6.2 5.2 6.2 5.1 6.2 5 6.2 5 6.4 4.8 6.6 5.3 6.8 5.5 6.6 5.7 6.3 5.6 6 5.4 5.9Z" fill="#D37B04"/><path d="M6.1 6.1C6.4 6.1 6.6 6.3 7 6.7 7.5 7.1 7.8 7.2 8.1 7 8.4 6.9 8.3 6.6 8.2 6.5 8 6.5 7.8 6.7 7.9 6.7 7.9 6.8 8 6.7 8 6.7 8 6.7 8 6.7 8 6.6 8 6.6 8.1 6.6 8.1 6.6 8.1 6.7 8 6.7 7.9 6.7 7.7 6.8 7.8 6.5 8.1 6.5 8.4 6.6 8.4 6.9 8.1 7 7.8 7.2 7.4 7 7.1 6.8 6.9 6.7 6.6 6.3 6.3 6.2 5.9 6.1 5.7 6.4 5.8 6.7 5.9 6.9 6.2 7 6.3 6.8 6.4 6.6 6.2 6.5 6.1 6.6 6.1 6.6 6.1 6.6 6.1 6.7 6.1 6.7 6.1 6.7 6.1 6.7 6.1 6.7 6.2 6.7 6.1 6.8 6.1 6.8 6.1 6.9 6 6.8 6 6.8 6 6.8 6 6.8 6 6.7 6 6.6 6.2 6.6 6.3 6.6 6.4 6.7 6.3 6.9 6.2 7 5.7 6.9 5.7 6.6 5.6 6.3 5.9 6.1 6.1 6.1Z" fill="#D37B04"/><path d="M5.8 5.7C5.8 5.7 5.6 5.9 5.7 6.2 5.7 6.2 5.9 6 5.8 5.7Z" fill="#D37B04"/><path d="M5.5 5.7C5.5 5.7 5.5 5.9 5.7 6 5.6 6 5.6 5.8 5.5 5.7Z" fill="#D37B04"/><path d="M6.1 5.9C6.1 5.9 6 6.1 5.8 6.1 5.8 6.1 5.9 5.9 6.1 5.9Z" fill="#D37B04"/></g><path d="M5 5.8C5 5.8 5.5 5.8 5.6 6.2 5.6 6.1 5.4 5.8 5 5.8Z" fill="#FFC502"/><path d="M6.5 6.3C6.5 6.3 6.1 6 5.8 6.3 5.8 6.2 6.1 6 6.5 6.3Z" fill="#FFC502"/><path d="M3.5 5.2C3.5 5.2 3.6 5.3 3.6 5.4 3.6 5.3 3.6 5.2 3.5 5.2Z" fill="#FFC502"/><path d="M8.1 6.6C8.1 6.6 8 6.6 7.9 6.7 7.9 6.6 8 6.5 8.1 6.6Z" fill="#FFC502"/><g><path d="M0.5 3.6 0.5 3.7 8.4 6.1 8.2 6.6C8.2 6.6 6.4 8.1 3.1 5.7 3.2 5.8 3.2 5.8 3.3 5.9 4.3 6.7 5.1 7 5.3 7.1L5.4 7.1C5.4 7.1 6.3 7.4 7.8 7.2 9.9 7 10.9 7.3 10.9 7.3L11.4 6.8 0.5 3.6Z" fill="#D3C94C"/></g><g><path d="M6.6 5.5 10 6.6 9.9 7C9.9 7 8.9 7.1 7.2 7.2 6.2 7.2 5.5 7.2 5 7 5.1 7 5.2 7 5.2 7.1L5.3 7.1C5.3 7.1 6.2 7.4 7.7 7.2 9.8 7 10.8 7.3 10.8 7.3L11.3 6.8 6.6 5.5Z" fill="#D3C94C"/></g><path d="M5.8 5.7C5.8 5.7 5.7 5.8 5.7 6 5.7 5.9 5.7 5.8 5.8 5.7Z" fill="#FFC502"/><path d="M5.5 5.7C5.5 5.7 5.5 5.8 5.6 6 5.5 5.9 5.5 5.8 5.5 5.7Z" fill="#FFC502"/><path d="M6.1 5.9C6.1 5.9 6 5.9 5.9 6 5.9 5.9 6 5.9 6.1 5.9Z" fill="#FFC502"/></g><path d="M0.8 4.3C0.8 4.3 2 4.8 2.9 5.6 2.7 5.3 1.8 4.5 0.8 4.3Z" fill="#FFFFFF"/></g></svg>