<svg width="1004" height="1231" viewBox="0 0 1004 1231" xmlns="http://www.w3.org/2000/svg" xmlns:xlink="http://www.w3.org/1999/xlink" overflow="hidden"><defs></defs><g><linearGradient x1="488.803" y1="1055.71" x2="488.803" y2="219.872" gradientUnits="userSpaceOnUse" id="SVGID_4_"><stop offset="0" stop-color="#F4D6A6"/><stop offset="1" stop-color="#F7EDD2"/></linearGradient><g opacity="0.2"><defs><path d="M803.2 1077.5 803.2 1077.5C594.9 1107.1 383.4 1107.1 175 1077.5L175 1077.5 153.4 890.2C133.8 720.4 133.8 548.9 153.4 379.2L175 191.8 175 191.8C383.3 162.2 594.8 162.2 803.2 191.8L803.2 191.8 825 385.7C843.6 551.1 843.6 718.1 825 883.6L803.2 1077.5Z" id="SVGID_1_" opacity="0.2"/></defs><linearGradient x1="488.803" y1="1099.68" x2="488.803" y2="169.557" gradientUnits="userSpaceOnUse" id="SVGID_2_"><stop offset="0.308" stop-color="#E65E7D"/><stop offset="1" stop-color="#FF8B9F"/></linearGradient><clipPath id="SVGID_3_"><use width="100%" height="100%" xlink:href="#SVGID_1_" overflow="visible"></use></clipPath><use width="100%" height="100%" xlink:href="#SVGID_1_" fill="url(#SVGID_2_)" overflow="visible"></use><path d="M513.2 1231C506.5 1231 499.7 1228.7 494.1 1224.1 481.3 1213.5 479.5 1194.6 490.1 1181.9 558.5 1099 644.7 1034.2 727.9 971.5 777.3 934.3 828.3 895.9 874.4 854.5 896.8 834.4 919.4 812.2 932.6 786.5 938.2 775.6 941.8 764.3 943.3 753.5 711 901.8 447.1 1008 177.2 1061.6 155.1 1066 133.3 1069.5 110.2 1064.6 78 1057.7 53.6 1034.8 48.1 1006.1 42.1 974.9 59 948.7 74.4 929.2 151.7 831.8 253.9 759.4 352.8 689.4 365.4 680.5 377.9 671.6 390.4 662.7 520.3 569.8 646.8 469.2 766.6 363.6 813.6 322.1 858 280.7 884.5 229.6 904.2 191.6 916.5 137.1 896.6 91.1 824.7 139.7 756.4 197.1 690.3 252.7 592.3 335.1 491 420.4 374 480.6 324.1 506.3 271.9 527.1 221.4 547.3L99.6 596.2C51.9 615.3 26.4 601.6 13.5 586.7 3.5 575.3-10 549.6 11.6 506.2 56.5 415.9 134.1 347.6 202.6 287.4 313.2 190.1 427.5 89.4 552.6 5.1 566.3-4.2 585-0.5 594.2 13.2 603.5 26.9 599.8 45.6 586.1 54.8 464.1 137 351.3 236.4 242.1 332.4 174.7 391.8 104.9 453.2 65.3 533 62.6 538.4 61.2 542.6 60.5 545.4 63.8 545 69.2 543.7 77.3 540.5L199.2 491.8C248.4 472.1 299.3 451.8 346.6 427.4 457.6 370.3 556.2 287.2 651.7 206.9 722.5 147.3 795.8 85.7 874.8 33.6 891.8 22.4 907.7 20.5 922.2 27.8 932.8 33.2 938.2 41.9 940.5 45.6 976.3 104 975.3 185.1 937.9 257.3 906.7 317.5 857.9 363.3 806.4 408.6 685 515.6 556.8 617.5 425.3 711.5 412.7 720.5 400.1 729.4 387.5 738.4 292.1 806 193.4 875.8 121.4 966.5 110.8 979.8 106 989.3 107 994.7 107.8 998.6 114.3 1004.1 122.7 1005.9 134.6 1008.4 149.1 1006 165.4 1002.7 443 947.6 714 835.3 949.2 677.9 956.5 673 965.6 671.6 974 673.9 982.4 676.3 989.4 682.2 993.1 690.2 1009.9 726.4 1007.2 772.6 986 813.8 968.3 848.1 941.2 875.1 914.5 899.1 866.5 942.2 814.4 981.4 764 1019.4 679.8 1082.8 600.3 1142.7 536.3 1220.1 530.5 1227.3 521.9 1231 513.2 1231ZM60 549.8 60 549.8 60 549.8Z" fill="#FFFFFF" clip-path="url(#SVGID_3_)"/></g><path d="M489.1 169.6C594.1 169.6 699 177 803.2 191.8L803.2 191.8 825 385.7C843.6 551.1 843.6 718.1 825 883.6L803.2 1077.5 803.2 1077.5C699 1092.3 594.1 1099.7 489.1 1099.7 384.1 1099.7 279.2 1092.3 175 1077.5L175 1077.5 153.4 890.2C133.8 720.4 133.8 548.9 153.4 379.2L175 191.8 175 191.8C279.2 177 384.1 169.6 489.1 169.6M489.1 157.6C383.8 157.6 277.6 165.1 173.3 179.9 167.9 180.7 163.7 185 163.1 190.4L141.5 377.7C121.8 548.2 121.8 721 141.5 891.5L163.1 1078.8C163.7 1084.2 167.9 1088.5 173.3 1089.3 277.5 1104.1 383.8 1111.6 489.1 1111.6 594.4 1111.6 700.6 1104.1 804.9 1089.3 810.3 1088.5 814.5 1084.2 815.1 1078.8L836.9 884.9C855.6 718.8 855.6 550.4 836.9 384.3L815.1 190.4C814.5 185 810.3 180.6 804.9 179.9 700.6 165.1 594.4 157.6 489.1 157.6L489.1 157.6Z" fill="#B54D68"/><path d="M754.2 1035.7 754.2 1035.7C578.3 1062.3 399.8 1062.3 224 1035.7L224 1035.7 205.8 867.4C189.3 714.8 189.3 560.7 205.8 408.2L224 239.9 224 239.9C399.9 213.3 578.4 213.3 754.2 239.9L754.2 239.9 772.6 414.1C788.3 562.8 788.3 712.8 772.6 861.5L754.2 1035.7Z" fill="url(#SVGID_4_)"/><path d="M489 219.9C577.6 219.9 666.2 226.5 754.1 239.7L754.1 239.7 772.5 412.2C788.2 559.4 788.2 708 772.5 855.2L754.1 1027.7 754.1 1027.7C666.2 1040.9 577.6 1047.5 489 1047.5 400.4 1047.5 311.8 1040.9 223.9 1027.7L223.9 1027.7 205.7 861C189.2 709.9 189.2 557.4 205.7 406.3L223.9 239.6 223.9 239.6C311.9 226.5 400.5 219.9 489 219.9M489 207.9C400 207.9 310.3 214.6 222.2 227.7 216.8 228.5 212.6 233 212 238.7L193.8 404.4C177.2 555.3 177.2 708.4 193.8 859.3L212 1025C212.6 1030.7 216.8 1035.2 222.2 1036 310.3 1049.1 400 1055.8 489 1055.8 578 1055.8 667.7 1049.1 755.8 1036 761.2 1035.2 765.4 1030.7 766 1025L784.4 853.5C800.2 706.5 800.2 557.4 784.4 410.3L766 238.8C765.4 233.1 761.2 228.6 755.8 227.8 667.8 214.5 578 207.9 489 207.9L489 207.9Z" fill="#B54D68"/><path d="M489.1 232.5C578.4 232.5 668.5 238.7 757.1 250.8L775.4 413.6C791.8 559.6 791.8 707.7 775.4 853.8L757 1016.5C668.4 1028.6 578.3 1034.8 489 1034.8 399.7 1034.8 309.6 1028.6 221 1016.5L203 859.6C185.7 709.7 185.7 557.7 203 407.8L221 250.8C309.6 238.7 399.7 232.5 489.1 232.5M489.1 219.9C395.7 219.9 302.3 226.5 209.6 239.7L209.6 239.7 190.4 406.4C173 557.4 173 709.9 190.4 861L209.6 1027.7 209.6 1027.7C302.3 1040.9 395.7 1047.5 489.1 1047.5 582.5 1047.5 675.9 1040.9 768.6 1027.7L768.6 1027.7 788 855.2C804.5 708 804.5 559.4 788 412.2L768.6 239.7 768.6 239.7C675.8 226.5 582.4 219.9 489.1 219.9L489.1 219.9Z" opacity="0.1"/></g></svg>