<svg width="861.9" height="132" viewBox="0 0 861.9 132" xmlns="http://www.w3.org/2000/svg" xmlns:xlink="http://www.w3.org/1999/xlink" overflow="hidden"><defs></defs><g><g><g><path d="M240.5 72C239 67.9 235.6 65.1 231.8 63.3 230.6 62.7 229.3 62.3 228.1 62 228.2 61.6 228.4 61.3 228.5 60.9 229.3 58.4 229.6 55.5 229.6 52.8 229.5 50.1 229 47.3 227.8 44.9 226.6 42.6 224.8 40.7 222.9 39 219.3 35.7 214 34.8 209.3 35.3 207.6 35.5 205.9 35.9 204.3 36.5 204.3 35.9 204.2 35.2 204.1 34.6 203.3 29.8 200.5 25.4 196.6 22.5 194.6 21 192.2 19.9 189.8 19.4 187 18.9 184.1 19.2 181.3 19.9 176.7 21 172.7 24.1 169.7 27.7 166.6 31.4 164.6 35.8 163.4 40.4 162.7 43.4 162.5 46.5 162.7 49.5 162.8 51.1 163 52.7 163.2 54.4 163.2 54.5 163.2 54.6 163.2 54.7 162.5 54.2 161.7 53.8 161.4 53.6 160.2 53 158.8 52.9 157.5 53.1 157.2 53.1 157 53.2 156.7 53.2 156.7 51.8 156.4 50.5 155.9 49.2 153.8 44.3 148 44 143.4 45 142.9 43.8 142.3 42.7 141.4 41.7 139.9 39.9 137.8 38.4 135.5 37.7 133.1 37 130.3 37.7 128.1 38.5 128 38.5 127.9 38.6 127.7 38.6 127.2 30.8 122.5 23.1 115.9 19.2 107.7 14.4 96.8 15.4 88.2 18.7 79.7 22 71.5 27.5 66.6 35.4 64.2 39.4 63 44.1 63.1 48.7 63.1 48.8 63.1 49 63.1 49.1 60.8 48.9 58.5 49.2 56.2 49.9 55.8 50 55.5 50.1 55.2 50.3 54.8 49.7 54.4 49.1 53.9 48.6 52.2 46.8 49.2 45.8 46.9 45.2 41.5 43.8 35.7 45.1 30.7 47.2 20.7 51.2 12.6 59.3 7.3 68.5 2.6 76.6-0.3 86.2 0.6 95.6 1.3 103.4 5.5 113.6 13.8 115.4 13.7 115.5 13.6 115.5 13.6 115.6 13.3 115.9 12.8 116.1 12.6 116.4 11.6 117.8 15.3 117.9 16 117.9 19.1 117.9 22.3 117.4 25.3 116.9 28.5 116.4 31.8 115.9 35 115.5 48.2 113.9 61.4 111.8 74.7 110.4 87.7 109 100.8 108.2 113.9 107.4 127.1 106.6 140.4 105.8 153.6 104.8 158.8 104.4 164 104 169.3 103.8 174.4 103.6 179.5 103.6 184.6 103.6 189.7 103.6 194.9 103.6 200 103.6 201.5 103.6 203.1 103.7 204.6 103.8 205 104.1 205.5 104.4 205.9 104.7 207.2 105.7 208.1 106.9 209.3 108.1 209.7 108.5 210.2 109 210.6 109.3 211 109.6 211.3 110.5 211.4 110.9 211.7 111.7 212.9 112 213.6 112.2 216 112.8 218 111.7 220.1 110.7 222.5 109.5 224.7 107.9 226.7 106.1 228.8 104.2 230.8 102.2 232.7 100.1 236.4 95.9 239.4 91 241 85.6 242.2 81.5 242.2 76.5 240.5 72Z" fill="#FFFFFF"/><path d="M15.8 118.3 15.8 118.3C14.2 118.3 12.3 118.1 11.9 117.3 11.8 117.1 11.7 116.8 12 116.3 12.2 116.1 12.4 115.9 12.7 115.7 12.8 115.7 12.8 115.6 12.9 115.6 5.2 113.5 0.8 103.9 0.1 95.6-0.6 87 1.8 77.3 6.9 68.4 12.8 58.3 21.2 50.7 30.5 47 34.8 45.3 38.6 44.4 42.1 44.4 43.8 44.4 45.4 44.6 46.9 45 49.1 45.6 52.2 46.6 54 48.5 54.5 49 54.8 49.5 55.2 50.1 55.5 50 55.8 49.9 56.1 49.8 58.3 49.1 60.5 48.8 62.8 49 62.8 49 62.8 48.9 62.8 48.9 62.7 44.1 63.9 39.3 66.3 35.4 71.9 26.3 81.2 21.3 88 18.6 92.8 16.7 97.9 15.8 102.6 15.8 107.7 15.8 112.2 16.9 115.9 19.1 122.5 23 127.2 30.5 127.8 38.3 127.8 38.3 127.8 38.3 127.8 38.3 129.9 37.6 131.6 37.2 133.1 37.2 133.9 37.2 134.7 37.3 135.4 37.5 137.6 38.2 139.8 39.7 141.4 41.6 142.2 42.5 142.8 43.6 143.3 44.8 144.7 44.5 146 44.3 147.3 44.3 150.3 44.3 154.2 45.1 155.8 49.1 156.3 50.2 156.6 51.5 156.6 52.9 156.8 52.9 156.9 52.9 157.1 52.8 158.6 52.6 160 52.8 161.2 53.4 161.4 53.5 162 53.8 162.5 54.2 162.3 52.7 162.1 51.1 162 49.6 161.8 46.3 162 43.2 162.7 40.4 163.9 35.5 166.1 31.1 169 27.6 172.4 23.5 176.6 20.7 180.7 19.8 184.1 19 186.9 18.9 189.3 19.3 191.7 19.8 194.1 20.9 196.2 22.4 200.3 25.4 203 29.9 203.8 34.7 203.9 35.2 203.9 35.7 204 36.2 205.5 35.7 207.1 35.3 208.7 35.1 209.5 35 210.3 35 211.1 35 215.7 35 219.8 36.4 222.6 38.9 224.5 40.6 226.4 42.5 227.6 44.9 228.7 47.2 229.4 50 229.5 52.9 229.6 55 229.4 58.1 228.4 61.1 228.3 61.4 228.2 61.6 228.1 61.9 229.3 62.2 230.5 62.6 231.6 63.1 236.1 65.3 239.1 68.3 240.5 72 242.1 76.3 242.2 81.4 240.8 86.2 239.3 91.3 236.5 96.2 232.4 100.8 230.6 102.9 228.6 104.9 226.4 106.8 224 108.9 221.9 110.4 219.7 111.4L219.4 111.5C217.8 112.3 216.2 113.1 214.5 113.1L214.5 113.1C214 113.1 213.5 113 213 112.9L212.9 112.9C212.1 112.7 210.9 112.4 210.6 111.5 210.5 111.1 210.2 110.2 209.9 110 209.4 109.6 209 109.2 208.5 108.7 208.1 108.3 207.8 108 207.5 107.6 206.8 106.8 206.1 106 205.2 105.4 204.8 105.1 204.4 104.8 204 104.5 202.7 104.4 201.1 104.3 199.5 104.3L184.1 104.3C179.4 104.3 174 104.3 168.8 104.5 164.4 104.6 159.9 105 155.6 105.3L153.1 105.5C140.2 106.4 127.5 107.2 113.4 108.1 99.5 109 87 109.8 74.2 111.1 65.8 112 57.3 113.1 49.1 114.2 44.3 114.8 39.4 115.5 34.5 116.1 32.1 116.4 29.7 116.8 27.3 117.1 26.4 117.2 25.6 117.4 24.7 117.5L23.5 117.7C21.3 117.9 18.5 118.3 15.8 118.3ZM42.2 45C38.8 45 35 45.8 30.8 47.5 21.6 51.2 13.3 58.7 7.5 68.7 2.3 77.5-0.1 87 0.7 95.6 1.5 103.9 5.8 113.5 13.6 115.2L14.2 115.3 13.7 115.7C13.7 115.7 13.6 115.8 13.6 115.8 13.5 115.9 13.3 116 13.2 116.1 13 116.3 12.8 116.4 12.6 116.6 12.4 116.8 12.5 117 12.5 117 12.7 117.3 13.8 117.7 15.8 117.7L15.9 117.7C18.5 117.7 21.3 117.3 23.9 116.9L25.1 116.7C26 116.6 26.8 116.4 27.7 116.3 30 115.9 32.5 115.6 34.9 115.3 39.8 114.7 44.7 114 49.5 113.4 57.7 112.3 66.2 111.1 74.6 110.3 87.4 109 99.9 108.2 113.8 107.3 127.9 106.4 140.6 105.6 153.5 104.7L156 104.5C160.3 104.2 164.8 103.9 169.2 103.7 174.4 103.5 179.8 103.5 184.6 103.5L200 103.5C201.6 103.5 203.2 103.6 204.6 103.7L204.7 103.7 204.8 103.8C205.2 104.1 205.6 104.4 206 104.7 206.9 105.4 207.7 106.2 208.4 107 208.7 107.4 209.1 107.7 209.4 108.1 209.8 108.5 210.2 108.9 210.7 109.3 211.1 109.6 211.4 110.4 211.6 111 211.8 111.7 212.9 111.9 213.5 112.1L213.6 112.1C214 112.2 214.5 112.3 214.9 112.3 216.5 112.3 218 111.6 219.6 110.8L219.9 110.7C222 109.7 224.1 108.2 226.4 106.2 228.5 104.3 230.5 102.3 232.4 100.3 236.4 95.8 239.2 90.9 240.7 85.9 242.1 81.2 242 76.3 240.4 72.1 239.1 68.5 236.2 65.7 231.8 63.5 230.7 62.9 229.4 62.5 228.1 62.2L227.8 62.1 227.9 61.8C228 61.4 228.2 61.1 228.3 60.8 229.3 57.9 229.4 54.8 229.3 52.8 229.2 50 228.6 47.2 227.5 45 226.4 42.7 224.5 40.8 222.6 39.2 219.9 36.8 216 35.4 211.5 35.4 210.7 35.4 209.9 35.4 209.2 35.5 207.5 35.7 205.9 36.1 204.2 36.6L203.8 36.7 203.8 36.3C203.8 35.7 203.7 35 203.6 34.5 202.8 29.9 200.2 25.5 196.2 22.6 194.1 21.1 191.8 20 189.5 19.6 187.2 19.1 184.5 19.3 181.2 20.1 177.2 21 173.1 23.8 169.8 27.8 166.9 31.3 164.8 35.6 163.6 40.4 162.9 43.1 162.7 46.2 162.9 49.5 163 51.1 163.2 52.7 163.4 54.2L163.4 54.3C163.4 54.4 163.4 54.5 163.4 54.6L163.4 55.2 162.9 54.8C162.2 54.3 161.4 53.9 161.2 53.7 160.1 53.2 158.8 53 157.4 53.2 157.1 53.2 156.9 53.3 156.6 53.3L156.3 53.4 156.3 53.1C156.3 51.7 156 50.4 155.5 49.2 153.9 45.5 150.3 44.7 147.5 44.7 146.2 44.7 144.8 44.9 143.4 45.2L143.2 45.3 143.1 45.1C142.6 43.9 142 42.8 141.2 41.9 139.6 40 137.6 38.6 135.4 38 133.6 37.4 131.3 37.7 128.2 38.8 128.1 38.8 128 38.9 128 38.9L127.5 39.1 127.5 38.7C127 30.9 122.4 23.4 115.8 19.5 112.1 17.3 107.7 16.2 102.7 16.2 98 16.2 93 17.2 88.3 19 81.6 21.6 72.4 26.6 66.8 35.5 64.5 39.3 63.2 44 63.4 48.7 63.4 48.8 63.4 48.9 63.4 49L63.4 49.4 63.1 49.4C60.8 49.2 58.5 49.5 56.3 50.2 56 50.3 55.6 50.4 55.3 50.6L55.1 50.7 55 50.5C54.6 49.9 54.2 49.3 53.7 48.8 52 47 48.9 46 46.8 45.5 45.3 45.2 43.8 45 42.2 45Z" fill="#D1EEFC"/></g></g><g opacity="0.6"><path d="M240.5 72C239 67.9 235.6 65.1 231.8 63.3 230.6 62.7 229.3 62.3 228.1 62 228.2 61.6 228.4 61.3 228.5 60.9 229.3 58.4 229.6 55.5 229.6 52.8 229.5 50.1 229 47.3 227.8 44.9 227.5 44.4 227.2 43.8 226.9 43.3 226.2 44.4 225.2 45.4 224.4 46.1 221.6 48.6 218.2 50.5 214.5 51.3 210.4 52.2 205.5 51.9 202.1 49.1 201.5 48.6 201 48.1 200.6 47.5 197.3 52.6 190.4 54.9 184.4 55.1 180.4 55.2 176.4 54.4 173 52.1 169.4 49.7 166.6 45.9 165.8 41.6 164 32.2 171.9 23.8 180.1 20.6 182.5 19.6 185.2 19.1 187.8 19 185.6 18.9 183.4 19.2 181.3 19.7 176.7 20.8 172.7 23.9 169.7 27.5 166.6 31.2 164.6 35.6 163.4 40.2 162.7 43.2 162.5 46.3 162.7 49.3 162.8 50.9 163 52.5 163.2 54.2 163.2 54.3 163.2 54.4 163.2 54.5 163.1 54.4 163 54.4 162.9 54.3 164.2 59.1 162.7 65 158.2 67.1 154.5 68.8 149.4 68.5 146.6 65.3 145.1 63.5 144.6 61.4 144.8 59.2 139.3 61.7 132 60.7 128.6 55.3 125.6 50.5 124.9 42.5 128.7 38.1 128.5 38.2 128.3 38.2 128.2 38.3 128.1 38.3 128 38.4 127.8 38.4 127.3 30.6 122.6 22.9 116 19 115.2 18.5 114.4 18.1 113.6 17.8 118.5 22.6 122.1 29 123.4 35.6 124.2 39.6 123.9 43.7 123.2 47.8 122.5 52.3 121.2 56.8 118.7 60.7 116.3 64.4 112.9 67.1 108.7 68.5 104.5 69.9 99.8 70.1 95.5 68.8 91.2 67.5 87.1 65 84.5 61.3 83.6 60.1 83 58.8 82.5 57.5 79.9 63.3 75.6 68.5 70.6 72.5 63.9 77.9 55.9 81.6 47.4 83 44 83.6 40.2 83.9 36.8 82.6 35 82 33.6 80.9 32.5 79.6 31 83.2 28.6 86.6 26 89.3 22.6 92.8 17.6 96.4 12.4 95.4 8.4 95 5.7 92 4 88.8 2.5 85.7 2.1 82.3 2.5 78.9 0.7 84.3-0.1 90 0.4 95.6 1.1 103.4 5.3 113.6 13.6 115.4 13.5 115.5 13.4 115.5 13.4 115.6 13.1 115.9 12.6 116.1 12.4 116.4 11.4 117.8 15.1 117.9 15.8 117.9 18.9 117.9 22.1 117.4 25.1 116.9 28.3 116.4 31.6 115.9 34.8 115.5 48 113.9 61.2 111.8 74.5 110.4 87.5 109 100.6 108.2 113.7 107.4 126.9 106.6 140.2 105.8 153.4 104.8 158.6 104.4 163.8 104 169.1 103.8 174.2 103.6 179.3 103.6 184.4 103.6 189.5 103.6 194.7 103.6 199.8 103.6 201.3 103.6 202.9 103.7 204.4 103.8 204.8 104.1 205.3 104.4 205.7 104.7 207 105.7 207.9 106.9 209.1 108.1 209.5 108.5 210 109 210.4 109.3 210.8 109.6 211.1 110.5 211.2 110.9 211.5 111.7 212.7 112 213.4 112.2 215.8 112.8 217.8 111.7 219.9 110.7 222.3 109.5 224.5 107.9 226.5 106.1 228.6 104.2 230.6 102.2 232.5 100.1 236.2 95.9 239.2 91 240.8 85.6 242.2 81.5 242.2 76.5 240.5 72Z" fill="#D1EDF7"/></g><g><g><path d="M226.6 85.1C228.7 90.9 232.3 96 236.6 100.3 238.8 102.5 241.1 104.5 243.5 106.4 245.8 108.2 248.3 109.8 251 111 253.3 112 255.6 113 258.2 112.2 259 112 260.3 111.6 260.6 110.7 260.7 110.2 261 109.2 261.4 108.9 261.9 108.5 262.3 108 262.8 107.5 263.9 106.2 264.9 104.8 266.2 103.6 266.6 103.2 267.1 102.9 267.5 102.5 269.2 102.3 270.8 102 272.5 102 278.1 101.7 283.7 101.4 289.3 101 294.9 100.7 300.4 100.4 306 100.2 311.7 100.1 317.4 100.2 323.1 100.3 337.6 100.5 352 100.6 366.5 100.6 380.8 100.7 395.1 100.8 409.3 101.4 423.8 102.1 438.3 103.5 452.8 104.4 456.4 104.6 459.9 105 463.5 105.3 466.8 105.6 470.3 106 473.7 105.8 474.5 105.8 478.6 105.5 477.3 104 477 103.6 476.5 103.4 476.1 103.2 476 103.1 475.9 103.1 475.8 103 484.7 100.5 488.6 89.1 488.9 80.6 489.2 70.3 485.5 60.1 479.9 51.5 473.5 41.8 464.2 33.5 453.1 29.8 447.5 27.9 441.1 26.8 435.3 28.7 432.8 29.5 429.7 30.8 427.9 32.8 427.4 33.4 427 34.1 426.6 34.8 426.2 34.7 425.8 34.6 425.4 34.5 422.8 33.8 420.3 33.7 417.8 34.1 417.8 33.9 417.8 33.8 417.8 33.6 417.7 28.5 416.1 23.4 413.2 19.3 407.4 11 398.2 5.6 388.7 2.5 379-0.6 367.1-1 358.5 4.7 351.5 9.4 346.9 18 346.8 26.5 346.7 26.5 346.5 26.4 346.4 26.4 343.9 25.7 340.8 25.1 338.3 26 335.8 26.9 333.7 28.7 332.1 30.8 331.3 31.9 330.6 33.2 330.2 34.5 325.2 33.6 318.8 34.3 316.9 39.8 316.4 41.2 316.2 42.7 316.2 44.2 315.9 44.2 315.6 44.1 315.4 44.1 314 44 312.5 44.2 311.2 44.9 310.8 45.1 310 45.6 309.3 46.2 309.3 46.1 309.3 46 309.3 45.9 309.4 44.1 309.5 42.4 309.5 40.6 309.5 37.3 309.2 33.9 308.2 30.7 306.7 25.7 304.2 21 300.6 17.2 297.1 13.5 292.6 10.4 287.5 9.5 284.5 9 281.3 8.8 278.3 9.5 275.7 10.2 273.2 11.5 271.1 13.3 267 16.7 264.2 21.6 263.7 26.9 263.6 27.6 263.6 28.3 263.6 29 261.8 28.5 260 28.1 258.1 28 253 27.7 247.2 29.1 243.5 32.9 241.5 34.9 239.6 37.1 238.5 39.6 237.4 42.3 236.9 45.4 237 48.3 237.1 51.2 237.6 54.3 238.6 57 238.7 57.4 238.9 57.8 239.1 58.1 237.7 58.5 236.4 59 235.1 59.7 231.1 62 227.6 65.2 226.1 69.7 224.6 74.9 224.9 80.3 226.6 85.1Z" fill="#FFFFFF"/><path d="M256.2 112.8 256.2 112.8C254.4 112.8 252.8 112.1 251.1 111.4L250.8 111.3C248.4 110.3 246 108.8 243.3 106.7 240.9 104.8 238.5 102.7 236.4 100.6 231.7 95.9 228.3 90.7 226.4 85.3 224.6 80.2 224.4 74.7 225.9 69.9 227.2 65.8 230.2 62.4 235 59.7 236.2 59 237.4 58.5 238.7 58.1 238.6 57.8 238.5 57.5 238.3 57.2 237 54 236.7 50.6 236.6 48.4 236.5 45.3 237 42.1 238.1 39.6 239.2 36.9 241.2 34.7 243.2 32.8 246.3 29.6 251.3 27.8 256.8 27.8 257.2 27.8 257.6 27.8 258 27.8 259.8 27.9 261.5 28.2 263.2 28.7 263.2 28.1 263.2 27.5 263.3 27 263.8 21.8 266.6 16.7 270.8 13.2 273 11.4 275.5 10 278.1 9.4 279.4 9.1 280.9 8.9 282.4 8.9 283.9 8.9 285.6 9.1 287.4 9.4 292 10.2 296.7 13 300.6 17.2 304 20.8 306.7 25.5 308.3 30.8 309.2 33.8 309.7 37.2 309.6 40.8 309.6 42.5 309.5 44.2 309.4 45.9 310 45.4 310.6 45.1 310.9 45 312.2 44.3 313.7 44 315.3 44.1 315.5 44.1 315.7 44.1 315.8 44.2 315.8 42.7 316 41.3 316.5 40 317.8 36.3 321.4 34.2 326.5 34.2 327.6 34.2 328.7 34.3 329.9 34.5 330.4 33.2 331 32 331.8 30.9 333.5 28.7 335.7 27 338.1 26.1 340.2 25.3 342.8 25.4 346.4 26.5 346.4 26.5 346.4 26.5 346.5 26.5 346.7 18 351.3 9.5 358.3 4.8 362.7 1.8 368.4 0.3 374.8 0.3 379.3 0.3 384.1 1.1 388.7 2.5 396.3 4.9 406.7 9.8 413.4 19.4 416.3 23.5 417.9 28.6 418 33.9 418 33.9 418 34 418 34 420.4 33.7 422.9 33.9 425.3 34.5 425.6 34.6 425.9 34.7 426.3 34.8 426.7 34.2 427 33.6 427.5 33 429.4 30.8 432.7 29.5 435 28.8 437 28.2 439.2 27.8 441.5 27.8 444.9 27.8 448.7 28.5 452.9 29.9 463.3 33.4 472.9 41.1 479.9 51.7 486.1 61 489.3 71.4 489 80.9 488.7 89.9 484.6 100.7 476.3 103.4 476.4 103.5 476.5 103.5 476.5 103.6 476.8 103.8 477.1 104 477.3 104.2 477.7 104.6 477.6 105 477.5 105.2 477.1 106.1 474.8 106.4 473.4 106.5 472.8 106.5 472.1 106.6 471.5 106.6 469.2 106.6 466.8 106.4 464.5 106.2L463.2 106.1C462.3 106 461.3 105.9 460.4 105.8 457.8 105.6 455.2 105.3 452.6 105.1 447.3 104.7 441.9 104.3 436.6 103.9 427.6 103.2 418.3 102.5 409.1 102.1 395.1 101.5 381.4 101.3 366.3 101.3 351.6 101.2 337.2 101.2 322.9 101L320.2 101C317.3 101 314.3 100.9 311.3 100.9 309.3 100.9 307.5 100.9 305.8 101 300.2 101.1 294.5 101.5 289.1 101.8L272.3 102.8C270.6 102.9 268.8 103.1 267.4 103.3L267.3 103.4C266.9 103.7 266.5 104 266.1 104.4 265.2 105.2 264.5 106.1 263.7 107 263.4 107.4 263 107.8 262.7 108.3 262.3 108.8 261.8 109.3 261.3 109.8 261 110.1 260.7 111 260.6 111.5 260.3 112.5 259 112.9 258.2 113.2L258.1 113.2C257.6 112.7 256.9 112.8 256.2 112.8ZM256.8 28.3C251.4 28.3 246.6 30.1 243.6 33.1 241.7 35 239.8 37.2 238.7 39.8 237.7 42.2 237.1 45.3 237.2 48.4 237.3 50.6 237.6 54 238.8 57.1 239 57.5 239.1 57.9 239.3 58.2L239.4 58.5 239.1 58.6C237.7 59 236.4 59.5 235.2 60.2 230.6 62.8 227.6 66.1 226.4 70.1 224.9 74.8 225.1 80.1 226.9 85.2 228.8 90.6 232.2 95.7 236.8 100.3 238.9 102.4 241.2 104.5 243.7 106.4 246.4 108.5 248.7 109.9 251.1 110.9L251.4 111C253 111.7 254.6 112.3 256.2 112.3 256.2 112.3 256.2 112.3 256.2 112.3 256.8 112.3 257.4 112.2 258 112L258.1 112C258.8 111.8 260 111.4 260.2 110.7 260.4 109.9 260.7 109.1 261.1 108.7 261.6 108.3 262 107.8 262.4 107.3 262.8 106.9 263.1 106.5 263.4 106.1 264.1 105.2 264.9 104.2 265.8 103.4 266.2 103.1 266.6 102.7 267 102.4L267.2 102.2 267.3 102.2C268.7 102 270.5 101.8 272.3 101.6L289.1 100.6C294.5 100.3 300.2 100 305.8 99.8 307.5 99.8 309.3 99.7 311.4 99.7 314.4 99.7 317.4 99.7 320.3 99.8L323 99.8C337.3 100 351.7 100.1 366.4 100.1 381.5 100.2 395.2 100.3 409.3 100.9 418.5 101.3 427.8 102.1 436.8 102.8 442 103.2 447.4 103.6 452.8 104 455.4 104.2 458.1 104.4 460.7 104.7 461.6 104.8 462.6 104.9 463.5 105L464.8 105.1C467.1 105.3 469.4 105.5 471.8 105.5 472.5 105.5 473.1 105.5 473.7 105.4 475.6 105.3 477.1 104.9 477.3 104.5 477.3 104.5 477.4 104.3 477.2 104.1 477.1 103.9 476.8 103.8 476.5 103.6 476.3 103.5 476.2 103.4 476 103.3 475.9 103.3 475.9 103.2 475.8 103.2L475.2 102.8 475.8 102.6C484.2 100.3 488.4 89.5 488.7 80.4 489 71 485.8 60.7 479.7 51.5 472.7 41 463.3 33.3 453 29.9 448.8 28.5 445.1 27.8 441.7 27.8 439.4 27.8 437.3 28.1 435.3 28.8 433 29.5 429.8 30.8 428 32.9 427.5 33.5 427.1 34.1 426.7 34.8L426.6 35 426.4 34.9C426 34.8 425.6 34.7 425.3 34.6 422.8 33.9 420.3 33.8 417.9 34.2L417.6 34.2 417.6 33.9 417.6 33.7C417.6 33.6 417.6 33.5 417.6 33.4 417.5 28.3 415.8 23.2 413.1 19.2 406.3 10 396 5.2 388.5 2.8 384 1.3 379.2 0.6 374.8 0.6 368.5 0.6 362.9 2.1 358.6 5 351.7 9.6 347.1 18.1 347.1 26.6L347.1 27 346.6 26.8C346.5 26.8 346.4 26.7 346.4 26.7 342.9 25.7 340.4 25.6 338.5 26.3 336.2 27.2 334.1 28.8 332.5 31 331.7 32.1 331.1 33.3 330.6 34.6L330.5 34.8 330.3 34.8C329.1 34.6 327.9 34.5 326.8 34.5 323.4 34.5 318.9 35.4 317.3 39.9 316.8 41.2 316.6 42.6 316.7 44.2L316.7 44.5 316.4 44.5C316.1 44.5 315.8 44.4 315.6 44.4 314.1 44.3 312.7 44.5 311.5 45.2 311.3 45.3 310.4 45.8 309.7 46.5L309.3 46.9 309.3 46.3C309.3 46.2 309.3 46.1 309.3 45.9L309.3 45.8C309.4 44.1 309.5 42.3 309.5 40.6 309.5 37 309.1 33.7 308.2 30.8 306.6 25.6 304 21 300.7 17.4 296.8 13.3 292.2 10.6 287.8 9.8 286 9.5 284.4 9.3 282.9 9.3 281.4 9.3 280 9.5 278.7 9.8 276.2 10.4 273.7 11.7 271.6 13.5 267.5 16.9 264.8 21.8 264.3 26.9 264.2 27.6 264.2 28.2 264.2 28.9L264.2 29.3 263.8 29.2C262 28.7 260.2 28.4 258.3 28.3 257.6 28.3 257.2 28.3 256.8 28.3Z" fill="#D1EEFC"/></g></g><g opacity="0.6"><path d="M479.8 51.6C477.9 48.8 475.8 46.1 473.5 43.5 473.7 45.4 473.6 47.4 473.1 49.4 470.7 58.2 461.4 64.3 452.3 62 447.8 60.9 443.9 58.1 441 54.4 440.6 57.1 439.6 59.8 438.2 62.1 436.3 65.3 433.6 68.2 430.3 69.8 426.6 71.6 422.4 72.3 418.4 71.7 409.8 70.6 402.3 63.7 402.4 54.7 402.4 49.8 404.5 45.1 407.6 41.3 409.3 39.3 411.2 37.5 413.4 36 414.6 35.2 415.9 34.5 417.2 33.9 417.4 33.8 417.7 33.7 417.9 33.6 417.9 33.5 417.9 33.5 417.9 33.4 417.8 28.3 416.2 23.2 413.3 19.1 407.5 10.8 398.3 5.4 388.8 2.3 384.5 0.9 379.7 0.1 374.9 0.1 378.6 0.4 382.3 1.4 385.7 3.1 392.1 6.4 397.4 12.3 398.1 19.7 399 29 393.3 37.6 385.3 41.8 381 44.1 376 45.2 371.2 44.2 367.4 43.4 364 41.6 360.9 39.3 361.5 40.5 362 41.7 362.3 43 363.6 48.5 362.4 54.8 358.8 59.2 354.4 64.4 346.2 66.8 340.6 62.1 337.6 59.5 335.6 55.8 334.7 51.8 334.4 52.3 334.1 52.8 333.8 53.3 331.3 57.1 327.5 60.2 322.8 60.9 318.1 61.6 313.4 59.4 311.1 55.2 309.5 52.3 309.3 49.1 309.9 45.9 309.8 45.9 309.8 46 309.7 46 309.7 45.9 309.7 45.8 309.7 45.7 309.8 43.9 309.9 42.2 309.9 40.4 309.9 37.1 309.6 33.7 308.6 30.5 308.5 30.1 308.3 29.6 308.2 29.2 308.5 33.4 307.8 37.7 305.8 41.6 301.7 49.9 292.8 56 283.3 54.5 278.5 53.8 273.8 51.4 270.5 47.8 269.2 46.4 267.9 44.7 267.3 42.8 267.1 43.1 267 43.3 266.8 43.6 265.1 45.8 262.4 47.1 259.8 47.8 256.7 48.7 253.4 48.9 250.2 48.6 247.4 48.3 244.5 47.6 242.2 46 239.7 44.3 238.8 41.7 239 39.1 238.9 39.3 238.8 39.4 238.8 39.6 237.7 42.3 237.2 45.4 237.3 48.3 237.4 51.2 237.9 54.3 238.9 57 239 57.4 239.2 57.8 239.4 58.1 238 58.5 236.7 59 235.4 59.7 231.4 62 227.9 65.2 226.4 69.7 224.9 74.7 225.2 80.1 226.9 84.9 229 90.7 232.6 95.8 236.9 100.1 239.1 102.3 241.4 104.3 243.8 106.2 246.1 108 248.6 109.6 251.3 110.8 253.6 111.8 255.9 112.8 258.5 112 259.3 111.8 260.6 111.4 260.9 110.5 261 110 261.3 109 261.7 108.7 262.2 108.3 262.6 107.8 263.1 107.3 264.2 106 265.2 104.6 266.5 103.4 266.9 103 267.4 102.7 267.8 102.3 269.5 102.1 271.1 101.8 272.8 101.8 278.4 101.5 284 101.2 289.6 100.8 295.2 100.5 300.7 100.2 306.3 100 312 99.9 317.7 100 323.4 100.1 337.9 100.3 352.3 100.4 366.8 100.4 381.1 100.5 395.4 100.6 409.6 101.2 424.1 101.9 438.6 103.3 453.1 104.2 456.7 104.4 460.2 104.8 463.8 105.1 467.1 105.4 470.6 105.8 474 105.6 474.8 105.6 478.9 105.3 477.6 103.8 477.3 103.4 476.8 103.2 476.4 103 476.3 102.9 476.2 102.9 476.1 102.8 485 100.3 488.9 88.9 489.2 80.4 489.2 70.3 485.4 60.1 479.8 51.6Z" fill="#D1EDF7"/></g></g><g><g><g><path d="M613.4 85.7C611.9 81.6 608.5 78.8 604.7 77 603.5 76.4 602.2 76 601 75.7 601.1 75.3 601.3 75 601.4 74.6 602.2 72.1 602.5 69.2 602.5 66.5 602.4 63.8 601.9 61 600.7 58.6 599.5 56.3 597.7 54.4 595.8 52.7 592.2 49.4 586.9 48.5 582.2 49 580.5 49.2 578.8 49.6 577.2 50.2 577.2 49.6 577.1 48.9 577 48.3 576.2 43.5 573.4 39.1 569.5 36.2 567.5 34.7 565.1 33.6 562.7 33.1 559.9 32.6 557 32.9 554.2 33.6 549.6 34.7 545.6 37.8 542.6 41.4 539.5 45.1 537.5 49.5 536.3 54.1 535.6 57.1 535.4 60.2 535.6 63.2 535.7 64.8 535.9 66.4 536.1 68.1 536.1 68.2 536.1 68.3 536.1 68.4 535.4 67.9 534.6 67.5 534.3 67.3 533.1 66.7 531.7 66.6 530.4 66.8 530.1 66.8 529.9 66.9 529.6 66.9 529.6 65.5 529.3 64.2 528.8 62.9 526.7 58 520.9 57.7 516.3 58.7 515.8 57.5 515.2 56.4 514.3 55.4 512.8 53.6 510.7 52.1 508.4 51.4 506 50.7 503.2 51.4 501 52.2 500.9 52.2 500.8 52.3 500.6 52.3 500.1 44.5 495.4 36.8 488.8 32.9 480.6 28.1 469.7 29.1 461.1 32.4 452.6 35.7 444.4 41.2 439.5 49.1 437.1 53.1 435.9 57.8 436 62.4 436 62.5 436 62.7 436 62.8 433.7 62.6 431.4 62.9 429.1 63.6 428.7 63.7 428.4 63.8 428.1 64 427.7 63.4 427.3 62.8 426.8 62.3 425.1 60.5 422.1 59.5 419.8 58.9 414.4 57.5 408.6 58.8 403.6 60.9 393.6 64.9 385.5 73 380.2 82.2 375.5 90.3 372.6 99.9 373.5 109.3 374.2 117.1 378.4 127.3 386.7 129.1 386.6 129.2 386.5 129.2 386.5 129.3 386.2 129.6 385.7 129.8 385.5 130.1 384.5 131.5 388.2 131.6 388.9 131.6 392 131.6 395.2 131.1 398.2 130.6 401.4 130.1 404.7 129.6 407.9 129.2 421.1 127.6 434.3 125.5 447.6 124.1 460.6 122.7 473.7 121.9 486.8 121.1 500 120.3 513.3 119.5 526.5 118.5 531.7 118.1 536.9 117.7 542.2 117.5 547.3 117.3 552.4 117.3 557.5 117.3 562.6 117.3 567.8 117.3 572.9 117.3 574.4 117.3 576 117.4 577.5 117.5 577.9 117.8 578.4 118.1 578.8 118.4 580.1 119.4 581 120.6 582.2 121.8 582.6 122.2 583.1 122.7 583.5 123 583.9 123.3 584.2 124.2 584.3 124.6 584.6 125.4 585.8 125.7 586.5 125.9 588.9 126.5 590.9 125.4 593 124.4 595.4 123.2 597.6 121.6 599.6 119.8 601.7 117.9 603.7 115.9 605.6 113.8 609.3 109.6 612.3 104.7 613.9 99.3 615 95.2 615 90.2 613.4 85.7Z" fill="#FFFFFF"/><path d="M388.7 132 388.7 132C387.1 132 385.2 131.8 384.8 131 384.7 130.8 384.6 130.5 384.9 130 385.1 129.8 385.3 129.6 385.6 129.4 385.7 129.4 385.7 129.3 385.8 129.3 378.1 127.2 373.7 117.6 373 109.3 372.2 100.6 374.6 90.9 379.8 82 385.7 71.9 394.1 64.3 403.4 60.6 407.7 58.9 411.5 58 415 58 416.7 58 418.3 58.2 419.8 58.6 422 59.2 425.1 60.2 426.9 62.1 427.4 62.6 427.7 63.1 428.1 63.7 428.4 63.6 428.7 63.5 429 63.4 431.2 62.7 433.5 62.4 435.7 62.6 435.7 62.6 435.7 62.5 435.7 62.5 435.6 57.7 436.8 52.9 439.2 49 444.8 39.9 454.1 34.9 460.9 32.2 465.7 30.3 470.8 29.4 475.5 29.4 480.6 29.4 485.1 30.5 488.8 32.7 495.4 36.6 500.1 44.1 500.7 51.9 500.7 51.9 500.7 51.9 500.7 51.9 502.8 51.2 504.5 50.8 506 50.8 506.8 50.8 507.6 50.9 508.3 51.1 510.5 51.8 512.7 53.3 514.3 55.2 515.1 56.1 515.7 57.2 516.2 58.4 517.6 58.1 518.9 57.9 520.2 57.9 523.2 57.9 527.1 58.7 528.7 62.7 529.2 63.8 529.5 65.1 529.5 66.5 529.7 66.5 529.8 66.5 530 66.4 531.5 66.2 532.9 66.4 534.1 67 534.3 67.1 534.9 67.4 535.4 67.8 535.2 66.3 535 64.7 534.9 63.2 534.7 59.9 534.9 56.8 535.6 54 536.8 49.1 539 44.7 541.9 41.2 545.3 37.1 549.5 34.3 553.6 33.4 557 32.6 559.8 32.5 562.2 32.9 564.6 33.4 567 34.5 569.1 36 573.2 39 575.9 43.5 576.7 48.3 576.8 48.8 576.8 49.3 576.9 49.8 578.4 49.3 580 48.9 581.6 48.7 582.4 48.6 583.2 48.6 584 48.6 588.6 48.6 592.7 50 595.5 52.5 597.4 54.2 599.3 56.1 600.5 58.5 601.6 60.8 602.3 63.6 602.4 66.5 602.5 68.6 602.3 71.7 601.3 74.7 601.2 75 601.1 75.2 601 75.5 602.2 75.8 603.4 76.2 604.5 76.7 609 78.9 612 81.9 613.4 85.6 615 89.9 615.1 95 613.7 99.8 612.2 104.9 609.4 109.8 605.3 114.4 603.5 116.5 601.5 118.5 599.3 120.4 596.9 122.5 594.8 124 592.6 125L592.3 125.1C590.7 125.9 589.1 126.7 587.4 126.7L587.4 126.7C586.9 126.7 586.4 126.6 585.9 126.5L585.8 126.5C585 126.3 583.8 126 583.5 125.1 583.4 124.7 583.1 123.8 582.8 123.6 582.3 123.2 581.9 122.8 581.4 122.3 581.1 121.9 580.7 121.6 580.4 121.2 579.7 120.4 579 119.6 578.1 119 577.7 118.7 577.3 118.4 576.9 118.1 575.6 118 574 117.9 572.4 117.9L557 117.9C552.3 117.9 546.9 117.9 541.7 118.1 537.3 118.2 532.8 118.6 528.5 118.9L526 119.1C513.1 120 500.4 120.8 486.3 121.7 472.4 122.6 459.9 123.4 447.1 124.7 438.7 125.6 430.2 126.7 422 127.8 417.2 128.4 412.3 129.1 407.4 129.7 405 130 402.6 130.4 400.2 130.7 399.3 130.8 398.5 131 397.6 131.1L396.4 131.3C394.1 131.6 391.4 132 388.7 132ZM415 58.7C411.6 58.7 407.8 59.5 403.6 61.2 394.4 64.9 386.1 72.4 380.3 82.4 375.2 91.2 372.8 100.7 373.6 109.3 374.4 117.6 378.7 127.2 386.5 128.9L387.1 129 386.6 129.4C386.5 129.4 386.5 129.5 386.5 129.5 386.4 129.6 386.2 129.7 386.1 129.8 385.9 130 385.7 130.1 385.5 130.3 385.3 130.5 385.4 130.7 385.4 130.7 385.6 131 386.7 131.4 388.7 131.4L388.8 131.4C391.4 131.4 394.2 131 396.8 130.6L398 130.4C398.9 130.3 399.7 130.1 400.6 130 402.9 129.6 405.4 129.3 407.8 129 412.7 128.4 417.6 127.7 422.4 127.1 430.6 126 439.1 124.8 447.5 124 460.3 122.7 472.8 121.9 486.7 121 500.8 120.1 513.5 119.3 526.4 118.4L528.9 118.2C533.2 117.9 537.7 117.6 542.1 117.4 547.3 117.2 552.7 117.2 557.5 117.2L572.9 117.2C574.5 117.2 576.1 117.3 577.5 117.4L577.6 117.4 577.7 117.5C578.1 117.8 578.5 118.1 578.9 118.4 579.8 119.1 580.6 119.9 581.3 120.7 581.6 121.1 582 121.4 582.3 121.8 582.7 122.2 583.1 122.6 583.6 123 584 123.3 584.3 124.1 584.5 124.7 584.7 125.4 585.8 125.6 586.4 125.8L586.5 125.8C586.9 125.9 587.4 126 587.8 126 589.4 126 590.9 125.3 592.5 124.5L592.8 124.4C594.9 123.4 597 121.9 599.3 119.9 601.4 118 603.4 116 605.3 114 609.3 109.5 612.1 104.6 613.6 99.6 615 94.9 614.9 90 613.3 85.8 612 82.2 609.1 79.4 604.7 77.2 603.6 76.6 602.3 76.2 601 75.9L600.7 75.8 600.8 75.5C600.9 75.1 601.1 74.8 601.2 74.5 602.2 71.6 602.3 68.5 602.2 66.5 602.1 63.7 601.5 60.9 600.4 58.7 599.3 56.4 597.4 54.5 595.5 52.9 592.8 50.5 588.9 49.1 584.4 49.1 583.6 49.1 582.8 49.1 582.1 49.2 580.4 49.4 578.8 49.8 577.1 50.3L576.7 50.4 576.7 50C576.7 49.4 576.6 48.7 576.5 48.2 575.7 43.6 573.1 39.2 569.1 36.3 567 34.8 564.7 33.7 562.4 33.3 560.1 32.8 557.4 33 554.1 33.8 550.1 34.7 546 37.5 542.7 41.5 539.8 45 537.7 49.3 536.5 54.1 535.8 56.8 535.6 59.9 535.8 63.2 535.9 64.8 536.1 66.4 536.3 67.9L536.3 68C536.3 68.1 536.3 68.2 536.3 68.3L536.3 68.9 535.8 68.5C535.1 68 534.3 67.6 534.1 67.4 533 66.9 531.7 66.7 530.3 66.9 530 66.9 529.8 67 529.5 67L529.2 67.1 529.2 66.8C529.2 65.4 528.9 64.1 528.4 62.9 526.8 59.2 523.2 58.4 520.4 58.4 519.1 58.4 517.7 58.6 516.3 58.9L516.1 59 516 58.8C515.5 57.6 514.9 56.5 514.1 55.6 512.5 53.7 510.5 52.3 508.3 51.7 506.5 51.1 504.2 51.4 501.1 52.5 501 52.5 500.9 52.6 500.9 52.6L500.4 52.8 500.4 52.4C499.9 44.6 495.3 37.1 488.7 33.2 485 31 480.6 29.9 475.6 29.9 470.9 29.9 465.9 30.9 461.2 32.7 454.5 35.3 445.3 40.3 439.7 49.2 437.4 53 436.1 57.7 436.3 62.4 436.3 62.5 436.3 62.6 436.3 62.7L436.3 63.1 436 63.1C433.7 62.9 431.4 63.2 429.2 63.9 428.9 64 428.5 64.1 428.2 64.3L428 64.4 427.9 64.2C427.5 63.6 427.1 63 426.6 62.5 424.9 60.7 421.8 59.7 419.7 59.2 418.2 58.9 416.6 58.7 415 58.7Z" fill="#D1EEFC"/></g></g><g opacity="0.6"><path d="M613.4 85.7C611.9 81.6 608.5 78.8 604.7 77 603.5 76.4 602.2 76 601 75.7 601.1 75.3 601.3 75 601.4 74.6 602.2 72.1 602.5 69.2 602.5 66.5 602.4 63.8 601.9 61 600.7 58.6 600.4 58.1 600.1 57.5 599.8 57 599.1 58.1 598.1 59.1 597.3 59.8 594.5 62.3 591.1 64.2 587.4 65 583.3 65.9 578.4 65.6 575 62.9 574.4 62.4 573.9 61.9 573.5 61.3 570.2 66.4 563.3 68.7 557.3 68.9 553.3 69 549.3 68.2 545.9 65.9 542.3 63.5 539.5 59.7 538.7 55.4 536.9 46 544.8 37.6 553 34.4 555.4 33.4 558.1 32.9 560.7 32.8 558.5 32.7 556.3 33 554.2 33.5 549.6 34.6 545.6 37.7 542.6 41.3 539.5 45 537.5 49.4 536.3 54 535.6 57 535.4 60.1 535.6 63.1 535.7 64.7 535.9 66.3 536.1 68 536.1 68.1 536.1 68.2 536.1 68.3 536 68.2 535.9 68.2 535.8 68.1 537.1 72.9 535.6 78.8 531.1 80.9 527.4 82.6 522.3 82.3 519.5 79.1 518 77.3 517.5 75.2 517.7 73 512.2 75.5 504.9 74.5 501.5 69.1 498.5 64.3 497.8 56.3 501.6 51.9 501.4 52 501.2 52 501.1 52.1 501 52.1 500.9 52.2 500.7 52.2 500.2 44.4 495.5 36.7 488.9 32.8 488.1 32.3 487.3 31.9 486.5 31.6 491.4 36.4 495 42.8 496.3 49.4 497.1 53.4 496.8 57.5 496.1 61.6 495.4 66.1 494.1 70.6 491.6 74.5 489.2 78.2 485.8 80.9 481.6 82.3 477.4 83.7 472.7 83.9 468.4 82.6 464.1 81.3 460 78.8 457.4 75.1 456.5 73.9 455.9 72.6 455.4 71.3 452.8 77.1 448.5 82.3 443.5 86.3 436.8 91.7 428.8 95.4 420.3 96.8 416.9 97.4 413.1 97.7 409.7 96.4 407.9 95.8 406.5 94.7 405.4 93.4 403.9 97 401.5 100.4 398.9 103.1 395.5 106.6 390.5 110.2 385.3 109.2 381.6 108.5 378.8 105.5 377.2 102.3 375.7 99.2 375.3 95.8 375.7 92.4 373.9 97.8 373.1 103.5 373.6 109.1 374.3 116.9 378.5 127.1 386.8 128.9 386.7 129 386.6 129 386.6 129.1 386.3 129.4 385.8 129.6 385.6 129.9 384.6 131.3 388.3 131.4 389 131.4 392.1 131.4 395.3 130.9 398.3 130.4 401.5 129.9 404.8 129.4 408 129 421.2 127.4 434.4 125.3 447.7 123.9 460.7 122.5 473.8 121.7 486.9 120.9 500.1 120.1 513.4 119.3 526.6 118.3 531.8 117.9 537 117.5 542.3 117.3 547.4 117.1 552.5 117.1 557.6 117.1 562.7 117.1 567.9 117.1 573 117.1 574.5 117.1 576.1 117.2 577.6 117.3 578 117.6 578.5 117.9 578.9 118.2 580.2 119.2 581.1 120.4 582.3 121.6 582.7 122 583.2 122.5 583.6 122.8 584 123.1 584.3 124 584.4 124.4 584.7 125.2 585.9 125.5 586.6 125.7 589 126.3 591 125.2 593.1 124.2 595.5 123 597.7 121.4 599.7 119.6 601.8 117.7 603.8 115.7 605.7 113.6 609.4 109.4 612.4 104.5 614 99.1 615 95.2 615 90.2 613.4 85.7Z" fill="#D1EDF7"/></g><g><g><path d="M599.5 98.8C601.6 104.6 605.2 109.7 609.5 114 611.7 116.2 614 118.2 616.4 120.1 618.7 121.9 621.2 123.5 623.9 124.7 626.2 125.7 628.5 126.7 631.1 125.9 631.9 125.7 633.2 125.3 633.5 124.4 633.6 123.9 633.9 122.9 634.3 122.6 634.8 122.2 635.2 121.7 635.7 121.2 636.8 119.9 637.8 118.5 639.1 117.3 639.5 116.9 640 116.6 640.4 116.2 642.1 116 643.7 115.7 645.4 115.7 651 115.4 656.6 115.1 662.2 114.7 667.8 114.4 673.3 114.1 678.9 113.9 684.6 113.8 690.3 113.9 696 114 710.5 114.2 724.9 114.3 739.4 114.3 753.7 114.4 768 114.5 782.2 115.1 796.7 115.8 811.2 117.2 825.7 118.1 829.3 118.3 832.8 118.7 836.4 119 839.7 119.3 843.2 119.7 846.6 119.5 847.4 119.5 851.5 119.2 850.2 117.7 849.9 117.3 849.4 117.1 849 116.9 848.9 116.8 848.8 116.8 848.7 116.7 857.6 114.2 861.5 102.8 861.8 94.3 862.1 84 858.4 73.8 852.8 65.2 846.4 55.5 837.1 47.2 826 43.5 820.4 41.6 814 40.5 808.2 42.4 805.7 43.2 802.6 44.5 800.8 46.5 800.3 47.1 799.9 47.8 799.5 48.5 799.1 48.4 798.7 48.3 798.3 48.2 795.7 47.5 793.2 47.4 790.7 47.8 790.7 47.6 790.7 47.5 790.7 47.3 790.6 42.2 789 37.1 786.1 33 780.3 24.7 771.1 19.3 761.6 16.2 752.1 13.1 740.1 12.7 731.5 18.4 724.5 23.1 719.9 31.7 719.8 40.2 719.7 40.2 719.5 40.1 719.4 40.1 716.9 39.4 713.8 38.8 711.3 39.7 708.8 40.6 706.7 42.4 705.1 44.5 704.3 45.6 703.6 46.9 703.2 48.2 698.2 47.3 691.8 48 689.9 53.5 689.4 54.9 689.2 56.4 689.2 57.9 688.9 57.9 688.6 57.8 688.4 57.8 687 57.7 685.5 57.9 684.2 58.6 683.8 58.8 683 59.3 682.3 59.9 682.3 59.8 682.3 59.7 682.3 59.6 682.4 57.8 682.5 56 682.5 54.3 682.5 51 682.2 47.6 681.2 44.4 679.7 39.4 677.2 34.7 673.6 30.9 670.1 27.2 665.6 24.1 660.5 23.2 657.5 22.7 654.3 22.5 651.3 23.2 648.7 23.9 646.2 25.2 644.1 27 640 30.4 637.2 35.3 636.7 40.6 636.6 41.3 636.6 42 636.6 42.7 634.8 42.2 633 41.8 631.1 41.8 626 41.5 620.2 42.9 616.5 46.7 614.5 48.7 612.6 50.9 611.5 53.4 610.4 56.1 609.9 59.2 610 62.1 610.1 65 610.6 68.1 611.6 70.8 611.7 71.2 611.9 71.6 612.1 71.9 610.7 72.3 609.4 72.8 608.1 73.5 604.1 75.8 600.6 79 599.1 83.5 597.4 88.6 597.7 94 599.5 98.8Z" fill="#FFFFFF"/><path d="M629.1 126.6 629.1 126.6C627.3 126.6 625.7 125.9 624 125.2L623.7 125.1C621.3 124.1 618.9 122.6 616.2 120.5 613.7 118.6 611.4 116.5 609.3 114.4 604.6 109.7 601.2 104.5 599.3 99.1 597.5 94 597.3 88.5 598.8 83.7 600.1 79.6 603.1 76.2 607.9 73.5 609.1 72.9 610.3 72.3 611.6 71.9 611.5 71.6 611.4 71.3 611.2 71 609.9 67.8 609.6 64.4 609.5 62.2 609.4 59.1 609.9 55.9 611 53.4 612.1 50.7 614.1 48.5 616.1 46.6 619.2 43.4 624.2 41.6 629.7 41.6 630.1 41.6 630.5 41.6 630.9 41.6 632.7 41.7 634.4 42 636.1 42.5 636.1 41.9 636.1 41.3 636.2 40.8 636.7 35.6 639.5 30.5 643.7 27 645.9 25.2 648.4 23.8 651 23.2 652.3 22.9 653.8 22.7 655.3 22.7 656.8 22.7 658.5 22.9 660.3 23.2 664.9 24 669.6 26.8 673.6 31 677 34.6 679.7 39.3 681.3 44.6 682.2 47.6 682.7 51 682.6 54.6 682.6 56.3 682.5 58 682.4 59.7 683 59.2 683.6 58.9 683.9 58.8 685.2 58.1 686.7 57.8 688.3 57.9 688.5 57.9 688.7 57.9 688.8 58 688.8 56.5 689 55.1 689.5 53.8 690.8 50.1 694.4 48 699.5 48 700.6 48 701.7 48.1 702.9 48.3 703.4 47 704 45.8 704.8 44.7 706.5 42.5 708.7 40.8 711.1 39.9 713.2 39.1 715.8 39.2 719.4 40.3 719.4 40.3 719.4 40.3 719.5 40.3 719.7 31.8 724.3 23.3 731.3 18.6 735.7 15.6 741.4 14.1 747.8 14.1 752.3 14.1 757.1 14.9 761.7 16.3 769.3 18.7 779.7 23.6 786.4 33.2 789.3 37.3 790.9 42.4 791 47.7 791 47.7 791 47.8 791 47.8 793.4 47.5 795.9 47.7 798.4 48.3 798.7 48.4 799 48.5 799.4 48.6 799.8 48 800.1 47.4 800.6 46.8 802.5 44.6 805.8 43.3 808.1 42.6 810.1 42 812.3 41.6 814.6 41.6 818 41.6 821.8 42.3 826 43.7 836.4 47.2 846 54.9 853 65.5 859.2 74.8 862.4 85.2 862.1 94.7 861.8 103.7 857.7 114.5 849.4 117.2 849.5 117.3 849.6 117.3 849.6 117.4 849.9 117.6 850.2 117.8 850.4 118 850.8 118.4 850.7 118.8 850.6 119 850.2 119.9 847.9 120.2 846.5 120.3 845.9 120.3 845.3 120.4 844.6 120.4 842.3 120.4 839.9 120.2 837.6 120L836.3 119.9C835.4 119.8 834.4 119.7 833.5 119.6 830.9 119.4 828.3 119.1 825.7 118.9 820.4 118.5 815 118.1 809.7 117.7 800.7 117 791.4 116.3 782.2 115.9 768.2 115.3 754.5 115.1 739.4 115.1 724.7 115 710.3 115 696 114.8L693.3 114.8C690.4 114.8 687.4 114.7 684.4 114.7 682.4 114.7 680.6 114.7 678.9 114.8 673.3 114.9 667.6 115.3 662.2 115.6L645.4 116.6C643.7 116.7 641.9 116.9 640.5 117.1L640.4 117.2C640 117.5 639.6 117.8 639.2 118.2 638.3 119 637.6 119.9 636.8 120.8 636.5 121.2 636.1 121.6 635.8 122.1 635.4 122.6 634.9 123.1 634.4 123.6 634.1 123.9 633.8 124.8 633.7 125.3 633.4 126.3 632.1 126.7 631.3 127L631.2 127C630.4 126.5 629.8 126.6 629.1 126.6ZM629.6 42C624.2 42 619.4 43.8 616.4 46.8 614.5 48.7 612.6 50.9 611.5 53.5 610.5 55.9 609.9 59 610 62.1 610.1 64.3 610.4 67.7 611.6 70.8 611.8 71.2 611.9 71.6 612.1 71.9L612.2 72.2 611.9 72.3C610.5 72.7 609.2 73.2 608 73.9 603.4 76.5 600.4 79.8 599.2 83.8 597.7 88.5 597.9 93.8 599.7 98.9 601.6 104.3 604.9 109.4 609.6 114 611.7 116.1 614 118.2 616.5 120.1 619.2 122.2 621.5 123.6 623.9 124.6L624.2 124.7C625.8 125.4 627.4 126 629 126L629 126C629.6 126 630.2 125.9 630.8 125.7L630.9 125.7C631.6 125.5 632.8 125.1 633 124.4 633.2 123.6 633.5 122.8 633.9 122.4 634.4 122 634.8 121.5 635.3 121 635.7 120.6 636 120.2 636.3 119.8 637 118.9 637.8 117.9 638.7 117.1 639.1 116.8 639.5 116.4 639.9 116.1L640.1 115.9 640.2 115.9C641.6 115.7 643.4 115.5 645.2 115.3L662 114.3C667.4 114 673.1 113.7 678.7 113.5 680.4 113.5 682.2 113.4 684.3 113.4 687.3 113.4 690.3 113.4 693.2 113.5L695.9 113.5C710.2 113.7 724.6 113.8 739.3 113.8 754.4 113.9 768.1 114 782.2 114.6 791.4 115 800.7 115.7 809.7 116.5 814.9 116.9 820.3 117.3 825.7 117.7 828.3 117.9 831 118.1 833.6 118.4 834.5 118.5 835.5 118.6 836.4 118.7L837.7 118.8C840 119 842.3 119.2 844.7 119.2 845.4 119.2 846 119.2 846.6 119.1 848.5 119 850 118.6 850.2 118.2 850.2 118.2 850.3 118 850.1 117.8 850 117.6 849.7 117.5 849.5 117.3 849.3 117.2 849.2 117.1 849 117 848.9 117 848.9 116.9 848.8 116.9L848.2 116.5 848.8 116.3C857.2 114 861.4 103.2 861.7 94.1 862 84.7 858.8 74.4 852.7 65.2 845.7 54.7 836.3 47 826 43.6 821.8 42.2 818.1 41.5 814.7 41.5 812.4 41.5 810.3 41.8 808.3 42.5 806 43.2 802.8 44.5 801 46.6 800.5 47.2 800.1 47.8 799.7 48.5L799.6 48.7 799.4 48.6C799 48.5 798.6 48.4 798.3 48.3 795.8 47.6 793.3 47.5 790.9 47.9L790.6 47.9 790.6 47.6 790.6 47.4C790.6 47.3 790.6 47.2 790.6 47.1 790.5 42 788.8 36.9 786.1 32.9 779.5 23.5 769.2 18.6 761.7 16.2 757.2 14.7 752.4 14 748 14 741.7 14 736.1 15.5 731.8 18.4 724.9 23 720.3 31.5 720.3 40L720.3 40.4 719.8 40.2C719.7 40.2 719.6 40.1 719.6 40.1 716.1 39.1 713.6 39 711.7 39.7 709.4 40.6 707.3 42.2 705.7 44.4 704.9 45.5 704.3 46.7 703.8 48L703.7 48.2 703.5 48.2C702.3 48 701.1 47.9 700 47.9 696.6 47.9 692.1 48.8 690.5 53.3 690 54.6 689.8 56 689.9 57.6L689.9 57.9 689.6 57.9C689.3 57.9 689 57.8 688.8 57.8 687.3 57.7 685.9 57.9 684.7 58.6 684.4 58.7 683.6 59.2 682.9 59.9L682.5 60.3 682.5 59.7C682.5 59.6 682.5 59.5 682.5 59.3L682.5 59.2C682.6 57.5 682.7 55.7 682.7 54 682.7 50.4 682.3 47.1 681.4 44.2 679.8 39 677.2 34.4 673.9 30.8 670 26.7 665.4 24 661 23.2 659.2 22.9 657.6 22.7 656.1 22.7 654.6 22.7 653.2 22.9 651.9 23.2 649.4 23.8 646.9 25.1 644.8 26.9 640.7 30.3 638 35.2 637.5 40.3 637.4 41 637.4 41.6 637.4 42.3L637.4 42.7 637 42.6C635.2 42.1 633.4 41.8 631.5 41.7 630.4 42 630 42 629.6 42Z" fill="#D1EEFC"/></g></g><g opacity="0.6"><path d="M852.6 65.3C850.7 62.5 848.6 59.8 846.3 57.2 846.5 59.1 846.4 61.1 845.9 63.1 843.5 71.9 834.2 78 825.1 75.7 820.6 74.6 816.7 71.8 813.8 68.1 813.4 70.8 812.4 73.5 811 75.8 809.1 79 806.4 81.9 803.1 83.5 799.4 85.3 795.2 86 791.2 85.4 782.6 84.3 775.1 77.4 775.2 68.4 775.2 63.5 777.3 58.8 780.4 55 782.1 53 784 51.2 786.2 49.7 787.4 48.9 788.7 48.2 790 47.6 790.2 47.5 790.5 47.4 790.7 47.3 790.7 47.2 790.7 47.2 790.7 47.1 790.6 42 789 36.9 786.1 32.8 780.3 24.5 771.1 19.1 761.6 16 757.3 14.6 752.5 13.8 747.7 13.8 751.4 14.1 755.1 15.1 758.5 16.8 764.9 20.1 770.2 26 770.9 33.4 771.8 42.6 766.1 51.3 758.1 55.5 753.8 57.8 748.8 58.9 744 57.9 740.2 57.1 736.8 55.3 733.7 53 734.3 54.2 734.8 55.4 735.1 56.7 736.4 62.2 735.2 68.5 731.6 72.9 727.2 78.1 719 80.5 713.4 75.8 710.3 73.2 708.4 69.5 707.5 65.5 707.2 66 706.9 66.5 706.6 67 704.1 70.8 700.3 73.9 695.6 74.6 690.9 75.3 686.2 73.1 683.9 68.9 682.3 66 682.1 62.8 682.7 59.6 682.6 59.6 682.6 59.7 682.5 59.7 682.5 59.6 682.5 59.5 682.5 59.4 682.6 57.6 682.7 55.8 682.7 54.1 682.7 50.8 682.4 47.4 681.4 44.2 681.3 43.8 681.1 43.3 681 42.9 681.3 47.1 680.6 51.4 678.6 55.3 674.5 63.6 665.6 69.7 656.1 68.2 651.3 67.5 646.6 65.1 643.3 61.5 642 60.1 640.7 58.4 640.1 56.5 639.9 56.8 639.8 57 639.6 57.3 637.9 59.5 635.2 60.8 632.6 61.5 629.5 62.4 626.2 62.6 623 62.3 620.2 62 617.3 61.3 615 59.7 612.5 58 611.6 55.4 611.8 52.8 611.7 53 611.6 53.1 611.6 53.3 610.5 56 610 59.1 610.1 62 610.2 64.9 610.7 68 611.7 70.7 611.8 71.1 612 71.5 612.2 71.8 610.8 72.2 609.5 72.7 608.2 73.4 604.2 75.7 600.7 78.9 599.2 83.4 597.7 88.4 598 93.8 599.7 98.6 601.8 104.4 605.4 109.5 609.7 113.8 611.9 116 614.2 118 616.6 119.9 618.9 121.7 621.4 123.3 624.1 124.5 626.4 125.5 628.7 126.5 631.3 125.7 632.1 125.5 633.4 125.1 633.7 124.2 633.8 123.7 634.1 122.7 634.5 122.4 635 122 635.4 121.5 635.9 121 637 119.7 638 118.3 639.3 117.1 639.7 116.7 640.2 116.4 640.6 116 642.3 115.8 643.9 115.5 645.6 115.5 651.2 115.2 656.8 114.9 662.4 114.5 668 114.2 673.5 113.9 679.1 113.7 684.8 113.6 690.5 113.7 696.2 113.8 710.7 114 725.1 114.1 739.6 114.1 753.9 114.2 768.2 114.3 782.4 114.9 796.9 115.6 811.4 117 825.9 117.9 829.5 118.1 833 118.5 836.6 118.8 839.9 119.1 843.4 119.5 846.8 119.3 847.6 119.3 851.7 119 850.4 117.5 850.1 117.1 849.6 116.9 849.2 116.7 849.1 116.6 849 116.6 848.9 116.5 857.8 114 861.7 102.6 862 94.1 862 84 858.2 73.8 852.6 65.3Z" fill="#D1EDF7"/></g></g></svg>