<svg width="97.3" height="97.3" viewBox="0 0 97.3 97.3" xmlns="http://www.w3.org/2000/svg" xmlns:xlink="http://www.w3.org/1999/xlink" overflow="hidden"><defs></defs><linearGradient x1="48.6451" y1="85.2903" x2="48.6451" y2="12" gradientUnits="userSpaceOnUse" id="SVGID_1_"><stop offset="0.308" stop-color="#E65E7D"/><stop offset="1" stop-color="#FF8B9F"/></linearGradient><circle cx="48.6" cy="48.6" r="36.6" fill="url(#SVGID_1_)"/><circle cx="48.6" cy="48.6" r="17.9" fill="#B54D68"/><path d="M48.6 12C68.8 12 85.2 28.4 85.2 48.6 85.2 68.8 68.8 85.2 48.6 85.2 28.4 85.3 12 68.9 12 48.6 12 28.4 28.4 12 48.6 12M48.6 0C21.8 0 0 21.8 0 48.6 0 75.4 21.8 97.2 48.6 97.2 75.4 97.2 97.2 75.4 97.2 48.6 97.3 21.8 75.5 0 48.6 0L48.6 0Z" fill="#B54D68"/></svg>