<svg width="184" height="60.5" viewBox="0 0 184 60.5" xmlns="http://www.w3.org/2000/svg" xmlns:xlink="http://www.w3.org/1999/xlink" overflow="hidden"><defs></defs><g><g><g opacity="0.33"><path d="M182.2 5.2C181.6 4.5 180.6 4 179.4 4 164.2 3.3 151.4 1.9 134.7 1.6 134.7 1.6 134.7 1.6 134.6 1.6L125.8 1.6C126.2 1.9 126.6 2.2 126.9 2.5 115.7 2.3 104.3 2.2 92.6 2.2 81.5 2.1 71 2.2 61.5 2.3 61.9 2 62.3 1.8 62.6 1.5L58 1.5C57.6 1.8 57.2 2.1 56.8 2.4 28.2 2.8 9.1 3.6 7.3 3.8 3.9 4 2.3 6 1.7 17.8 1.3 25 1.4 34.5 2 42.7 3.1 58.1 4.8 58.3 7.4 58.6 19.6 60 52.1 60.3 70.4 60.3 94.1 60.3 120.9 60 142.2 59.4 179.3 58.4 180 57.5 181 56 182.5 53.9 183.2 37.6 183.5 30.8 184.2 7.5 182.8 5.8 182.2 5.2Z" fill="#462900"/><path d="M126.4 1.5 125.3 1.5C125.5 1.7 125.8 1.8 126 2 115.2 1.8 104 1.7 92.7 1.7 82.8 1.7 72.7 1.8 62.5 1.9 62.7 1.7 62.9 1.6 63.2 1.4L62 1.4C61.7 1.6 61.5 1.8 61.2 1.9L60.4 2.5 61.4 2.5C71.9 2.4 82.4 2.3 92.6 2.3 104.2 2.3 115.8 2.4 126.9 2.6L127.9 2.6 127.1 2C127 1.9 126.7 1.7 126.4 1.5Z" fill="#4A2E00"/><path d="M182.5 5C181.8 4.2 180.7 3.7 179.4 3.7 173.6 3.4 168 3 162.6 2.7 155.4 2.2 147.9 1.7 139.6 1.4 139.2 1.5 138.9 1.5 138.4 1.5L134 1.5C134.1 1.6 134.3 1.7 134.4 1.8L134.5 1.9 134.6 1.9C144.8 2.1 153.8 2.7 162.4 3.3 167.8 3.7 173.4 4 179.2 4.3 180.3 4.4 181.2 4.8 181.8 5.4L181.8 5.4C182.3 5.9 183.7 7.6 182.9 30.7 182.4 45 181.5 54.3 180.5 55.8 179.5 57.2 178.9 58.1 142 59.1 120.9 59.7 94 60 70.2 60 51.9 60 19.4 59.8 7.3 58.3 5 58 3.4 57.8 2.3 42.6 1.8 34.5 1.6 25 2 17.8 2.7 6.2 4.1 4.3 7.3 4.1 9.4 4 28.9 3.1 56.7 2.7L56.8 2.7 57 2.6C57.5 2.2 58 1.9 58.6 1.5L57.5 1.5C57.2 1.7 57 1.9 56.7 2 28.8 2.5 9.4 3.3 7.3 3.4 3.6 3.7 2 5.7 1.3 17.8 1 25 1.1 34.5 1.7 42.7 2.8 58.3 4.6 58.6 7.4 58.9 19.6 60.3 52.1 60.6 70.4 60.6 94.2 60.6 121 60.3 142.2 59.7 179.5 58.7 180.1 57.8 181.3 56.1 182.8 54 183.5 39.3 183.8 30.7 184.6 7.4 183.1 5.7 182.5 5Z" fill="#4A2E00"/></g><g><path d="M90.5 4.7C48.3 4.7 16 5.9 8.4 6.2 6.2 12.2 6.6 44.8 9 51.2 18.5 52.1 39.4 52.6 68.5 52.6 116.6 52.6 163.2 51.3 172.1 50.2 173.5 43.9 174.5 13.2 173.6 6.4 148 5.3 120.1 4.7 90.5 4.7Z" fill="#EFEFEF"/><g><g><path d="M179.1 3.3C178.5 2.6 177.5 2.2 176.3 2.1 150 0.9 121.1 0.3 90.5 0.3 43.5 0.3 8.6 1.8 6.1 1.9 2.7 2.2 1.2 4.1 0.6 15.6 0.2 22.6 0.3 31.9 0.9 39.9 2 54.9 3.7 55.1 6.3 55.4 18.3 56.8 50.5 57 68.6 57 92 57 118.5 56.7 139.6 56.1 176.3 55.1 176.9 54.2 178 52.8 179.5 50.7 180.2 34.9 180.4 28.2 181 5.6 179.6 3.9 179.1 3.3ZM172 50.2C163.2 51.3 116.6 52.6 68.4 52.6 39.3 52.6 18.4 52.1 8.9 51.2 6.5 44.8 6.1 12.2 8.3 6.2 16 5.9 48.3 4.7 90.5 4.7 120 4.7 147.9 5.3 173.5 6.4 174.4 13.2 173.4 43.9 172 50.2Z" fill="#B06E0E"/><path d="M68.5 57.4C50.4 57.4 18.3 57.2 6.2 55.8 3.5 55.5 1.7 55.3 0.5 40 0 32-0.2 22.6 0.2 15.6 0.9 3.9 2.5 1.9 6.1 1.6 8.6 1.5 43.4 0 90.5 0 121.1 0 150 0.6 176.3 1.8 177.6 1.9 178.7 2.3 179.3 3.1L179.3 3.1C179.9 3.8 181.3 5.4 180.5 28.2 180.2 36.6 179.5 50.9 178 53 176.9 54.6 176.2 55.5 139.3 56.5 118.4 57 91.9 57.4 68.5 57.4ZM90.5 0.6C43.4 0.6 8.6 2.1 6.2 2.3 3 2.5 1.5 4.4 0.9 15.7 0.5 22.7 0.6 32 1.2 39.9 2.3 54.7 3.9 54.8 6.2 55.1 18.2 56.5 50.3 56.7 68.4 56.7 91.8 56.7 118.3 56.4 139.3 55.8 175.8 54.8 176.4 53.9 177.4 52.6 178.4 51.2 179.3 42 179.8 28.1 180.6 5.6 179.2 4 178.7 3.4L178.7 3.4C178.2 2.8 177.2 2.4 176.2 2.3 150 1.2 121.1 0.6 90.5 0.6ZM68.5 53C39.6 53 18.4 52.5 9 51.6L8.8 51.6 8.7 51.4C6.2 44.8 5.8 12.3 8 6.1L8.1 5.9 8.3 5.9C8.6 5.9 42.4 4.4 90.5 4.4 120 4.4 148 5 173.5 6.1L173.8 6.1 173.8 6.4C174.7 13.3 173.7 44.1 172.3 50.3L172.3 50.5 172.1 50.5C163.2 51.7 117 53 68.5 53ZM9.2 51C18.7 51.9 39.8 52.4 68.4 52.4 116.5 52.4 162.2 51.1 171.7 50 173 43.4 174 14.1 173.1 6.8 147.8 5.6 120 5 90.5 5 44.6 5 11.8 6.4 8.6 6.5 6.6 12.9 7 44.3 9.2 51Z" fill="#8C5700"/></g><path d="M172.2 5.1C147.4 4.6 118.6 3.6 90.3 3.6 51.9 3.6 21.2 4.5 9.9 5 8.6 5 7 5.3 6.4 6.8 4.8 15.4 5.2 41.9 7 50.7 7.3 52.5 9.3 52.6 10.5 52.7 21.2 53.5 41.5 54 68.1 54 112.6 54 156.9 52.6 170.8 51.5 172.1 51.4 174 51.3 174.1 49.4 175.2 40.8 175.9 16.1 175.3 7.4 175.2 6 174.9 5.1 172.2 5.1ZM172 50.2C163.2 51.3 116.6 52.6 68.4 52.6 39.3 52.6 18.4 52.1 8.9 51.2 6.5 44.8 6.1 12.2 8.3 6.2 16 5.9 48.3 4.7 90.5 4.7 120 4.7 147.9 5.3 173.5 6.4 174.4 13.2 173.4 43.9 172 50.2Z" fill="#B06E0E" opacity="0.5"/><path d="M179.1 3.3C178.5 2.6 177.5 2.2 176.3 2.1 150 0.9 121.1 0.3 90.5 0.3 43.5 0.3 8.6 1.8 6.1 1.9 2.7 2.2 1.2 4.1 0.6 15.6 0.2 22.6 0.3 31.9 0.9 39.9 2 54.9 3.7 55.1 6.3 55.4 18.3 56.8 50.5 57 68.6 57 92 57 118.5 56.7 139.6 56.1 176.3 55.1 176.9 54.2 178 52.8 179.5 50.7 180.2 34.9 180.4 28.2 181 5.6 179.6 3.9 179.1 3.3ZM178.3 27.9C178.1 34.3 177.4 49.5 175.9 51.5 174.9 52.9 174.3 53.7 138.4 54.7 117.9 55.2 91.9 55.6 69.1 55.6 51.4 55.6 19.5 55.3 7.7 53.9 5.2 53.5 3.6 53.3 2.5 39 2 31.4 1.8 22.5 2.2 15.7 2.8 4.7 4.3 2.8 7.6 2.6 10 2.4 44.7 1.2 90.6 1.2 120.5 1.2 148.7 1.8 174.4 2.9 175.5 3 176.5 3.4 177.1 4 177.7 4.6 179.1 6.2 178.3 27.9Z" fill="#B06E0E" opacity="0.5"/><path d="M86.5 54.8C86.5 54.8 86.4 54.8 86.5 54.8 47.7 54.8 13.3 53.9 10.6 53.7 5.4 53.1 3.9 53 3.7 30.6 3.6 8.4 5 5.5 6.7 4.3 8.1 3.3 15.2 3.1 41.9 2.6 49.7 2.4 59.2 2.2 70.7 2 79.3 1.8 88.5 1.7 98 1.7 137.6 1.7 172.2 3.4 174.3 3.5 177.4 3.7 177.7 5.4 177.7 10.1 177.7 14.7 176.3 47 176.2 49.1 176 51.4 173.2 52.2 173.1 52.3 150.9 54.4 113.7 54.8 86.5 54.8L86.5 54.8ZM70.6 2.8C59.1 2.9 49.6 3.3 41.7 3.4 16.7 4 8.3 4.1 7.1 5 5.6 6.1 4.4 8.6 4.5 30.6 4.6 52.5 6.2 52.7 10.6 53.1 13.2 53.4 48.3 54.2 86.4 54.2 86.4 54.2 86.4 54.2 86.4 54.2 113.6 54.2 150.8 53.8 172.9 51.7 172.9 51.7 175.3 50.9 175.4 49 175.6 46.9 176.9 14.6 176.9 10 176.9 5.1 176.3 4.5 174.1 4.3 172.1 4.2 142.7 2.2 70.6 2.8Z" fill="#C08B3E"/><g opacity="0.49"><path d="M2.3 51.5C2.2 51.5 2.1 51.5 2 51.4 1.8 51.3 1.8 51.1 2 51 2.1 50.9 4.7 49 8.1 48.1 8.3 48.1 8.5 48.1 8.6 48.2 8.7 48.3 8.6 48.5 8.4 48.5 5.2 49.3 2.6 51.2 2.6 51.2 2.5 51.5 2.4 51.5 2.3 51.5L2.3 51.5Z" fill="#8C5700"/></g><g opacity="0.49"><path d="M3.7 54.6C3.6 54.6 3.5 54.6 3.4 54.5 3.2 54.4 3.2 54.2 3.4 54.1 3.5 54 6.1 52.1 9.5 51.2 9.7 51.1 9.9 51.2 10 51.3 10.1 51.4 10 51.6 9.8 51.6 6.6 52.4 4 54.3 4 54.3 3.9 54.6 3.8 54.6 3.7 54.6L3.7 54.6Z" fill="#8C5700"/></g><g opacity="0.49"><path d="M1.4 47.8C1.3 47.8 1.2 47.8 1.1 47.7 0.9 47.6 0.9 47.4 1.1 47.3 1.2 47.2 3.8 45.3 7.3 44.4 7.5 44.3 7.7 44.4 7.8 44.5 7.9 44.6 7.8 44.8 7.6 44.8 4.3 45.7 1.7 47.6 1.7 47.6 1.6 47.8 1.5 47.8 1.4 47.8L1.4 47.8Z" fill="#8C5700"/></g><g opacity="0.49"><path d="M1.2 43.8C1.1 43.8 1 43.8 0.9 43.7 0.7 43.6 0.7 43.4 0.9 43.3 1 43.2 3.6 41.3 7.1 40.4 7.3 40.3 7.5 40.4 7.6 40.5 7.7 40.6 7.6 40.8 7.4 40.8 4.1 41.7 1.5 43.6 1.5 43.6 1.4 43.8 1.3 43.8 1.2 43.8L1.2 43.8Z" fill="#8C5700"/></g><g opacity="0.49"><path d="M1.2 40.4C1.1 40.4 1 40.4 0.9 40.3 0.7 40.2 0.7 40 0.9 39.9 1 39.8 3.6 37.9 7.1 37 7.3 36.9 7.5 37 7.6 37.1 7.7 37.2 7.6 37.4 7.4 37.4 4.1 38.3 1.5 40.2 1.5 40.2 1.4 40.3 1.3 40.4 1.2 40.4L1.2 40.4Z" fill="#8C5700"/></g><g opacity="0.49"><path d="M0.9 36.6C0.8 36.6 0.7 36.6 0.6 36.5 0.4 36.4 0.4 36.2 0.6 36.1 0.7 36 3.3 34.1 6.8 33.2 7 33.1 7.2 33.2 7.3 33.3 7.4 33.4 7.3 33.6 7.1 33.6 3.8 34.5 1.2 36.4 1.2 36.4 1.1 36.6 1 36.6 0.9 36.6L0.9 36.6Z" fill="#8C5700"/></g><g opacity="0.49"><path d="M0.7 32.8C0.6 32.8 0.5 32.8 0.4 32.7 0.2 32.6 0.2 32.4 0.4 32.3 0.5 32.2 3.1 30.3 6.6 29.4 6.8 29.3 7 29.4 7.1 29.5 7.2 29.6 7.1 29.8 6.9 29.8 3.6 30.7 1 32.6 1 32.6 1 32.8 0.8 32.8 0.7 32.8L0.7 32.8Z" fill="#8C5700"/></g><g opacity="0.49"><path d="M0.7 28.9C0.6 28.9 0.5 28.9 0.4 28.8 0.2 28.7 0.2 28.5 0.4 28.4 0.5 28.3 3.1 26.4 6.6 25.5 6.8 25.4 7 25.5 7.1 25.6 7.2 25.7 7.1 25.9 6.9 25.9 3.6 26.8 1 28.7 1 28.7 1 28.9 0.8 28.9 0.7 28.9L0.7 28.9Z" fill="#8C5700"/></g><g opacity="0.49"><path d="M0.5 25.3C0.4 25.3 0.3 25.3 0.3 25.2 0.1 25.1 0.1 24.9 0.3 24.8 0.4 24.7 3 22.8 6.5 21.9 6.7 21.8 6.9 21.9 7 22 7.1 22.1 7 22.3 6.8 22.3 3.5 23.2 0.9 25.1 0.9 25.1 0.7 25.3 0.6 25.3 0.5 25.3L0.5 25.3Z" fill="#8C5700"/></g><g opacity="0.49"><path d="M0.4 21.8C0.3 21.8 0.2 21.8 0.2 21.7 0 21.6 0 21.4 0.2 21.3 0.3 21.2 2.9 19.3 6.4 18.4 6.6 18.3 6.8 18.4 6.9 18.5 7 18.6 6.9 18.8 6.7 18.8 3.4 19.7 0.8 21.6 0.8 21.6 0.6 21.8 0.5 21.8 0.4 21.8L0.4 21.8Z" fill="#8C5700"/></g><g opacity="0.49"><path d="M0.6 18.2C0.5 18.2 0.4 18.2 0.4 18.1 0.2 18 0.2 17.8 0.4 17.7 0.5 17.6 3.1 15.7 6.6 14.8 6.7 14.8 7 14.8 7 15 7.1 15.1 7 15.3 6.8 15.3 3.5 16.2 0.9 18.1 0.9 18.1 0.8 18.2 0.7 18.2 0.6 18.2L0.6 18.2Z" fill="#8C5700"/></g><g opacity="0.49"><path d="M1 14.4C0.9 14.4 0.8 14.4 0.7 14.3 0.5 14.2 0.5 14 0.7 13.9 0.8 13.8 3.4 11.9 6.9 11 7.1 10.9 7.3 11 7.4 11.1 7.5 11.2 7.4 11.4 7.2 11.4 3.9 12.3 1.3 14.2 1.3 14.2 1.2 14.4 1.1 14.4 1 14.4L1 14.4Z" fill="#8C5700"/></g><g opacity="0.49"><path d="M1.4 10.6C1.3 10.6 1.2 10.6 1.2 10.5 1 10.4 1 10.3 1.2 10.1 1.2 10.1 4 8 7.5 7 7.7 7 7.9 7 8 7.1 8.1 7.2 8 7.4 7.8 7.4 4.4 8.3 1.7 10.4 1.7 10.4 1.6 10.6 1.5 10.6 1.4 10.6L1.4 10.6Z" fill="#8C5700"/></g><g opacity="0.49"><path d="M172.3 49.5C172.2 49.5 172.1 49.5 172 49.4 171.9 49.3 171.9 49.1 172 49 172.1 48.9 175.1 47.2 179 46.4 179.2 46.4 179.4 46.4 179.5 46.6 179.6 46.7 179.5 46.9 179.3 46.9 175.6 47.7 172.6 49.4 172.6 49.4 172.4 49.5 172.3 49.5 172.3 49.5L172.3 49.5Z" fill="#8C5700"/></g><g opacity="0.49"><path d="M172.9 45.7C172.8 45.7 172.7 45.7 172.6 45.6 172.5 45.5 172.5 45.3 172.6 45.2 172.7 45.1 175.5 43.4 179 42.6 179.2 42.6 179.4 42.6 179.5 42.8 179.6 42.9 179.5 43.1 179.3 43.1 175.9 43.9 173.2 45.6 173.1 45.6 173.1 45.6 173 45.7 172.9 45.7L172.9 45.7Z" fill="#8C5700"/></g><g opacity="0.49"><path d="M173.3 42.2C173.2 42.2 173.1 42.2 173 42.1 172.8 42 172.8 41.8 173 41.7 173.1 41.6 175.7 39.7 179.2 38.9 179.4 38.9 179.6 38.9 179.7 39 179.8 39.1 179.7 39.3 179.5 39.3 176.2 40.1 173.6 42 173.6 42 173.5 42.2 173.4 42.2 173.3 42.2L173.3 42.2Z" fill="#8C5700"/></g><g opacity="0.49"><path d="M173.2 38.5C173.1 38.5 173 38.5 172.9 38.4 172.7 38.3 172.7 38.1 172.9 38 173 37.9 175.7 36 179.3 35.1 179.5 35.1 179.7 35.1 179.8 35.2 179.9 35.3 179.8 35.5 179.6 35.5 176.2 36.3 173.6 38.2 173.5 38.2 173.4 38.5 173.3 38.5 173.2 38.5L173.2 38.5Z" fill="#8C5700"/></g><g opacity="0.49"><path d="M173.6 35.1C173.5 35.1 173.4 35.1 173.3 35 173.1 34.9 173.1 34.7 173.3 34.6 173.4 34.5 176.2 32.5 179.8 31.6 180 31.6 180.2 31.6 180.3 31.7 180.4 31.8 180.3 32 180.1 32 176.7 32.9 174 34.9 173.9 34.9 173.8 35.1 173.7 35.1 173.6 35.1L173.6 35.1Z" fill="#8C5700"/></g><g opacity="0.49"><path d="M174.2 31.1C174.1 31.1 174 31.1 174 31 173.8 30.9 173.8 30.7 174 30.6 174.1 30.5 176.7 28.6 180.2 27.7 180.4 27.6 180.6 27.7 180.7 27.8 180.8 27.9 180.7 28.1 180.5 28.1 177.2 29 174.6 30.9 174.6 30.9 174.5 31.1 174.4 31.1 174.2 31.1L174.2 31.1Z" fill="#8C5700"/></g><g opacity="0.49"><path d="M174.2 27.3C174.1 27.3 174 27.3 174 27.2 173.8 27.1 173.8 26.9 174 26.8 174.1 26.7 176.7 24.8 180.2 23.9 180.4 23.8 180.6 23.9 180.7 24 180.8 24.1 180.7 24.3 180.5 24.3 177.2 25.2 174.6 27.1 174.6 27.1 174.5 27.2 174.4 27.3 174.2 27.3L174.2 27.3Z" fill="#8C5700"/></g><g opacity="0.49"><path d="M174 23.7C173.9 23.7 173.8 23.7 173.8 23.6 173.6 23.5 173.6 23.3 173.8 23.2 173.9 23.1 176.5 21.2 180 20.3 180.2 20.2 180.4 20.3 180.5 20.4 180.6 20.5 180.5 20.7 180.3 20.7 177 21.6 174.4 23.5 174.4 23.5 174.2 23.6 174.1 23.7 174 23.7L174 23.7Z" fill="#8C5700"/></g><g opacity="0.49"><path d="M173.9 20.1C173.8 20.1 173.7 20.1 173.6 20 173.4 19.9 173.4 19.7 173.6 19.6 173.7 19.5 176.3 17.6 179.8 16.7 180 16.7 180.2 16.7 180.3 16.8 180.4 16.9 180.3 17.1 180.1 17.1 176.8 18 174.2 19.9 174.2 19.9 174.1 20.1 174 20.1 173.9 20.1L173.9 20.1Z" fill="#8C5700"/></g><g opacity="0.49"><path d="M174.1 16.5C174 16.5 173.9 16.5 173.9 16.4 173.7 16.3 173.7 16.1 173.9 16 174 15.9 176.6 14 180.1 13.1 180.3 13 180.5 13.1 180.6 13.2 180.7 13.3 180.6 13.5 180.4 13.5 177.1 14.4 174.5 16.3 174.5 16.3 174.3 16.5 174.2 16.5 174.1 16.5L174.1 16.5Z" fill="#8C5700"/></g><g opacity="0.49"><path d="M174.1 12.4C174 12.4 173.9 12.4 173.8 12.3 173.6 12.2 173.6 12 173.8 11.9 173.9 11.8 176.5 9.9 180 9 180.2 8.9 180.4 9 180.5 9.1 180.6 9.2 180.5 9.4 180.3 9.4 177 10.3 174.4 12.2 174.4 12.2 174.3 12.3 174.2 12.4 174.1 12.4L174.1 12.4Z" fill="#8C5700"/></g><g opacity="0.49"><path d="M173.8 8.5C173.7 8.5 173.6 8.5 173.6 8.4 173.4 8.3 173.4 8.1 173.6 8 173.7 7.9 176.4 5.8 180 4.8 180.2 4.7 180.4 4.8 180.5 4.9 180.6 5 180.5 5.2 180.3 5.2 176.9 6.1 174.2 8.2 174.2 8.2 174 8.5 173.9 8.5 173.8 8.5L173.8 8.5Z" fill="#8C5700"/></g><g opacity="0.49"><path d="M9.6 6.2C9.5 6.2 9.4 6.2 9.4 6.1 9.2 6 9.2 5.9 9.4 5.8 9.6 5.7 13.2 2.8 19.9 1.6 20.1 1.6 20.3 1.6 20.4 1.8 20.4 1.9 20.3 2 20.1 2 13.6 3.2 10 6 9.9 6.1 9.9 6.1 9.8 6.2 9.6 6.2L9.6 6.2Z" fill="#8C5700"/></g><g opacity="0.49"><path d="M18 5.9C17.9 5.9 17.8 5.9 17.8 5.8 17.6 5.7 17.6 5.6 17.7 5.4 17.9 5.3 21.5 2.4 28.2 1.2 28.4 1.2 28.6 1.2 28.7 1.4 28.8 1.5 28.6 1.7 28.4 1.7 21.9 2.8 18.3 5.7 18.3 5.7 18.2 5.9 18.1 5.9 18 5.9L18 5.9Z" fill="#8C5700"/></g><g opacity="0.49"><path d="M26.4 5.7C26.3 5.7 26.2 5.7 26.2 5.6 26 5.5 26 5.4 26.1 5.2 26.3 5.1 29.9 2.2 36.6 1 36.8 1 37 1 37.1 1.2 37.2 1.3 37 1.5 36.8 1.5 30.3 2.6 26.7 5.5 26.7 5.5 26.6 5.7 26.5 5.7 26.4 5.7L26.4 5.7Z" fill="#8C5700"/></g><g opacity="0.49"><path d="M34.7 5.5C34.6 5.5 34.5 5.5 34.5 5.4 34.3 5.3 34.3 5.2 34.4 5 34.6 4.9 38.2 2 44.9 0.8 45.1 0.8 45.3 0.8 45.4 1 45.5 1.1 45.3 1.3 45.1 1.3 38.6 2.4 35 5.3 35 5.3 34.9 5.5 34.8 5.5 34.7 5.5L34.7 5.5Z" fill="#8C5700"/></g><g opacity="0.49"><path d="M43.1 5.3C43 5.3 42.9 5.3 42.9 5.2 42.7 5.1 42.7 5 42.8 4.8 43 4.7 46.6 1.8 53.3 0.6 53.5 0.6 53.7 0.6 53.8 0.8 53.9 0.9 53.7 1.1 53.5 1.1 47 2.2 43.4 5.1 43.4 5.1 43.3 5.2 43.2 5.3 43.1 5.3L43.1 5.3Z" fill="#8C5700"/></g><g opacity="0.49"><path d="M51.4 5.1C51.3 5.1 51.2 5.1 51.2 5 51 4.9 51 4.8 51.2 4.6 51.4 4.5 55 1.6 61.7 0.4 61.9 0.4 62.1 0.4 62.2 0.6 62.3 0.7 62.1 0.9 61.9 0.9 55.4 2 51.8 4.9 51.8 4.9 51.6 5 51.5 5.1 51.4 5.1L51.4 5.1Z" fill="#8C5700"/></g><g opacity="0.49"><path d="M59.8 5C59.7 5 59.6 5 59.6 4.9 59.4 4.8 59.4 4.7 59.5 4.5 59.7 4.4 63.3 1.5 70 0.3 70.2 0.3 70.4 0.3 70.5 0.5 70.6 0.6 70.4 0.8 70.2 0.8 63.7 1.9 60.1 4.8 60.1 4.8 60 5 59.9 5 59.8 5L59.8 5Z" fill="#8C5700"/></g><g opacity="0.49"><path d="M68.3 5C68.2 5 68.1 5 68.1 4.9 67.9 4.8 67.9 4.7 68 4.5 68.2 4.4 71.8 1.5 78.5 0.3 78.7 0.3 78.9 0.3 79 0.5 79.1 0.6 78.9 0.8 78.7 0.8 72.2 1.9 68.6 4.8 68.6 4.8 68.6 4.9 68.4 5 68.3 5L68.3 5Z" fill="#8C5700"/></g><g opacity="0.49"><path d="M77.1 4.8C77 4.8 76.9 4.8 76.9 4.7 76.7 4.6 76.7 4.5 76.8 4.3 77 4.2 80.6 1.3 87.3 0.1 87.5 0.1 87.7 0.1 87.8 0.3 87.9 0.4 87.7 0.6 87.5 0.6 81 1.7 77.4 4.6 77.4 4.6 77.3 4.8 77.2 4.8 77.1 4.8L77.1 4.8Z" fill="#8C5700"/></g><g opacity="0.49"><path d="M85.5 4.9C85.4 4.9 85.3 4.9 85.3 4.8 85.1 4.7 85.1 4.6 85.2 4.4 85.4 4.3 89 1.4 95.7 0.2 95.9 0.2 96.1 0.2 96.2 0.4 96.3 0.5 96.1 0.7 95.9 0.7 89.4 1.8 85.8 4.7 85.8 4.7 85.7 4.8 85.6 4.9 85.5 4.9L85.5 4.9Z" fill="#8C5700"/></g><g opacity="0.49"><path d="M93.8 4.8C93.7 4.8 93.6 4.8 93.6 4.7 93.4 4.6 93.4 4.5 93.5 4.3 93.7 4.2 97.3 1.3 104 0.1 104.2 0.1 104.4 0.1 104.5 0.3 104.6 0.4 104.4 0.6 104.2 0.6 97.7 1.7 94.1 4.6 94.1 4.6 94.1 4.8 93.9 4.8 93.8 4.8L93.8 4.8Z" fill="#8C5700"/></g><g opacity="0.49"><path d="M102.4 4.9C102.3 4.9 102.2 4.9 102.2 4.8 102 4.7 102 4.6 102.1 4.4 102.3 4.3 105.9 1.4 112.6 0.2 112.8 0.2 113 0.2 113.1 0.4 113.2 0.5 113 0.7 112.8 0.7 106.3 1.8 102.7 4.7 102.7 4.7 102.6 4.8 102.5 4.9 102.4 4.9L102.4 4.9Z" fill="#8C5700"/></g><g opacity="0.49"><path d="M110.8 5C110.7 5 110.6 5 110.6 4.9 110.4 4.8 110.4 4.7 110.5 4.5 110.7 4.4 114.3 1.5 121 0.3 121.2 0.3 121.4 0.3 121.5 0.5 121.6 0.6 121.4 0.8 121.2 0.8 114.7 1.9 111.1 4.8 111.1 4.8 111 5 110.9 5 110.8 5L110.8 5Z" fill="#8C5700"/></g><g opacity="0.49"><path d="M119.1 5.1C119 5.1 118.9 5.1 118.9 5 118.7 4.9 118.7 4.8 118.9 4.6 119.1 4.5 122.7 1.6 129.4 0.4 129.6 0.4 129.8 0.4 129.9 0.6 130 0.7 129.8 0.9 129.6 0.9 123.1 2 119.5 4.9 119.5 4.9 119.3 5 119.2 5.1 119.1 5.1L119.1 5.1Z" fill="#8C5700"/></g><g opacity="0.49"><path d="M127.7 5.2C127.6 5.2 127.5 5.2 127.5 5.1 127.3 5 127.3 4.9 127.4 4.7 127.6 4.6 131.2 1.7 137.9 0.5 138.1 0.5 138.3 0.5 138.4 0.7 138.5 0.8 138.3 1 138.1 1 131.6 2.1 128 5 128 5 127.9 5.2 127.8 5.2 127.7 5.2L127.7 5.2Z" fill="#8C5700"/></g><g opacity="0.49"><path d="M135.9 5.4C135.8 5.4 135.7 5.4 135.7 5.3 135.5 5.2 135.5 5.1 135.6 4.9 135.8 4.8 139.4 1.9 146.1 0.7 146.3 0.7 146.5 0.7 146.6 0.9 146.7 1 146.5 1.2 146.3 1.2 139.8 2.3 136.2 5.2 136.2 5.2 136.1 5.4 136 5.4 135.9 5.4L135.9 5.4Z" fill="#8C5700"/></g><g opacity="0.49"><path d="M144.3 5.6C144.2 5.6 144.1 5.6 144.1 5.5 143.9 5.4 143.9 5.3 144.1 5.1 144.3 5 147.9 2.1 154.6 0.9 154.8 0.9 155 0.9 155.1 1.1 155.2 1.2 155 1.4 154.8 1.4 148.3 2.5 144.7 5.4 144.7 5.4 144.5 5.6 144.4 5.6 144.3 5.6L144.3 5.6Z" fill="#8C5700"/></g><g opacity="0.49"><path d="M152.6 5.8C152.5 5.8 152.4 5.8 152.4 5.7 152.2 5.6 152.2 5.5 152.3 5.3 152.5 5.2 156.1 2.3 162.8 1.1 163 1.1 163.2 1.1 163.3 1.3 163.4 1.4 163.2 1.6 163 1.6 156.5 2.7 152.9 5.6 152.9 5.6 152.8 5.8 152.7 5.8 152.6 5.8L152.6 5.8Z" fill="#8C5700"/></g><g opacity="0.49"><path d="M160.8 6.2C160.7 6.2 160.6 6.2 160.6 6.1 160.4 6 160.4 5.9 160.5 5.7 160.7 5.6 164.3 2.7 171 1.5 171.2 1.5 171.4 1.5 171.5 1.7 171.6 1.8 171.4 2 171.2 2 164.7 3.1 161.1 6 161.1 6 161.1 6.2 161 6.2 160.8 6.2L160.8 6.2Z" fill="#8C5700"/></g><g opacity="0.49"><path d="M169.9 6.4C169.8 6.4 169.7 6.4 169.7 6.4 169.5 6.3 169.5 6.2 169.6 6 169.7 5.9 172.6 3.3 177.9 2.2 178.1 2.2 178.3 2.2 178.4 2.4 178.5 2.5 178.3 2.7 178.1 2.7 173 3.7 170.2 6.2 170.1 6.3 170.1 6.3 170 6.4 169.9 6.4L169.9 6.4Z" fill="#8C5700"/></g><g opacity="0.49"><path d="M1.7 6.4C1.6 6.4 1.5 6.4 1.4 6.3 1.3 6.2 1.3 6.1 1.4 6 1.6 5.9 5.4 3.2 10.3 2 10.5 2 10.7 2 10.8 2.1 10.9 2.2 10.8 2.4 10.6 2.4 5.8 3.6 2 6.3 2 6.3 1.9 6.4 1.8 6.4 1.7 6.4L1.7 6.4Z" fill="#8C5700"/></g><g opacity="0.49"><path d="M8.9 55.9C8.8 55.9 8.7 55.9 8.7 55.8 8.5 55.7 8.5 55.6 8.6 55.4 8.7 55.3 12.1 52.6 18.3 51.5 18.5 51.5 18.7 51.5 18.8 51.7 18.9 51.8 18.7 52 18.5 52 12.5 53.1 9.2 55.7 9.2 55.7 9.1 55.9 9 55.9 8.9 55.9L8.9 55.9Z" fill="#8C5700"/></g><g opacity="0.49"><path d="M17.6 56C17.5 56 17.4 56 17.4 55.9 17.2 55.8 17.2 55.7 17.4 55.5 17.5 55.4 20.5 53 26 52.1 26.2 52.1 26.4 52.1 26.5 52.3 26.6 52.4 26.4 52.6 26.2 52.6 20.9 53.5 18 55.9 18 55.9 17.9 56 17.8 56 17.6 56L17.6 56Z" fill="#8C5700"/></g><g opacity="0.49"><path d="M26.4 56.2C26.3 56.2 26.2 56.2 26.2 56.1 26 56 26 55.9 26.1 55.7 26.2 55.6 29.2 53.2 34.8 52.2 35 52.2 35.2 52.2 35.3 52.4 35.4 52.5 35.2 52.7 35 52.7 29.7 53.6 26.8 56 26.7 56 26.6 56.2 26.5 56.2 26.4 56.2L26.4 56.2Z" fill="#8C5700"/></g><g opacity="0.49"><path d="M35.5 56.6C35.4 56.6 35.3 56.6 35.3 56.5 35.1 56.4 35.1 56.3 35.2 56.1 35.3 56 38.2 53.4 43.7 52.4 43.9 52.4 44.1 52.4 44.2 52.6 44.3 52.7 44.1 52.9 43.9 52.9 38.7 53.9 35.9 56.4 35.8 56.5 35.8 56.6 35.6 56.6 35.5 56.6L35.5 56.6Z" fill="#8C5700"/></g><g opacity="0.49"><path d="M42.8 57C42.7 57 42.6 57 42.6 56.9 42.4 56.8 42.4 56.7 42.5 56.5 42.7 56.4 46.3 53.5 53 52.3 53.2 52.3 53.4 52.3 53.5 52.5 53.6 52.6 53.4 52.8 53.2 52.8 46.7 53.9 43.1 56.8 43.1 56.8 43 57 42.9 57 42.8 57L42.8 57Z" fill="#8C5700"/></g><g opacity="0.49"><path d="M51.1 56.9C51 56.9 50.9 56.9 50.9 56.8 50.7 56.7 50.7 56.6 50.8 56.4 51 56.3 54.6 53.4 61.3 52.2 61.5 52.2 61.7 52.2 61.8 52.4 61.9 52.5 61.7 52.7 61.5 52.7 55 53.8 51.4 56.7 51.4 56.7 51.3 56.9 51.2 56.9 51.1 56.9L51.1 56.9Z" fill="#8C5700"/></g><g opacity="0.49"><path d="M60.1 57C60 57 59.9 57 59.9 56.9 59.7 56.8 59.7 56.7 59.8 56.5 60 56.4 63.6 53.5 70.3 52.3 70.5 52.3 70.7 52.3 70.8 52.5 70.9 52.6 70.7 52.8 70.5 52.8 64 53.9 60.4 56.8 60.4 56.8 60.3 56.9 60.2 57 60.1 57L60.1 57Z" fill="#8C5700"/></g><g opacity="0.49"><path d="M68.9 57C68.8 57 68.7 57 68.7 56.9 68.5 56.8 68.5 56.7 68.6 56.5 68.8 56.4 72.4 53.5 79.1 52.3 79.3 52.3 79.5 52.3 79.6 52.5 79.7 52.6 79.5 52.8 79.3 52.8 72.8 53.9 69.2 56.8 69.2 56.8 69.2 57 69 57 68.9 57L68.9 57Z" fill="#8C5700"/></g><g opacity="0.49"><path d="M78 57.1C77.9 57.1 77.8 57.1 77.8 57 77.6 56.9 77.6 56.8 77.7 56.6 77.9 56.5 81.5 53.6 88.2 52.4 88.4 52.4 88.6 52.4 88.7 52.6 88.8 52.7 88.6 52.9 88.4 52.9 81.9 54 78.3 56.9 78.3 56.9 78.3 57 78.1 57.1 78 57.1L78 57.1Z" fill="#8C5700"/></g><g opacity="0.49"><path d="M87.2 57.1C87.1 57.1 87 57.1 87 57 86.8 56.9 86.8 56.8 86.9 56.6 87.1 56.5 90.7 53.6 97.4 52.4 97.6 52.4 97.8 52.4 97.9 52.6 98 52.7 97.8 52.9 97.6 52.9 91.1 54 87.5 56.9 87.5 56.9 87.4 57.1 87.3 57.1 87.2 57.1L87.2 57.1Z" fill="#8C5700"/></g><g opacity="0.49"><path d="M96.7 56.8C96.6 56.8 96.5 56.8 96.5 56.7 96.3 56.6 96.3 56.5 96.4 56.3 96.6 56.2 100.2 53.3 106.9 52.1 107.1 52.1 107.3 52.1 107.4 52.3 107.5 52.4 107.3 52.6 107.1 52.6 100.6 53.7 97 56.6 97 56.6 96.9 56.8 96.8 56.8 96.7 56.8L96.7 56.8Z" fill="#8C5700"/></g><g opacity="0.49"><path d="M105.3 56.8C105.2 56.8 105.1 56.8 105.1 56.7 104.9 56.6 104.9 56.5 105 56.3 105.2 56.2 108.8 53.3 115.5 52.1 115.7 52.1 115.9 52.1 116 52.3 116.1 52.4 115.9 52.6 115.7 52.6 109.2 53.7 105.6 56.6 105.6 56.6 105.5 56.8 105.4 56.8 105.3 56.8L105.3 56.8Z" fill="#8C5700"/></g><g opacity="0.49"><path d="M114.7 56.8C114.6 56.8 114.5 56.8 114.5 56.7 114.3 56.6 114.3 56.5 114.4 56.3 114.6 56.2 118.2 53.3 124.9 52.1 125.1 52.1 125.3 52.1 125.4 52.3 125.5 52.4 125.3 52.6 125.1 52.6 118.6 53.7 115 56.6 115 56.6 114.9 56.7 114.8 56.8 114.7 56.8L114.7 56.8Z" fill="#8C5700"/></g><g opacity="0.49"><path d="M123.2 56.5C123.1 56.5 123 56.5 123 56.4 122.8 56.3 122.8 56.2 122.9 56 123.1 55.9 126.7 53 133.4 51.8 133.6 51.8 133.8 51.8 133.9 52 134 52.1 133.8 52.3 133.6 52.3 127.1 53.4 123.5 56.3 123.5 56.3 123.4 56.5 123.3 56.5 123.2 56.5L123.2 56.5Z" fill="#8C5700"/></g><g opacity="0.49"><path d="M132.1 56.1C132 56.1 131.9 56.1 131.9 56 131.7 55.9 131.7 55.8 131.8 55.6 132 55.5 135.6 52.6 142.3 51.4 142.5 51.4 142.7 51.4 142.8 51.6 142.9 51.7 142.7 51.9 142.5 51.9 136 53 132.4 55.9 132.4 55.9 132.4 56.1 132.3 56.1 132.1 56.1L132.1 56.1Z" fill="#8C5700"/></g><g opacity="0.49"><path d="M140.1 55.9C140 55.9 139.9 55.9 139.9 55.8 139.7 55.7 139.7 55.6 139.8 55.4 140 55.3 143.6 52.4 150.3 51.2 150.5 51.2 150.7 51.2 150.8 51.4 150.9 51.5 150.7 51.7 150.5 51.7 144 52.8 140.4 55.7 140.4 55.7 140.3 55.9 140.2 55.9 140.1 55.9L140.1 55.9Z" fill="#8C5700"/></g><g opacity="0.49"><path d="M149 56.1C148.9 56.1 148.8 56.1 148.8 56 148.6 55.9 148.6 55.8 148.7 55.6 148.9 55.5 152.8 52.1 160.2 50.7 160.4 50.7 160.6 50.7 160.7 50.9 160.8 51 160.6 51.2 160.4 51.2 153.3 52.5 149.3 55.8 149.3 55.9 149.2 56.1 149.1 56.1 149 56.1L149 56.1Z" fill="#8C5700"/></g><g opacity="0.49"><path d="M157.1 55.8C157 55.8 156.9 55.8 156.8 55.7 156.6 55.6 156.6 55.4 156.8 55.3 157 55.2 161.6 51.9 170.1 50.6 170.3 50.6 170.5 50.7 170.6 50.8 170.6 50.9 170.5 51.1 170.3 51.1 162 52.4 157.5 55.7 157.4 55.7 157.3 55.8 157.2 55.8 157.1 55.8L157.1 55.8Z" fill="#8C5700"/></g><g opacity="0.49"><path d="M167.2 55.2C167.1 55.2 167 55.2 167 55.1 166.8 55 166.8 54.8 167 54.7 167.2 54.6 171.3 51.5 178.9 50.2 179.1 50.2 179.3 50.3 179.4 50.4 179.4 50.5 179.3 50.7 179.1 50.7 171.7 51.9 167.6 55 167.5 55 167.4 55.2 167.3 55.2 167.2 55.2L167.2 55.2Z" fill="#8C5700"/></g></g><g><path d="M173.5 6.4C148 5.3 120.1 4.7 90.5 4.7 48.3 4.7 16 5.9 8.4 6.2 6.2 12.2 6.6 44.8 9 51.2 18.5 52.1 39.4 52.6 68.5 52.6 116.6 52.6 163.2 51.3 172.1 50.2 173.4 43.9 174.4 13.2 173.5 6.4ZM124.7 47.7C71 50.5 15 51.5 11.3 31.7 8.7 17.5 15.8 10.7 33.6 7.6 43.9 5.9 122 5.9 153 9.4 184 13 178.4 44.9 124.7 47.7Z" fill="#EFEFEF"/></g><g opacity="0.4"><path d="M17.7 21.1C17.7 21.1 17.7 9.4 89.1 9.9 160.5 10.4 188.1 24.1 155.2 28.8 122.4 33.5 9 30.7 17.7 21.1Z" fill="#FFFFFF"/></g></g></g></g></svg>