<svg width="535.1" height="212.8" viewBox="0 0 535.1 212.8" xmlns="http://www.w3.org/2000/svg" xmlns:xlink="http://www.w3.org/1999/xlink" overflow="hidden"><defs></defs><g><path d="M425.2 108.5 426.1 108.3 426.5 107.4 426.9 108.3 427.9 108.3 427.2 109 427.4 110 426.6 109.6 425.7 110.1 425.9 109.1Z" fill="#FFFFFF"/><path d="M508.2 144 507.6 144.9 508.1 145.9 507 145.6 506.3 146.4 506.2 145.3 505.2 144.8 506.2 144.4 506.4 143.3 507.1 144.1Z" fill="#FFFFFF"/><path d="M442 140.8 440.7 139 438.4 139 439.7 137.2 439 135 441.1 135.7 442.9 134.3 442.9 136.6 444.8 137.9 442.7 138.6Z" fill="#FFFFFF"/><path d="M466.9 200.5 465.2 200.7 464.5 202.1 463.8 200.6 462.1 200.4 463.3 199.2 463.1 197.6 464.6 198.4 466.1 197.6 465.7 199.3Z" fill="#FFFFFF"/><path d="M388.8 120.1 389.5 120.7 390.3 120.4 390 121.3 390.5 122 389.6 122 389 122.7 388.8 121.8 387.9 121.5 388.7 121Z" fill="#FFFFFF"/><path d="M125 57.7 124.8 58.6 125.4 59.3 124.5 59.4 124 60.2 123.7 59.3 122.8 59.1 123.5 58.5 123.4 57.6 124.2 58.1Z" fill="#FFFFFF"/><path d="M442.5 175.8 442.7 177 443.8 177.4 442.8 178 442.8 179.2 441.9 178.4 440.7 178.7 441.2 177.6 440.6 176.7 441.7 176.7Z" fill="#FFFFFF"/><path d="M301.7 79.7 304 77.7 303.5 74.7 306.2 76.2 308.9 74.9 308.3 77.8 310.3 80 307.4 80.3 305.9 83 304.7 80.2Z" fill="#FFFFFF"/><path d="M240.8 29.5 241.6 31.3 243.5 31.6 242.1 33 242.4 34.9 240.6 33.9 238.9 34.8 239.3 32.9 237.9 31.5 239.8 31.2Z" fill="#FFFFFF"/><path d="M534 155 533.8 156.5 535.1 157.5 533.5 157.9 532.9 159.4 532.1 158 530.5 157.9 531.6 156.7 531.2 155.2 532.6 155.8Z" fill="#FFFFFF"/><path d="M451.6 80.2 452.5 80.9 453.5 80.5 453.1 81.6 453.8 82.5 452.7 82.4 452.1 83.3 451.7 82.3 450.7 82 451.6 81.3Z" fill="#FFFFFF"/><path d="M413.5 177.4 415 176.8 415.4 175.3 416.4 176.6 418 176.5 417.1 177.8 417.6 179.3 416.1 178.8 414.9 179.8 414.8 178.2Z" fill="#FFFFFF"/><path d="M364.2 27.7 362.3 27.9 361.4 29.6 360.6 27.8 358.7 27.5 360.1 26.2 359.9 24.3 361.6 25.3 363.3 24.4 362.9 26.3Z" fill="#FFFFFF"/><path d="M333.8 33.9 327.7 31.4 324.6 37.3 325.2 30.7 318.6 29.7 325 28.1 324 21.5 327.5 27.2 333.4 24.1 329.1 29.2Z" fill="#FFFFFF"/><path d="M381.1 49.3 382.2 51.4 384.4 50.4 382.7 52.1 384.3 53.9 382.2 52.8 381 54.9 381.3 52.5 379 52 381.3 51.6Z" fill="#FFFFFF"/><path d="M94.1 32.2 93.1 33.9 94.7 35 92.8 34.6 92.2 36.5 92 34.6 90 34.6 91.8 33.8 91.2 32 92.5 33.4Z" fill="#FFFFFF"/><path d="M126.4 32.5 128.3 31.4 127.5 29.4 129.1 31 130.7 29.5 129.7 31.5 131.6 32.6 129.4 32.3 128.9 34.4 128.6 32.3Z" fill="#FFFFFF"/><path d="M401.4 148.8 403.3 148.4 403 146.4 404.1 148.1 405.9 147.2 404.6 148.7 406 150.1 404.1 149.4 403.2 151.1 403.4 149.1Z" fill="#FFFFFF"/><path d="M189.4 17.9 190.6 10.4 183.3 8.7 190.7 7.5 190.1 0 193.5 6.7 200.5 3.8 195.1 9.1 200 14.9 193.3 11.5Z" fill="#FFFFFF"/><path d="M346.3 113.9 349.5 111 346.8 107.7 350.5 109.8 352.9 106.2 352.1 110.4 356.2 111.5 351.9 112.1 352.1 116.3 350.3 112.5Z" fill="#FFFFFF"/><path d="M280.5 41.7 284.8 39 282.4 34.5 286.3 37.7 289.9 34 288 38.8 292.6 41 287.5 40.7 286.8 45.8 285.5 40.8Z" fill="#FFFFFF"/><path d="M33.1 73.9 35.8 72.3 34.3 69.5 36.7 71.5 38.9 69.3 37.7 72.2 40.5 73.5 37.4 73.3 37 76.4 36.2 73.4Z" fill="#FFFFFF"/><path d="M438.4 212.8 438.8 211 437 210.4 438.9 210.2 438.9 208.3 439.6 210.1 441.4 209.5 440 210.7 441.1 212.2 439.5 211.3Z" fill="#FFFFFF"/><path d="M202.7 36.4 199.9 36.5 199.7 39.3 198.8 36.6 196 37.4 198.3 35.6 196.7 33.2 199.1 34.9 200.9 32.6 200 35.4Z" fill="#FFFFFF"/><path d="M382.4 84.1 377.1 88.1 380.6 93.7 375.2 89.9 371 95 373 88.6 366.8 86.2 373.4 86.1 373.9 79.5 376 85.8Z" fill="#FFFFFF"/><path d="M413.9 47.2 417.8 50.7 421.6 47 419.5 51.8 424.1 54.3 418.9 53.8 418 59 416.9 53.8 411.7 54.6 416.2 51.9Z" fill="#FFFFFF"/><path d="M414.1 73.2 413.2 79.9 419.8 81.4 413.1 82.6 413.8 89.3 410.6 83.3 404.4 86 409.1 81.1 404.6 76.1 410.7 79Z" fill="#FFFFFF"/><path d="M167.6 55.7 166.9 56.7 167.6 57.7 166.5 57.4 165.7 58.4 165.7 57.2 164.5 56.8 165.6 56.4 165.6 55.1 166.4 56.1Z" fill="#FFFFFF"/><path d="M86.6 56.3 87.9 57.3 89.3 56.5 88.8 58 90 59.1 88.4 59.1 87.7 60.6 87.2 59.1 85.6 58.9 86.9 57.9Z" fill="#FFFFFF"/><path d="M269 9.9 267.7 8.5 265.8 9.1 266.8 7.4 265.6 5.8 267.6 6.2 268.7 4.6 268.9 6.6 270.8 7.2 268.9 8Z" fill="#FFFFFF"/><path d="M477.8 117.3 477.6 115.6 475.9 115.2 477.5 114.4 477.4 112.7 478.6 114 480.2 113.4 479.3 114.9 480.4 116.2 478.7 115.9Z" fill="#FFFFFF"/><path d="M160.5 25.2 161.5 25.3 161.9 24.4 162.1 25.3 163.1 25.5 162.3 26 162.4 27 161.7 26.3 160.8 26.8 161.2 25.9Z" fill="#FFFFFF"/><path d="M201.9 61.8 201.5 60 199.7 59.6 201.4 58.7 201.2 56.9 202.5 58.1 204.2 57.4 203.4 59 204.6 60.4 202.8 60.2Z" fill="#FFFFFF"/><path d="M241.8 60.2 243.1 61.5 244.7 60.8 243.9 62.3 245.1 63.6 243.3 63.4 242.4 64.9 242.2 63.2 240.5 62.8 242 62Z" fill="#FFFFFF"/><path d="M1.4 92.6 2.6 93.8 4.2 93.1 3.5 94.7 4.6 96 2.9 95.7 2 97.2 1.7 95.5 0 95.1 1.5 94.3Z" fill="#FFFFFF"/><path d="M225.3 5.8 224.4 5.8 224.1 6.6 223.8 5.8 223 5.8 223.7 5.2 223.4 4.4 224.2 4.9 224.9 4.4 224.6 5.2Z" fill="#FFFFFF"/><path d="M54.5 58.3 54.9 60.3 56.9 60.8 55.1 61.8 55.3 63.9 53.8 62.4 51.8 63.3 52.7 61.4 51.3 59.8 53.4 60.1Z" fill="#FFFFFF"/><path d="M17.1 85.7 18 86.3 18.8 85.7 18.5 86.7 19.3 87.4 18.3 87.4 18 88.4 17.6 87.4 16.6 87.3 17.4 86.7Z" fill="#FFFFFF"/><path d="M344.7 70.1 342.9 69.7 341.9 71.1 341.7 69.3 340 68.8 341.7 68.1 341.6 66.3 342.8 67.6 344.6 67 343.6 68.6Z" fill="#FFFFFF"/><path d="M497.1 186.2 496.1 184.5 494.1 184.8 495.5 183.3 494.6 181.5 496.4 182.3 497.8 180.9 497.6 182.9 499.4 183.8 497.5 184.2Z" fill="#FFFFFF"/><path d="M474.2 165.8 472.9 164.9 471.5 165.6 472.1 164.2 470.9 163.1 472.5 163.1 473.1 161.7 473.6 163.2 475.2 163.4 473.8 164.3Z" fill="#FFFFFF"/></g></svg>