<svg width="349.3" height="174.7" viewBox="0 0 349.3 174.7" xmlns="http://www.w3.org/2000/svg" xmlns:xlink="http://www.w3.org/1999/xlink" overflow="hidden"><defs></defs><g><path d="M344.3 174.7C344.3-51.4 5.1-51.4 5.1 174.7 3.4 174.7 1.7 174.7 2.30926e-14 174.7 2.30926e-14-58.2 349.3-58.2 349.3 174.7 347.6 174.7 345.9 174.7 344.3 174.7Z" fill="#990099"/><path d="M339.2 174.7C339.2-44.7 10.1-44.7 10.1 174.7 8.4 174.7 6.7 174.7 5 174.7 5-51.4 344.2-51.4 344.2 174.7 342.6 174.7 340.9 174.7 339.2 174.7Z" fill="#330099"/><path d="M334.1 174.7C334.1-37.9 15.1-37.9 15.1 174.7 13.4 174.7 11.7 174.7 10 174.7 10-44.7 339.1-44.7 339.1 174.7 337.5 174.7 335.8 174.7 334.1 174.7Z" fill="#0099CC"/><path d="M329.1 174.7C329.1-31.2 20.2-31.2 20.2 174.7 18.5 174.7 16.8 174.7 15.1 174.7 15.1-37.9 334.1-37.9 334.1 174.7 332.5 174.7 330.8 174.7 329.1 174.7Z" fill="#009900"/><path d="M324 174.7C324-24.5 25.3-24.5 25.3 174.7 23.6 174.7 21.9 174.7 20.2 174.7 20.2-31.2 329.1-31.2 329.1 174.7 327.4 174.7 325.7 174.7 324 174.7Z" fill="#FFFF00"/><path d="M319 174.7C319-17.7 30.4-17.7 30.4 174.7 28.7 174.7 27 174.7 25.3 174.7 25.3-24.5 324-24.5 324 174.7 322.3 174.7 320.7 174.7 319 174.7Z" fill="#FF9900"/><path d="M313.9 174.7C313.9-11 35.4-11 35.4 174.7 33.7 174.7 32 174.7 30.3 174.7 30.3-17.7 318.9-17.7 318.9 174.7 317.3 174.7 315.6 174.7 313.9 174.7Z" fill="#FF0000"/></g></svg>