<svg width="210.9" height="58.5" viewBox="0 0 210.9 58.5" xmlns="http://www.w3.org/2000/svg" xmlns:xlink="http://www.w3.org/1999/xlink" overflow="hidden"><defs></defs><g><path d="M178.1 58.5 25.8 58.5C11.5 58.5 0 47 0 32.8L0 32.8C0 18.5 11.5 7 25.8 7L178.2 7C192.4 7 204 18.5 204 32.8L204 32.8C203.9 47 192.4 58.5 178.1 58.5Z" fill="#ACACE8" opacity="0.35"/><path d="M183.1 53.5 30.8 53.5C16.5 53.5 5 42 5 27.8L5 27.8C5 13.5 16.5 2 30.8 2L183.2 2C197.4 2 209 13.5 209 27.8L209 27.8C208.9 42 197.4 53.5 183.1 53.5Z" fill="#A52B6E"/><path d="M185.1 51.5 32.8 51.5C18.5 51.5 7 40 7 25.8L7 25.8C7 11.5 18.5 0 32.8 0L185.2 0C199.4 0 211 11.5 211 25.8L211 25.8C210.9 40 199.4 51.5 185.1 51.5Z" fill="#F54337"/><path d="M31.8 48.5C19.8 48.5 10 38.7 10 26.7 10 14.7 19.8 5 31.8 5L184.2 5C196.2 5 206 14.8 206 26.8 206 38.8 196.2 48.6 184.2 48.6L31.8 48.6Z" stroke="#2F215B" stroke-width="3" stroke-miterlimit="10" fill="none" opacity="0.5"/><path d="M32.8 47.5C20.8 47.5 11 37.7 11 25.7 11 13.7 20.8 4 32.8 4L185.2 4C197.2 4 207 13.8 207 25.8 207 37.8 197.2 47.6 185.2 47.6L32.8 47.6Z" stroke="#FFFFFF" stroke-width="3" stroke-miterlimit="10" fill="none"/></g></svg>