<svg width="149.4" height="168.7" viewBox="0 0 149.4 168.7" xmlns="http://www.w3.org/2000/svg" xmlns:xlink="http://www.w3.org/1999/xlink" overflow="hidden"><defs></defs><g><path d="M116.1 159.4 132.7 147.1 113.1 124.8 141.6 113.4 68.5 77.5 81.3 157.9 100.6 134Z" fill="#F4D34A"/><g><g opacity="0.2"><path d="M79.3 168.7 64.4 75.3 149.3 117 118.3 129.4 137.3 150.9 115.1 167.3 100.1 142.8 79.3 168.7ZM100.9 131.8 117 158 128.1 149.8 107.7 126.7 133.8 116.3 72.6 86.3 83.3 153.7 100.9 131.8Z"/></g><g><path d="M79.3 165.4 64.4 72 149.3 113.7 118.3 126.1 137.3 147.6 115.1 164 100.1 139.5 79.3 165.4ZM100.9 128.5 117 154.7 128.1 146.5 107.7 123.4 133.8 113 72.6 83 83.3 150.4 100.9 128.5Z" fill="#FFFFFF"/></g></g></g><g><g opacity="0.2"><path d="M56.1 61.6 35.7 10.8 58.1 3.3Z"/><path d="M69.7 64 102.3 30.9 111.9 50.3Z"/><path d="M45.2 72.4 9.7 46.4 0 63Z"/></g><g><g><path d="M56.1 58.4 35.7 7.5 58.1 0Z" fill="#F4D34A"/><path d="M69.7 60.7 102.3 27.6 111.9 47Z" fill="#F4D34A"/><path d="M45.2 69.1 9.7 43.1 0 59.7Z" fill="#F4D34A"/></g></g></g></svg>