<svg width="89.9" height="128.5" viewBox="0 0 89.9 128.5" xmlns="http://www.w3.org/2000/svg" xmlns:xlink="http://www.w3.org/1999/xlink" overflow="hidden"><defs></defs><g><g><path d="M31.2 128.3C31.2 128.4 31.2 128.4 31.2 128.5 31.2 128.4 31.2 128.4 31.2 128.3Z" fill="#B34C11"/><path d="M31.2 128.1C31.2 128.2 31.2 128.2 31.2 128.3 31.2 128.3 31.2 128.2 31.2 128.1Z" fill="#B34C11"/></g><path d="M53.7 88.1C58.1 88.2 61.2 88.3 61.2 88.3 67.3 94.9 84.7 99.9 90 100.9 87.7 102.9 80.3 103.5 80.3 103.5 80.3 103.5 84 106.1 86.6 106.1 86.6 106.1 77.4 107.3 67 101.1 61.3 97.9 56.7 92.4 53.7 88.1Z" fill="#116008"/><path d="M11.3 117.7C13.4 116.1 15.2 112.2 15.2 112.2 15.2 112.2 9.4 116.3 2.6 115.4 6.7 113.9 9.3 109.4 9.3 109.4 5.7 111.9 0.1 110 0.1 110 6.7 106.8 22.7 96.2 20.6 88.3 22.2 88 25.6 87.9 29.6 87.8 28.3 95.6 23.9 112.6 11.3 117.7Z" fill="#116008"/><path d="M45.4 87.9C48.4 88 51.2 88 53.7 88.1 56.8 92.4 61.3 97.8 66.9 101.1 77.3 107.3 86.5 106.1 86.5 106.1 81.7 108.5 71.9 106.7 71.9 106.7 73.4 108.1 76.4 109.4 76.4 109.4 76.4 109.4 71.4 111.9 62 108.2 62.6 110.4 68.3 112.8 68.3 112.8 56.9 111 50 100.3 45.4 87.9Z" fill="#1A6D13"/><path d="M11.3 117.7C23.9 112.6 28.3 95.6 29.7 87.8 32.6 87.8 35.9 87.8 39.2 87.8 39.4 96.2 38.3 112.5 27.8 118.3 30.7 116.4 30.8 112.7 30.8 112.7 30.8 112.7 26.1 117.8 19.7 117.9 21.8 116.1 23.3 112.8 23.3 112.8 23.3 112.8 17.8 118.1 11.3 117.7Z" fill="#1A6D13"/><path d="M39.2 87.8C41.3 87.8 43.4 87.9 45.4 87.9 50 100.3 56.9 111 68.2 112.8 68.2 112.8 64.6 114.3 58.1 111.5 58.3 113.6 61.9 114.8 61.9 114.8 57.4 115.3 51 111.2 51 111.2 51 111.2 51.7 113.9 53.3 114.5 49.7 114.7 44.7 111.7 44.7 111.7 42.9 115 37.7 117.2 37.7 117.2 38.7 115.4 38.9 113 38.9 113 38.9 113 34.8 117.7 27.9 118.3 38.2 112.6 39.3 96.2 39.2 87.8Z" fill="#20841A"/><path d="M9.3 109.4C5.7 111.9 0.1 110 0.1 110 0.5 110.1 0.9 110.1 1.3 110.2 3.8 110.2 6.5 109 8.3 108.1 7.1 109.4 4.3 110.1 4 110.2 7.2 109.9 9.5 108.7 10.6 108.4 10.4 110.4 8.4 112.7 6.3 114.6 9.2 113.8 12.5 111.1 12.5 111.1 12.5 111.1 10.7 113.8 8 114.5L8 114.5C11.8 113.5 16.5 110.8 16.5 110.8 16.5 110.8 16.1 114 14 116.6 14 116.6 17.4 114.4 18.4 111.9 18.2 113.2 17.2 114.9 16.4 115.9 20.1 114.4 24.6 111.1 24.6 111.1 24.6 111.1 23.8 114.6 22.6 116.6 24.5 115.3 26.8 110.4 26.8 110.4 26.8 110.4 26.2 113.7 25 115.7 28.1 114.1 31.4 111.4 31.4 111.4 31.4 111.4 32 114.3 30.5 117.1 30.5 117.1 30.6 117.1 30.6 117.1 32.1 115.8 34.4 112.5 34.8 110.7 34.7 112.7 33.7 115 32.3 116.6 35.6 115.2 38.4 112.4 39.4 111.4 39.4 111.4 39.9 113.9 39.7 115.3 41.2 113.3 41.8 109.6 41.8 109.6 41.8 109.6 41.9 112 41.2 114.2 42.2 113.3 43.6 111.9 44.4 110.4 45.7 111.4 47.3 112.2 48.5 112.6 48.2 111.8 47.6 110.3 47.6 109.4 48.5 111.9 50.2 113.2 50.2 113.2 50.2 113.2 49.6 111.3 49.6 109.3 49.6 109.3 52.7 111 55.1 112.1 54.7 111.1 53.9 109.2 53.9 108.2 54.7 110.9 56.8 112.9 56.8 112.9 56.5 112.4 56.4 110.9 56.4 109.9 56.4 109.9 59.4 111 63 112 62.1 111.2 59.7 109.4 60.1 106.2 63.4 107.8 67.1 108.6 69.5 108.9 68.6 108.2 67.2 107 67.1 106.2 68.3 108.4 72.2 109.2 72.2 109.2 72.2 109.2 70.2 107.7 69.6 105.3 73.6 106 77.5 106.3 79.8 106.4 75.4 105.2 72 102.8 72 102.8 72 102.8 77 105 80.6 105.8 79.2 105.1 77.4 103.9 76.6 102.9 79.3 103.1 82 102.9 84.3 102.6 82.9 102.4 79.4 101.8 77.4 100.6 81.2 101.9 87.5 102 87.5 102 89 101.7 89.9 101.4 89.9 101.4 87.6 103.4 80.2 104 80.2 104 80.2 104 83.9 106.6 86.5 106.6 81.7 109 71.9 107.2 71.9 107.2 73.4 108.6 76.4 109.9 76.4 109.9 76.4 109.9 71.4 112.4 62 108.7 62.6 110.9 68.3 113.3 68.3 113.3 68.3 113.3 64.7 114.8 58.2 112 58.4 114.1 62 115.3 62 115.3 57.5 115.8 51.1 111.7 51.1 111.7 51.1 111.7 51.8 114.4 53.4 115 49.8 115.2 44.8 112.2 44.8 112.2 43 115.5 37.8 117.7 37.8 117.7 38.8 115.9 39 113.5 39 113.5 39 113.5 34.9 118.2 28 118.8 30.9 116.9 31 113.2 31 113.2 31 113.2 26.3 118.3 19.9 118.4 22 116.6 23.5 113.3 23.5 113.3 23.5 113.3 18.2 118.6 11.6 118.2 13.7 116.6 15.5 112.7 15.5 112.7 15.5 112.7 9.7 116.8 2.9 115.9 6.7 113.9 9.3 109.4 9.3 109.4Z" fill="#519800" opacity="0.72"/><g><g><g><g><path d="M65.3 92.4C62.9 93.3 56.6 92.6 53.6 91.3 54.7 92.5 57.4 94.3 57.9 94.6 55.3 95.5 48.5 95.7 42.8 93 39.8 95.8 35 98.1 28.4 97.4 30.5 95.8 31.1 93.9 31.1 93.9 31.1 93.9 23.9 98 17.2 97.3 19.8 94.3 21.4 91.1 20.6 88.3 27.1 87.1 61.1 88.3 61.1 88.3 61.9 89.2 62.9 90 64 90.8L63.4 90.8 65.3 92.4Z" fill="#20841A"/></g></g></g><g><g><path d="M46.1 70.7C48.6 76.2 53.1 83.6 60.6 89.4 60.9 89.7 61.4 90.1 62 90.5 62.7 91.1 63.4 91.6 64 92.1 62.3 92.2 58 92.3 52.1 90.2 52.2 92 55.7 94 55.7 94 51.2 94.6 47 93.8 42.5 91.5L40.3 71C42.4 70.9 44.3 70.8 46.1 70.7Z" fill="#33B22E"/><path d="M20 96.5C22 95.1 22.2 92.2 22.2 92.2 29.2 85.5 31.7 77.2 32.6 71.5 35.2 71.4 37.8 71.2 40.4 71.1L42.6 91.6C39 95.7 34.2 96.7 30.3 96.9 32.6 94.9 32.3 92.2 32.3 92.2 32.3 92.2 26.2 95.9 20 96.5Z" fill="#48BA44"/></g><path d="M57.1 70.1C59.3 76.9 68.2 81.5 78.6 83.3 76.1 84.8 72.3 85 72.3 85 72.3 85 75.3 87.6 81.9 87.5 75.5 89.9 71.2 88.2 71.2 88.2 71.2 88.2 72 90.2 74.4 90.6 70.6 91.6 62.3 90 60.7 89.5 53.2 83.7 48.7 76.3 46.2 70.8 52.4 70.4 57.1 70.1 57.1 70.1Z" fill="#20841A"/><path d="M0 91.8C9.8 89.1 18.3 79.6 18.2 72.3 21.1 72.2 26.6 71.8 32.6 71.5 31.7 77.2 29.2 85.5 22.2 92.2 22.2 92.2 17.6 95 13.4 95.3 15.7 93.7 15.7 90.8 15.7 90.8 15.7 90.8 12.5 94.8 6.9 95 8.4 93.1 8.3 90.6 8.3 90.6 8.3 90.6 4.6 93.6 0 91.8Z" fill="#20841A"/></g><g><path d="M56.7 73.9C54.5 75.1 50.2 75.2 44.6 73.5 42 76.1 38.5 77.4 35.5 78 36.4 76.6 36.9 75.1 36.9 75.1 36.9 75.1 33 77.9 26.9 77.9 28.3 76.9 28.4 76.2 28.4 76.2 28.4 76.2 23.6 78.5 19.6 78 20.4 77.1 21.5 75.9 21.5 75.9 21.5 75.9 19.4 76.7 17.2 76.8 17.8 75.2 18.1 73.7 18.1 72.2 26.5 71.8 57.1 70 57.1 70 57.4 71 57.9 71.9 58.4 72.8 56.5 72.7 53.8 72.3 53.8 72.3 53.8 72.3 54.8 73.3 56.7 73.9Z" fill="#20841A"/></g></g><g><g><path d="M47.7 59.8C49.6 66.5 49.6 68.6 51.8 71 52.3 72.6 55 73.8 55 73.8 51.3 74.5 47.6 73.4 44.5 72.5 42 75.2 37 76.9 37 76.9 38.5 75.2 38.2 73.2 38.2 73.2 40.5 69.7 40.6 64.6 40.1 60.6 42.8 60.3 45.4 60 47.7 59.8Z" fill="#A6CE00"/><path d="M53.5 59.3C55.6 64.3 59.6 68.1 62.3 69.8 62.3 69.8 63.1 70.9 65.5 71.5 60.9 73.3 53.9 71.9 51.8 71.1 49.6 68.7 49.6 66.6 47.7 59.9 50 59.6 52 59.4 53.5 59.3Z" fill="#70B800"/><path d="M53.5 59.3C54.9 59.2 55.8 59.1 55.8 59.1 59.7 65.2 69.6 69.4 69.6 69.4 65.5 70 62.4 69.8 62.4 69.8 59.6 68.1 55.6 64.2 53.5 59.3Z" fill="#519800"/><path d="M16.9 73.9C16.9 73.9 12.3 74.9 9.6 73.3 14.1 72.3 21 67 20.5 63.3 21.1 63.1 22.2 62.9 23.5 62.7 23.2 66.9 21.6 71.6 16.9 73.9Z" fill="#519800"/><path d="M15.6 76C16.7 74.9 16.9 73.8 16.9 73.8 21.6 71.5 23.2 66.8 23.6 62.6 25 62.4 26.7 62.1 28.6 61.9 28.3 65.6 27.2 70.3 24 74.1 23.9 74.1 20.2 76.6 15.6 76Z" fill="#70B800"/><path d="M28.5 61.9C32 61.4 36.1 61 40.1 60.6 40.5 64.6 40.5 69.7 38.2 73.2 38.2 73.2 34.1 76.8 28.8 77.1 29.8 76.1 29.9 74.7 29.9 74.7 29.9 74.7 25.6 77.3 21.3 77.5 23.4 75.8 24 74.1 24 74.1 27.1 70.3 28.2 65.6 28.5 61.9Z" fill="#8DB800"/></g><g><g><g><path d="M56.2 64.5C53.9 65.2 50.5 65.7 44.5 64.4 40.7 64.9 35.5 67.9 35.5 67.9 35.5 67.9 35.3 66.3 35.6 64.9 33.7 64.9 27.7 67.1 25 69.1 24.4 67.8 25.2 65.5 25.2 65.5 25.2 65.5 21.2 66.5 18.5 67.7 19.9 66.2 20.7 64.6 20.5 63.2 25.2 61.7 55.7 59 55.7 59 56.9 60.8 58.5 62.5 60.3 63.9 59.1 63.9 56.1 64 54.2 63.3 54.8 64.1 56.2 64.5 56.2 64.5Z" fill="#8DB800"/></g></g></g></g><g><g><path d="M37.4 52.3C40.1 52.1 42.7 52 44.9 51.9 46.7 55.5 49.2 59.5 52.7 62.1 52.9 63.4 54.5 64.3 54.5 64.3 54.5 64.3 51.6 65.5 44.4 63.7 40.8 61.9 38.7 56.9 37.4 52.3Z" fill="#20841A"/><path d="M50.8 51.7C52.4 56.4 63.9 61 65.6 61.2 63 62.3 57.8 60.6 57.8 60.6 57.8 60.6 58.8 62.6 60.9 63.1 58.2 64 52.7 62.1 52.7 62.1 49.3 59.5 46.7 55.5 44.9 51.9 48.4 51.8 50.8 51.7 50.8 51.7Z" fill="#1A6D13"/><path d="M9.1 66.7C14.3 63.9 22.4 56.8 21.1 54 22.9 53.6 26.3 53.2 30.1 52.9 30 56.7 29.1 61.2 26.5 64.8 26.5 64.8 22 65 16.2 68.2 16.5 66.3 17.5 65.5 17.5 65.5 17.5 65.5 12.8 67.5 9.1 66.7Z" fill="#116008"/><path d="M37.4 52.3C38.6 56.9 40.7 61.9 44.4 63.6 39.7 64.7 36 66.7 36 66.7 36 66.7 36 64.5 36.6 64 34.6 64.1 29.3 65.5 25.4 67.8 25.5 66.2 26.5 64.7 26.5 64.7 29.1 61 29.9 56.5 30.1 52.8 32.5 52.6 35 52.5 37.4 52.3Z" fill="#1A6D13"/><g><path d="M16.2 64.3C16.2 64.3 15.6 65.3 14.3 66 16.2 65.6 18.5 64.7 18.5 64.7 18.5 64.7 17.8 65.5 17.5 66.5 18.6 64.7 20.4 63.8 20.4 63.8 20.4 63.8 18.8 65.2 18.5 66.2 23.3 64.1 27.8 64 27.8 64 27.8 64 27 64.9 27.1 66 28.4 64.1 30.4 63.2 30.4 63.2 30.4 63.2 28.6 64.7 28.5 65.5 32.9 63.6 38.1 63.1 38.1 63.1 38.1 63.1 37.6 64.2 37.7 65.1 38.4 63.6 40.6 62.1 40.6 62.1 40.6 62.1 39.4 63.5 39.2 64.5 39.2 64.5 41.9 63.4 44.5 62.7 46.4 63.3 49.5 63.6 49.5 63.6L48.4 62.2C48.4 62.2 49 62.7 50.9 63.4 49.7 62.5 48.7 60.7 48.7 60.7 48.7 60.7 50.2 62.4 52.3 63.1 52.2 62.7 51.7 61 51.7 61 51.7 61 54.1 61.7 55.9 61.9L54.5 59.9C54.5 59.9 56.4 61.5 58 62.1 58 62.1 56.4 60.7 56.2 59.2 56.2 59.2 61.9 61.1 65.7 61 63.1 62.1 57.9 60.4 57.9 60.4 57.9 60.4 58.9 62.4 61 62.9 58.3 63.8 52.8 61.9 52.8 61.9 53 63.2 54.6 64.1 54.6 64.1 54.6 64.1 51.7 65.3 44.5 63.5 39.8 64.6 36.1 66.6 36.1 66.6 36.1 66.6 36.1 64.4 36.7 63.9 34.7 64 29.4 65.4 25.5 67.7 25.6 66.1 26.6 64.6 26.6 64.6 26.6 64.6 22.1 64.8 16.3 68 16.6 66.1 17.6 65.3 17.6 65.3 17.6 65.3 12.9 67.4 9.2 66.6 14.3 66.7 16.2 64.3 16.2 64.3Z" fill="#519800"/></g></g><g><g><g><path d="M52.7 54.5C51.9 55.8 47.8 55.6 46.3 55.1 46.7 55.6 47.7 56 47.7 56 47.7 56 43.8 57.2 39.7 55.6 40.2 56.5 41.4 56.9 41.4 56.9 39.5 57.6 36.2 57.7 34.1 55.7 31.4 57.2 26.4 58.1 24.3 58 25 57.4 25.4 56.7 25.4 56.7 25.4 56.7 22.2 57.6 19.7 57.8 20.9 56.2 21.5 54.8 21.1 53.9 27.2 52.4 50.8 51.6 50.8 51.6 51 52.1 51.2 52.6 51.6 53.1L49.9 53C49.9 53.1 50.7 53.8 52.7 54.5Z" fill="#1A6D13"/></g></g></g></g><g><g><path d="M40.4 45.8 50.5 45.9C52.1 49 56.8 49.6 60.3 49.3 59.4 50.7 54.2 50.7 54.2 50.7 54.8 51.7 56.9 52.3 56.9 52.3 54.8 53.6 48.9 52.4 48.9 52.4 44.7 51 42 48.2 40.4 45.8Z" fill="#8DB800"/><path d="M11.6 56.8C16.4 54.1 21.4 45.7 21.4 45.7L32.5 45.8C32.2 49.1 31.1 53.2 27.8 55.2 24.1 57.3 16.2 57.7 16.2 57.7 17.8 57.1 18.4 55.6 18.4 55.6 18.4 55.6 14.8 57.5 11.6 56.8Z" fill="#8DB800"/><path d="M32.6 45.7 40.4 45.8C42 48.2 44.7 51 48.8 52.4 49.2 53.7 52.3 54.5 52.3 54.5 50.5 55.6 46.5 55.1 44.9 54.1 45 55 46.7 55.8 46.7 55.8 46.7 55.8 42.3 56.8 38.2 54.3 38.4 55.5 40.1 56.7 40.1 56.7 40.1 56.7 37.3 57.6 34.1 55 31.6 56.6 25.4 57.5 25.4 57.5 25.4 57.5 27.7 56.1 27.9 55.2 31.1 53.2 32.2 49.1 32.6 45.7Z" fill="#A6CE00"/></g><g><g><g><path d="M44.8 47.1C45.3 47.7 47.7 48.8 47.7 48.8 46.2 50 39 48.4 38.3 48 38.8 48.5 40.6 49.3 40.6 49.3 38.9 50.1 34.4 50 32.4 48.8 30.2 50 26.2 51 23.1 51.1 23.8 50.3 24 49.7 24 49.7 24 49.7 20.7 51.2 18.3 50.4 20.2 47.9 21.5 45.8 21.5 45.8L50.6 46C51.1 47 52 47.8 53.1 48.3 51 48.6 46.5 47.9 44.8 47.1Z" fill="#8DB800"/></g></g></g></g><g><g><path d="M37.3 37.2C39 37.2 40.6 37.3 41.9 37.4 43.7 40.1 47.1 44.4 51 45.9 51.4 47 53.1 47.7 53.1 47.7 50.5 48.6 43.3 46.1 43.3 46.1 39.6 44 38 40 37.3 37.2Z" fill="#1A6D13"/><path d="M41.9 37.4C44.4 37.5 46.1 37.6 46.1 37.6 47.5 40.8 55.1 45 56.6 45.6 54.9 46.4 51 45.8 51 45.8 47.1 44.4 43.8 40.2 41.9 37.4Z" fill="#116008"/><path d="M33.2 37.2C34.6 37.2 36 37.2 37.3 37.3 38 40.1 39.7 44 43.4 46.2 43.8 47.7 46.6 48.7 46.6 48.7 43.3 49.4 36.9 47.1 36.9 47.1 37.3 48.4 39.4 49.3 39.4 49.3 39.4 49.3 35.4 49.9 32.3 48.1 34.1 45.5 33.7 40.3 33.2 37.2Z" fill="#20841A"/><path d="M15.2 49.5C18.7 47.3 25 40.1 24.6 37.7 25.8 37.5 27.4 37.3 29.2 37.3 28.9 40.6 28 45.8 25.5 48.3 25.5 48.3 22.1 50.5 19.1 50.2 20.7 49.1 21.4 47.7 21.4 47.7 21.4 47.7 18.1 49.8 15.2 49.5Z" fill="#116008"/><path d="M29.2 37.2C30.5 37.2 31.8 37.1 33.2 37.1 33.7 40.3 34.2 45.5 32.3 48 29.9 49.5 24.1 50.5 24.1 50.5 25.2 49.3 25.4 48.2 25.4 48.2 28 45.8 28.9 40.5 29.2 37.2Z" fill="#1A6D13"/><g><path d="M22.4 46.1 21.8 48.4 23.3 46.8C23.3 46.8 23.1 47.8 22.2 48.9 26.2 47.4 27.9 44.9 27.9 44.9 27.9 44.9 27.7 47.1 27.3 48.2 28.1 47.9 29.6 46.5 29.6 46.5 29.6 46.5 29.1 47.9 27.7 48.8 27.7 48.8 30.9 47.8 32.2 46.9 33.1 47.6 35.6 48.3 35.6 48.3 35.6 48.3 34 47.3 33.6 46.2 34.4 47.1 36.5 48 36.5 48 36.5 48 35.8 46.9 35.7 46 35.7 46 40.8 47.6 42.7 47.6 42 47 41.1 45.9 41.1 45.9 41.1 45.9 42.5 47.1 43.7 47.5 43.2 47.1 42.7 46.4 42.2 44.9 43.6 45.7 47.9 46.8 49.7 47 48.8 46.3 48.4 45.6 48.4 45.6 48.4 45.6 50 46.8 51.2 47 51.2 47 50.4 46.2 50.1 45.1 51 45.4 52.2 45.4 52.2 45.4 52.2 45.4 51.8 45 51.3 44.5 52.4 45.2 55.2 45.7 56.6 45.6 54.9 46.4 51 45.8 51 45.8 51.4 46.9 53.1 47.6 53.1 47.6 50.5 48.5 43.3 46 43.3 46 43.7 47.5 46.5 48.5 46.5 48.5 43.2 49.2 36.8 46.9 36.8 46.9 37.2 48.2 39.3 49.1 39.3 49.1 39.3 49.1 35.3 49.7 32.2 47.9 29.8 49.4 24 50.4 24 50.4 25.1 49.2 25.3 48.1 25.3 48.1 25.3 48.1 22 50.4 19 50.1 20.6 49 21.3 47.6 21.3 47.6 21.3 47.6 18.1 49.8 15.2 49.5 18.2 49.5 22.4 46.1 22.4 46.1Z" fill="#519800"/></g></g><g><g><g><path d="M43.5 39.7C41.8 40.5 38.9 40.8 35.9 39.3 35.3 39 30.2 42.4 25.8 41.2 26.2 40.9 26.2 40.7 26.2 40.7 26.2 40.7 24.7 41.5 22.9 41.6 24 40 24.7 38.5 24.6 37.6 30.4 36.5 46.2 37.6 46.2 37.6 46.4 38.1 46.7 38.5 47.2 39 46.3 39.1 44.1 39.2 42.1 38.8 42.1 39.4 43.5 39.7 43.5 39.7Z" fill="#21592E"/></g></g></g></g><g><g><path d="M38.4 29.7C40.7 29.7 42.7 30.1 43.5 31.1 44.4 33.7 49.6 35.7 50.8 36.1 49.2 37 46 36.8 46 36.8 42.6 35.3 40 32.2 38.4 29.7Z" fill="#8DB800"/><path d="M35.1 29.9C36.2 29.8 37.4 29.7 38.4 29.7 40 32.3 42.5 35.4 46 36.8 46.5 37.7 48.3 38.3 48.3 38.3 46.8 38.8 41.8 38.5 40.1 37.8 37 36.1 35.6 32.4 35.1 29.9Z" fill="#A6CE00"/><path d="M31.6 30.3C32.7 30.1 33.9 30 35 29.8 35.6 32.4 36.9 36.1 40 37.8 39.8 38.9 42 39.6 42 39.6 42 39.6 38.9 40.4 35.9 38.7 34.1 38.5 30.6 41.5 26.8 40.9 28.2 40.1 28.4 39.2 28.4 39.2 31 36.8 31.6 33 31.6 30.3Z" fill="#A9CF3B"/><path d="M20.1 41.1C24.7 39.2 26.2 31.4 26.2 31.4 26.2 31.4 28.6 30.8 31.6 30.3 31.5 33 31 36.8 28.4 39.1 28.4 39.2 22.7 42.1 20.1 41.1Z" fill="#8DB800"/></g><g><g><g><path d="M40.3 33.3C39.1 33.7 36.5 33.4 35.2 32.5 34.3 33.3 31.6 34.6 29.7 34.7 30 34.2 30.1 33.3 30.1 33.3 30.1 33.3 28.4 34.7 25 35.1 25.8 33.1 26.1 31.5 26.1 31.5 26.1 31.5 40.9 27.7 43.4 31.2 43.5 31.6 43.7 31.9 44 32.3 42.4 32.1 39.8 31.7 39.1 31.3 39.2 32 39.8 32.9 40.3 33.3Z" fill="#A9CF3B"/></g></g></g></g><path d="M30.9 25.1C32 25 33.2 24.9 34.3 24.8 34.6 27.8 35 31.3 35.1 32 35.1 32 31.8 34.1 30.2 34.3 30.6 33.5 30.5 32.6 30.5 32.6 30.5 32.6 27.9 34.4 25.5 34.5 26 34 26 33.2 26 33.2 28.9 31.2 30.3 27.9 30.9 25.1Z" fill="#20841A"/><path d="M37.8 24.7C38.9 26.6 40.5 28.7 43 29.7 43.6 30.6 45.1 31.7 45.1 31.7 43 32 38.8 30.8 38.8 30.8 38.8 30.8 38.6 32.4 39.7 33.1 37.2 33.2 35.2 32 35.2 32 35.1 31.3 34.7 27.8 34.4 24.8 35.6 24.8 36.8 24.7 37.8 24.7Z" fill="#1A6D13"/><path d="M37.8 24.7C39.3 24.6 40.3 24.6 40.3 24.6 41 27.3 46.9 29 48.7 29.3 46.6 30.2 43 29.7 43 29.7 40.5 28.7 38.9 26.6 37.8 24.7Z" fill="#116008"/><path d="M26 33.2C25.9 33.3 25.8 33.3 25.7 33.4 25.1 33.8 23.5 34.5 21.5 33.9 24.8 32.6 28.1 28 27.2 25.7 28.3 25.5 29.5 25.4 30.8 25.3 30.3 27.9 28.9 31.2 26 33.2Z" fill="#116008"/><g><g><g><path d="M41.6 26.9C40.5 27.3 37.3 27.2 35.7 26.4 34.8 27.6 31.7 28.5 31.4 28.5 31.6 28 31.5 27.3 31.5 27.3 31.5 27.3 29.2 28.8 27 28.7 27.4 28.2 27.7 27.5 27.7 27.5L27.2 27.8C27.5 26.9 27.6 26.1 27.3 25.5 31.9 24.7 40.3 24.5 40.3 24.5 40.4 24.9 40.6 25.3 40.9 25.6 40.6 25.6 40.2 25.6 40 25.5 40.3 26.3 41.6 26.9 41.6 26.9Z" fill="#21592E"/></g></g></g><g><path d="M37.9 19.4C39 22.9 42.6 24.6 44.9 25 42.7 25.9 39.1 25.1 39.1 25.1 39.3 25.9 40.9 26.8 40.9 26.8 40.9 26.8 37.8 27.1 35.6 26 34.8 27.3 31.9 28.1 31.9 28.1 31.9 28.1 32 27.1 31.8 26.7 30.9 27.7 28.2 28.5 27.5 28.5 28.2 27.7 28 26.9 28 26.9 28 26.9 26.1 29 23.4 28.5 26.3 26.8 29.3 22.4 27.9 19.6 31.7 18.7 37.9 19.4 37.9 19.4Z" fill="#A9CF3B"/><g><g><g><path d="M27.9 26.9C27.9 26.9 26 29 23.3 28.5 26.2 26.8 29.2 22.4 27.8 19.6 28.7 19.4 29.8 19.2 30.9 19.2 31.3 21.3 31.3 24.9 28.2 27.9 28 28.1 27.7 28.3 27.5 28.5 27.4 28.5 27.3 28.5 27.3 28.5 28.2 27.7 27.9 26.9 27.9 26.9Z" fill="#A6CE00"/></g><g><path d="M35.5 19.2C36.9 19.3 37.9 19.4 37.9 19.4 39 22.9 42.6 24.6 44.9 25 43.3 25.7 41.1 25.4 39.9 25.2 39.5 25 38.9 24.7 38.3 24.4 36.3 23.4 35.7 21.1 35.5 19.2Z" fill="#A6CE00"/></g><path d="M27.9 26.9C27.9 26.9 28.2 27.6 27.4 28.5 28 28.4 30.7 27.7 31.7 26.7 31.9 27.1 31.8 28.1 31.8 28.1 31.8 28.1 34.7 27.3 35.5 26 37.7 27.1 40.8 26.8 40.8 26.8 40.8 26.8 39.2 25.9 39 25.1 39 25.1 42.6 25.9 44.8 25 44.8 25 43.8 25.1 42.4 25 41.4 24.9 39.7 24 39.7 24 39.7 24 40 24.7 40.7 24.9 39.8 24.8 38.9 24.7 38.1 24.4 38.2 24.9 38.4 25.3 38.6 25.6 37.5 25.2 37 24.5 37 24.5 37 24.5 37.6 25.6 38.4 26.2 37.6 26.1 36.3 25.8 35.4 25.3 35 25.9 34.3 26.4 33.6 26.8 33.8 26.1 33.7 25.3 33.7 25.3 33.5 25.9 33.1 26.8 32.6 27.3 32.4 27.4 32.2 27.4 32.2 27.5 32.2 26.8 31.7 26.1 31.7 26.1 31.7 26.1 30.9 26.7 29.9 27.3 30.4 26.5 30.6 25.2 30.6 25.2 30.6 25.2 29.7 27.2 28.3 27.9 28.2 27.9 28.1 28 28 28 28.3 27.1 27.8 26.3 27.8 26.3 27.8 26.3 27.1 27.3 25.7 28 26.5 27.3 26.8 26.4 26.8 26.4 26.8 26.4 25.5 28.5 23 28.7 26.1 29 27.9 26.9 27.9 26.9ZM39.3 26.3C39.3 26.3 39.3 26.3 39.3 26.3 39.3 26.3 39.3 26.2 39.3 26.3 39.3 26.3 39.3 26.3 39.3 26.3Z" fill="#CAD93E"/></g></g><g><g><g><path d="M33.7 21.3C32.6 22.3 30.6 23 28.7 23 29.2 22.4 29.5 21.7 29.5 21.7 29.5 21.7 28.8 22.1 28.1 22.4 28.4 21.4 28.3 20.4 27.9 19.6 31.7 18.7 37.9 19.3 37.9 19.3 38.2 20.2 38.6 20.9 39.1 21.6 38.1 22 35.4 22.1 33.7 21.3Z" fill="#A9CF3B"/></g></g></g></g><g><g><path d="M36.6 14.1C37.2 16.9 41.1 19.1 42.5 19.7 41.4 20.4 38.6 20.5 37.3 20.2 37.8 20.7 39.1 21.4 39.1 21.4 39.1 21.4 36 22.3 33.6 20.9 32.5 22.4 29.2 22.8 29.2 22.8 29.9 22 29.9 21 29.9 21 29.9 21 27.5 22.7 25.4 22.9 27.4 20.8 29.1 16.8 28.5 15.1 30.3 13.5 36.6 14.1 36.6 14.1Z" fill="#116008"/><path d="M31.1 14.1C31.7 14 32.3 14 32.8 14 33.1 16 33.5 19.5 33.6 20.8 32.5 22.3 29.2 22.7 29.2 22.7 29.9 21.9 29.9 20.9 29.9 20.9 31.2 19.5 31.2 15.9 31.1 14.1Z" fill="#1A6D13"/><g><path d="M37.3 20.1C37.8 20.5 38.2 20.7 38.5 21 38.2 20.8 37.6 20.4 37.3 20.1Z" fill="none"/><path d="M34.3 14C35.6 14 36.6 14.1 36.6 14.1 37.2 16.9 41.1 19.1 42.5 19.7 41.4 20.4 38.6 20.5 37.3 20.2 35.7 19 34.8 16 34.3 14Z" fill="#116008"/><path d="M32.8 14C33.3 14 33.8 14 34.3 14 34.8 16 35.7 19 37.3 20.1 37.6 20.4 38.1 20.7 38.5 21 38.7 21.1 38.8 21.2 39 21.3 38.5 21.4 35.7 22 33.6 20.8 33.6 19.6 33.1 16 32.8 14Z" fill="#20841A"/><path d="M25.4 22.7C27.4 20.6 29.1 16.6 28.5 14.9 29 14.5 30 14.2 31.1 14.1 31.2 15.9 31.2 19.5 30 20.8 29.9 20.8 27.5 22.6 25.4 22.7Z" fill="#116008"/></g></g><g><path d="M35.9 17.2C34.9 17.5 33.3 16.5 32.9 15.8 32.4 16.9 30.7 18 29.4 17.9 29.9 17.3 29.9 16.1 29.9 16.1 29.9 16.1 29.4 16.4 28.5 16.5 28.6 15.9 28.6 15.3 28.4 14.9 30.1 13.5 36.5 14.1 36.5 14.1 36.6 14.5 36.7 14.9 37 15.3 36.4 15.3 35.7 15.2 35.5 15.1 35.1 16.1 35.9 17.2 35.9 17.2Z" fill="#21592E"/></g></g><g><g><path d="M30.4 0C30.4 0 32 10.8 34.9 13.3 35.7 14 36.2 14.5 36.6 14.8 35.7 14.7 35.2 14.4 35.2 14.4 35.2 14.4 34.7 16.1 35.4 16.9 34.3 16.8 33.2 15.5 32.9 15.1 32.4 16.4 30.7 17.5 30 17.6 30.6 16.7 30.2 15.6 30.2 15.6 30.2 15.6 30.1 15.7 29.9 15.8 30 15.4 30.2 15 30.3 14.5 31.5 11.2 30.4 0 30.4 0Z" fill="#A9CF3B"/><path d="M27 16.2C29.2 14.9 30.4 0 30.4 0 30.4 0 31.5 11.2 30.4 14.5 30.2 15 30.1 15.4 30 15.8 29.4 16 28.3 16.4 27 16.2Z" fill="#8DB800"/></g><path d="M30.4 0C30.4 0 34.2 13.1 39.1 14.6 38.1 14.8 37.3 14.8 36.6 14.7 36.2 14.3 35.6 13.8 34.9 13.2 32 10.8 30.4 0 30.4 0Z" fill="#8DB800"/><g><g><g><path d="M27 16.2C27.5 15.9 28 14.7 28.4 13.1L28.4 13.1C28.4 13.1 28.5 14.5 28.4 15.3 29.4 15.2 30.3 14.4 30.3 14.4 30.3 14.4 31 15.2 31 16.2 31.6 15.8 32.5 14.7 32.7 13.7 32.7 13.7 33.6 15.1 34.3 15.4 34.3 15.4 34.2 14.1 34.8 13.2 34.8 13.2 35.7 13.7 36.6 13.7L36 12.2 36 12.2C37 13.4 38 14.3 39.1 14.7 36.7 15.2 35.2 14.5 35.2 14.5 35.2 14.5 34.7 16.2 35.4 17 34.3 16.9 33.2 15.6 32.9 15.2 32.4 16.5 30.7 17.6 30 17.7 30.6 16.8 30.2 15.7 30.2 15.7 30.2 15.7 28.8 16.5 27 16.2Z" fill="#CAD93E"/></g></g></g></g><g><path d="M25.7 33.3C25.8 33.2 25.9 33.2 26 33.1 26 33.2 25.9 33.2 25.7 33.3Z" fill="#1A6D13"/></g><g><path d="M60.6 89.4C61.1 89.8 61.5 90.1 62 90.5 61.4 90.1 60.9 89.8 60.6 89.4Z" fill="none"/></g><g><g><path d="M28.1 13.6C28.1 13.7 28 13.8 28 13.9 28 13.9 28 13.7 28.1 13.6Z" fill="none"/><path d="M36.7 14.9C36.6 14.8 36.5 14.7 36.4 14.6 36.5 14.7 36.6 14.8 36.7 14.9Z" fill="none"/><path d="M28.1 13.6 28.1 13.6 28.1 13.6Z" fill="#D5E1ED"/><path d="M36.7 14.9 36.8 14.9 36.8 14.9Z" fill="#D5E1ED"/></g></g><path d="M12.2 73.8C12.1 73.8 12 73.8 11.9 73.8 12 73.7 12.1 73.8 12.2 73.8Z" fill="#519800"/><path d="M8.3 90.6C8.3 90.6 8.4 93 6.9 95 12.4 94.8 15.7 90.8 15.7 90.8 15.7 90.8 15.7 93.7 13.4 95.3 17.6 95 22.2 92.2 22.2 92.2 22.2 92.2 22 95.1 20 96.5 26.2 95.9 32.3 92.2 32.3 92.2 32.3 92.2 32.7 94.9 30.3 96.9 34.2 96.7 39 95.7 42.6 91.6 47.1 93.9 51.3 94.6 55.8 94.1 55.8 94.1 52.2 92 52.2 90.3 58 92.4 62.4 92.3 64.1 92.2 63.5 91.7 62.8 91.2 62.1 90.6 61.5 90.2 61 89.9 60.7 89.5 62.3 90 70.6 91.6 74.4 90.6 72 90.2 71.2 88.2 71.2 88.2 71.2 88.2 75.5 89.8 81.9 87.5 75.3 87.5 72.3 85 72.3 85 72.3 85 76.1 84.8 78.6 83.3 78.6 83.3 78.3 83.4 77.7 83.5 75.2 83.6 71.1 83 71.1 83 71.1 83 73 83.7 74.7 84 73.3 84.2 71.6 84.3 70 84.3 71 85.9 74.1 87.4 74.1 87.4 74.1 87.4 71.9 87.5 69.4 86.9 69.5 87.9 69.8 88.7 70.1 89.2 68.1 88.6 64.9 87.2 64.9 87.2 64.9 87.2 66.3 88.7 68.5 89.6 65.9 89.4 61.2 88.8 58.6 88 58.9 89.1 59.5 89.9 60 90.5 58.2 89.8 55.1 88.3 55.1 88.3 55.1 88.3 56.9 89.9 58.6 90.8 56.3 90.4 52.7 89.6 50.4 88.5 50.4 91.1 52.1 93.2 52.1 93.2 50.1 92.5 48.9 92 47.7 89.6 47.8 90.8 48 91.8 48.4 92.5 47.7 92.3 47 92.1 46.3 91.8 44.3 90.4 42.6 87.5 42.6 87.5 42.6 87.5 43.3 89.6 44.2 91 43.4 90.7 42.8 90.3 42.3 90 40.9 91.7 38 94.1 34.7 95.3 35.8 93.8 36.2 91.5 36.2 91.5 36.2 91.5 35.2 94.4 32.9 95.8 33.7 93.8 33.3 90.4 33.3 90.4 33.3 90.4 32 91.3 29.9 92.4 31.4 90.8 31.6 89 31.6 89 31.6 89 29.8 91.8 26.7 93.9 26.1 94.1 25.5 94.4 24.9 94.6 25.6 93.8 26.3 92.5 26.2 91.4 25.3 93.6 23.1 95.2 23.1 95.2 23.7 93 24 90.7 24 90.7 24 90.7 19.5 92.9 17 93.8 17.8 92.8 18 91.7 18 91.7 18 91.7 17.3 92.8 16.4 93.4 16.7 91.7 16.6 89.2 16.6 89.2 16.6 89.2 13.1 92 10 93.2 10.8 92.2 11.1 90.7 11.1 90.7 11.1 90.7 9.9 92.9 9.1 93.5 9.4 91.7 9.1 89.2 9.1 89.2 9.1 89.2 5.1 92.2 0 91.8 0 91.8-0.1 91.8-0.1 91.8 4.6 93.6 8.3 90.6 8.3 90.6ZM60.7 90.9C60.7 90.9 60.4 90.9 59.9 90.8L60.5 90.7C60.6 90.8 60.7 90.9 60.7 90.9Z" fill="#519800"/><path d="M16.9 73.9C16.9 73.9 12.3 74.9 9.6 73.3 11.4 73.4 14.7 72.6 16 71.5 15 72.7 13.6 73.5 12.3 73.8 13.1 73.9 14 73.8 14.7 73.8 17.1 73.3 18.6 71.4 18.6 71.4 18.6 71.4 17.9 72.8 16.2 73.6 17.3 73.4 18.1 73.2 18.1 73.2 18.1 73.2 17.7 74.2 17.2 75.1 18.5 74.7 21.3 72.9 21.3 72.9 21.3 72.9 20 74.6 18.5 75.3 21.6 74.8 24.7 73 24.7 73 24.7 73 24.5 74.6 23.4 76.1 25.2 75.2 28 72.8 28 72.8 28 72.8 27 74.8 25.5 75.8 28 74.8 30.7 73.4 30.7 73.4 30.7 73.4 30.9 74.4 30.4 76.1 30.4 76.1 30.5 76.1 30.5 76.1 32.4 74.9 34.8 72 34.8 72 34.8 72 33.8 74.8 32.5 75.6 35.5 74.5 37.6 72.6 38.9 72 39.5 73.1 39.1 75.2 39.1 75.2 40.2 74.4 41.1 71.3 41.1 71.3 41.1 71.3 41 73.2 40.3 74.5 41.5 73.8 43.4 72.5 44.4 71.3 44.7 71.4 45 71.6 45.3 71.7 45 71.2 44.7 70.4 44.7 70.4 44.7 70.4 45.4 71.5 46.7 72.2 48 72.6 49.3 72.9 50.4 73 49 72.2 48 70.6 47.6 69 48.6 71.1 50.6 72.6 52.6 73.2 52.6 73.2 51 71.5 51.1 69.7 51.6 70 53.1 70.5 55 70.8 54.1 70.3 53.5 68.4 53.5 68.4 53.5 68.4 54.8 70.6 56.7 71.1 57.9 71.3 59.1 71.4 60.2 71.4 58.8 70.9 58.1 70.1 57.5 69.2 58.4 70.4 61.3 71.2 63 71.2 63 71.2 61.5 70.4 61 68.6 61.1 68.7 63.1 68.9 65.2 69 64.1 68.7 62.3 67.7 61.6 66.6 63.1 67.7 67.1 69 69.8 69.3 65.7 69.9 62.6 69.7 62.6 69.7 62.6 69.7 63.4 70.8 65.8 71.4 61.2 73.2 54.2 71.8 52.1 71 52.6 72.6 55.3 73.8 55.3 73.8 51.6 74.5 47.9 73.4 44.8 72.5 42.3 75.2 37.3 76.9 37.3 76.9 38.8 75.2 38.5 73.2 38.5 73.2 38.5 73.2 34.4 76.8 29.1 77.1 30.1 76.1 30.2 74.7 30.2 74.7 30.2 74.7 25.9 77.3 21.6 77.5 23.7 75.8 24.3 74.1 24.3 74.1 24.3 74.1 20.6 76.6 16 76.1 16.7 75 16.9 73.9 16.9 73.9Z" fill="#519800"/><path d="M11.6 56.8C16 56.3 18.6 53 18.6 53 18.6 53 17.6 54.9 16.1 55.9 18.4 55.1 20.4 54.1 20.4 54.1 20.4 54.1 20.2 55.3 19.4 56.5 23 55.9 25.8 52.8 25.8 52.8 25.8 52.8 25.1 54.6 23.5 55.7 24.7 55.2 26.6 53.6 27.4 52.4 27 53.3 26.2 54.4 25.5 55.2 27.3 54.7 28.8 54.1 29.6 53.8 29.4 54.7 28.9 55.8 28.9 55.8 29.8 55.2 31.7 52.2 31.7 52.2 31.7 52.2 31.3 54.1 30.1 55.3 31.4 54.8 33.4 54 34 53.3 35 54.6 37.5 55.3 37.5 55.3 37.5 55.3 36.7 53.6 37.3 52.6 39.3 53.9 41.6 54.5 42.9 54.7 41.7 53.5 40.3 50.8 40.3 50.8 40.3 50.8 42.6 54.1 44.2 54.8 44.2 54.8 43.5 53.4 43.6 52.1 44.5 53 46.1 53.4 47.3 53.6 46.5 53.1 45.2 52.1 44.4 51.2 45.3 51.8 47 52.9 48.5 53.6 48 53.2 46.8 52 46.8 50.7 47.8 51.2 50 51.5 51.7 51.7 50.1 50.9 48.9 49.5 48.9 49.5 48.9 49.5 52.1 51.6 53.7 51.9 53.7 51.9 52 50.7 51.9 49.8 57.3 50.8 60.4 49.2 60.4 49.2 59.5 50.6 54.3 50.6 54.3 50.6 54.9 51.6 57 52.2 57 52.2 54.9 53.5 49 52.3 49 52.3 49.4 53.6 52.5 54.4 52.5 54.4 50.7 55.5 46.7 55 45.1 54 45.2 54.9 46.9 55.7 46.9 55.7 46.9 55.7 42.5 56.7 38.4 54.2 38.6 55.4 40.3 56.6 40.3 56.6 40.3 56.6 37.5 57.5 34.3 54.9 31.8 56.5 25.6 57.4 25.6 57.4 25.6 57.4 27.9 56 28.1 55.1 24.4 57.2 16.5 57.6 16.5 57.6 18.1 57 18.7 55.5 18.7 55.5 18.7 55.5 14.8 57.5 11.6 56.8Z" fill="#519800"/><g><path d="M26 38.2C26 38.2 26 39.1 25.3 39.9 27 39.2 29.2 37.7 29.2 37.7 29.2 37.7 29.2 39.1 28.4 40.1 30.7 39.2 31.8 37.6 31.8 37.6 31.8 37.6 31.6 38.7 31 39.5 32.7 38.8 34.4 37.7 35 36.4 35 36.4 36.3 37.8 37.7 38.3 37.7 38.3 36.6 36.6 36.4 35.5 36.4 35.5 38.3 38.2 39.5 38.5 39.5 38.5 39.1 37.8 39.3 36.7 41 37.5 44 37.7 44 37.7 44 37.7 43 36.9 42.8 36.1 43.4 36.7 45 37.5 46.2 37.7 45.6 37.4 44.9 36.4 44.5 35.7 44.5 35.7 45.5 36.1 46.6 36 46.6 36 45.6 35.7 44.7 35.1 46.7 35.7 49.9 35.9 50.7 35.8 49.2 37 46 36.8 46 36.8 46.5 37.7 48.3 38.3 48.3 38.3 46.8 38.8 41.8 38.5 40.1 37.8 39.9 38.9 42.1 39.6 42.1 39.6 42.1 39.6 39 40.4 36 38.7 34.2 38.5 30.7 41.5 26.9 40.9 28.3 40.1 28.5 39.2 28.5 39.2 28.5 39.2 22.8 42.1 20.2 41.1 24.3 41.2 26 38.2 26 38.2Z" fill="#519800"/></g><g><path d="M21.7 33.8C21.6 33.8 21.6 33.8 21.7 33.8 21.6 33.8 21.6 33.8 21.7 33.8Z" fill="none"/><path d="M24.3 33.5C25.9 32.8 26.6 32 26.6 32 26.6 32 26.7 32.5 26.6 33.1 27.3 32.6 28.2 30.9 28.2 30.9 28.2 30.9 28 32.4 27.2 33.5 29.2 32.7 30.7 31.4 30.7 31.4 30.7 31.4 31.2 31.9 31.2 32.7 32 32 32.7 30.4 32.7 30.4 32.7 30.4 32.5 32.2 32 33 34.2 32.1 35.1 31.2 35.1 31.2 35.1 31.2 35.9 31.7 37 32 36.4 31.2 36.2 29.8 36.2 29.8 36.2 29.8 37.1 31.6 38.2 32.1 38.2 32.1 37.9 31.1 37.9 29.8 39.1 30.3 41.6 30.7 41.6 30.7 41.6 30.7 40.4 29.8 40.1 29.1 41 30 43.1 30.8 43.1 30.8 43.1 30.8 42.3 30 42 29.1 43.3 29.5 45.5 29.4 45.5 29.4 45.5 29.4 45.2 29.3 44.9 28.9 45.5 29.1 47.4 29.6 48.7 29.3 46.6 30.2 43 29.7 43 29.7 43.6 30.6 45.1 31.7 45.1 31.7 43 32 38.8 30.8 38.8 30.8 38.8 30.8 38.6 32.4 39.7 33.1 37.2 33.2 35.2 32 35.2 32 35.2 32 31.9 34.1 30.3 34.3 30.7 33.5 30.6 32.6 30.6 32.6 30.6 32.6 28 34.4 25.6 34.5 26 34 26 33.2 26 33.2 25.9 33.3 25.8 33.3 25.7 33.4 25.1 33.8 23.5 34.5 21.6 33.9 21.9 33.9 22.9 34.1 24.3 33.5Z" fill="#519800"/></g><g><path d="M30.5 21.4C31.1 21.1 31.9 19.8 31.9 19.8 31.9 19.8 31.6 21.1 31.1 21.6 31.1 21.6 32.6 21.1 33.5 19.9 34.5 20.4 35.9 21 37.4 20.8 36 19.9 35.9 19.1 35.9 19.1 35.9 19.1 37.2 19.4 38.3 19.5 38.3 19.5 37.7 19 37.5 18.4 38.1 18.9 40.4 19.9 42.5 19.6 41.4 20.3 38.6 20.4 37.3 20.1 37.6 20.4 38.1 20.7 38.5 21 38.7 21.1 38.8 21.2 39 21.3 38.5 21.4 35.7 22 33.6 20.8 32.5 22.3 29.2 22.7 29.2 22.7 29.9 21.9 29.9 20.9 29.9 20.9 29.9 20.9 27.5 22.6 25.4 22.8 27.4 22.4 30.2 20 30.2 20 30.2 20 30.6 20.6 30.5 21.4Z" fill="#519800"/></g></g></svg>