<svg width="67.5" height="121.5" viewBox="0 0 67.5 121.5" xmlns="http://www.w3.org/2000/svg" xmlns:xlink="http://www.w3.org/1999/xlink" overflow="hidden"><defs></defs><g><path d="M33.8 10.9 0.2 121.4 67.4 121.4 33.8 10.9ZM33.8 28.8 60.2 115.5 7.4 115.5 33.8 28.8Z" fill="#A6A8AB"/><path d="M67.5 121.5 0 121.5 33.8 10.4 67.5 121.5ZM0.3 121.3 67.2 121.3 33.8 11.3 0.3 121.3ZM60.3 115.7 7.2 115.7 33.7 28.4 60.3 115.7ZM7.6 115.5 60 115.5 33.8 29.3 7.6 115.5Z" fill="#6D6E70"/></g><path d="M33.8 10.9 0.2 121.4 67.4 121.4 33.8 10.9ZM3.6 119.2 2.8 119C2.3 118.9 2 118.2 2.2 117.5L28.9 29C29.1 28.3 29.7 27.9 30.2 28L31 28.2C31.5 28.4 31.8 29 31.5 29.7L4.9 118.3C4.7 119 4.1 119.4 3.6 119.2ZM7.4 115.6 33.8 28.9 60.2 115.6 7.4 115.6ZM65.1 118.7 64.3 118.9C63.8 119.1 63.2 118.6 63 117.9L35.8 29.7C35.6 29 35.8 28.3 36.3 28.2L37.1 28C37.6 27.8 38.2 28.3 38.4 29L65.6 117.3C65.9 117.8 65.6 118.5 65.1 118.7Z" fill="#D0D2D3"/><path d="M7.4 115.6 6.7 116.8 60.8 116.8 60.1 115.6Z" fill="#EA973A"/><path d="M63.6 120.5C61.2 120.5 11.6 120.5 6.5 120.5 2.2 120.5 0.9 120.1 1.1 118.6L0.3 121.4 67.5 121.4 66.6 118.3C66.6 119.9 65.6 120.5 63.6 120.5Z" fill="#EAB167"/><path d="M65.2 116.7C65.3 116.9 65 117.2 64.7 117.3L64.7 117.3C64.3 117.4 64 117.3 63.9 117.1L36.5 29.1C36.4 28.9 36.7 28.6 37 28.5L37 28.5C37.4 28.4 37.7 28.5 37.8 28.7L65.2 116.7Z" fill="#FFFFFF" opacity="0.7"/><path d="M4.3 118.8C4.2 119 3.9 119.1 3.5 119L3.5 119C3.1 118.9 2.9 118.6 2.9 118.4L29.3 28.9C29.4 28.7 29.7 28.6 30.1 28.7L30.1 28.7C30.5 28.8 30.7 29.1 30.7 29.3L4.3 118.8Z" fill="#FFFFFF" opacity="0.7"/><g><g><g><path d="M38.2 29.4C38.5 30.2 38 31.1 37.1 31.4 36.3 31.7 35.4 31.2 35.1 30.3 34.8 29.5 35.3 28.6 36.2 28.3 37 28.1 37.9 28.6 38.2 29.4Z" fill="#FFB70D"/><path d="M36.6 31.6C35.8 31.6 35.2 31.1 35 30.4 34.9 30 34.9 29.5 35.1 29.1 35.3 28.7 35.7 28.4 36.1 28.3 36.3 28.2 36.4 28.2 36.6 28.2 37.4 28.2 38 28.7 38.2 29.4 38.5 30.3 38 31.3 37.1 31.5 37 31.6 36.8 31.6 36.6 31.6ZM36.6 28.4C36.5 28.4 36.3 28.4 36.2 28.5 35.8 28.6 35.5 28.9 35.3 29.2 35.1 29.5 35.1 29.9 35.2 30.3 35.4 30.9 36 31.3 36.6 31.3 36.7 31.3 36.9 31.3 37 31.2 37.8 31 38.2 30.1 38 29.4 37.9 28.8 37.3 28.4 36.6 28.4Z" fill="#FF7C0D"/></g><g><path d="M40.2 36.2C40.5 37 40 37.9 39.1 38.2 38.3 38.4 37.4 38 37.1 37.1 36.8 36.3 37.3 35.4 38.2 35.1 39.1 34.9 40 35.3 40.2 36.2Z" fill="#FFFFAE"/><path d="M38.7 38.4C37.9 38.4 37.3 37.9 37.1 37.2 36.8 36.3 37.3 35.3 38.2 35.1 38.4 35.1 38.5 35 38.7 35 39.5 35 40.1 35.5 40.3 36.2 40.4 36.6 40.4 37.1 40.2 37.5 40 37.9 39.6 38.2 39.2 38.3 39 38.3 38.9 38.4 38.7 38.4ZM38.7 35.2C38.6 35.2 38.4 35.2 38.3 35.3 37.5 35.5 37.1 36.4 37.3 37.1 37.5 37.7 38.1 38.1 38.7 38.1 38.8 38.1 39 38.1 39.1 38 39.5 37.9 39.8 37.6 40 37.3 40.2 37 40.2 36.6 40.1 36.2 39.9 35.6 39.4 35.2 38.7 35.2Z" fill="#FFB70D"/></g><g><path d="M42.3 43C42.6 43.8 42.1 44.7 41.2 45 40.4 45.3 39.5 44.8 39.2 43.9 38.9 43.1 39.4 42.2 40.3 41.9 41.2 41.7 42 42.1 42.3 43Z" fill="#FFB70D"/><path d="M40.8 45.2C40 45.2 39.4 44.7 39.2 44 38.9 43.1 39.4 42.1 40.3 41.9 40.5 41.9 40.6 41.8 40.8 41.8 41.6 41.8 42.2 42.3 42.4 43 42.7 43.9 42.2 44.9 41.3 45.1 41.1 45.1 40.9 45.2 40.8 45.2ZM40.8 42C40.7 42 40.5 42 40.4 42.1 39.6 42.3 39.2 43.2 39.4 43.9 39.6 44.5 40.2 44.9 40.8 44.9 40.9 44.9 41.1 44.9 41.2 44.8 42 44.6 42.4 43.7 42.2 43 42 42.4 41.4 42 40.8 42Z" fill="#FF7C0D"/></g><g><path d="M44.4 49.8C44.7 50.6 44.2 51.5 43.3 51.8 42.5 52.1 41.6 51.6 41.3 50.7 41 49.9 41.5 49 42.4 48.7 43.2 48.5 44.1 48.9 44.4 49.8Z" fill="#FFFFAE"/><path d="M42.8 52C42 52 41.4 51.5 41.2 50.8 40.9 49.9 41.4 48.9 42.3 48.6 42.5 48.6 42.6 48.5 42.8 48.5 43.6 48.5 44.2 49 44.4 49.7 44.7 50.6 44.2 51.6 43.2 51.8 43.2 51.9 43 52 42.8 52ZM42.8 48.8C42.7 48.8 42.5 48.8 42.4 48.9 41.6 49.1 41.2 50 41.4 50.7 41.6 51.3 42.2 51.7 42.8 51.7 42.9 51.7 43.1 51.7 43.2 51.6 44 51.4 44.4 50.5 44.2 49.8 44.1 49.2 43.5 48.8 42.8 48.8Z" fill="#FFB70D"/></g><g><path d="M46.4 56.6C46.7 57.4 46.2 58.3 45.3 58.6 44.5 58.9 43.6 58.4 43.3 57.5 43 56.7 43.5 55.8 44.4 55.5 45.3 55.2 46.2 55.7 46.4 56.6Z" fill="#FFB70D"/><path d="M44.9 58.7C44.1 58.7 43.5 58.2 43.3 57.5 43 56.6 43.5 55.6 44.4 55.4 44.6 55.4 44.7 55.3 44.9 55.3 45.7 55.3 46.3 55.8 46.5 56.5 46.6 56.9 46.6 57.4 46.4 57.8 46.2 58.2 45.8 58.5 45.4 58.6 45.2 58.7 45.1 58.7 44.9 58.7ZM44.9 55.6C44.8 55.6 44.6 55.6 44.5 55.7 43.7 55.9 43.3 56.8 43.5 57.5 43.7 58.1 44.3 58.5 44.9 58.5 45 58.5 45.2 58.5 45.3 58.4 45.7 58.3 46 58 46.2 57.7 46.4 57.4 46.4 57 46.3 56.6 46.1 56 45.6 55.6 44.9 55.6Z" fill="#FF7C0D"/></g><g><path d="M48.5 63.3C48.8 64.1 48.3 65 47.4 65.3 46.6 65.6 45.7 65.1 45.4 64.2 45.1 63.4 45.6 62.5 46.5 62.2 47.3 62 48.2 62.5 48.5 63.3Z" fill="#FFFFAE"/><path d="M47 65.5C46.2 65.5 45.6 65 45.4 64.3 45.3 63.9 45.3 63.4 45.5 63 45.7 62.6 46.1 62.3 46.5 62.2 46.7 62.2 46.8 62.1 47 62.1 47.8 62.1 48.4 62.6 48.6 63.3 48.7 63.7 48.7 64.2 48.5 64.6 48.3 65 47.9 65.3 47.5 65.4 47.3 65.5 47.1 65.5 47 65.5ZM47 62.3C46.9 62.3 46.7 62.3 46.6 62.4 46.2 62.5 45.9 62.8 45.7 63.1 45.5 63.4 45.5 63.8 45.6 64.2 45.8 64.8 46.4 65.2 47 65.2 47.1 65.2 47.3 65.2 47.4 65.1 47.8 65 48.1 64.7 48.3 64.4 48.5 64.1 48.5 63.7 48.4 63.3 48.2 62.8 47.6 62.3 47 62.3Z" fill="#FFB70D"/></g><g><path d="M50.6 70.1C50.9 70.9 50.4 71.8 49.5 72.1 48.7 72.4 47.8 71.9 47.5 71 47.2 70.2 47.7 69.3 48.6 69 49.4 68.8 50.3 69.3 50.6 70.1Z" fill="#FFB70D"/><path d="M49 72.3C48.2 72.3 47.6 71.8 47.4 71.1 47.1 70.2 47.6 69.2 48.5 69 48.7 69 48.8 68.9 49 68.9 49.8 68.9 50.4 69.4 50.6 70.1 50.9 71 50.4 72 49.5 72.2 49.4 72.3 49.2 72.3 49 72.3ZM49 69.1C48.9 69.1 48.7 69.1 48.6 69.2 47.8 69.4 47.4 70.3 47.6 71 47.8 71.6 48.4 72 49 72 49.1 72 49.3 72 49.4 71.9 50.2 71.7 50.6 70.8 50.4 70.1 50.2 69.6 49.7 69.1 49 69.1Z" fill="#FF7C0D"/></g><g><path d="M52.6 76.9C52.9 77.7 52.4 78.6 51.5 78.9 50.7 79.2 49.8 78.7 49.5 77.8 49.2 77 49.7 76.1 50.6 75.8 51.5 75.6 52.4 76.1 52.6 76.9Z" fill="#FFFFAE"/><path d="M51.1 79.1C50.3 79.1 49.7 78.6 49.5 77.9 49.2 77 49.7 76 50.6 75.8 50.8 75.8 50.9 75.7 51.1 75.7 51.9 75.7 52.5 76.2 52.7 76.9 53 77.8 52.5 78.8 51.6 79 51.4 79.1 51.3 79.1 51.1 79.1ZM51.1 75.9C51 75.9 50.8 75.9 50.7 76 49.9 76.2 49.5 77.1 49.7 77.8 49.9 78.4 50.5 78.8 51.1 78.8 51.2 78.8 51.4 78.8 51.5 78.7 52.3 78.5 52.7 77.6 52.5 76.9 52.3 76.3 51.7 75.9 51.1 75.9Z" fill="#FFB70D"/></g><g><path d="M54.7 83.7C55 84.5 54.5 85.4 53.6 85.7 52.8 86 51.9 85.5 51.6 84.6 51.3 83.8 51.8 82.9 52.7 82.6 53.5 82.4 54.4 82.9 54.7 83.7Z" fill="#FFB70D"/><path d="M53.2 85.9C52.4 85.9 51.8 85.4 51.6 84.7 51.5 84.3 51.5 83.8 51.7 83.4 51.9 83 52.3 82.7 52.7 82.6 52.9 82.6 53 82.5 53.2 82.5 54 82.5 54.6 83 54.8 83.7 54.9 84.1 54.9 84.6 54.7 85 54.5 85.4 54.1 85.7 53.7 85.8 53.5 85.9 53.3 85.9 53.2 85.9ZM53.2 82.7C53.1 82.7 52.9 82.7 52.8 82.8 52.4 82.9 52.1 83.2 51.9 83.5 51.7 83.8 51.7 84.2 51.8 84.6 52 85.2 52.6 85.6 53.2 85.6 53.3 85.6 53.5 85.6 53.6 85.5 54 85.4 54.3 85.1 54.5 84.8 54.7 84.5 54.7 84.1 54.6 83.7 54.4 83.1 53.8 82.7 53.2 82.7Z" fill="#FF7C0D"/></g><g><path d="M56.8 90.5C57.1 91.3 56.6 92.2 55.7 92.5 54.9 92.8 54 92.3 53.7 91.4 53.4 90.6 53.9 89.7 54.8 89.4 55.6 89.2 56.5 89.7 56.8 90.5Z" fill="#FFFFAE"/><path d="M55.2 92.7C54.4 92.7 53.8 92.2 53.6 91.5 53.5 91.1 53.5 90.6 53.7 90.2 53.9 89.8 54.3 89.5 54.7 89.4 54.9 89.3 55 89.3 55.2 89.3 56 89.3 56.6 89.8 56.8 90.5 57.1 91.4 56.6 92.4 55.7 92.6 55.6 92.7 55.4 92.7 55.2 92.7ZM55.2 89.5C55.1 89.5 54.9 89.5 54.8 89.6 54.4 89.7 54.1 90 53.9 90.3 53.7 90.6 53.7 91 53.8 91.4 54 92 54.6 92.4 55.2 92.4 55.3 92.4 55.5 92.4 55.6 92.3 56.4 92.1 56.8 91.2 56.6 90.5 56.4 89.9 55.9 89.5 55.2 89.5Z" fill="#FFB70D"/></g><g><path d="M58.8 97.3C59.1 98.1 58.6 99 57.7 99.3 56.9 99.6 56 99.1 55.7 98.2 55.4 97.4 55.9 96.5 56.8 96.2 57.7 96 58.6 96.5 58.8 97.3Z" fill="#FFB70D"/><path d="M57.3 99.5C56.5 99.5 55.9 99 55.7 98.3 55.4 97.4 55.9 96.4 56.8 96.2 57 96.2 57.1 96.1 57.3 96.1 58.1 96.1 58.7 96.6 58.9 97.3 59.2 98.2 58.7 99.2 57.8 99.4 57.6 99.4 57.5 99.5 57.3 99.5ZM57.3 96.3C57.2 96.3 57 96.3 56.9 96.4 56.1 96.6 55.7 97.5 55.9 98.2 56.1 98.8 56.7 99.2 57.3 99.2 57.4 99.2 57.6 99.2 57.7 99.1 58.5 98.9 58.9 98 58.7 97.3 58.5 96.7 57.9 96.3 57.3 96.3Z" fill="#FF7C0D"/></g><g><path d="M60.9 104.1C61.2 104.9 60.7 105.8 59.8 106.1 59 106.4 58.1 105.9 57.8 105 57.5 104.2 58 103.3 58.9 103 59.7 102.8 60.6 103.2 60.9 104.1Z" fill="#FFFFAE"/><path d="M59.4 106.3C58.6 106.3 58 105.8 57.8 105.1 57.7 104.7 57.7 104.2 57.9 103.8 58.1 103.4 58.5 103.1 58.9 103 59.1 103 59.2 102.9 59.4 102.9 60.2 102.9 60.8 103.4 61 104.1 61.1 104.5 61.1 105 60.9 105.4 60.7 105.8 60.3 106.1 59.9 106.2 59.7 106.2 59.5 106.3 59.4 106.3ZM59.4 103.1C59.3 103.1 59.1 103.1 59 103.2 58.6 103.3 58.3 103.6 58.1 103.9 57.9 104.2 57.9 104.6 58 105 58.2 105.6 58.8 106 59.4 106 59.5 106 59.7 106 59.8 105.9 60.2 105.8 60.5 105.5 60.7 105.2 60.9 104.8 60.9 104.5 60.8 104.1 60.6 103.5 60 103.1 59.4 103.1Z" fill="#FFB70D"/></g><g><path d="M62.9 110.9C63.2 111.7 62.7 112.6 61.8 112.9 61 113.2 60.1 112.7 59.8 111.8 59.5 111 60 110.1 60.9 109.8 61.8 109.6 62.7 110 62.9 110.9Z" fill="#FFB70D"/><path d="M61.4 113.1C60.6 113.1 60 112.6 59.8 111.9 59.5 111 60 110 60.9 109.8 61.1 109.8 61.2 109.7 61.4 109.7 62.2 109.7 62.8 110.2 63 110.9 63.3 111.8 62.8 112.8 61.9 113 61.8 113 61.6 113.1 61.4 113.1ZM61.4 109.9C61.3 109.9 61.1 109.9 61 110 60.2 110.2 59.8 111.1 60 111.8 60.2 112.4 60.7 112.8 61.4 112.8 61.5 112.8 61.7 112.8 61.8 112.7 62.6 112.5 63 111.6 62.8 110.9 62.6 110.3 62.1 109.9 61.4 109.9Z" fill="#FF7C0D"/></g><g><path d="M65 117.7C65.3 118.5 64.8 119.4 63.9 119.7 63.1 120 62.2 119.5 61.9 118.6 61.6 117.8 62.1 116.9 63 116.6 63.9 116.3 64.8 116.8 65 117.7Z" fill="#FFFFAE"/><path d="M63.5 119.8C62.7 119.8 62.1 119.3 61.9 118.6 61.6 117.7 62.1 116.7 63 116.5 63.2 116.4 63.3 116.4 63.5 116.4 64.3 116.4 64.9 116.9 65.1 117.6 65.4 118.5 64.9 119.5 64 119.7 63.8 119.8 63.7 119.8 63.5 119.8ZM63.5 116.7C63.4 116.7 63.2 116.7 63.1 116.8 62.3 117 61.9 117.9 62.1 118.6 62.3 119.2 62.9 119.6 63.5 119.6 63.6 119.6 63.8 119.6 63.9 119.5 64.7 119.3 65.1 118.5 64.9 117.7 64.7 117.1 64.1 116.7 63.5 116.7Z" fill="#FFB70D"/></g><path d="M37.4 28.8C37.4 28.7 37.3 28.7 37.2 28.7 36.9 28.6 36.5 28.6 36.3 28.9 36.1 29.1 36.2 29.5 36.4 29.7 36.4 29.7 36.4 29.7 36.4 29.7 36.4 29.7 36.5 29.8 36.6 29.8 36.9 30 37.3 29.8 37.5 29.5 37.7 29.3 37.6 28.9 37.4 28.8Z" fill="#FFFFFF"/><path d="M36.3 29.9C36.1 29.7 35.8 29.8 35.7 30.1 35.6 30.4 35.9 30.6 36.2 30.5 36.2 30.5 36.2 30.5 36.2 30.5 36.4 30.4 36.5 30.1 36.3 29.9Z" fill="#FFFFFF"/><path d="M39.7 35.9C39.6 35.7 39.4 35.5 39.2 35.5 38.9 35.3 38.5 35.4 38.3 35.7 38.3 35.7 38.3 35.8 38.2 35.8 38.2 35.8 38.2 35.9 38.2 35.9 38.1 36.2 38.2 36.4 38.4 36.6 38.6 36.7 38.9 36.7 39.1 36.7 39.1 36.7 39.1 36.7 39.2 36.7 39.2 36.7 39.3 36.7 39.3 36.7 39.7 36.5 39.8 36.2 39.7 35.9Z" fill="#FFFFFF"/><path d="M37.9 36.7C37.7 36.7 37.6 36.8 37.5 36.9 37.5 36.9 37.4 37 37.4 37 37.3 37.2 37.5 37.5 37.7 37.6 38 37.7 38.3 37.5 38.3 37.2 38.4 36.9 38.2 36.7 37.9 36.7Z" fill="#FFFFFF"/><path d="M41.7 42.5C41.6 42.3 41.3 42.1 41 42.3 41 42.3 40.9 42.3 40.9 42.4 40.7 42.5 40.6 42.6 40.6 42.8 40.6 42.8 40.6 42.9 40.6 42.9 40.6 43.2 40.7 43.3 40.8 43.4 40.8 43.4 40.9 43.5 40.9 43.5 41.1 43.6 41.3 43.6 41.5 43.5 41.6 43.5 41.7 43.4 41.8 43.2 41.9 43 41.8 42.7 41.7 42.5Z" fill="#FFFFFF"/><path d="M40.3 43.5C40.3 43.5 40.3 43.5 40.3 43.5 40.3 43.5 40.2 43.5 40.3 43.5 40 43.4 39.8 43.6 39.8 43.8 39.8 44 39.9 44.1 40.1 44.1L40.1 44.1C40.2 44.2 40.3 44.1 40.4 44L40.4 44C40.4 44 40.5 43.9 40.5 43.9 40.6 43.7 40.5 43.6 40.3 43.5Z" fill="#FFFFFF"/><path d="M43.7 49.3C43.6 49.1 43.3 49 43.1 49 42.7 49 42.4 49.3 42.4 49.7 42.4 50 42.7 50.3 43 50.4 43.4 50.5 43.7 50.2 43.8 49.9 43.8 49.6 43.8 49.4 43.7 49.3Z" fill="#FFFFFF"/><path d="M42.4 50.4C42.4 50.4 42.4 50.4 42.4 50.4 42.3 50.4 42.2 50.4 42.2 50.4 42 50.4 41.8 50.7 42 50.9 42 50.9 42 50.9 42 50.9 42 50.9 42 51 42.1 51 42.2 51.1 42.5 51 42.6 50.9 42.6 50.9 42.6 50.9 42.6 50.9 42.6 50.7 42.6 50.5 42.4 50.4Z" fill="#FFFFFF"/><path d="M45.9 56.1C45.8 56 45.8 56 45.7 55.9 45.5 55.8 45.3 55.7 45.1 55.7 44.9 55.7 44.7 55.9 44.6 56.1 44.6 56.2 44.6 56.3 44.6 56.4 44.6 56.8 44.8 57.1 45.2 57.1 45.4 57.1 45.5 57.1 45.6 57 45.6 57 45.6 57 45.6 57 46 57 46.1 56.5 45.9 56.1Z" fill="#FFFFFF"/><path d="M44.2 57.1C43.6 57.1 43.5 58 44.1 58 44.7 58 44.8 57.1 44.2 57.1Z" fill="#FFFFFF"/><path d="M47.6 62.7C47.3 62.5 47 62.6 46.7 62.8 46.6 62.9 46.6 63 46.6 63.1 46.5 63.3 46.5 63.4 46.6 63.6 46.7 64 47.1 64.2 47.4 64.1 47.7 64 47.9 63.8 48 63.5 48.1 63.1 47.9 62.8 47.6 62.7Z" fill="#FFFFFF"/><path d="M46.4 64C46 64 45.9 64.7 46.4 64.7 46.8 64.7 46.8 64 46.4 64Z" fill="#FFFFFF"/><path d="M49.9 69.5C49.7 69.4 49.5 69.4 49.3 69.4 49.1 69.4 48.9 69.6 48.8 69.8 48.8 69.8 48.8 69.8 48.8 69.8 48.7 70 48.7 70.2 48.7 70.3 48.8 70.5 48.9 70.6 49.1 70.6 49.1 70.6 49.1 70.6 49.2 70.6 49.2 70.6 49.3 70.6 49.3 70.7 49.7 70.9 50.1 70.4 50.1 70 50.2 69.8 50.1 69.6 49.9 69.5Z" fill="#FFFFFF"/><path d="M48.5 70.7C48.3 70.7 48.1 70.8 48.1 71.1 48.1 71.3 48.2 71.5 48.5 71.5 48.7 71.5 48.9 71.4 48.9 71.1 48.9 71 48.7 70.7 48.5 70.7Z" fill="#FFFFFF"/><path d="M52.1 76.6C52.1 76.3 51.7 76.1 51.4 76.1 51.1 76.1 50.8 76.3 50.7 76.6 50.6 76.9 50.7 77.2 50.8 77.4 51 77.6 51.4 77.7 51.6 77.5 51.7 77.4 51.8 77.3 51.9 77.2 52.1 77 52.2 76.8 52.1 76.6Z" fill="#FFFFFF"/><path d="M50.5 77.6C49.9 77.6 49.9 78.5 50.4 78.5 51 78.4 51.1 77.6 50.5 77.6Z" fill="#FFFFFF"/><path d="M54.2 83.6C54.2 83.1 53.8 82.8 53.4 82.8 53.2 82.8 53.1 82.9 53 83 52.8 83.2 52.8 83.4 52.8 83.6 52.8 84 53.3 84.3 53.7 84.2 53.8 84.2 53.9 84.2 53.9 84.1 54 84.1 54.2 83.9 54.2 83.6Z" fill="#FFFFFF"/><path d="M52.5 84.2C52 84.2 52 84.9 52.4 84.9 52.9 84.9 52.9 84.2 52.5 84.2Z" fill="#FFFFFF"/><path d="M56.1 89.8C55.9 89.6 55.6 89.5 55.3 89.6 55.3 89.6 55.3 89.6 55.3 89.6 55 89.7 54.7 90 54.7 90.4 54.7 90.8 55 91.2 55.4 91.3 55.7 91.4 56 91.3 56.3 91 56.4 90.7 56.4 90.1 56.1 89.8Z" fill="#FFFFFF"/><path d="M54.7 91.2C54.1 91.2 54.1 92.1 54.6 92.1 55.2 92 55.3 91.2 54.7 91.2Z" fill="#FFFFFF"/><path d="M57.5 96.4C57.4 96.4 57.2 96.5 57.1 96.6 56.8 96.7 56.6 97 56.7 97.4 56.8 97.8 57.2 98 57.6 98 58 98 58.2 97.7 58.3 97.3 58.4 96.8 58 96.3 57.5 96.4Z" fill="#FFFFFF"/><path d="M56.8 98.1C56.4 98.1 56.3 98.8 56.7 98.8 57.2 98.8 57.2 98.1 56.8 98.1Z" fill="#FFFFFF"/><path d="M60.2 104.1C60.2 103.9 60.1 103.6 59.9 103.4 59.6 103.2 59.2 103.4 59 103.6 58.8 103.9 58.8 104.2 59 104.5 59.3 104.9 60.1 104.9 60.2 104.3 60.2 104.3 60.2 104.2 60.2 104.1Z" fill="#FFFFFF"/><path d="M58.8 104.6C58.2 104.6 58.1 105.5 58.7 105.5 59.4 105.5 59.4 104.6 58.8 104.6Z" fill="#FFFFFF"/><path d="M62.4 110.6C62.4 110.5 62.3 110.4 62.2 110.3 62.1 110.1 61.8 109.9 61.6 109.9 61.4 109.9 61.2 110 61.1 110.2 61 110.4 61 110.6 61 110.8 61 110.9 61 111 61.1 111.1 61.1 111.1 61.1 111.2 61.1 111.2 61.2 111.4 61.6 111.7 61.9 111.6 62.1 111.5 62.2 111.4 62.3 111.2 62.3 111.2 62.3 111.1 62.3 111.1 62.4 110.8 62.5 110.7 62.4 110.6Z" fill="#FFFFFF"/><path d="M60.8 111.3C60.2 111.3 60.2 112.2 60.7 112.2 61.3 112.1 61.4 111.3 60.8 111.3Z" fill="#FFFFFF"/><path d="M64.3 117.3C64.2 117.2 64.1 117 63.9 117 63.8 117 63.6 117 63.5 117 63.2 117.1 63 117.4 63.1 117.7 63.1 118 63.5 118.3 63.8 118.2 64 118.1 64.1 118 64.2 117.8 64.4 117.6 64.4 117.4 64.3 117.3Z" fill="#FFFFFF"/><path d="M62.8 118.1C62.3 118.1 62.2 118.9 62.7 118.9 63.3 118.9 63.3 118.1 62.8 118.1Z" fill="#FFFFFF"/></g><g><g><path d="M28.9 29.4C28.6 30.2 29.1 31.1 30 31.4 30.8 31.7 31.7 31.2 32 30.3 32.3 29.5 31.8 28.6 30.9 28.3 30 28.1 29.1 28.6 28.9 29.4Z" fill="#FFFFAE"/><path d="M30.4 31.6 30.4 31.6C30.2 31.6 30.1 31.6 29.9 31.5 29 31.2 28.5 30.3 28.8 29.4 29 28.7 29.7 28.2 30.4 28.2 30.6 28.2 30.7 28.2 30.9 28.3 31.3 28.4 31.7 28.7 31.9 29.1 32.1 29.5 32.2 30 32 30.4 31.8 31.1 31.2 31.6 30.4 31.6ZM30.4 28.4C29.8 28.4 29.2 28.8 29 29.4 28.8 30.2 29.2 31 30 31.2 30.1 31.2 30.3 31.3 30.4 31.3 31.1 31.3 31.6 30.9 31.8 30.3 31.9 29.9 31.9 29.5 31.7 29.2 31.5 28.8 31.2 28.6 30.8 28.5 30.7 28.4 30.6 28.4 30.4 28.4Z" fill="#FFB70D"/></g><g><path d="M26.8 36.2C26.6 37 27 37.9 27.9 38.2 28.7 38.4 29.6 38 29.9 37.1 30.2 36.3 29.7 35.4 28.8 35.1 28 34.9 27.1 35.3 26.8 36.2Z" fill="#FFB70D"/><path d="M28.3 38.4 28.3 38.4C28.1 38.4 28 38.4 27.8 38.3 27.4 38.2 27 37.9 26.8 37.5 26.6 37.1 26.5 36.6 26.7 36.2 26.9 35.5 27.6 35 28.3 35 28.5 35 28.6 35 28.8 35.1 29.7 35.4 30.2 36.3 29.9 37.2 29.8 37.9 29.1 38.4 28.3 38.4ZM28.3 35.2C27.6 35.2 27.1 35.6 26.9 36.2 26.8 36.6 26.8 37 27 37.3 27.2 37.6 27.5 37.9 27.9 38 28 38 28.2 38.1 28.3 38.1 29 38.1 29.5 37.7 29.7 37.1 29.9 36.3 29.5 35.5 28.7 35.3 28.6 35.2 28.5 35.2 28.3 35.2Z" fill="#FF7C0D"/></g><g><path d="M24.8 43C24.5 43.8 25 44.7 25.9 45 26.7 45.3 27.6 44.8 27.9 43.9 28.2 43.1 27.7 42.2 26.8 41.9 25.9 41.7 25 42.1 24.8 43Z" fill="#FFFFAE"/><path d="M26.3 45.2 26.3 45.2C26.1 45.2 26 45.2 25.8 45.1 24.9 44.8 24.4 43.9 24.7 43 24.9 42.3 25.6 41.8 26.3 41.8 26.5 41.8 26.6 41.8 26.8 41.9 27.7 42.2 28.2 43.1 27.9 44 27.7 44.7 27 45.2 26.3 45.2ZM26.3 42C25.6 42 25.1 42.4 24.9 43 24.7 43.8 25.1 44.6 25.9 44.8 26 44.8 26.2 44.9 26.3 44.9 26.9 44.9 27.5 44.5 27.7 43.9 27.9 43.1 27.5 42.3 26.7 42.1 26.6 42 26.4 42 26.3 42Z" fill="#FFB70D"/></g><g><path d="M22.7 49.8C22.4 50.6 22.9 51.5 23.8 51.8 24.6 52.1 25.5 51.6 25.8 50.7 26.1 49.9 25.6 49 24.7 48.7 23.8 48.5 22.9 48.9 22.7 49.8Z" fill="#FFB70D"/><path d="M24.2 52 24.2 52C24 52 23.9 52 23.7 51.9 22.8 51.6 22.3 50.7 22.6 49.8 22.8 49.1 23.5 48.6 24.2 48.6 24.4 48.6 24.5 48.6 24.7 48.7 25.6 49 26.1 49.9 25.8 50.9 25.6 51.5 25 52 24.2 52ZM24.2 48.8C23.6 48.8 23 49.2 22.8 49.8 22.6 50.6 23 51.4 23.8 51.6 23.9 51.6 24.1 51.7 24.2 51.7 24.9 51.7 25.4 51.3 25.6 50.7 25.8 49.9 25.4 49.1 24.6 48.9 24.5 48.8 24.4 48.8 24.2 48.8Z" fill="#FF7C0D"/></g><g><path d="M20.6 56.6C20.3 57.4 20.8 58.3 21.7 58.6 22.5 58.9 23.4 58.4 23.7 57.5 24 56.7 23.5 55.8 22.6 55.5 21.8 55.2 20.9 55.7 20.6 56.6Z" fill="#FFFFAE"/><path d="M22.1 58.7 22.1 58.7C21.9 58.7 21.8 58.7 21.6 58.6 21.2 58.5 20.8 58.2 20.6 57.8 20.4 57.4 20.3 56.9 20.5 56.5 20.7 55.8 21.4 55.3 22.1 55.3 22.3 55.3 22.4 55.3 22.6 55.4 23.5 55.7 24 56.6 23.7 57.5 23.6 58.2 22.9 58.7 22.1 58.7ZM22.1 55.6C21.4 55.6 20.9 56 20.7 56.6 20.6 57 20.6 57.4 20.8 57.7 21 58 21.3 58.3 21.7 58.4 21.8 58.4 22 58.5 22.1 58.5 22.7 58.5 23.3 58.1 23.5 57.5 23.7 56.7 23.3 55.9 22.5 55.7 22.4 55.6 22.3 55.6 22.1 55.6Z" fill="#FFB70D"/></g><g><path d="M18.6 63.3C18.3 64.1 18.8 65 19.7 65.3 20.5 65.6 21.4 65.1 21.7 64.2 22 63.4 21.5 62.5 20.6 62.2 19.7 62 18.8 62.5 18.6 63.3Z" fill="#FFB70D"/><path d="M20.1 65.5 20.1 65.5C19.9 65.5 19.8 65.5 19.6 65.4 19.2 65.3 18.8 65 18.6 64.6 18.4 64.2 18.3 63.7 18.5 63.3 18.7 62.6 19.4 62.1 20.1 62.1 20.3 62.1 20.4 62.1 20.6 62.2 21 62.3 21.4 62.6 21.6 63 21.8 63.4 21.9 63.9 21.7 64.3 21.5 65 20.8 65.5 20.1 65.5ZM20.1 62.3C19.5 62.3 18.9 62.7 18.7 63.3 18.6 63.7 18.6 64.1 18.8 64.4 19 64.7 19.3 65 19.7 65.1 19.8 65.1 20 65.2 20.1 65.2 20.7 65.2 21.3 64.8 21.5 64.2 21.6 63.8 21.6 63.4 21.4 63.1 21.2 62.8 20.9 62.5 20.5 62.4 20.4 62.4 20.2 62.3 20.1 62.3Z" fill="#FF7C0D"/></g><g><path d="M16.5 70.1C16.2 70.9 16.7 71.8 17.6 72.1 18.4 72.4 19.3 71.9 19.6 71 19.9 70.2 19.4 69.3 18.5 69 17.6 68.8 16.8 69.3 16.5 70.1Z" fill="#FFFFAE"/><path d="M18 72.3 18 72.3C17.8 72.3 17.7 72.3 17.5 72.2 16.6 71.9 16.1 71 16.4 70.1 16.6 69.4 17.3 68.9 18 68.9 18.2 68.9 18.3 68.9 18.5 69 19.4 69.3 19.9 70.2 19.6 71.1 19.4 71.8 18.8 72.3 18 72.3ZM18 69.1C17.4 69.1 16.8 69.5 16.6 70.1 16.4 70.9 16.8 71.7 17.6 71.9 17.7 71.9 17.9 72 18 72 18.7 72 19.2 71.6 19.4 71 19.6 70.2 19.2 69.4 18.4 69.2 18.3 69.2 18.2 69.1 18 69.1Z" fill="#FFB70D"/></g><g><path d="M14.4 76.9C14.1 77.7 14.6 78.6 15.5 78.9 16.3 79.2 17.2 78.7 17.5 77.8 17.8 77 17.3 76.1 16.4 75.8 15.6 75.6 14.7 76.1 14.4 76.9Z" fill="#FFB70D"/><path d="M16 79.1 16 79.1C15.8 79.1 15.7 79.1 15.5 79 14.6 78.7 14.1 77.8 14.4 76.9 14.6 76.2 15.3 75.7 16 75.7 16.2 75.7 16.3 75.7 16.5 75.8 17.4 76.1 17.9 77 17.6 77.9 17.4 78.6 16.7 79.1 16 79.1ZM16 75.9C15.4 75.9 14.8 76.3 14.6 76.9 14.4 77.7 14.8 78.5 15.6 78.7 15.7 78.7 15.9 78.8 16 78.8 16.7 78.8 17.2 78.4 17.4 77.8 17.6 77 17.2 76.2 16.4 76 16.2 75.9 16.1 75.9 16 75.9Z" fill="#FF7C0D"/></g><g><path d="M12.4 83.7C12.1 84.5 12.6 85.4 13.5 85.7 14.3 86 15.2 85.5 15.5 84.6 15.8 83.8 15.3 82.9 14.4 82.6 13.5 82.4 12.6 82.9 12.4 83.7Z" fill="#FFFFAE"/><path d="M13.9 85.9 13.9 85.9C13.7 85.9 13.6 85.9 13.4 85.8 13 85.7 12.6 85.4 12.4 85 12.2 84.6 12.1 84.1 12.3 83.7 12.5 83 13.2 82.5 13.9 82.5 14.1 82.5 14.2 82.5 14.4 82.6 14.8 82.7 15.2 83 15.4 83.4 15.6 83.8 15.7 84.3 15.5 84.7 15.3 85.4 14.7 85.9 13.9 85.9ZM13.9 82.7C13.2 82.7 12.7 83.1 12.5 83.7 12.4 84.1 12.4 84.5 12.6 84.8 12.8 85.1 13.1 85.4 13.5 85.5 13.6 85.5 13.8 85.6 13.9 85.6L13.9 85.6C14.6 85.6 15.1 85.2 15.3 84.6 15.4 84.2 15.4 83.8 15.2 83.5 15 83.1 14.7 82.9 14.3 82.8 14.2 82.7 14 82.7 13.9 82.7Z" fill="#FFB70D"/></g><g><path d="M10.3 90.5C10 91.3 10.5 92.2 11.4 92.5 12.2 92.8 13.1 92.3 13.4 91.4 13.7 90.6 13.2 89.7 12.3 89.4 11.4 89.2 10.6 89.7 10.3 90.5Z" fill="#FFB70D"/><path d="M11.8 92.7 11.8 92.7C11.6 92.7 11.5 92.7 11.3 92.6 10.4 92.3 9.9 91.4 10.2 90.5 10.4 89.8 11.1 89.3 11.8 89.3 12 89.3 12.1 89.3 12.3 89.4 12.7 89.5 13.1 89.8 13.3 90.2 13.5 90.6 13.6 91.1 13.4 91.5 13.2 92.2 12.6 92.7 11.8 92.7ZM11.8 89.5C11.2 89.5 10.6 89.9 10.4 90.5 10.2 91.3 10.6 92.1 11.4 92.3 11.5 92.3 11.7 92.4 11.8 92.4L11.8 92.4C12.4 92.4 13 92 13.2 91.4 13.3 91 13.3 90.6 13.1 90.3 12.9 90 12.6 89.7 12.2 89.6 12.1 89.5 12 89.5 11.8 89.5Z" fill="#FF7C0D"/></g><g><path d="M8.2 97.3C7.9 98.1 8.4 99 9.3 99.3 10.1 99.6 11 99.1 11.3 98.2 11.6 97.4 11.1 96.5 10.2 96.2 9.4 96 8.5 96.5 8.2 97.3Z" fill="#FFFFAE"/><path d="M9.8 99.5 9.8 99.5C9.6 99.5 9.5 99.5 9.3 99.4 8.4 99.1 7.9 98.2 8.2 97.3 8.3 96.5 9 96 9.8 96 10 96 10.1 96 10.3 96.1 11.2 96.4 11.7 97.3 11.4 98.2 11.2 99 10.5 99.5 9.8 99.5ZM9.8 96.3C9.1 96.3 8.6 96.7 8.4 97.3 8.2 98.1 8.6 98.9 9.4 99.1 9.5 99.1 9.7 99.2 9.8 99.2 10.4 99.2 11 98.8 11.2 98.2 11.4 97.4 11 96.6 10.2 96.4 10 96.3 9.9 96.3 9.8 96.3Z" fill="#FFB70D"/></g><g><path d="M6.2 104.1C5.9 104.9 6.4 105.8 7.3 106.1 8.1 106.4 9 105.9 9.3 105 9.6 104.2 9.1 103.3 8.2 103 7.3 102.8 6.4 103.2 6.2 104.1Z" fill="#FFB70D"/><path d="M7.7 106.3 7.7 106.3C7.5 106.3 7.4 106.3 7.2 106.2 6.8 106.1 6.4 105.8 6.2 105.4 6 104.9 5.9 104.5 6 104 6.2 103.3 6.9 102.8 7.6 102.8 7.8 102.8 7.9 102.8 8.1 102.9 8.5 103 8.9 103.3 9.1 103.7 9.3 104.1 9.4 104.6 9.2 105 9.1 105.8 8.5 106.3 7.7 106.3ZM7.7 103.1C7 103.1 6.5 103.5 6.3 104.1 6.2 104.5 6.2 104.9 6.4 105.2 6.6 105.5 6.9 105.8 7.3 105.9 7.4 105.9 7.6 106 7.7 106 8.3 106 8.9 105.6 9.1 105 9.2 104.6 9.2 104.2 9 103.9 8.8 103.6 8.5 103.3 8.1 103.2 8 103.1 7.8 103.1 7.7 103.1Z" fill="#FF7C0D"/></g><g><path d="M4.1 110.9C3.8 111.7 4.3 112.6 5.2 112.9 6 113.2 6.9 112.7 7.2 111.8 7.5 111 7 110.1 6.1 109.8 5.3 109.6 4.4 110 4.1 110.9Z" fill="#FFFFAE"/><path d="M5.6 113.1 5.6 113.1C5.4 113.1 5.3 113.1 5.1 113 4.2 112.7 3.7 111.8 4 110.9 4.2 110.2 4.9 109.7 5.6 109.7 5.8 109.7 5.9 109.7 6.1 109.8 7 110.1 7.5 111 7.2 111.9 7 112.6 6.4 113.1 5.6 113.1ZM5.6 109.9C5 109.9 4.4 110.3 4.2 110.9 4 111.7 4.4 112.5 5.2 112.7 5.3 112.7 5.5 112.8 5.6 112.8 6.3 112.8 6.8 112.4 7 111.8 7.2 111 6.8 110.2 6 110 5.9 109.9 5.8 109.9 5.6 109.9Z" fill="#FFB70D"/></g><g><path d="M2 117.7C1.7 118.5 2.2 119.4 3.1 119.7 3.9 120 4.8 119.5 5.1 118.6 5.4 117.8 4.9 116.9 4 116.6 3.2 116.3 2.3 116.8 2 117.7Z" fill="#FFB70D"/><path d="M3.6 119.8 3.6 119.8C3.4 119.8 3.3 119.8 3.1 119.7 2.2 119.4 1.7 118.5 2 117.6 2.2 116.9 2.9 116.4 3.6 116.4 3.8 116.4 3.9 116.4 4.1 116.5 5 116.8 5.5 117.7 5.2 118.6 5 119.3 4.3 119.8 3.6 119.8ZM3.6 116.7C3 116.7 2.4 117.1 2.2 117.7 2 118.5 2.4 119.3 3.2 119.5 3.3 119.5 3.5 119.6 3.6 119.6L3.6 119.6C4.2 119.6 4.8 119.2 5 118.6 5.2 117.8 4.8 117 4 116.8 3.9 116.7 3.7 116.7 3.6 116.7Z" fill="#FF7C0D"/></g><path d="M31.4 29.2C31.3 28.9 31 28.7 30.7 28.7 30.3 28.8 30.1 29.1 30.2 29.5 30.2 29.5 30.2 29.5 30.2 29.6 30.2 29.6 30.2 29.6 30.2 29.6 30.3 29.7 30.3 29.8 30.5 29.9 30.6 30 30.7 30 30.8 30 31 30 31.2 29.9 31.3 29.8 31.4 29.6 31.4 29.4 31.4 29.2Z" fill="#FFFFFF"/><path d="M29.7 29.7C29.2 29.7 29.1 30.5 29.6 30.5 30.2 30.5 30.3 29.7 29.7 29.7Z" fill="#FFFFFF"/><path d="M29.2 35.6C28.9 35.4 28.3 35.5 28.1 35.8 27.9 36.2 28 36.5 28.3 36.8 28.4 36.9 28.4 36.9 28.5 36.9 28.7 37 28.9 37 29 36.9 29.2 36.8 29.3 36.7 29.4 36.5 29.6 36.2 29.5 35.8 29.2 35.6Z" fill="#FFFFFF"/><path d="M27.9 36.8C27.8 36.7 27.6 36.6 27.5 36.7 27.3 36.7 27.1 36.9 27.2 37.1L27.2 37.1C27.2 37.4 27.3 37.5 27.6 37.6 27.6 37.6 27.6 37.6 27.6 37.6 27.8 37.6 27.9 37.5 28 37.4 28.1 37.1 28.1 36.9 27.9 36.8Z" fill="#FFFFFF"/><path d="M27.4 43.1C27.4 42.6 26.9 42.3 26.5 42.5 26.1 42.7 25.9 43.2 26.2 43.5 26.2 43.5 26.2 43.5 26.2 43.5 26.2 43.5 26.2 43.5 26.2 43.5 26.2 43.5 26.2 43.5 26.3 43.6 26.3 43.6 26.3 43.6 26.3 43.6 26.3 43.6 26.3 43.6 26.3 43.6 26.5 43.7 26.8 43.8 27 43.6 27.2 43.5 27.3 43.4 27.3 43.2 27.4 43.2 27.4 43.1 27.4 43.1Z" fill="#FFFFFF"/><path d="M25.5 43.3C24.9 43.3 24.8 44.3 25.4 44.3 26.1 44.3 26.1 43.3 25.5 43.3Z" fill="#FFFFFF"/><path d="M24.7 49.3C24.7 49.4 24.7 49.4 24.7 49.3 24.6 49.3 24.5 49.3 24.4 49.4 24.1 49.5 24 49.8 24 50.1 24 50.3 24.1 50.4 24.3 50.5 24.5 50.6 24.7 50.6 24.9 50.5 25.1 50.4 25.3 50.2 25.4 49.9 25.5 49.6 25.1 49.3 24.7 49.3Z" fill="#FFFFFF"/><path d="M23.4 50.1C23.2 50.1 23.1 50.2 23 50.3 22.9 50.5 22.9 50.7 23 50.9L23 50.9C23.2 51.1 23.6 51.1 23.7 50.9 23.7 50.9 23.7 50.9 23.7 50.9 24 50.5 23.7 50.1 23.4 50.1Z" fill="#FFFFFF"/><path d="M22.9 56.1C22.8 56 22.7 56 22.5 56 22.3 56 22.2 56.1 22.1 56.2 22.1 56.2 22 56.3 22 56.3 22 56.3 22 56.3 21.9 56.3 21.7 56.5 21.6 56.8 21.8 57.1 21.9 57.3 22.1 57.5 22.4 57.5 22.9 57.6 23.3 57.3 23.3 56.8 23.5 56.6 23.2 56.2 22.9 56.1Z" fill="#FFFFFF"/><path d="M21.4 57C20.8 57 20.7 57.9 21.3 57.9 21.9 57.9 22 57 21.4 57Z" fill="#FFFFFF"/><path d="M21.2 63.1C20.9 62.8 20.4 62.8 20.1 63.1 20 63.1 20 63.2 19.9 63.3 19.8 63.5 19.8 63.7 19.9 63.9 20 64.1 20.2 64.3 20.4 64.3 20.5 64.3 20.6 64.3 20.6 64.3 20.6 64.3 20.6 64.3 20.7 64.3 21.2 64.2 21.6 63.5 21.2 63.1Z" fill="#FFFFFF"/><path d="M19.4 63.7C19.3 63.6 19.1 63.6 19 63.6 18.8 63.7 18.6 63.8 18.6 64 18.6 64.2 18.7 64.4 18.9 64.5 19.1 64.5 19.3 64.5 19.4 64.4 19.5 64.3 19.5 64.2 19.6 64.1 19.7 63.9 19.6 63.8 19.4 63.7Z" fill="#FFFFFF"/><path d="M19.1 69.9C19 69.9 19 69.8 19.1 69.9 18.9 69.7 18.8 69.6 18.6 69.6 18.5 69.6 18.3 69.6 18.2 69.6 17.8 69.7 17.7 70 17.7 70.4 17.7 70.5 17.7 70.5 17.8 70.6 17.8 70.9 18.2 71.2 18.6 71.1 18.8 71 19.1 70.9 19.2 70.7 19.3 70.4 19.3 70.1 19.1 69.9Z" fill="#FFFFFF"/><path d="M17.3 70.7C17.1 70.7 16.9 70.8 16.8 71.1 16.8 71.3 17 71.6 17.2 71.6 17.4 71.6 17.6 71.5 17.7 71.2 17.7 70.9 17.5 70.7 17.3 70.7Z" fill="#FFFFFF"/><path d="M16.9 76.9C16.9 76.7 16.8 76.6 16.6 76.5 16.2 76.3 15.8 76.5 15.6 76.9 15.6 77 15.6 77 15.6 77.1 15.6 77.1 15.6 77.2 15.6 77.2 15.6 77.5 15.7 77.7 16 77.9 16 77.9 16 77.9 16 77.9 16.2 78.1 16.5 78 16.7 77.9 16.9 77.8 17 77.7 17 77.5 17 77.2 17 77 16.9 76.9Z" fill="#FFFFFF"/><path d="M15.2 77.4C14.9 77.4 14.7 77.6 14.7 77.8 14.7 78 14.9 78.3 15.1 78.3 15.4 78.3 15.6 78.1 15.6 77.9 15.7 77.7 15.5 77.4 15.2 77.4Z" fill="#FFFFFF"/><path d="M15.1 83.6C15 83.5 15 83.4 14.9 83.4 14.9 83.4 14.9 83.3 14.8 83.3 14.6 83 14.2 83 13.9 83.2 13.8 83.3 13.7 83.5 13.7 83.7 13.6 83.9 13.6 84 13.6 84.2 13.7 84.4 13.8 84.6 14 84.7 14.1 84.8 14.3 84.8 14.4 84.8 14.6 84.8 14.7 84.6 14.8 84.5 14.8 84.5 14.8 84.4 14.9 84.4 15.2 84.1 15.2 83.8 15.1 83.6Z" fill="#FFFFFF"/><path d="M13.1 84.2C12.6 84.2 12.5 85 13 85 13.6 85 13.7 84.2 13.1 84.2Z" fill="#FFFFFF"/><path d="M12.7 90.1C12.7 90.1 12.7 90.1 12.7 90.1 12.6 89.9 12.3 89.9 12.1 89.9 11.9 90 11.7 90.1 11.6 90.3 11.6 90.4 11.6 90.4 11.5 90.5 11.5 90.7 11.5 90.9 11.5 91 11.6 91.2 11.7 91.3 11.9 91.3 12.1 91.4 12.3 91.4 12.5 91.3 12.7 91.2 12.8 91 12.9 90.7 13 90.5 12.9 90.2 12.7 90.1Z" fill="#FFFFFF"/><path d="M11.2 91.1C10.6 91.1 10.5 92.1 11.1 92.1 11.7 92.1 11.8 91.1 11.2 91.1Z" fill="#FFFFFF"/><path d="M11 97.4C11 97.2 10.9 97.1 10.8 97 10.8 97 10.8 97 10.7 96.9 10.5 96.7 10.4 96.7 10.2 96.7 10 96.7 9.9 96.8 9.8 96.9 9.6 97.1 9.5 97.3 9.6 97.5 9.6 97.7 9.7 97.8 9.8 97.9 9.8 98 9.9 98 9.9 98 10 98.1 10.2 98.1 10.4 98.1 10.7 98.2 11.1 97.8 11 97.4Z" fill="#FFFFFF"/><path d="M8.9 97.4C8.3 97.4 8.3 98.3 8.8 98.3 9.4 98.3 9.5 97.4 8.9 97.4Z" fill="#FFFFFF"/><path d="M8.9 103.8C8.8 103.4 8.3 103.3 8 103.5 7.5 103.7 7.5 104.4 7.9 104.7 8 104.8 8.1 105 8.3 105 8.6 105 8.7 104.9 8.9 104.7 9 104.4 9 104.1 8.9 103.8Z" fill="#FFFFFF"/><path d="M6.9 104.3C6.7 104.3 6.5 104.4 6.4 104.7 6.4 104.9 6.6 105.2 6.8 105.2 7 105.2 7.2 105.1 7.3 104.8 7.3 104.5 7.1 104.3 6.9 104.3Z" fill="#FFFFFF"/><path d="M6.7 111.1C6.7 111.1 6.7 111 6.7 111 6.7 110.7 6.5 110.5 6.3 110.3 6 110.2 5.7 110.2 5.5 110.5 5.4 110.6 5.4 110.7 5.4 110.8 5.4 110.9 5.3 111 5.3 111.2 5.3 111.5 5.6 111.8 5.9 111.8 6 111.9 6.2 111.9 6.4 111.8 6.6 111.6 6.8 111.3 6.7 111.1Z" fill="#FFFFFF"/><path d="M4.8 111C4.2 111 4.2 111.9 4.7 111.9 5.3 111.8 5.3 111 4.8 111Z" fill="#FFFFFF"/><path d="M4.5 117.1C3.9 116.7 3 117.4 3.4 118.1 3.5 118.2 3.5 118.3 3.6 118.3 3.6 118.3 3.6 118.3 3.6 118.3 3.7 118.4 3.9 118.5 4 118.5L4 118.5C4 118.5 4 118.5 4 118.5 4.2 118.5 4.4 118.5 4.5 118.4 4.6 118.3 4.7 118.1 4.7 117.9 4.8 117.6 4.7 117.3 4.5 117.1Z" fill="#FFFFFF"/><path d="M2.7 117.6C2.1 117.6 2.1 118.5 2.6 118.5 3.2 118.4 3.3 117.6 2.7 117.6Z" fill="#FFFFFF"/></g></g><path d="M7.4 115.6 33.7 26.7 60.1 115.6 33.8 29.2Z" fill="#929497"/><g><g><g><path d="M47.2 13.7C47.2 21.2 41.1 27.3 33.6 27.3 26.1 27.3 20 21.2 20 13.7 20 6.2 26.1 0.1 33.6 0.1 41.1 0.1 47.2 6.2 47.2 13.7Z" fill="#9C0000"/><path d="M33.6 27.4C26 27.4 19.9 21.2 19.9 13.7 19.9 6.2 26 0 33.6 0 41.2 0 47.3 6.2 47.3 13.7 47.3 21.2 41.2 27.4 33.6 27.4ZM33.6 0.3C26.2 0.3 20.1 6.3 20.1 13.8 20.1 21.2 26.1 27.3 33.6 27.3 41 27.3 47.1 21.3 47.1 13.8 47.1 6.3 41 0.3 33.6 0.3Z" fill="#5C0000"/></g><path d="M33.6 0.1C26.1 0.1 20 6.2 20 13.7 20 21.2 26.1 27.3 33.6 27.3 41.1 27.3 47.2 21.2 47.2 13.7 47.2 6.2 41.1 0.1 33.6 0.1ZM33.6 24.1C27.2 24.1 22 18.9 22 12.5 22.1 6.2 27.2 1 33.6 1 40 1 45.2 6.2 45.2 12.6 45.2 19 40 24.1 33.6 24.1Z" fill="#9C0000" opacity="0.6"/><path d="M33.6 25.8C26.3 25.8 20.4 20.1 20 13 20 13.2 20 13.5 20 13.8 20 21.3 26.1 27.4 33.6 27.4 41.1 27.4 47.2 21.3 47.2 13.8 47.2 13.5 47.2 13.3 47.2 13 46.8 20.1 40.8 25.8 33.6 25.8Z" fill="#9C0000"/><g><path d="M33.6 23.9C28 23.9 23.4 19.3 23.4 13.7 23.4 8.1 28 3.5 33.6 3.5 39.2 3.5 43.8 8.1 43.8 13.7 43.8 19.3 39.2 23.9 33.6 23.9ZM33.6 4.5C28.5 4.5 24.4 8.6 24.4 13.7 24.4 18.8 28.5 22.9 33.6 22.9 38.7 22.9 42.8 18.8 42.8 13.7 42.8 8.6 38.7 4.5 33.6 4.5Z" fill="#9C0000" opacity="0.3"/></g><g><path d="M33.6 23.5C28.2 23.5 23.8 19.1 23.8 13.7 23.8 8.3 28.2 3.9 33.6 3.9 39 3.9 43.4 8.3 43.4 13.7 43.4 19.1 39 23.5 33.6 23.5ZM33.6 4.9C28.7 4.9 24.8 8.9 24.8 13.7 24.8 18.6 28.8 22.5 33.6 22.5 38.5 22.5 42.4 18.5 42.4 13.7 42.4 8.9 38.5 4.9 33.6 4.9Z" fill="#9C0000"/></g><g><path d="M33.6 4.5C28.5 4.5 24.4 8.6 24.4 13.7 24.4 18.8 28.5 22.9 33.6 22.9 38.7 22.9 42.8 18.8 42.8 13.7 42.8 8.6 38.7 4.5 33.6 4.5Z" fill="#FFFF55"/><path d="M33.6 23C28.5 23 24.3 18.8 24.3 13.7 24.3 8.6 28.5 4.4 33.6 4.4 38.7 4.4 42.9 8.6 42.9 13.7 42.9 18.9 38.7 23 33.6 23ZM33.6 4.6C28.6 4.6 24.5 8.7 24.5 13.7 24.5 18.7 28.6 22.8 33.6 22.8 38.6 22.8 42.7 18.7 42.7 13.7 42.7 8.7 38.6 4.6 33.6 4.6Z" fill="#FFB70D"/></g><path d="M33.6 4.5C28.5 4.5 24.4 8.6 24.4 13.7 24.4 18.8 28.5 22.9 33.6 22.9 38.7 22.9 42.8 18.8 42.8 13.7 42.8 8.6 38.7 4.5 33.6 4.5ZM34 20.4C29.7 20.4 26.3 16.9 26.3 12.7 26.3 8.5 29.7 5 34 5 38.3 5 41.7 8.5 41.7 12.7 41.7 17 38.3 20.4 34 20.4Z" fill="#FFB70D" opacity="0.5"/><path d="M33.6 21.7C28.7 21.7 24.7 17.9 24.4 13.1 24.4 13.3 24.4 13.5 24.4 13.7 24.4 18.8 28.5 22.9 33.6 22.9 38.7 22.9 42.8 18.8 42.8 13.7 42.8 13.5 42.8 13.3 42.8 13.1 42.4 17.9 38.5 21.7 33.6 21.7Z" fill="#FFB70D" opacity="0.5"/><g><path d="M33.6 5.8 36 10.5 41.1 11.2 37.4 14.9 38.3 20 33.6 17.6 29 20 29.9 14.9 26.2 11.2 31.3 10.5Z" fill="#9C0000"/><path d="M38.4 20.3 33.6 17.8 28.8 20.3 29.7 15 25.8 11.2 31.2 10.4 33.6 5.5 36 10.4 41.4 11.2 37.5 15 38.4 20.3ZM26.4 11.3 30 14.8 29.1 19.8 33.6 17.5 38.1 19.8 37.2 14.8 40.8 11.3 35.8 10.6 33.6 6.1 31.4 10.6 26.4 11.3Z" fill="#5C0000"/></g><path d="M41.2 11.2 36 10.5 33.7 5.8 31.4 10.5 26.2 11.3 29.9 14.9 29.1 20 33.7 17.6 38.3 20 37.4 14.8 41.2 11.2ZM33.7 16.5 30.3 18.3 31 14.5 28.2 11.8 32 11.2 33.7 7.7 35.4 11.2 39.2 11.8 36.4 14.5 37.1 18.3 33.7 16.5Z" fill="#9C0000"/><g opacity="0.8"><g><path d="M33.6 7.3 31.7 11.2 31.6 11.2 31.7 11.2 33.6 14 33.6 13.9 33.6 13.8Z" fill="#FFFFFF" opacity="0.2"/><path d="M33.6 7.3 33.6 13.8 33.6 13.9 35.5 11.2Z" fill="#FFFFFF"/></g><g><path d="M39.7 11.8 35.5 11.2 33.6 14 33.6 14 39.7 11.8Z" fill="#FFFFFF" opacity="0.2"/><path d="M39.7 11.8 33.6 14 36.7 14.8 39.7 11.8 39.7 11.8Z" fill="#FFFFFF"/></g><g><path d="M33.6 17 37.4 19 33.6 14Z" fill="#FFFFFF"/><path d="M33.6 14 37.4 19 36.7 14.8Z" fill="#FFFFFF" opacity="0.2"/></g><g><path d="M33.6 17 33.6 14 33.6 14 29.8 19Z" fill="#FFFFFF" opacity="0.2"/><path d="M29.8 19 33.6 14 30.5 14.8Z" fill="#FFFFFF"/></g><g><path d="M33.6 14 33.6 14 31.7 11.2 31.6 11.2 27.4 11.8 33.6 14Z" fill="#FFFFFF"/><path d="M33.6 14 27.4 11.8 30.5 14.8 33.6 14Z" fill="#FFFFFF" opacity="0.2"/></g></g></g><path d="M33.7 8.2C33.7 8.1 33.6 8.1 33.7 8.2 33.7 10 33.4 11.9 33.7 13.7 33.7 13.7 33.8 13.7 33.8 13.7 33.8 12.7 33.8 11.7 33.8 10.7 33.8 9.8 34 8.9 33.7 8.2Z" fill="#FFFFFF"/><path d="M33.1 14.3C32 15.5 31 17 30.1 18.3 30.1 18.3 30.1 18.4 30.1 18.3 30.7 17.8 31.1 17 31.5 16.4 32.1 15.8 32.7 15.2 33.1 14.3 33.2 14.4 33.1 14.3 33.1 14.3Z" fill="#FFFFFF"/><path d="M37 18.6C36.4 17.8 35.7 17 35.2 16.1 35 15.7 34.7 15.4 34.5 15 34.3 14.7 34.1 14.3 33.8 14.1 33.8 14.1 33.7 14.1 33.8 14.1 34.2 14.9 34.8 15.5 35.3 16.3 35.7 17.2 36.2 18 37 18.6 36.9 18.8 37 18.7 37 18.6Z" fill="#FFFFFF"/><path d="M33.3 13.8C32.6 13.4 31.7 13.1 30.9 12.8 30 12.4 29 12.1 28.1 11.8 28.1 11.8 28.1 11.8 28.1 11.8 28.8 12.2 29.7 12.4 30.4 12.8 31.4 13.1 32.3 13.6 33.3 13.8 33.3 13.8 33.4 13.8 33.3 13.8Z" fill="#FFFFFF"/><path d="M39.2 11.9C38.3 12.1 37.4 12.6 36.5 13 35.6 13.4 34.6 13.6 33.7 13.9 33.7 13.9 33.7 14 33.7 14 34.5 14 35.4 13.6 36.2 13.3 37.2 12.9 38.3 12.5 39.3 12.1 39.3 12 39.3 11.9 39.2 11.9Z" fill="#FFFFFF"/><path d="M42.2 5.5C41 3.2 38.2 1.9 35.8 1.5 32.9 1 30 1.8 27.7 3.6 27.5 3.7 27.7 3.9 27.9 3.9 28.9 3.7 30 3 31 2.6 32.3 2.2 33.8 2.3 35.2 2.4 37.9 2.7 39.5 4.4 41.6 5.9 41.9 6.2 42.3 5.8 42.2 5.5Z" fill="#FFFFFF" opacity="0.7"/><path d="M43.3 7C43.1 6.8 42.6 7 42.8 7.3 43.2 8 43.3 8.9 43.8 9.6 43.9 9.8 44.2 9.7 44.2 9.5 44.2 8.6 43.9 7.7 43.3 7Z" fill="#FFFFFF" opacity="0.7"/><path d="M38.6 7.2C38 5.5 35.3 5.3 33.9 5.4 31.9 5.5 29.7 6.4 28.4 8.1 28.3 8.3 28.4 8.5 28.6 8.4 29.4 8.2 30.1 7.7 30.8 7.3 31.7 6.8 32.5 6.6 33.5 6.5 34.4 6.4 35.3 6.5 36.2 6.8 36.9 7 37.4 7.6 38.1 7.9 38.5 8 38.8 7.5 38.6 7.2Z" fill="#FFFFFF" opacity="0.7"/><path d="M39.4 8.6C39.2 8.5 39 8.7 39.1 8.9 39.4 9.8 39.9 10.5 40.1 11.4 40.3 12.2 40.2 13 40.6 13.8 40.7 14.1 41.2 14.1 41.3 13.8 41.8 12.1 40.9 9.3 39.4 8.6Z" fill="#FFFFFF" opacity="0.7"/></g></svg>