<svg width="218.4" height="319" viewBox="0 0 218.4 319" xmlns="http://www.w3.org/2000/svg" xmlns:xlink="http://www.w3.org/1999/xlink" overflow="hidden"><defs></defs><g><path d="M174.7 168.1C180.8 106 141.3 27.9 10.3 7.3-6.5 93.1-9.1 222.1 161 187.9 167.9 182.3 174.7 168.1 174.7 168.1Z" fill="#3B540F"/><path d="M147 136.3C157.7 73 119.7 53.7 95.8 40.6 63.3 22.7 19.8 9 8.2 0-4.7 48.7-20.7 208.9 117.8 177.9 72.7 155.2 38.5 97.2 27 60.2 79.4 126.5 103.5 136.8 147 136.3Z" fill="#4C7914"/><path d="M116.6 113.7C110.6 27.3 54.8 43.5 12.2 7.7 20.5 69.5 67.8 127.8 116.6 113.7Z" fill="#619319"/><path d="M18.4 33.5C-11.1 133.3 33.9 173.9 80.4 158.7 25.9 92.8 19.1 51.5 18.4 33.5Z" fill="#619319"/><path d="M209.3 204.3C169.4 206.1 99.4 170 68.6 122.1 106.1 160.5 159.1 186.9 214.4 194.4 225.8 200.7 209.3 204.3 209.3 204.3Z" fill="#ADA328"/></g><g><path d="M182.8 213.4C173.4 209.4 162.3 207.9 150.7 208.4L150.6 208.2C121.2 192.7 94.9 193.6 76.3 207.8 50.1 224.8 41.7 272.7 49.7 310 49 312.7 49 315.6 49.8 319 49.8 314.9 73.9 306.9 111.1 289 134.9 281.6 155.4 265.7 154.9 217.8 166.3 218.8 177.9 221.6 189.3 226.9 198.8 228.2 198.2 221.4 182.8 213.4ZM49.7 309.8C49.7 308.6 49.8 307.5 50.1 306.5 50.7 306 51.3 305.6 51.9 305.1 51 306.5 50.2 308.1 49.7 309.8Z" opacity="0.2"/><path d="M146.2 201.6C86 162.2 33.1 200.8 36.5 290.5 67.3 269.6 142.2 304.2 149.6 210.9" fill="#3E590F"/><path d="M120.9 199.6C60.4 162.8 29.6 238.1 36.3 293.9 37.9 261.5 145.2 285.9 133.5 214.3 107.4 209 67.7 227.3 52.8 253.4 66.9 207.2 120.9 199.6 120.9 199.6Z" fill="#4C7914"/><path d="M35.5 302.6C31.5 277.3 71.9 276.4 99.4 278.4 60.7 292.7 35.9 298.4 35.5 302.6Z" fill="#304708"/><path d="M95.6 201.1C67.5 185.6 38.8 213.8 42.7 266.7 59.3 221.6 86.6 203.4 95.6 201.1Z" fill="#619319"/><path d="M106.6 226C84.5 215.1 41.1 242 38.5 280.8 47.8 259.3 115.6 256.6 106.6 226Z" fill="#619319"/><path d="M177.8 209.8C149 194.2 99.5 202 75.6 226.2 104.4 207.6 146.1 202.4 183 223.8 192.3 226 192.3 219.1 177.8 209.8Z" fill="#ADA328"/></g></svg>