<svg width="315.6" height="218.1" viewBox="0 0 315.6 218.1" xmlns="http://www.w3.org/2000/svg" xmlns:xlink="http://www.w3.org/1999/xlink" overflow="hidden"><defs></defs><g><g><path d="M84.4 148.9C94 67.6 248.4 21.1 285.9 66.8 301.9 86.2 295.1 131.9 270.1 134.3 260.7 135.2 260.2 123.8 261.3 118 263.1 107.7 248.5 103.7 239.1 117.5 224.1 139.6 289.3 165.4 306.6 117.7 320.9 78.4 300.9 55.2 250.2 34.5 189.7 9.8 54.3 105.6 65.2 159" opacity="0.2"/><path d="M63.3 144.2C72.9 62.9 227.3 16.4 264.8 62.1 280.8 81.5 274 127.2 249.1 129.6 239.7 130.5 239.2 119.1 240.2 113.2 242 102.9 227.4 98.9 218 112.7 203 134.9 268.1 160.6 285.5 112.9 299.8 73.6 279.8 50.5 229.1 29.8 168.5 5.3 33.2 101.1 44 154.5" fill="#4E6B00"/><path d="M56.5 126.1C61.5 77.7 196.4-6 258.8 48.1 215.5 14 92.1 66.3 56.5 126.1Z" fill="#5D8E07"/><path d="M277.8 66.5C272.6 75.3 313.3 92.3 315.5 65.7 317.2 44.7 285.4 53.8 277.8 66.5Z" fill="#77A004"/><path d="M313.8 72.8C309 85.2 285.4 76.9 292.9 67.3 300.3 57.8 320.1 56.7 313.8 72.8Z" fill="#88B709"/><path d="M236.5 106C243 114.9 232.5 128 225.8 121.4 219.1 114.8 230 97.1 236.5 106Z" fill="#5D8E07"/><path d="M231.4 31.1C228.3 40.7 273.4 41 269.1 16.9 265.6-2.1 235.9 17.2 231.4 31.1Z" fill="#77A004"/><path d="M269.4 23.5C266.9 36.7 239.2 39.5 245.2 27.7 251.2 16 272.6 6.3 269.4 23.5Z" fill="#88B709"/><path d="M142.6 42.5C134.7 49.6 117.3 3.7 141.6 0.1 160.7-2.6 154.1 32.3 142.6 42.5Z" fill="#77A004"/><path d="M135.2 2.2C123.7 9.9 130.9 43.6 139.8 32.3 148.8 20.9 150.2-7.8 135.2 2.2Z" fill="#88B709"/></g><g><path d="M59 165.3C11.6 181.1 49.5 230 67.9 215.3 86.8 200.2 59.2 185.1 64.7 168.8 81.3 182.1 105.4 163.4 94.8 139.1 84.2 114.7 61.9 139.7 61.5 159.4 40.4 141.9 43.5 108 20.4 122.6-5.2 138.6 29.2 174 59 165.3Z" opacity="0.2"/><path d="M47.6 155.5C0.2 171.2 43.1 211.4 65.8 205.3 81.4 201.1 47.8 175.4 53.3 159 69.9 172.3 94 153.6 83.4 129.2 72.8 104.8 50.6 129.8 50.1 149.5 28.9 132 32 98.1 8.9 112.7-16.6 128.8 17.8 164.1 47.6 155.5Z" fill="#77A004"/><path d="M41.6 197.2C24.5 186.7 27.1 163.8 42.1 170.1 57 176.5 75.3 217.8 41.6 197.2Z" fill="#88B709"/><path d="M32.3 151.7C10.7 146.4-7.4 131.4 8.8 121.7 25.2 111.9 38.4 141.2 32.3 151.7Z" fill="#88B709"/><path d="M70.1 147C58.3 130.6 71.4 118.9 78.2 126.5 85 134 78.7 158.9 70.1 147Z" fill="#88B709"/></g></g></svg>