<svg width="28.3" height="26.7" viewBox="0 0 28.3 26.7" xmlns="http://www.w3.org/2000/svg" xmlns:xlink="http://www.w3.org/1999/xlink" overflow="hidden"><defs></defs><g><g><path d="M1.1 14.4 1.1 14 1.2 14.4 1.4 14 1.3 14.5C1.3 14.5 1.6 14.3 1.7 14.3 1.7 14.3 1.4 14.7 1.4 14.7L2 14.5 1.5 14.8 1.9 15 1.4 15 1.6 15.3 1.3 15.1 1.6 15.7 1.2 15.2 1.2 15.5 1.1 15.2 0.9 15.9 1 15.2 0.8 15.5 1 15.1 0.3 15.5 0.9 15 0 15.1 0.9 14.9 0.4 14.8 0.8 14.8 0.7 14.5 1 14.7 0.6 14 1 14.7 1 14.3 1.1 14.4Z" fill="#75CCF4"/><path d="M26.9 14.2 26.9 13.5 27.1 14.2 27.4 13.6 27.3 14.3C27.3 14.3 27.8 13.9 27.9 13.9 27.9 13.9 27.4 14.6 27.4 14.6L28.4 14.3 27.5 14.8 28.4 15 27.5 15 27.9 15.5 27.4 15.2 27.9 16.2 27.2 15.4 27.2 15.8 27 15.3 26.7 16.5 26.8 15.4 26.4 15.8 26.7 15.2 25.6 15.8 26.7 15.1 25.2 15.3 26.6 15 25.7 14.8 26.4 14.9 26.2 14.5 26.7 14.8 26.2 13.5 26.9 14.6 26.7 14 26.9 14.2Z" fill="#F1852D"/><path d="M25.8 17.4 25.8 17 25.8 17.4 26 17.1 25.9 17.5C25.9 17.5 26.2 17.3 26.2 17.3 26.2 17.3 25.9 17.7 25.9 17.7L26.4 17.6 26 17.8 26.5 17.9 26 17.9 26.2 18.2 26 18 26.2 18.5 25.8 18.1 25.8 18.3 25.8 18 25.6 18.6 25.7 18 25.5 18.2 25.7 17.9 25.1 18.2 25.7 17.8 24.8 18 25.5 17.8 25 17.7 25.4 17.7 25.3 17.5 25.5 17.7 25.4 17 25.8 17.6 25.8 17.4 25.8 17.4Z" fill="#75CCF4"/><path d="M23.2 2.8 23.2 2.1 23.4 2.8 23.7 2.2 23.6 2.9C23.6 2.9 24.1 2.5 24.2 2.5 24.2 2.5 23.7 3.2 23.7 3.2L24.7 2.9 23.8 3.4 24.7 3.6 23.8 3.6 24 4.2 23.5 3.9 24 4.9 23.3 4 23.3 4.4 23.2 4 22.9 5.2 22.9 4 22.5 4.4 22.8 3.8 21.7 4.4 22.8 3.7 21.3 3.9 22.7 3.6 22 3.4 22.7 3.5 22.4 3 22.9 3.3 22.4 2 23.1 3.1 23 2.6 23.2 2.8Z" fill="#F1852D"/><path d="M17.7 24.1 17.7 23.6 17.8 24.1 18 23.6 17.9 24.2C17.9 24.2 18.3 23.9 18.4 23.9 18.4 23.9 18 24.5 18 24.5L18.8 24.3 18.1 24.7 18.8 24.9 18.1 24.9 18.4 25.3 18 25 18.4 25.8 17.8 25.2 17.8 25.5 17.7 25.1 17.4 26 17.5 25.1 17.2 25.4 17.5 24.9 16.7 25.4 17.6 24.8 16.3 25 17.4 24.8 16.7 24.6 17.3 24.7 17.1 24.4 17.5 24.6 17.1 23.6 17.6 24.5 17.5 24 17.7 24.1Z" fill="#FAB74D"/><path d="M10 23.8 10 23.6 10 23.8 10.1 23.6 10.1 23.9C10.1 23.9 10.3 23.8 10.3 23.8 10.3 23.8 10.1 24 10.1 24L10.4 23.9 10.1 24 10.4 24.1 10.1 24.1 10.2 24.3 10 24.2 10.2 24.5 10 24.2 10 24.3 10 24.2 9.9 24.6 9.9 24.2 9.8 24.3 9.9 24.1 9.5 24.3 9.9 24.1 9.4 24.2 9.9 24 9.6 24 9.8 24 9.7 23.9 9.9 24 9.7 23.6 9.9 24 10 23.8 10 23.8Z" fill="#FAB74D"/><path d="M10 15.7 10 15.5 10 15.7 10.1 15.5 10 15.7C10.1 15.7 10.2 15.6 10.2 15.6 10.2 15.6 10.1 15.8 10.1 15.8L10.3 15.7 10.1 15.8 10.3 15.8 10.1 15.8 10.2 15.9 10.1 16 10.2 16.2 10 16 10 16.1 10 16 9.9 16.3 9.9 16 9.8 16.1 9.9 16 9.6 16.1 9.9 15.9 9.5 15.9 9.9 15.8 9.7 15.7 9.9 15.7 9.8 15.6 9.9 15.7 9.8 15.4 10 15.7 10 15.7 10 15.7Z" fill="#FAB74D"/><path d="M9.6 8.7 9.6 8.5 9.6 8.7 9.7 8.5 9.6 8.7C9.7 8.7 9.8 8.6 9.8 8.6 9.8 8.6 9.7 8.8 9.7 8.8L10 8.7 9.8 8.9 10 8.9 9.8 8.9 9.9 9 9.7 9 9.8 9.3 9.7 9 9.7 9.1 9.7 9 9.6 9.3 9.6 9 9.5 9.1 9.6 8.9 9.3 9.1 9.6 8.9 9.2 9 9.6 8.9 9.3 8.8 9.5 8.8 9.5 8.7 9.6 8.8 9.4 8.5 9.6 8.7 9.6 8.7 9.6 8.7Z" fill="#FAB74D"/><path d="M16.1 7.2 16.1 7 16.1 7.2 16.2 7 16.1 7.2C16.2 7.2 16.3 7.1 16.3 7.1 16.3 7.1 16.2 7.3 16.2 7.3L16.4 7.2 16.2 7.3 16.4 7.3 16.2 7.3 16.3 7.4 16.2 7.3 16.3 7.6 16.1 7.4 16.1 7.5 16.1 7.4 16 7.8 16 7.5 15.9 7.6 16 7.5 15.7 7.7 16 7.4 15.6 7.4 16 7.4 15.8 7.3 16 7.3 15.9 7.2 16 7.3 15.9 7 16.1 7.2 16.1 7.2 16.1 7.2Z" fill="#FAB74D"/><path d="M16.2 11.9 16.2 11.7 16.2 11.9 16.3 11.7 16.2 11.9C16.3 11.9 16.4 11.8 16.4 11.8 16.4 11.8 16.3 12 16.3 12L16.5 11.9 16.3 12 16.5 12 16.3 12 16.4 12.1 16.3 12 16.4 12.3 16.2 12.1 16.2 12.2 16.2 12.1 16.1 12.4 16.1 12.1 16 12.2 16.1 12 15.8 12.1 16.1 11.9 15.7 11.9 16.1 11.8 15.9 12 16.1 12 16 11.9 16.1 12 16 11.7 16.2 11.9 16.2 11.9 16.2 11.9Z" fill="#00ADE9"/><path d="M6 11.8 6 11.6 6 11.8 6.1 11.6 6 11.8C6.1 11.8 6.2 11.7 6.2 11.7 6.2 11.7 6.1 11.9 6.1 11.9L6.3 11.8 6.1 11.9 6.3 11.9 6.1 11.9 6.2 12 6.1 12 6.2 12.3 6 12.1 6 12.2 6 12.1 5.9 12.4 5.9 12.1 5.8 12.2 6 12 5.7 12.1 6 12 5.6 12 5.9 12 5.7 11.9 5.9 11.9 5.8 11.8 6 11.9 5.9 11.6 6 11.8 6 11.8 6 11.8Z" fill="#00ADE9"/><path d="M6.1 17.6 6.1 17.4 6.1 17.6 6.2 17.4 6.1 17.6C6.2 17.6 6.3 17.5 6.3 17.5 6.3 17.5 6.2 17.7 6.2 17.7L6.4 17.6 6.2 17.7 6.4 17.7 6.2 17.7 6.3 17.8 6.2 17.7 6.3 18 6.1 17.8 6.1 17.9 6.1 17.8 6 18.2 6 17.9 5.9 18 6 17.8 5.7 18 6 17.8 5.6 17.8 6 17.8 5.8 17.7 6 17.7 5.9 17.6 6 17.7 5.9 17.4 6.1 17.6 6.1 17.6 6.1 17.6Z" fill="#00ADE9"/><path d="M20.7 13.5 20.7 13.3 20.7 13.5 20.8 13.3 20.7 13.5C20.8 13.5 20.9 13.4 20.9 13.4 20.9 13.4 20.8 13.6 20.8 13.6L21 13.5 20.8 13.6 21 13.6 20.8 13.6 20.9 13.7 20.8 13.6 20.9 13.9 20.7 13.7 20.7 14 20.7 13.9 20.6 14.2 20.6 13.9 20.5 14 20.6 13.8 20.3 13.9 20.6 13.7 20.2 13.7 20.6 13.6 20.4 13.5 20.6 13.5 20.5 13.4 20.6 13.5 20.5 13.2 20.7 13.5 20.7 13.5 20.7 13.5Z" fill="#00ADE9"/><path d="M5 21.7 5 21.4 5 21.7 5.2 21.4 5.1 21.8C5.1 21.8 5.4 21.6 5.4 21.6 5.4 21.6 5.2 22 5.2 22L5.7 21.9 5.3 22.2 5.7 22.3 5.3 22.3 5.5 22.6 5.3 22.4 5.5 22.9 5.1 22.5 5.1 22.7 5 22.4 4.8 23 4.9 22.4 4.7 22.6 4.9 22.3 4.4 22.6 4.9 22.2 4.1 22.3 4.8 22.2 4.4 22 4.8 22 4.7 21.8 4.9 22 4.6 21.4 5 21.9 5 21.7 5 21.7Z" fill="#00ADE9"/><path d="M5.8 3.7 5.8 3.2 5.9 3.7 6.1 3.3 6 3.8C6 3.8 6.4 3.5 6.4 3.5 6.4 3.5 6.1 4 6.1 4L6.8 3.8 6.1 4.2 6.7 4.3 6.1 4.3 6.4 4.7 6.1 4.5 6.4 5.2 5.9 4.6 5.9 4.9 5.8 4.6 5.5 5.4 5.6 4.6 5.3 4.9 5.5 4.5 4.8 4.9 5.6 4.4 4.5 4.5 5.5 4.3 4.9 4.1 5.4 4.2 5.3 3.9 5.6 4.1 5.2 3.2 5.7 4 5.6 3.6 5.8 3.7Z" fill="#F1852D"/><path d="M21.7 5.8 21.7 5.3 21.8 5.8 22 5.3 21.9 5.8C21.9 5.8 22.3 5.5 22.3 5.5 22.3 5.5 22 6 22 6L22.7 5.8 22 6.2 22.6 6.3 22 6.3 22.3 6.7 22 6.5 22.3 7.2 21.8 6.6 21.8 6.9 21.7 6.6 21.4 7.4 21.5 6.6 21.2 7 21.5 6.5 20.7 6.9 21.5 6.4 20.4 6.5 21.4 6.3 20.8 6.1 21.3 6.2 21.1 5.9 21.4 6.1 21 5.2 21.6 6 21.5 5.6 21.7 5.8Z" fill="#00ADE9"/></g><g><path d="M17.5 9.8C17.1 9.7 16.7 9.9 16.4 10 16 10.2 15.6 10.5 15.3 10.9 14.8 11.5 14.3 12.3 14.1 13.1 14.1 13.1 14.1 13.1 14.1 13.1 14.4 12.4 14.9 11.8 15.5 11.3 15.8 11.1 16.1 10.9 16.5 10.7 16.8 10.5 17.2 10.5 17.5 10.2 17.6 10.1 17.7 9.8 17.5 9.8Z" fill="#75CCF4"/><path d="M20.2 6.4C20 6.1 19.6 6.2 19.3 6.3 19 6.4 18.6 6.5 18.3 6.7 17.7 7.1 17.2 7.5 16.7 8 16.3 8.5 15.8 9 15.5 9.5 15.1 10 14.9 10.6 14.6 11.2 14.6 11.2 14.6 11.2 14.6 11.2 14.8 11 14.9 10.7 15 10.5 15.2 10.2 15.4 10 15.6 9.8 16.5 8.8 17.6 8.1 18.9 7.7 19.2 7.6 20.8 7.1 20.2 6.4Z" fill="#F1852D"/><path d="M17.6 2.7C16.9 2.7 16.3 3.4 15.9 3.9 15.4 4.5 15.2 5.2 15 5.9 14.6 7.3 14.3 8.8 14.4 10.3 14.4 10.3 14.4 10.3 14.4 10.3 14.5 8.8 15 7.5 15.7 6.2 16 5.6 16.3 5.1 16.7 4.6 17.1 4.1 17.7 3.7 17.9 3.1 17.9 2.9 17.8 2.7 17.6 2.7Z" fill="#F1852D"/><path d="M20.5 3.9C20.2 3.6 19.6 3.8 19.3 4 18.8 4.2 18.4 4.6 18.1 4.9 17.8 5.2 17.5 5.6 17.3 5.9 17.2 6.1 17.1 6.2 17 6.4 16.9 6.6 16.8 6.7 16.7 6.9 16.7 6.9 16.7 6.9 16.7 6.9 16.9 6.6 17.3 6.3 17.5 6.1 17.8 5.9 18.2 5.6 18.5 5.5 18.9 5.3 19.2 5.1 19.6 4.9 20 4.7 20.4 4.6 20.6 4.2 20.6 4.1 20.6 4 20.5 3.9Z" fill="#00ADE9"/><path d="M25.3 7.8C24.8 7.4 24.3 7.3 23.6 7.3 22.9 7.3 22.2 7.4 21.6 7.6 21 7.8 20.3 8.1 19.7 8.3 19.5 8.4 19.3 8.5 19.1 8.6 19.1 8.6 19.1 8.6 19 8.6 18.9 8.7 18.8 8.8 18.7 8.9 18.8 9 18.9 9 19 9 19.3 8.9 19.6 8.8 19.8 8.8 20.6 8.6 21.5 8.5 22.3 8.5 23.2 8.4 24.2 8.6 25.1 8.3 25.3 8.1 25.4 8 25.3 7.8Z" fill="#00ADE9"/><path d="M26.6 10.6C25.8 10.2 24.8 9.9 23.9 9.8 22.9 9.7 21.9 9.8 21 10 20.1 10.1 19.2 10.4 18.3 10.8 17.5 11.2 16.7 11.8 15.9 12.3 15.9 12.3 15.9 12.3 15.9 12.3 16.9 11.8 17.8 11.3 18.9 11.1 20.5 10.8 22.1 10.6 23.7 10.7 24.6 10.7 25.6 10.8 26.5 10.9 26.7 10.8 26.8 10.6 26.6 10.6Z" fill="#F1852D"/><path d="M12.9 6.1C12.8 5.2 12.5 4.4 12.1 3.5 11.7 2.7 11.2 1.9 10.6 1.2 10.4 0.9 10 0.7 9.7 0.4 9.3 0.2 9 0 8.5 0 8.4 0 8.2 0.2 8.4 0.3 8.7 0.5 8.9 0.8 9.2 1 9.5 1.3 9.9 1.5 10.1 1.9 10.7 2.6 11.1 3.3 11.5 4 12.3 5.5 13 7 13.1 8.7 13.1 8.7 13.1 8.7 13.1 8.7 13.2 7.9 13.1 7 12.9 6.1Z" fill="#00ADE9"/><path d="M14.2 2.5C14.1 2.5 14 2.5 13.9 2.6 13.6 3 13.7 3.6 13.7 4.1 13.7 4.2 13.7 4.3 13.8 4.4 13.8 4.5 13.8 4.7 13.8 4.8 13.8 5.1 13.8 5.3 13.9 5.6 14 6.6 14 7.7 13.9 8.7 13.9 8.7 13.9 8.7 13.9 8.7 14.1 7.6 14.3 6.5 14.5 5.4 14.5 5.1 14.6 4.9 14.6 4.6 14.6 4.5 14.6 4.4 14.6 4.3 14.6 4.2 14.7 4 14.7 3.8 14.6 3.4 14.6 2.7 14.2 2.5Z" fill="#75CCF4"/><path d="M15.6 3.1C15.6 3 15.7 3 15.7 2.9 15.7 2.9 15.7 2.8 15.7 2.7 15.8 2.4 15.9 2.2 15.9 1.9 16 1.5 16.1 0.7 15.5 0.7 15.4 0.7 15.3 0.8 15.2 0.9 15.1 1.2 15.2 1.6 15.3 1.9 15.4 2.2 15.7 2.7 15.6 3.1Z" fill="#FAB74D"/><path d="M13 9.6C13 9.4 12.9 9.1 12.9 8.9 12.8 8.3 12.6 7.8 12.3 7.3 12.1 6.8 11.8 6.3 11.4 5.9 11.1 5.4 10.7 5 10.2 4.7 10.1 4.6 9.9 4.8 10 4.9 10.5 5.9 11.2 6.6 11.7 7.6 12 8 12.2 8.5 12.4 8.9 12.6 9.4 12.9 9.8 13 10.3 13 10.3 13 10.3 13 10.3 13 10.1 13 9.9 13 9.6Z" fill="#F1852D"/><path d="M10.8 3.5C10.6 3.3 10.4 3 10 3 9.9 3 9.8 3.2 9.8 3.3 9.9 3.9 10.7 3.8 11 4.2 11 4.2 11 4.2 11 4.2 11 4 10.9 3.7 10.8 3.5Z" fill="#FAB74D"/><path d="M10.1 8C9.9 8 9.8 8.2 9.9 8.3 10.5 9 11.1 9.6 11.7 10.3 12 10.7 12.2 11 12.5 11.4 12.7 11.8 13 12.2 13.2 12.6 13.2 12.6 13.3 12.6 13.3 12.6 13.1 10.8 11.8 8.9 10.1 8Z" fill="#FAB74D"/><path d="M11.3 8C11 7.1 10.4 6.3 9.7 5.7 9 5.1 8 4.2 7 4.4 6.8 4.4 6.7 4.6 6.8 4.8 7 5.3 7.4 5.4 7.8 5.6 8.3 5.7 8.7 6 9.1 6.3 9.5 6.6 9.9 6.8 10.3 7.1 10.6 7.4 11 7.6 11.3 8 11.3 8.1 11.3 8 11.3 8Z" fill="#75CCF4"/><path d="M14 10.3C14 10.2 13.8 10.2 13.8 10.3 13.7 10.7 13.6 11 13.6 11.4 13.6 11.6 13.6 11.8 13.6 12 13.6 12.2 13.7 12.4 13.7 12.6 13.7 12.6 13.7 12.7 13.8 12.6 13.9 12.5 13.9 12.4 13.9 12.4 13.9 12.2 14 11.9 14 11.7 14 11.2 14 10.8 14 10.3Z" fill="#00ADE9"/><path d="M12.7 12.8C12.6 12.6 12.5 12.5 12.5 12.3 12.4 12.1 12.3 12 12.2 11.8 12 11.5 11.8 11.2 11.5 10.9 11 10.3 10.4 9.7 9.7 9.3 8.5 8.4 7 7.4 5.4 7.5 5.3 7.5 5.1 7.7 5.3 7.8 5.6 8 5.9 8.1 6.1 8.2 6.4 8.4 6.8 8.5 7.1 8.7 7.9 9 8.6 9.4 9.2 9.9 9.8 10.3 10.4 10.8 11 11.2 11.3 11.4 11.6 11.7 11.8 11.9 12.2 12.2 12.4 12.5 12.7 12.8 12.7 12.9 12.7 12.8 12.7 12.8Z" fill="#F1852D"/><path d="M9 7.6C8.8 7.3 8.4 7.1 8.1 6.9 7.7 6.6 7.4 6.3 6.9 6 6.5 5.8 6.1 5.5 5.6 5.3 5.2 5.1 4.7 4.9 4.2 5 4.1 5.1 4 5.3 4.1 5.4 4.4 5.6 4.8 5.7 5.2 5.9 5.6 6.1 6.1 6.3 6.5 6.4 7 6.6 7.4 6.8 7.8 7 8.2 7.2 8.6 7.4 9 7.6 9 7.7 9 7.7 9 7.6Z" fill="#00ADE9"/><path d="M12.3 13C12.2 12.7 11.9 12.5 11.7 12.4 11.4 12.2 11 12 10.6 11.8 10.2 11.6 9.7 11.5 9.3 11.4 9 11.3 8.6 11.2 8.3 11.3 8.2 11.4 8.1 11.6 8.2 11.7 8.4 11.9 8.8 11.8 9.1 11.9 9.5 12 9.9 12.1 10.3 12.2 10.7 12.3 11 12.4 11.3 12.6 11.5 12.7 11.6 12.8 11.8 12.8 11.9 12.8 12.1 12.9 12.3 13 12.3 13 12.3 13 12.3 13Z" fill="#00ADE9"/><path d="M7.3 11.1C6.8 11 6.4 10.9 5.9 10.8 5.4 10.7 4.9 10.7 4.4 10.6 3.4 10.5 2.3 10.6 1.5 11.2 1.3 11.3 1.3 11.6 1.6 11.7 2.1 11.7 2.5 11.5 2.9 11.4 3.4 11.3 3.9 11.2 4.3 11.1 4.8 11.1 5.3 11.1 5.8 11 6.3 11 6.8 11.1 7.3 11.1 7.3 11.1 7.3 11.1 7.3 11.1Z" fill="#75CCF4"/><path d="M8.9 10.4C8.6 10.2 8.2 10 7.8 9.8 7.4 9.6 7 9.4 6.5 9.3 6.2 9.1 5.8 9.1 5.4 9 4.9 8.9 4.5 8.8 4 9 3.9 9 3.9 9.3 4 9.3 4.4 9.4 4.7 9.4 5.1 9.5 5.6 9.6 6 9.7 6.4 9.8 7.3 10 8.1 10.2 8.9 10.4 8.9 10.4 9 10.4 8.9 10.4Z" fill="#00ADE9"/><path d="M10 12.6C9.7 12.6 9.5 12.5 9.2 12.4 8.8 12.3 8.5 12.3 8.1 12.2 7.3 12.1 6.6 12 5.9 12 4.6 12 2.8 12.1 2 13.2 1.9 13.4 1.9 13.6 2.1 13.6 2.7 13.7 3.4 13.3 3.9 13.2 4.6 13 5.2 12.9 5.9 12.8 6.6 12.7 7.3 12.6 7.9 12.6 8.3 12.6 8.6 12.5 9 12.5 9.4 12.6 9.7 12.6 10 12.6 10 12.6 10 12.6 10 12.6Z" fill="#F1852D"/><path d="M9.8 13.2C9.3 13 8.8 13 8.3 13.1 7.7 13.2 7 13.4 6.5 13.8 6.3 14 6.3 14.3 6.6 14.2 7.1 14.1 7.7 13.8 8.2 13.7 8.7 13.6 9.2 13.3 9.8 13.2 9.8 13.2 9.8 13.2 9.8 13.2Z" fill="#00ADE9"/><path d="M8.8 14.3C8 14.6 7.3 14.9 6.5 15.3 5.7 15.7 5 16.2 4.3 16.8 3.7 17.4 3.1 18.1 2.7 18.8 2.5 19.2 2.3 19.6 2.2 20 2.1 20.4 1.9 20.9 2.1 21.3 2.2 21.5 2.5 21.6 2.6 21.4 2.9 21.2 3.1 20.8 3.2 20.4 3.3 20.1 3.5 19.7 3.6 19.4 3.9 18.7 4.4 18.1 4.9 17.5 6 16.2 7.4 15.2 8.8 14.3 8.8 14.3 8.8 14.3 8.8 14.3Z" fill="#F1852D"/><path d="M12.1 14.6C10.9 15.4 9.8 16.6 8.9 17.7 8.4 18.3 8.1 19.1 7.7 19.8 7.4 20.5 7.1 21.3 7.2 22 7.2 22.2 7.4 22.2 7.5 22.1 7.9 21.6 8.2 20.8 8.4 20.2 8.7 19.5 9 18.8 9.4 18.1 9.7 17.5 10.1 16.9 10.5 16.3 11.1 15.7 11.5 15.1 12.1 14.6 12.1 14.6 12.1 14.6 12.1 14.6Z" fill="#00ADE9"/><path d="M8.7 16.5C7.9 17 7.2 17.5 6.5 18.2 5.8 18.9 5.2 19.8 5 20.7 4.9 21.1 5.4 21.1 5.6 20.8 6 20 6.4 19.2 6.9 18.5 7.5 17.8 8 17.1 8.7 16.5 8.7 16.5 8.7 16.4 8.7 16.5Z" fill="#75CCF4"/><path d="M6.8 20.5C6.5 20.9 6.2 21.4 6 21.9 5.8 22.5 5.7 23.1 5.7 23.7 5.7 24 6.1 23.9 6.1 23.7 6.3 22.6 6.5 21.5 6.8 20.5 6.8 20.5 6.8 20.5 6.8 20.5Z" fill="#00ADE9"/><path d="M11.6 14C10.1 14.3 8.1 14.6 7.3 16.2 7.2 16.4 7.4 16.5 7.5 16.5 7.9 16.4 8.1 16.1 8.4 15.9 8.7 15.7 9 15.4 9.3 15.2 10.1 14.6 10.8 14.4 11.6 14 11.6 14.1 11.6 14 11.6 14Z" fill="#FAB74D"/><path d="M5.2 15.3C4.4 15.5 3.5 15.7 2.8 16.2 2.4 16.5 2.1 16.8 1.8 17.1 1.5 17.4 1.2 17.8 1.3 18.2 1.3 18.4 1.5 18.5 1.6 18.4 1.9 18.3 2.2 18 2.4 17.7 2.7 17.4 2.9 17.1 3.2 16.8 3.8 16.3 4.4 15.7 5.2 15.3 5.2 15.3 5.2 15.3 5.2 15.3Z" fill="#00ADE9"/><path d="M13.2 15.2C13.2 15.2 13.1 15.2 13.2 15.2 12.7 16.4 12.2 17.7 12.2 19 12.2 19.4 12.7 19.2 12.7 19 13.1 17.8 13.2 16.5 13.2 15.2Z" fill="#F1852D"/><path d="M13.8 14.2C13.8 14.2 13.8 14.2 13.8 14.2 13.7 14.7 13.6 15.2 13.5 15.7 13.5 16.3 13.4 16.8 13.3 17.4 13.2 18.5 13.1 19.7 13.3 20.8 13.3 21 13.6 20.9 13.7 20.7 13.8 20.2 13.9 19.6 13.9 19 13.9 18.4 14 17.9 14 17.3 14 16.3 14 15.3 13.8 14.2Z" fill="#00ADE9"/><path d="M12 16.7C11.6 17.5 11.1 18.2 10.8 19 10.6 19.4 10.5 19.8 10.4 20.2 10.3 20.6 10.3 21 10.3 21.5 10.3 21.8 10.7 21.7 10.8 21.5 11.1 20.7 11.3 19.9 11.5 19.1 11.6 18.7 11.7 18.2 11.8 17.8 11.8 17.5 11.9 17.1 12 16.7 12 16.7 12 16.7 12 16.7Z" fill="#75CCF4"/><path d="M9 20.7C9 20.8 8.9 21 8.8 21.1 8.5 21.7 8.1 22.6 8.3 23.4 8.4 23.6 8.6 23.6 8.7 23.4 9.2 22.8 9.2 21.9 9.5 21.1 9.6 20.7 9.7 20.4 9.8 20 9.9 19.8 10 19.6 10 19.3 9.7 19.8 9.4 20.3 9 20.7Z" fill="#FAB74D"/><path d="M12.5 22.2C12.5 21.6 12.5 21.1 12.4 20.5 12.4 20.5 12.4 20.5 12.3 20.5 12 21.6 11.6 22.8 11.8 24 11.9 24.3 12.3 24.1 12.3 23.9 12.5 23.4 12.5 22.8 12.5 22.2Z" fill="#00ADE9"/><path d="M13.1 14.1C12.8 14.4 12.4 14.7 12.1 15 11.8 15.4 11.5 15.8 11.4 16.2 11.4 16.4 11.6 16.4 11.7 16.3 11.9 16 12.1 15.6 12.3 15.2 12.5 14.9 12.9 14.6 13.1 14.1 13.1 14.1 13.1 14.1 13.1 14.1Z" fill="#FAB74D"/><path d="M4.8 14.2C4.3 14.2 3.7 14.4 3.2 14.6 2.6 14.8 2 15.1 1.6 15.7 1.5 15.9 1.5 16.1 1.8 16.1 2.4 16 2.8 15.6 3.3 15.3 3.7 14.8 4.3 14.4 4.8 14.2 4.8 14.2 4.8 14.2 4.8 14.2Z" fill="#FAB74D"/><path d="M16.5 18.7C16.3 18.1 16.1 17.5 15.9 16.9 15.7 16.3 15.4 15.8 15.1 15.2 15 15 14.8 14.7 14.6 14.5 14.5 14.4 14.4 14.3 14.4 14.2 14.3 14.1 14.2 14 14.1 13.9 14.1 13.9 14.1 13.9 14.1 13.9 14.1 14 14.1 14 14.2 14.1 14.3 14.2 14.3 14.4 14.4 14.5 14.5 14.8 14.6 15 14.7 15.3 14.9 15.9 15.1 16.5 15.3 17.1 15.5 17.7 15.6 18.2 15.8 18.8 16 19.4 16.1 19.9 16.3 20.5 16.4 20.7 16.6 20.6 16.6 20.4 16.7 19.9 16.6 19.3 16.5 18.7Z" fill="#00ADE9"/><path d="M19 21.6C18.8 21.1 18.6 20.5 18.3 20 18.1 19.5 17.8 19 17.5 18.6 17.4 18.4 17.2 18.1 17 17.9 17.2 18.5 17.3 19.1 17.4 19.7 17.5 19.9 17.5 20.1 17.6 20.3 17.8 20.8 18 21.4 18.2 21.9 18.4 22.4 18.5 22.9 18.9 23.3 19 23.4 19.2 23.3 19.2 23.2 19.3 22.6 19.2 22.2 19 21.6Z" fill="#00ADE9"/><path d="M15.3 26.5C15.4 26.7 15.6 26.8 15.8 26.6 15.9 26.5 15.9 26.4 16 26.4 16.1 25.8 16.1 25.2 16.1 24.7 16.1 23.7 16 22.7 15.9 21.6 15.7 20.6 15.4 19.7 15.1 18.8 15.2 19.2 15.1 19.9 15.1 20.3 15.1 20.8 15.1 21.4 15.1 21.9 15.1 22.9 15.1 23.9 15.2 24.8 15.2 25.2 15.3 25.6 15.3 26 15.2 26.2 15.2 26.4 15.3 26.5Z" fill="#F1852D"/><path d="M20.2 20.7C20 20 19.8 19.3 19.4 18.7 19 18.1 18.6 17.6 18.2 17 17.8 16.4 17.3 15.9 16.7 15.4 16.2 14.9 15.6 14.5 14.9 14.2 14.9 14.2 14.9 14.2 14.9 14.2 15.5 14.6 15.9 15.2 16.3 15.7 16.8 16.3 17.2 16.9 17.6 17.5 18 18 18.3 18.5 18.7 19 19.1 19.6 19.4 20.2 19.9 20.8 20 21.1 20.2 20.9 20.2 20.7Z" fill="#00ADE9"/><path d="M22.9 22.1C22.7 21.4 22.5 20.8 22.1 20.1 21.6 19.2 20.9 18.4 20.2 17.6 19.5 16.9 18.7 16.4 17.9 15.9 17.9 15.9 17.9 15.9 17.9 15.9 18.1 16.1 18.3 16.3 18.5 16.5 19.6 17.7 20.6 19.1 21.4 20.5 21.8 21.1 22.1 21.6 22.6 22.1 22.8 22.4 22.9 22.2 22.9 22.1Z" fill="#F1852D"/><path d="M26.1 13.5C25.4 12.9 24.6 12.6 23.7 12.4 21.8 12 20.1 11.9 18.2 12.2 17.3 12.4 16.4 12.6 15.6 13 15.6 13 15.6 13 15.6 13 17.3 12.4 19.1 12.5 20.8 12.8 21.6 12.9 22.4 13.1 23.3 13.3 24.1 13.5 24.9 13.8 25.8 13.9 26.1 13.9 26.2 13.7 26.1 13.5Z" fill="#00ADE9"/><path d="M27.1 16.5C27.1 16 26.6 15.7 26.2 15.5 25.7 15.2 25.1 15 24.5 14.7 24 14.5 23.4 14.3 22.9 14.2 22.3 14.1 21.8 13.9 21.2 13.8 21.2 13.8 21.2 13.8 21.2 13.8 22.2 14.1 23.2 14.6 24.2 15.1 24.6 15.3 25.1 15.6 25.5 15.9 25.6 16 27.2 17.3 27.1 16.5Z" fill="#00ADE9"/><path d="M23.8 16.3C22.8 15.3 21.4 14.6 20 14.1 19.3 13.9 18.6 13.7 17.9 13.6 17.5 13.5 17.2 13.5 16.8 13.5 16.6 13.5 16.3 13.5 16.1 13.6 16.1 13.6 16.1 13.6 16.1 13.6 16.4 13.6 16.7 13.7 17 13.8 17.3 13.9 17.6 14 17.9 14.1 18.5 14.4 19.2 14.6 19.8 14.9 21.1 15.5 22.3 16.1 23.6 16.6 23.8 16.6 23.9 16.4 23.8 16.3Z" fill="#FAB74D"/><path d="M23.8 18.7C23.5 18 22.9 17.6 22.3 17.1 21.7 16.7 21.2 16.3 20.5 15.9 19.3 15.2 17.8 14.5 16.4 14.3 16.4 14.3 16.4 14.3 16.4 14.3 17 14.5 17.6 15 18.2 15.3 18.8 15.6 19.4 16 20.1 16.4 20.7 16.7 21.3 17.1 21.8 17.5 22.1 17.7 22.4 17.9 22.7 18.2 23 18.5 23.2 18.7 23.6 18.9 23.7 18.9 23.8 18.8 23.8 18.7Z" fill="#F1852D"/><path d="M26.9 21.1C26.9 20.8 26.6 20.3 26.6 20.2 26.3 19.6 25.9 19 25.4 18.5 24.8 17.8 23.9 17.1 22.9 16.9 22.9 16.9 22.9 16.9 22.9 16.9 23.4 17.2 23.8 17.8 24.2 18.3 24.7 18.9 25.3 19.6 25.8 20.2 26 20.4 26.5 21.3 26.8 21.2 26.8 21.3 26.9 21.2 26.9 21.1Z" fill="#FAB74D"/><path d="M24.1 21.2C23.8 20.8 23.5 20.4 23.1 20 22.7 19.6 22.3 19.3 21.9 19 21.9 19 21.9 19 21.9 19 22.2 19.4 22.5 19.7 22.8 20.1 23.1 20.5 23.3 21 23.6 21.4 24.1 22.3 24.5 23.2 25 24 25.1 24.2 25.4 24 25.4 23.8 25.3 22.9 24.7 21.9 24.1 21.2Z" fill="#00ADE9"/><path d="M13.8 23.8C13.8 23.6 13.7 23.3 13.7 23.1 13.6 22.9 13.6 22.7 13.6 22.5 13.6 22.4 13.5 22.5 13.5 22.5 13.5 22.7 13.4 22.9 13.4 23.1 13.4 23.4 13.3 23.6 13.3 23.9 13.2 24.3 13.2 24.8 13.4 25.2 13.5 25.4 13.8 25.3 13.8 25.1 13.9 24.7 13.8 24.3 13.8 23.8Z" fill="#75CCF4"/><path d="M28.3 12.9C28.2 12.2 27.3 11.9 26.8 11.8 26.4 11.7 26 11.7 25.6 11.6 25.2 11.6 24.9 11.5 24.5 11.6 24.5 11.6 24.5 11.6 24.5 11.6 25.1 11.8 25.7 12.1 26.3 12.4 26.6 12.5 26.9 12.7 27.2 12.8 27.5 13 27.7 13.1 28.1 13.1 28.2 13.2 28.4 13.1 28.3 12.9Z" fill="#FAB74D"/><path d="M21.3 9.1C21 9 20.8 9.1 20.5 9.1 20.1 9.2 19.7 9.4 19.4 9.6 20 9.4 20.7 9.5 21.3 9.3 21.4 9.3 21.5 9.1 21.3 9.1Z" fill="#00ADE9"/></g></g></svg>