<svg width="413.1" height="413.1" viewBox="0 0 413.1 413.1" xmlns="http://www.w3.org/2000/svg" xmlns:xlink="http://www.w3.org/1999/xlink" overflow="hidden"><defs></defs><g id="no_x5F_button_1_"><linearGradient x1="206.575" y1="289.226" x2="206.575" y2="123.924" gradientUnits="userSpaceOnUse" id="SVGID_3_"><stop offset="0.308" stop-color="#E65E7D"/><stop offset="1" stop-color="#FF8B9F"/></linearGradient><g><g><linearGradient x1="206.575" y1="401.149" x2="206.575" y2="12" gradientUnits="userSpaceOnUse" id="SVGID_1_"><stop offset="0.308" stop-color="#E65E7D"/><stop offset="1" stop-color="#FF8B9F"/></linearGradient><linearGradient x1="206.575" y1="366.949" x2="206.575" y2="46.2004" gradientUnits="userSpaceOnUse" id="SVGID_2_"><stop offset="0" stop-color="#F4D6A6"/><stop offset="1" stop-color="#F7EDD2"/></linearGradient><circle cx="206.6" cy="206.6" r="194.6" fill="url(#SVGID_1_)"/><path d="M206.6 12C314 12 401.1 99.1 401.1 206.6 401.1 314.1 314 401.1 206.6 401.1 99.2 401.1 12 314 12 206.6 12 99.2 99.1 12 206.6 12M206.6 0C178.7 0 151.7 5.5 126.2 16.2 101.6 26.6 79.5 41.5 60.5 60.5 41.5 79.5 26.6 101.6 16.2 126.2 5.5 151.6 0 178.7 0 206.6 0 234.5 5.5 261.5 16.2 287 26.6 311.6 41.5 333.7 60.5 352.7 79.5 371.7 101.6 386.6 126.2 397 151.7 407.8 178.7 413.2 206.6 413.2 234.5 413.2 261.5 407.7 287 397 311.6 386.6 333.7 371.7 352.7 352.7 371.7 333.7 386.6 311.6 397 287 407.8 261.5 413.2 234.5 413.2 206.6 413.2 178.7 407.7 151.7 397 126.2 386.6 101.6 371.7 79.5 352.7 60.5 333.7 41.5 311.6 26.6 287 16.2 261.5 5.5 234.5 0 206.6 0L206.6 0Z" fill="#60002D"/><path d="M206.6 25.3C311.8 25.3 397.5 108.9 401 213.2 401.1 211 401.2 208.8 401.2 206.6 401.1 99.1 314 12 206.6 12 99.2 12 12 99.1 12 206.6 12 208.8 12.1 211 12.2 213.2 15.7 108.8 101.3 25.3 206.6 25.3Z" fill="#FFBCCA"/><circle cx="206.6" cy="206.6" r="160.4" fill="url(#SVGID_2_)"/></g></g><path d="M286.1 250.7 242 206.6 286.2 162.4C290.3 158.3 290.3 151.6 286.2 147.5L265.6 127C261.5 122.9 254.8 122.9 250.7 127L206.5 171.2 162.4 127C158.3 122.9 151.6 122.9 147.5 127L127 147.5C122.9 151.6 122.9 158.3 127 162.4L171.2 206.6 127 250.7C122.9 254.8 122.9 261.5 127 265.6L147.5 286.1C151.6 290.2 158.3 290.2 162.4 286.1L206.6 241.9 250.8 286.1C254.9 290.2 261.6 290.2 265.7 286.1L286.2 265.6C290.3 261.5 290.3 254.8 286.1 250.7Z" fill="url(#SVGID_3_)"/></g></svg>