<svg width="564.1" height="910" viewBox="0 0 564.1 910" xmlns="http://www.w3.org/2000/svg" xmlns:xlink="http://www.w3.org/1999/xlink" overflow="hidden"><defs></defs><g><path d="M92 75.3C45.2 201.6-13 265.3 2.6 336 192.7 502.4 499.8 395.3 557.2 356.3 585.5 302.3 520 178.7 485.2 91.7 348.8 94.5 162.9 60.1 92 75.3Z"/><path d="M239.7 893.8C235.8 895.8 197 894.6 196.6 889.1 192.4 817.5 190.3 651.5 189.6 633.6L261.1 637.1C261.2 637 241.7 866.8 239.7 893.8Z"/><g><path d="M180.2 869.1C181.1 866.3 182.9 862.8 184.2 859.5 185.2 857.1 208.9 858.2 208.7 864.1 208.6 865.6 208.5 866.9 208.4 868.1 212.5 868.3 216.9 868.4 221.5 868.3 231.6 868.2 240.7 867.7 247.1 866.9 247.1 876.2 245.6 892.2 245.5 902.5 245.5 902.5 138.9 919.1 122.9 903.2 118.4 898.6 145.8 880.2 180.2 869.1Z"/><path d="M245.7 896C245.6 898.3 245.5 900.5 245.5 902.5 245.5 902.5 138.9 919.1 122.9 903.2 122.3 902.6 122.3 901.7 122.8 900.5 151.7 907.7 219.2 899.6 245.7 896Z"/><path d="M148.2 882.3C148.8 882.4 149.4 882.6 150 882.7 162.3 886.4 169.6 898.1 166.3 908.8 166.2 909.2 166 909.5 165.9 909.9 146 910.3 128.7 908.8 123 903.1 120 900.2 130.7 891.2 148.2 882.3Z"/><path d="M186.8 878.2C187.1 878.6 187.5 878.8 188 878.8 188.3 878.8 188.6 878.7 188.9 878.5 189.6 878 189.7 877.1 189.3 876.4 185.4 870.8 178.4 867.7 172.2 868.9 171.4 869.1 170.9 869.8 171 870.6 171.1 871.4 171.9 871.9 172.7 871.8 177.8 870.9 183.6 873.5 186.8 878.2ZM179.2 881.6C179.5 881.9 179.9 882.1 180.3 882.1 180.6 882.1 181 882 181.3 881.7 181.9 881.2 182 880.2 181.5 879.6 177 874.5 170.7 871.9 164.2 872.4 163.4 872.5 162.8 873.2 162.8 874 162.9 874.8 163.6 875.4 164.4 875.4 167.7 875.1 173.9 875.5 179.2 881.6ZM154.1 877.9C154.2 878.7 154.9 879.3 155.8 879.2 160.8 878.5 167.1 881.1 171.3 885.4 171.6 885.7 172 885.9 172.4 885.9 172.8 885.9 173.1 885.8 173.4 885.5 174 884.9 174 884 173.5 883.4 168.8 878.4 161.4 875.5 155.5 876.3 154.6 876.4 154 877.1 154.1 877.9Z"/></g><path d="M329.1 893.8C333 895.8 371.8 894.6 372.2 889.1 376.4 817.5 378.5 651.5 379.2 633.6L307.7 637.1C307.6 637 327.1 866.8 329.1 893.8Z"/><g><path d="M388.6 869.1C387.7 866.3 385.9 862.8 384.6 859.5 383.6 857.1 359.9 858.2 360.1 864.1 360.1 865.6 360.3 866.9 360.4 868.1 356.3 868.3 351.9 868.4 347.3 868.3 337.2 868.2 328.1 867.7 321.7 866.9 321.7 876.2 323.2 892.2 323.3 902.5 323.3 902.5 429.9 919.1 445.9 903.2 450.4 898.6 423 880.2 388.6 869.1Z"/><path d="M323.1 896C323.2 898.3 323.3 900.5 323.3 902.5 323.3 902.5 429.9 919.1 445.9 903.2 446.5 902.6 446.5 901.7 446 900.5 417.1 907.7 349.6 899.6 323.1 896Z"/><path d="M420.7 882.3C420.1 882.4 419.5 882.6 418.9 882.7 406.6 886.4 399.3 898.1 402.6 908.8 402.7 909.2 402.9 909.5 403 909.9 422.9 910.3 440.2 908.8 445.9 903.1 448.9 900.2 438.1 891.2 420.7 882.3Z"/><path d="M396.2 871.8C397 872 397.8 871.4 397.9 870.6 398 869.8 397.5 869 396.7 868.9 390.5 867.7 383.5 870.8 379.6 876.4 379.1 877.1 379.3 878 380 878.5 380.3 878.7 380.6 878.8 380.9 878.8 381.4 878.8 381.8 878.6 382.1 878.2 385.2 873.5 391.1 870.9 396.2 871.8ZM404.5 875.4C405.3 875.5 406 874.9 406.1 874 406.2 873.2 405.5 872.5 404.7 872.4 398.2 871.9 391.9 874.5 387.4 879.6 386.9 880.2 386.9 881.2 387.6 881.7 387.9 882 388.2 882.1 388.6 882.1 389 882.1 389.4 881.9 389.7 881.6 394.9 875.5 401.2 875.1 404.5 875.4ZM413.4 876.3C407.5 875.5 400.1 878.4 395.4 883.4 394.8 884 394.9 884.9 395.5 885.5 395.8 885.8 396.2 885.9 396.5 885.9 396.9 885.9 397.3 885.7 397.6 885.4 401.7 881 408.1 878.5 413.1 879.2 413.9 879.3 414.7 878.7 414.8 877.9 414.8 877.1 414.3 876.4 413.4 876.3Z"/></g><path d="M117.7 503.3C159.7 474.3 219.1 423.3 228.1 420.1L264.9 485.4C254.1 497.4 182.6 521.3 135.2 543.6 128.3 546.2 94 534.4 117.7 503.3Z"/><path d="M150 459C155 490.2 203.9 517.6 211.8 514.1 211.8 514.1 272 481.9 218.7 419.6 216.6 419.1 150 459 150 459Z"/><g><path d="M184.9 438.3C202.2 453.7 219.3 468.9 236.5 484.1 234.1 478.4 231.6 472.7 229.2 467.1 216.8 456.1 204.4 445.2 192 434.1 189.7 435.5 187.3 436.9 184.9 438.3Z"/><path d="M218.4 509.6C197.8 491.4 177.3 473.4 156.7 455 152.6 457.4 150 459 150 459 150 459.2 150.1 459.5 150.2 459.7 170.7 478 191.2 496 211.7 514.1L211.9 514.1C211.8 514.1 214.6 512.5 218.4 509.6Z"/></g><path d="M478.5 564.8C470.9 572.9 463.7 581.1 456.9 589.9 406.3 545.1 358 502 322.9 443.7 342 435 354.7 433.4 373.4 423.9 407.7 478.5 439.1 518 478.5 564.8Z"/><path d="M425.1 468.5C413.3 497.8 359.5 513.7 352.6 508.5 352.6 508.5 326.6 448.1 335.1 417.4 343.2 417 352.5 416.6 370.6 418.4 372.7 418.5 425.1 468.5 425.1 468.5Z"/><g><path d="M395.6 440.6C375.4 451.8 355.2 462.8 335.2 473.8 338.8 468.8 342.5 463.8 346.1 458.9 360.6 451 375.1 443 389.7 435 391.5 436.8 393.6 438.7 395.6 440.6Z"/><path d="M347.2 502.7C371.3 489.6 395.3 476.5 419.5 463.2 423 466.5 425.1 468.6 425.1 468.6 425 468.8 424.9 469 424.8 469.3 400.7 482.6 376.8 495.6 352.8 508.7L352.6 508.6C352.6 508.5 350.2 506.4 347.2 502.7Z"/></g><path d="M171.4 596.7C190.8 608.6 215.9 628.8 282.7 625.8 350.1 622.8 383.6 602.3 397.2 593.8 397.2 593.8 364.8 452.7 353.2 417.7 334.3 417.7 242.9 419.4 219 419.4 205.6 450.2 171.4 596.7 171.4 596.7Z"/><g><path d="M209.9 441.3C210.6 438.7 211.4 436.2 212.1 433.8 233.7 435.5 256.8 436.5 281.3 436.6 305.8 436.7 336.1 435.3 357.6 433.8 358.3 436.2 359.1 438.7 359.9 441.3 336.5 443.1 305.3 444.5 281.2 444.4 257.3 444.3 233.2 443.3 209.9 441.3Z"/><path d="M199.1 481.5C199.8 478.9 200.5 476.2 201.1 473.7 227 475.2 253.8 476.1 281.1 476.2 308.9 476.3 341.4 476.3 367.8 474.9 368.6 477.5 369.3 480.1 370.1 482.7 343.2 484.1 309.9 484.1 281.1 484 252.9 483.9 225.5 483.1 199.1 481.5Z"/><path d="M179.1 563.7C179.7 561.2 180.3 558.6 180.9 555.9 215.4 557.4 250.5 558.2 286.1 558.3 320.1 558.4 353.7 557.9 386.7 556.8 387.5 559.5 388.2 562.1 388.9 564.6 355.1 565.7 320.8 566.3 286 566.1 249.9 566.1 214.2 565.3 179.1 563.7Z"/><path d="M188.4 524.7C189 522.1 189.7 519.5 190.3 516.9 221.7 518.4 253.7 519.3 286.2 519.5 316.4 519.6 346.1 519.1 375.3 518 376.1 520.6 376.8 523.2 377.6 525.8 347.9 526.9 317.4 527.4 286.2 527.3 252.7 527.1 220.1 526.3 188.4 524.7Z"/></g><path d="M401.9 570.1C401.9 570.1 425.7 666.3 434.7 699.9 405.6 706.7 343.7 709.3 311.1 710.8 302.7 666.9 302 650.9 283.5 651.8 269.9 652.4 265.8 676.8 261.3 703.8 228.2 702.3 164.6 696.8 141.7 685.7 148 662.9 163.1 594.2 169.6 568.9 169.6 568.9 216.6 582.8 288.7 582.1 339.3 581.6 401.9 570.1 401.9 570.1Z"/><path d="M352.2 601.4 367.8 600.2C365.9 574.1 350.9 472.5 339.5 412.3L324.1 415.2C336 477.9 350.5 578.5 352.2 601.4Z"/><path d="M131.6 710.3C132.3 704.9 133.8 678.1 134.5 673.9L271.6 682.3C271.6 682.3 269 711.7 268.4 716.2 250.4 716.6 141.4 713.3 131.6 710.3Z"/><path d="M440.8 710.3C440.1 704.9 438.6 678.1 437.9 673.9L300.8 682.3C300.8 682.3 303.4 711.7 304 716.2 322 716.6 431 713.3 440.8 710.3Z"/><path d="M232.4 606.5C234.5 577.5 242.1 480.5 248.9 418.3L233.3 416.6C226.5 479 218.9 576.2 216.8 605.3L232.4 606.5Z"/><path d="M421.3 647.6C415.3 623.8 409.2 599.1 405.4 584.1L363.4 589.7C366.6 640.8 399.2 656.4 421.3 647.6Z" opacity="0.24"/><path d="M373.1 596C373.6 599.9 374.3 603.8 375.5 607.8 384.2 636.5 400.5 654.6 432.6 651.8 428.9 631 424.3 605.7 421.3 589.4L373.1 596Z"/><path d="M214.9 588C209.3 639.4 176.7 651.7 153.5 642.9 158.1 622.3 163.1 595.5 166.9 579.4L214.9 588Z" opacity="0.24"/><path d="M207.1 593.8C206.4 597.7 205.5 601.6 204.2 605.4 194.2 633.7 177.1 651 145.2 646.8 149.8 626.2 155.6 601.2 159.3 585L207.1 593.8Z"/><path d="M313.6 378.7 314.5 424.3C314.7 434.1 301.4 442.3 284.9 442.7 268.3 443 254.8 435.4 254.6 425.6L253.7 380 313.6 378.7Z"/><g><path d="M526.7 290.5C516.7 331.3 477.6 357.5 447.8 353.9 418 350.4 411.8 317.1 416.4 277.8 421.1 238.5 449 209.5 478.8 213.1 519.5 218.2 536 252.2 526.7 290.5Z"/><path d="M491 299.9C489 317.1 475 329.6 459.8 327.8 444.6 326 434 310.6 436 293.4 438 276.2 452 263.7 467.2 265.5 482.4 267.3 493.1 282.7 491 299.9Z"/><path d="M39.3 300.6C50.9 341 91.1 365.5 120.8 360.7 150.4 355.9 155.2 322.4 149 283.4 142.7 244.4 113.6 216.5 84 221.3 43.5 228 28.4 262.7 39.3 300.6Z"/><path d="M77.5 308.4C80.3 325.5 94.7 337.4 109.8 335 124.9 332.6 134.9 316.7 132.2 299.6 129.4 282.5 115 270.6 99.9 273 84.8 275.5 74.7 291.3 77.5 308.4Z"/><path d="M70.8 167.1C73.4 294.7 163 350.3 286.8 347.7 410.6 345.1 500.2 285.9 497.6 158.3 494.9 30.6 403.5 2.9 279.7 5.4 155.9 8 68.1 39.4 70.8 167.1Z"/><path d="M117.9 128.8C107.4 151.1 106.3 333.9 131.6 360.6 158.5 388.9 262.9 413.4 285.4 412.9 309.4 412.4 416.4 386.4 436.1 354.3 459.4 316.3 455.3 160.4 447.2 139.9 419.8 70.7 364.2 51.9 277 53.7 195.3 55.3 145.2 70.8 117.9 128.8Z"/><path d="M131.3 320.1C131.7 340.2 148.4 356.2 168.5 355.8 188.6 355.4 204.6 338.7 204.2 318.6 203.8 298.5 187.1 282.5 167 282.9 146.8 283.3 130.8 299.9 131.3 320.1Z"/><path d="M355.3 320.9C355.7 341 372.4 357 392.5 356.6 412.6 356.2 428.6 339.5 428.2 319.4 427.8 299.3 411.1 283.3 391 283.7 370.8 284.1 354.9 300.8 355.3 320.9Z"/><path d="M242.1 272.6C225.9 282.7 158.3 285.4 150.8 257.3 147.2 243.9 167.8 224.9 193 226.3 215.8 227.6 237.5 244.8 242.1 272.6Z"/><path d="M150.3 240C156.9 231 174.9 223.2 193.2 224.7 215.3 226.5 225.4 240.5 225.4 240.5 216.8 232.5 204.4 228.7 193 228 176 227 163 235.4 156.9 242.8 152.9 247.7 151.3 252.7 152.4 257 153.6 261.6 158 268.3 162.9 271.5 149 264.3 143.3 249.5 150.3 240Z"/><path d="M218.1 251.9C219.6 263.7 211.1 274.5 199.3 275.9 187.5 277.4 176.7 269 175.3 257.1 173.8 245.3 182.2 234.5 194.1 233.1 205.9 231.7 216.6 240.1 218.1 251.9Z"/><path d="M217.3 248.2C217.7 251.5 215.4 254.5 212.1 254.9 208.8 255.3 205.8 253 205.4 249.7 205 246.4 207.3 243.4 210.6 243 213.9 242.6 216.9 244.9 217.3 248.2Z"/><path d="M322.9 270.9C339.5 280.3 407.2 280.3 413.5 251.9 416.5 238.3 395.1 220.2 370 222.7 347.3 224.8 326.3 243 322.9 270.9Z"/><path d="M413.2 234.5C406.2 225.7 387.9 218.7 369.7 220.9 347.7 223.6 338.2 238 338.2 238 346.5 229.7 358.7 225.3 370 224.2 386.9 222.5 400.3 230.3 406.6 237.5 410.8 242.2 412.6 247.2 411.6 251.5 410.6 256.1 406.4 263 401.7 266.4 415.5 258.8 420.6 243.8 413.2 234.5Z"/><path d="M388 248.7C389.5 260.5 381 271.3 369.2 272.7 357.4 274.2 346.6 265.7 345.2 253.9 343.7 242.1 352.1 231.3 364 229.9 375.8 228.4 386.6 236.8 388 248.7Z"/><path d="M387.2 244.9C387.6 248.2 385.3 251.2 382 251.6 378.7 252 375.7 249.7 375.3 246.4 374.9 243.1 377.2 240.1 380.5 239.7 383.8 239.3 386.8 241.6 387.2 244.9Z"/><path d="M270.4 288.2C271.2 288.2 272 287.6 272.1 286.7 273 280.6 277.7 276.5 284.2 276.4 290.7 276.3 295.7 280.2 296.7 286.2 296.9 287.2 297.8 287.8 298.7 287.7 299.7 287.5 300.3 286.6 300.2 285.7 298.9 278 292.3 272.8 284.1 273 275.9 273.2 269.7 278.5 268.6 286.4 268.5 287.4 269.1 288.3 270.1 288.4L270.4 288.2Z"/><path d="M257.2 5.9C396.8 3 440.9 75.6 440.9 87.5 440.7 129.6 411.3 166.3 402.1 163.6 398.2 162.4 406 141.3 406.2 111.3 386.8 153.7 344.4 179.8 333.4 173.8 327.5 170.6 353.1 146.7 360.3 103.3 348 137.9 318.8 179.5 275 180.4 238 181.2 199.3 152.7 175 123.4 184.5 148.6 195.6 163.9 191.5 166.3 179.9 173.1 128.2 141.4 114.7 91.6 111.6 80.1 145.7 8.2 257.2 5.9Z"/><g><path d="M211.3 323.9C214.8 348.9 245.4 370.4 282 369.7 318.6 368.9 350.3 345.3 352.1 321 354.8 285.1 317.4 312.8 280.8 311.9 244.2 310.9 205.7 284.4 211.3 323.9Z"/><path d="M277.6 345.8C297.4 345.4 314.8 350.5 324.9 358.5 313.4 365.5 298.4 369.9 282 370.2 263.5 370.6 246.7 365.8 234.3 357.7 244.5 350.8 260 346.2 277.6 345.8Z"/><path d="M233 303.1C244.7 300.4 262.5 308 280.7 308.5 301.3 309 318.4 300.4 331.3 303.3 326.3 313.6 306.7 321.5 283 322 257.6 322.5 236.5 314.3 233 303.1Z"/></g><path d="M166.8 163.5C168 163.3 169.1 162.7 169.9 161.7 180 148.9 202.2 142.1 221.6 145.7 224.3 146.2 226.9 144.4 227.4 141.7 227.9 139 226.1 136.4 223.4 135.9 200.3 131.5 174.5 139.8 162 155.5 160.3 157.7 160.6 160.8 162.8 162.5 164 163.4 165.5 163.8 166.8 163.5Z"/><path d="M408.7 158.3C410.1 158.4 411.5 157.9 412.5 156.9 414.5 155 414.5 151.8 412.6 149.8 398.7 135.4 372.2 129.7 349.6 136.3 347 137.1 345.4 139.8 346.2 142.5 347 145.2 349.7 146.7 352.4 145.9 371.3 140.4 394.1 145 405.4 156.8 406.4 157.7 407.5 158.2 408.7 158.3Z"/><path d="M477.7 113.8C420.9-34.8 148.4-40.2 94.4 111.2 170.1 32.8 348.5-7.7 477.7 113.8Z"/></g><g><path d="M521.6 644.9C514 635.8 504.2 620.9 481.6 595.5 479 592.6 462.2 598 465.2 600.5 483 615.3 506 653.2 521.6 644.9Z"/><path d="M539.8 640.6C532.2 631.5 518.6 606 490.6 588.3 487.1 586.1 471.6 592.9 474.6 595.5 492.3 610.2 526.7 647.2 539.8 640.6Z"/><path d="M557.2 627.3C549.6 618.2 499.7 574.7 471.6 557.1 468.1 554.9 448.3 576.7 449.9 582.9 445.4 597.6 464.9 613.5 469.8 644.4 470.6 649.7 477.8 644.6 479.2 642.4 482.7 636.7 481.5 634.5 485.1 618.8 487.3 609.2 498.8 607.4 505.3 609.2 531.5 620.9 547 633.5 557.2 627.3Z"/></g><path d="M188.9 497.9C158.3 538.7 131.1 545.9 131.1 545.9 100.3 551.5 97.3 508.5 118.8 503 137.7 500.5 154.3 490.4 177 475.3 180.9 472.8 191.8 494.1 188.9 497.9Z"/><g><path d="M302.1 574.3C298.5 569.7 211 504.3 214.8 410.4L227.7 410.9C224.1 499.8 308.5 561.5 312.3 566.4L302.1 574.3Z"/><path d="M437 640.4C438.6 657 401.1 682.3 340.2 673.8 338.6 673.6 317.5 663.6 316.7 662.6 311.5 637.2 303.5 596.5 298.4 568.2 300.7 567.7 307.1 562.8 309.1 562.7 375.3 558.9 403 552.1 410.2 548.7 418.2 588.2 435.7 627.1 437 640.4Z"/><g opacity="0.22"><path d="M413.4 548.7C407.2 552.1 376.1 568.5 312.3 573.5 312.3 573.5 320.9 632.1 337.5 646.1 404.3 668.4 431.1 644.5 433.4 623.6 427.3 601.8 420.4 571.2 413.4 548.7Z"/></g><path d="M413.5 546.2C401.5 550 373.5 557.7 309.7 562.6 309.7 562.6 320.1 609.9 336.8 623.9 384 646.8 440.9 626.9 434.8 592.5 424.3 572.8 420.4 568.7 413.5 546.2Z"/></g><path d="M236 458.7C234.4 456.8 227.5 452.3 221.7 449.7 238.3 451.9 237.9 464.1 240.4 462.1 243 460 244.5 452.6 241.7 449.1 239.7 446.6 230.2 440.4 223.8 437.6 236.8 438 241.5 448.8 243.3 446.2 245.2 443.5 244.2 437.8 241.1 434.6 236.7 430.2 217.1 424.3 213.1 426.3 208.6 428.5 196.4 442.2 188 455 178.3 469.8 170.6 487.8 179.6 494.2 197.6 507.1 202.6 484.7 208.4 471.9 226.8 472.3 222.4 481.5 226.5 479.4 229.5 477.9 230.9 470.3 228.4 467.1 227.2 465.6 222.8 462.7 218.2 460.2 232.5 462.2 231.7 472.8 234.1 470.9 236.7 468.9 238.5 461.9 236 458.7Z"/><path d="M407.3 588.9C422.7 599 399.6 620.8 399.6 620.8 399.6 620.8 372.8 616.2 374.1 603.1 375.5 589.1 392.1 598 392.1 598 392.1 598 399.2 583.5 407.3 588.9Z"/></g></svg>