<svg width="750.9" height="1098.5" viewBox="0 0 750.9 1098.5" xmlns="http://www.w3.org/2000/svg" xmlns:xlink="http://www.w3.org/1999/xlink" overflow="hidden"><defs></defs><g><path d="M259.9 671.3C259.6 697.7 252.8 722.2 241.6 720.5 236.1 719.7 222.1 717.8 215.5 712.7 199.4 700.3 220.2 625 231.4 623.6 258.8 620.2 260.2 644.9 259.9 671.3Z" fill="#020202"/><path d="M486.4 671.3C486.7 697.7 493.5 722.2 504.7 720.5 510.2 719.7 524.2 717.8 530.8 712.7 546.9 700.3 526.1 625 514.9 623.6 487.5 620.2 486.2 644.9 486.4 671.3Z" fill="#020202"/><path d="M521.1 726.4C495.8 745.1 253.2 746.3 234.8 734.3 234.8 734.3 248 547 261.9 494.3 309.5 495.1 437 488.1 474.4 489.1 493.6 534.5 521.1 726.4 521.1 726.4Z" fill="#020202"/><path d="M658.8 570.1C658.2 582.2 658 594.1 658.5 606.2 584.9 604.7 514.3 603 444.1 579.4 453.8 558.7 457.3 548.3 466 527.2 520.8 540 593 558.9 658.8 570.1Z" fill="#020202"/><path d="M690.8 613.3C690.9 616.2 694.7 619.4 700.6 624.6 705.6 629.1 713.4 635.6 714.6 640.2 716 645.1 710.6 645.8 703.4 642.5 691.5 637.2 664.9 624.3 652.1 617.1 629.6 606 616.9 580.1 626.3 561.6 640.3 533.9 647.7 524.1 657 507.4 659.3 503.3 666.8 512.3 666.4 518.9 665.4 533 660.9 535.7 661 543.1 661.1 550.3 667.3 552 674.5 551.6 707.8 539.9 725.2 529.7 734.1 536.9 740.6 543.9 719.2 555 694.3 566.4 725.5 565.1 750.9 566.4 751 574.2 751.1 583.4 726.6 589.1 700.3 588.6 722.3 600.1 744.9 607.6 742.8 616.7 740.9 625.1 690.5 605.1 690.8 613.3Z" fill="#020202"/><path d="M92.2 570.1C92.8 582.2 93 594.1 92.5 606.2 166.1 604.7 236.7 603 306.9 579.4 297.2 558.7 293.7 548.3 285 527.2 230.1 540 157.9 558.9 92.2 570.1Z" fill="#020202"/><path d="M297.9 1059.6 342.3 1059.6C345.5 1000.6 353.9 880.9 358.3 791.2L274.6 792.4C281 876.3 293.4 998.5 297.9 1059.6Z" fill="#020202"/><path d="M455.7 1060.6 411.3 1060.6C408.1 1001.6 399.7 881.9 395.3 792.2L479 793.4C472.7 877.3 460.3 999.5 455.7 1060.6Z" fill="#020202"/><path d="M294.8 1060.6 344.7 1062.5C345.6 1053.4 346.5 1025.9 347.6 1015.2L286.2 1012.9C289.4 1029.3 292.5 1051.9 294.8 1060.6Z" fill="#020202"/><g><path d="M272.8 1051.3C273.7 1048.1 275.6 1044 277.1 1040.3 278.2 1037.5 305.5 1038.4 305.4 1045.1 305.4 1046.8 305.3 1048.3 305.1 1049.7 309.8 1049.8 314.8 1049.9 320.2 1049.8 331.8 1049.6 342.3 1048.8 349.6 1047.8 349.9 1058.4 348.7 1076.7 348.9 1088.5 348.9 1088.5 226.9 1109.2 208 1091.2 202.7 1086 233.6 1064.5 272.8 1051.3Z" fill="#020202"/><path d="M348.9 1081C348.9 1083.6 348.8 1086.1 348.9 1088.4 348.9 1088.4 226.9 1109.1 208 1091.1 207.3 1090.4 207.2 1089.3 207.8 1088 241.3 1095.9 318.6 1085.6 348.9 1081Z" fill="#020202"/><path d="M280.7 1061.5C281 1062 281.6 1062.2 282.1 1062.2 282.4 1062.2 282.8 1062.1 283.1 1061.9 283.9 1061.3 284 1060.3 283.5 1059.5 278.9 1053.2 270.7 1049.7 263.6 1051.2 262.7 1051.4 262.1 1052.3 262.3 1053.2 262.5 1054.1 263.4 1054.7 264.3 1054.5 270.1 1053.3 276.8 1056.2 280.7 1061.5ZM272 1065.5C272.3 1065.9 272.8 1066.1 273.3 1066.1 273.7 1066.1 274.1 1065.9 274.4 1065.7 275.1 1065.1 275.1 1064 274.5 1063.3 269.2 1057.5 261.9 1054.6 254.4 1055.3 253.5 1055.4 252.8 1056.2 252.9 1057.2 253 1058.1 253.8 1058.9 254.8 1058.7 258.6 1058.3 265.8 1058.7 272 1065.5ZM243.1 1061.8C243.2 1062.7 244.1 1063.4 245 1063.2 250.7 1062.2 258.1 1065.1 263 1070.1 263.3 1070.4 263.8 1070.6 264.2 1070.6 264.6 1070.6 265 1070.4 265.4 1070.1 266.1 1069.4 266.1 1068.4 265.4 1067.7 259.8 1062.1 251.2 1058.8 244.5 1059.9 243.6 1060 242.9 1060.9 243.1 1061.8Z" fill="#020202"/></g><path d="M458.5 1060.6 408.6 1062.5C407.7 1053.4 406.8 1025.9 405.7 1015.2L467.1 1012.9C463.9 1029.3 460.8 1051.9 458.5 1060.6Z" fill="#020202"/><path d="M271.2 736.5C271.2 736.5 252.5 823.7 243.1 855.6 270.8 862.9 325.7 871 357.3 871.3 359.6 847.3 361.9 814.2 379.4 815.4 392.2 816.3 392.8 841.2 396.9 873.1 428.1 872.4 485.7 864.9 511.7 856.8 508.9 835.8 494 764.1 490.3 740.2L271.2 736.5Z" fill="#020202"/><g><path d="M480.5 1051.3C479.6 1048.1 477.7 1044 476.2 1040.3 475.1 1037.5 447.8 1038.4 447.9 1045.1 447.9 1046.8 448 1048.3 448.2 1049.7 443.5 1049.8 438.5 1049.9 433.1 1049.8 421.5 1049.6 411 1048.8 403.7 1047.8 403.4 1058.4 404.6 1076.7 404.4 1088.5 404.4 1088.5 526.4 1109.2 545.3 1091.2 550.6 1086 519.7 1064.5 480.5 1051.3Z" fill="#020202"/><path d="M404.4 1081C404.4 1083.6 404.5 1086.1 404.4 1088.4 404.4 1088.4 526.4 1109.1 545.3 1091.1 546 1090.4 546.1 1089.3 545.5 1088 512 1095.9 434.7 1085.6 404.4 1081Z" fill="#020202"/><path d="M489.1 1054.5C490 1054.7 490.9 1054.1 491.1 1053.2 491.3 1052.3 490.7 1051.4 489.8 1051.2 482.7 1049.8 474.5 1053.2 469.9 1059.5 469.3 1060.3 469.5 1061.3 470.3 1061.9 470.6 1062.1 470.9 1062.2 471.3 1062.2 471.8 1062.2 472.4 1062 472.7 1061.5 476.5 1056.2 483.2 1053.3 489.1 1054.5ZM498.5 1058.7C499.4 1058.9 500.3 1058.1 500.4 1057.2 500.5 1056.3 499.8 1055.4 498.9 1055.3 491.4 1054.6 484.1 1057.5 478.8 1063.3 478.2 1064 478.2 1065.1 478.9 1065.7 479.2 1066 479.6 1066.1 480 1066.1 480.5 1066.1 480.9 1065.9 481.3 1065.5 487.5 1058.7 494.7 1058.3 498.5 1058.7ZM508.8 1059.9C502.1 1058.8 493.5 1062.1 487.9 1067.7 487.2 1068.4 487.2 1069.4 487.9 1070.1 488.2 1070.4 488.6 1070.6 489.1 1070.6 489.5 1070.6 490 1070.4 490.3 1070.1 495.2 1065.2 502.6 1062.3 508.3 1063.2 509.3 1063.4 510.1 1062.7 510.2 1061.8 510.4 1060.9 509.7 1060 508.8 1059.9Z" fill="#020202"/></g><path d="M515.6 749.5C492.3 765.9 462.2 793.4 379.8 792.5 296.8 791.6 254.6 766.4 237.6 755.8 237.6 755.8 278.5 566.1 291.3 519.9 335.3 520.6 418.3 519.9 452.8 520.8 470.6 560.6 515.6 749.5 515.6 749.5Z" fill="#020202"/><path d="M535.9 534.4C515.2 529 448.6 516.3 412.8 512.6 419.3 528 469 592.5 481.3 605.3 493 607.8 513.3 610.9 522.7 612 524.5 601.1 537 542 535.9 534.4Z" fill="#020202"/><path d="M60.1 613.3C60 616.2 56.2 619.4 50.3 624.6 45.3 629.1 37.5 635.6 36.3 640.2 35 645.1 40.3 645.8 47.5 642.5 59.4 637.2 86 624.3 98.8 617.1 121.3 606 134 580.1 124.6 561.6 110.6 533.9 103.2 524.1 93.9 507.4 91.6 503.3 84.1 512.3 84.5 518.9 85.5 533 90 535.7 89.9 543.1 89.8 550.3 83.6 552 76.4 551.6 43.2 540 25.8 529.8 16.9 537 10.4 544 31.8 555.1 56.7 566.5 25.5 565.2 0.1 566.5-7.10543e-15 574.3-0.1 583.5 24.4 589.2 50.7 588.7 28.7 600.2 6.1 607.7 8.2 616.8 10 625.1 60.4 605.1 60.1 613.3Z" fill="#020202"/><path d="M420.7 529.1C420.9 523.8 419.7 516.6 416.2 512.1 388.5 512.5 359.2 510.9 326.7 513 323.2 517.1 321.2 520.9 321 526 320.5 543.5 342.3 558.3 369.9 559.2 397.4 560.1 420.2 546.6 420.7 529.1Z" fill="#020202"/><path d="M215 534.4C235.7 529 302.3 516.3 338.1 512.6 331.6 528 281.9 592.5 269.6 605.3 257.9 607.8 237.6 610.9 228.2 612 226.4 601.1 213.9 542 215 534.4Z" fill="#020202"/><path d="M338.8 472 338.8 521.7C338.8 532.4 353.4 541.1 371.5 541.1 389.5 541.1 404.2 532.4 404.2 521.7L404.2 472 338.8 472Z" fill="#020202"/><g><path d="M136.7 383.5C147.1 422.5 185.2 446.8 213.7 442.8 242.2 438.8 247.5 406.7 242.3 369.1 237.1 331.5 209.7 304.1 181.1 308.2 142.2 313.8 127 346.8 136.7 383.5Z" fill="#020202"/><path d="M171.1 391.7C173.4 408.2 187.1 419.9 201.6 417.9 216.1 415.9 226.1 400.9 223.8 384.4 221.5 367.9 207.9 356.2 193.3 358.2 178.7 360.2 168.8 375.3 171.1 391.7Z" fill="#020202"/><path d="M604.8 383.5C594.4 422.5 556.3 446.8 527.8 442.8 499.3 438.8 494 406.7 499.2 369.1 504.4 331.5 531.8 304.1 560.4 308.2 599.3 313.8 614.6 346.8 604.8 383.5Z" fill="#020202"/><path d="M568.3 391.7C566 408.2 552.3 419.9 537.8 417.9 523.3 415.9 513.3 400.9 515.6 384.4 517.9 367.9 531.6 356.2 546.1 358.2 560.7 360.2 570.6 375.3 568.3 391.7Z" fill="#020202"/><path d="M572 255.9C572 378.5 487.1 433.6 368.2 433.6 249.3 433.6 162.1 378.5 162.1 255.9 162.1 133.3 249.3 104.9 368.2 104.9 487.1 104.9 572 133.3 572 255.9Z" fill="#020202"/><path d="M537.6 208.1C548.1 229.3 541.2 416.7 517.4 442.8 492.2 470.5 392.4 496.1 370.8 496.1 347.7 496.1 244.5 473.3 225 442.8 201.9 406.8 191.6 240.1 199 220.3 223.9 153.3 288 151 371.8 151 450.2 151 510.3 153 537.6 208.1Z" fill="#020202"/><path d="M503.8 406.8C503.8 426.1 488.1 441.8 468.8 441.8 449.5 441.8 433.8 426.1 433.8 406.8 433.8 387.5 449.5 371.8 468.8 371.8 488.1 371.8 503.8 387.5 503.8 406.8Z" fill="#020202"/><path d="M317.7 406.8C317.7 426.1 302 441.8 282.7 441.8 263.4 441.8 247.7 426.1 247.7 406.8 247.7 387.5 263.4 371.8 282.7 371.8 302 371.8 317.7 387.5 317.7 406.8Z" fill="#020202"/><g><path d="M413.4 351C413.4 351 466.8 368 487.1 339.9 511.9 305.7 473.9 278.6 449.4 283.9 426.6 288.8 406 308.6 413.4 351Z" fill="#020202"/><path d="M491.1 296.2C481.2 283.8 467.9 279.8 453.5 281.3 438.8 282.8 423.8 293.2 419.6 304 427.5 291.9 441.2 287.4 449.7 285.6 463.2 282.7 481 288.8 489 301 496.1 311.9 495.5 328.2 486.4 340.8 497.2 332.3 501.4 309.2 491.1 296.2Z" fill="#020202"/><path d="M423.5 315.1C418.6 327.4 424.6 341.4 436.9 346.3 449.2 351.2 463.2 345.2 468.1 332.9 473 320.6 467 306.6 454.7 301.7 442.3 296.8 428.4 302.8 423.5 315.1Z" fill="#020202"/><path d="M425.4 311.3C424 314.7 425.7 318.6 429.1 319.9 432.5 321.3 436.4 319.6 437.7 316.2 439.1 312.8 437.4 308.9 434 307.6 430.7 306.2 426.8 307.9 425.4 311.3Z" fill="#020202"/></g><g><path d="M324.8 351C324.8 351 271.4 368 251.1 339.9 226.3 305.7 264.3 278.6 288.8 283.9 311.6 288.8 332.2 308.6 324.8 351Z" fill="#020202"/><path d="M247.1 296.2C257 283.8 270.3 279.8 284.7 281.3 299.4 282.8 314.4 293.2 318.6 304 310.7 291.9 297 287.4 288.5 285.6 275 282.7 257.2 288.8 249.2 301 242.1 311.9 242.7 328.2 251.8 340.8 241 332.3 236.8 309.2 247.1 296.2Z" fill="#020202"/><path d="M270.1 315.1C265.2 327.4 271.2 341.4 283.5 346.3 295.8 351.2 309.8 345.2 314.7 332.9 319.6 320.6 313.6 306.6 301.3 301.7 289 296.8 275 302.8 270.1 315.1Z" fill="#020202"/><path d="M272.1 311.3C270.7 314.7 272.4 318.6 275.8 319.9 279.2 321.3 283.1 319.6 284.4 316.2 285.8 312.8 284.1 308.9 280.7 307.6 277.3 306.2 273.4 307.9 272.1 311.3Z" fill="#020202"/></g><path d="M483.6 241.2C482.5 241.2 481.3 240.8 480.4 240 468.7 229.6 446.6 226.7 428.9 233.3 426.5 234.2 423.7 233 422.7 230.5 421.8 228 423 225.3 425.5 224.3 446.6 216.4 472.4 220 486.8 232.8 488.8 234.6 488.9 237.6 487.2 239.6 486.3 240.7 485 241.2 483.6 241.2Z" fill="#020202"/><path d="M254.6 241.2C253.3 241.2 252 240.7 251 239.6 249.2 237.6 249.4 234.6 251.4 232.8 265.7 220 291.5 216.4 312.7 224.3 315.2 225.2 316.4 228 315.5 230.5 314.6 233 311.8 234.3 309.3 233.3 291.6 226.7 269.4 229.6 257.8 240 256.8 240.8 255.7 241.2 254.6 241.2Z" fill="#020202"/><path d="M368.9 411.8C368.7 411.8 368.5 411.8 368.3 411.8 358 411.4 349.6 399.7 347.8 383.5 347.6 382.1 348.7 380.8 350.1 380.7 351.5 380.5 352.8 381.6 352.9 383 354.5 398.2 362 406.4 368.5 406.7 375.7 407 381.8 398.1 384.7 383.5 385 382.1 386.2 381.2 387.7 381.5 389.1 381.8 390 383.1 389.7 384.5 386.4 401.7 378.6 411.8 368.9 411.8Z" fill="#020202"/><path d="M382.6 363.8C381.8 363.8 381.1 363.2 380.9 362.4 379.9 356.5 375.3 352.7 369.1 352.7 362.8 352.7 358.1 356.6 357.3 362.3 357.2 363.2 356.3 363.9 355.4 363.7 354.5 363.6 353.8 362.7 354 361.8 355.1 354.4 361.3 349.3 369.2 349.3 377 349.3 383.1 354.3 384.4 361.8 384.6 362.7 383.9 363.6 383 363.7L382.6 363.8Z" fill="#020202"/><path d="M537.3 133.6C555.8 126.2 566.7 117.7 565.8 110 564.3 96.6 528 89.5 480 91.7 499.8 73.4 509.5 53.4 504.4 35.9 494.1 0.9 427.8-10.5 356.4 10.6 285 31.7 235.5 77.1 245.8 112.2 247.2 116.9 249.6 121.1 252.8 124.9 227.6 114.4 206 113.2 199.6 123.5 191.2 137.1 212.4 165.4 246.9 186.7 281.4 208 316.2 214.3 324.6 200.7 327.8 195.5 326.7 188.1 322.1 179.8 348.3 190.3 381.9 199.1 419 204.5 507 217.2 581.6 205.3 585.5 178.1 587.7 163.5 568.9 147.4 537.3 133.6Z" fill="#020202"/></g></g></svg>