<svg width="661.5" height="994.1" viewBox="0 0 661.5 994.1" xmlns="http://www.w3.org/2000/svg" xmlns:xlink="http://www.w3.org/1999/xlink" overflow="hidden"><defs></defs><g><path d="M303.3 955.8 347.1 955.8C350.3 897.7 358.5 779.7 362.9 691.4L280.5 692.6C286.6 775.3 298.8 895.7 303.3 955.8Z" fill="#070707"/><path d="M458.7 956.8 415 956.8C411.8 898.7 403.6 780.7 399.2 692.4L481.6 693.6C475.4 776.2 463.2 896.6 458.7 956.8Z" fill="#070707"/><path d="M300.2 956.8 349.3 958.7C350.2 949.7 351.1 922.6 352.2 912.1L291.7 909.9C294.9 925.9 297.9 948.2 300.2 956.8Z" fill="#070707"/><g><path d="M278.6 947.6C279.5 944.4 281.4 940.4 282.9 936.7 284 934 310.8 934.9 310.8 941.5 310.8 943.2 310.7 944.7 310.5 946 315.1 946.1 320.1 946.2 325.3 946.1 336.7 945.9 347 945.1 354.2 944.1 354.5 954.5 353.3 972.6 353.5 984.2 353.5 984.2 233.3 1004.6 214.7 986.9 209.5 981.9 240 960.6 278.6 947.6Z" fill="#070707"/><path d="M353.5 976.9C353.5 979.5 353.4 982 353.5 984.2 353.5 984.2 233.3 1004.6 214.7 986.9 214 986.2 213.9 985.2 214.5 983.9 247.5 991.6 323.7 981.4 353.5 976.9Z" fill="#070707"/><path d="M286.3 957.7C286.6 958.2 287.2 958.4 287.7 958.4 288 958.4 288.4 958.3 288.7 958.1 289.4 957.6 289.6 956.5 289.1 955.8 284.6 949.6 276.5 946.2 269.5 947.6 268.6 947.8 268 948.7 268.2 949.6 268.4 950.5 269.3 951.1 270.2 950.9 275.9 949.6 282.5 952.5 286.3 957.7ZM277.8 961.7C278.1 962.1 278.6 962.3 279.1 962.2 279.5 962.2 279.9 962 280.2 961.8 280.9 961.2 280.9 960.1 280.3 959.4 275.1 953.7 267.9 950.8 260.5 951.6 259.6 951.7 258.9 952.5 259 953.4 259.1 954.3 259.9 955.1 260.8 954.9 264.5 954.5 271.6 954.9 277.8 961.7ZM249.3 958C249.4 958.9 250.3 959.6 251.2 959.4 256.8 958.5 264.1 961.3 268.9 966.2 269.2 966.5 269.7 966.7 270.1 966.7 270.5 966.7 270.9 966.5 271.2 966.2 271.9 965.5 271.9 964.5 271.2 963.8 265.7 958.2 257.2 955 250.6 956.1 249.8 956.2 249.1 957.1 249.3 958Z" fill="#070707"/></g><path d="M461.5 956.8 412.4 958.7C411.5 949.7 410.6 922.6 409.5 912.1L470 909.9C466.8 925.9 463.8 948.2 461.5 956.8Z" fill="#070707"/><path d="M278.7 649.5C278.7 649.5 278.7 787.6 278.7 834.9 303.8 842.1 334.1 841.4 361.3 838.8 363.4 815.1 361.5 730.7 383.2 729.4 402.3 728.2 401.1 806 404.7 837.4 433 836.7 457.9 834.6 479.9 829.3 478.3 806.7 484.9 675.3 481.5 651.7L278.7 649.5Z" fill="#070707"/><g><path d="M483.1 947.6C482.2 944.4 480.3 940.4 478.8 936.7 477.7 934 450.9 934.9 450.9 941.5 450.9 943.2 451 944.7 451.2 946 446.6 946.1 441.6 946.2 436.4 946.1 425 945.9 414.7 945.1 407.5 944.1 407.2 954.5 408.4 972.6 408.2 984.2 408.2 984.2 528.4 1004.6 547 986.9 552.2 981.9 521.7 960.6 483.1 947.6Z" fill="#070707"/><path d="M408.2 976.9C408.2 979.5 408.3 982 408.2 984.2 408.2 984.2 528.4 1004.6 547 986.9 547.7 986.2 547.8 985.2 547.2 983.9 514.2 991.6 438 981.4 408.2 976.9Z" fill="#070707"/><path d="M491.6 950.8C492.5 951 493.4 950.4 493.6 949.5 493.8 948.6 493.2 947.7 492.3 947.5 485.3 946.1 477.3 949.5 472.7 955.7 472.2 956.4 472.3 957.5 473.1 958 473.4 958.2 473.7 958.3 474.1 958.3 474.6 958.3 475.2 958.1 475.5 957.6 479.2 952.5 485.9 949.6 491.6 950.8ZM500.9 954.9C501.8 955.1 502.6 954.3 502.7 953.4 502.8 952.5 502.1 951.7 501.2 951.6 493.8 950.9 486.7 953.7 481.4 959.4 480.8 960.1 480.8 961.1 481.5 961.8 481.8 962.1 482.2 962.2 482.6 962.2 483.1 962.2 483.5 962 483.9 961.7 490.1 954.9 497.2 954.5 500.9 954.9ZM511 956.1C504.4 955.1 495.9 958.3 490.4 963.8 489.7 964.5 489.8 965.5 490.4 966.2 490.7 966.5 491.1 966.7 491.5 966.7 491.9 966.7 492.4 966.5 492.7 966.2 497.5 961.4 504.8 958.5 510.4 959.4 511.3 959.6 512.2 958.9 512.3 958 512.6 957.1 511.9 956.2 511 956.1Z" fill="#070707"/></g><g><path d="M80.8 479.6C76.8 476.8 76.9 449.2 81.7 450.3 150.3 466.6 274.4 476.6 309.7 470.4L299 535.9C271 539.1 126.8 512.4 80.8 479.6Z" fill="#070707"/><path d="M44.5 474.5C43.4 476.9 39 478.2 32.4 480.5 26.6 482.4 17.9 485.1 15.2 488.5 12.3 492.1 16.6 494.6 23.7 494.4 35.5 494.2 62.2 492.9 75.4 491.4 98.1 490.1 117.8 473 116.5 454.3 114.6 426.2 112 415.5 110.1 398.3 109.6 394.1 100.2 398.9 98.2 404.6 94.1 416.7 96.8 420.6 94.1 426.6 91.5 432.5 85.7 431.8 79.8 428.9 56.2 407.4 45.3 392.7 35.3 395.6 27.4 399.1 41.3 415.9 58 434.2 32.5 422.1 10.8 414.2 8 420.7 4.7 428.3 23.1 441.7 45.2 450.7 22.8 452.5 1.4 450.7-0.2 459.1-1.4 466.6 47.7 467.7 44.5 474.5Z" fill="#070707"/><path d="M219 468.5C215.3 499.6 228 550.8 235.2 552.3 235.2 552.3 289.5 547.1 291.4 542 302.9 510.2 302.4 469.2 302.1 464.4 272.9 466.2 219 468.5 219 468.5Z" fill="#070707"/><path d="M508.7 617.6C513.6 617.4 544.1 617 540.7 613.6 505.5 578.7 489.2 503.5 465.4 467.5L420.9 510.5C434.2 535.3 439 620.9 508.7 617.6Z" fill="#070707"/><path d="M494 668.3C467.9 708.6 273.3 697.5 257.7 691.5 266.3 666 271.4 494.6 275.2 466 303.2 463.5 405.7 457.9 451.6 457.9 458.1 504.4 486.3 634.4 494 668.3Z" fill="#070707"/><path d="M524.3 529.8C504.8 550.4 462.2 567.4 457.3 562.8 457.3 562.8 430.3 473.9 449.5 457.9 469.5 455.2 502.9 509.7 524.3 529.8Z" fill="#070707"/><path d="M400.2 466.5C400 463.6 399.2 460.9 398.2 458.3 372.3 460.7 339.4 462.8 313.9 463.5 313.2 466.1 312.8 468.7 313 471.4 314 489.5 334.4 503 358.5 501.7 382.5 500.3 401.2 484.5 400.2 466.5Z" fill="#070707"/><path d="M316.3 424.4 322.6 475.3C323.9 486.2 340 493.3 358.5 491 377 488.7 390.8 478 389.5 467.1L383.2 416.2 316.3 424.4Z" fill="#070707"/><g><path d="M527 184.9C541.8 304.5 461.9 369 340.7 384 219.5 399 124 356.1 109.2 236.5 94.4 116.8 179.8 78.1 301 63.1 422.2 48.1 512.2 65.2 527 184.9Z" fill="#070707"/><path d="M109.9 346C126.4 387 171.1 408.3 201.6 400.1 232.1 392 233.5 356.4 222.8 316.2 212.1 276 178.6 250 148.2 258.2 106.6 269.6 94.4 307.5 109.9 346Z" fill="#070707"/><path d="M148.4 350.4C153.1 368 169.5 378.9 185.1 374.8 200.6 370.6 209.4 353 204.7 335.4 200 317.8 183.6 306.9 168.1 311 152.5 315.1 143.7 332.8 148.4 350.4Z" fill="#070707"/><path d="M566 289.6C560 333.4 521.8 364.9 490.3 364.4 458.8 363.9 448.7 329.8 449.3 288.2 450 246.6 476 213.2 507.6 213.8 550.7 214.6 571.6 248.4 566 289.6Z" fill="#070707"/><path d="M527.4 303.4C527.1 321.6 513.9 336.2 497.8 335.9 481.7 335.6 468.9 320.7 469.2 302.4 469.5 284.2 482.7 269.6 498.8 269.9 514.9 270.2 527.7 285.2 527.4 303.4Z" fill="#070707"/><path d="M478.8 107C492.3 129.8 511.6 343.4 491.5 376 470.2 410.6 403.8 449.2 356.8 455 293 462.9 223.1 444.2 199.3 412 171.2 374 137.6 186 142.2 162.6 157.7 83.4 221.4 73 305.2 62.6 383.5 52.9 443.8 47.7 478.8 107Z" fill="#070707"/><path d="M273.1 380.2C275.5 399.7 262.3 417.4 243.6 419.7 224.9 422 207.8 408.1 205.4 388.6 203 369.1 216.2 351.4 234.9 349.1 253.6 346.7 270.7 360.7 273.1 380.2Z" fill="#070707"/><path d="M481.7 351.7C484.1 371.2 470.9 388.9 452.2 391.2 433.5 393.5 416.4 379.6 414 360.1 411.6 340.6 424.8 322.9 443.5 320.6 462.2 318.3 479.3 332.2 481.7 351.7Z" fill="#070707"/><path d="M222.1 218C221.3 218.1 220.5 218 219.7 217.8 216.6 216.8 214.9 213.6 215.9 210.5 219.1 200.2 228.6 191.7 240.6 188.3 253.2 184.8 266.2 187.5 275.4 195.6 277.8 197.7 278.1 201.4 275.9 203.8 273.8 206.2 270.1 206.5 267.7 204.3 261.4 198.7 252.6 197 243.7 199.5 235.4 201.8 229 207.4 226.9 214 226.2 216.2 224.3 217.7 222.1 218Z" fill="#070707"/><path d="M221.7 221.5C220.6 221.5 219.6 221.4 218.5 221.1 213.6 219.6 210.8 214.3 212.4 209.4 216 198 226.4 188.6 239.6 184.9 253.3 181 267.5 184 277.6 192.9 279.5 194.5 280.6 196.8 280.8 199.3 281 201.8 280.1 204.2 278.5 206.1 275.1 210 269.2 210.3 265.3 207 259.9 202.2 252.3 200.8 244.6 202.9 237.4 204.9 231.9 209.6 230.2 215 229.1 218.5 226.1 221 222.4 221.5 222.3 221.5 222 221.5 221.7 221.5ZM250 190.3C247.2 190.4 244.3 190.9 241.5 191.7 230.6 194.8 222 202.4 219.2 211.5 218.8 212.7 219.5 214 220.7 214.4 221 214.5 221.4 214.5 221.7 214.5 222.6 214.4 223.3 213.8 223.6 212.9 226 205.2 233.4 198.7 242.8 196.1 252.9 193.3 262.8 195.3 270 201.7 270.9 202.5 272.4 202.4 273.2 201.5 273.6 201 273.8 200.4 273.8 199.8 273.8 199.2 273.5 198.6 273 198.2 266.8 192.7 258.5 190 250 190.3Z" fill="#070707"/><path d="M413.9 191.5C411.7 191.8 409.5 190.8 408.2 188.8 404.6 182.9 397 179.1 388.4 178.9 379.1 178.6 371.1 182.5 366.3 189.4 364.5 192 360.8 192.7 358.2 190.9 355.6 189.1 354.9 185.5 356.7 182.8 363.7 172.7 375.6 166.9 388.7 167.3 401.2 167.6 412.5 173.6 418.1 182.8 419.8 185.5 418.9 189.1 416.2 190.8 415.4 191.1 414.6 191.4 413.9 191.5Z" fill="#070707"/><path d="M413.5 195C410.1 195.1 406.9 193.4 405.2 190.5 402.2 185.6 395.7 182.4 388.3 182.2 380.2 182 373.3 185.2 369.2 191.2 367.8 193.3 365.6 194.6 363.2 195.1 360.7 195.5 358.3 195 356.2 193.6 354.2 192.2 352.8 190.1 352.3 187.6 351.9 185.1 352.4 182.7 353.8 180.6 361.4 169.5 374.5 163.2 388.8 163.6 402.4 164 414.8 170.6 421.1 180.8 422.4 182.9 422.8 185.4 422.2 187.9 421.6 190.3 420.1 192.4 418 193.7 416.9 194.4 415.6 194.8 414.3 195 414 195 413.8 195 413.5 195ZM386.1 175.3C386.9 175.3 387.7 175.3 388.5 175.3 398.3 175.6 407 180 411.2 186.9 411.7 187.7 412.5 188.1 413.4 188 413.7 188 414 187.8 414.3 187.7 414.8 187.4 415.2 186.9 415.3 186.3 415.5 185.7 415.3 185.1 415 184.6 410 176.4 399.8 171.1 388.5 170.8 376.6 170.5 365.8 175.7 359.5 184.8 359.1 185.3 359 185.9 359.1 186.5 359.2 187.1 359.5 187.6 360.1 188 360.6 188.4 361.3 188.5 361.8 188.4 362.4 188.3 362.9 187.9 363.3 187.4 368.4 180 376.6 175.7 386.1 175.3Z" fill="#070707"/><g><path d="M378.6 269.6C368.1 290.1 372.4 310.7 384.8 317.2 403.5 326.9 444.4 325.1 457.2 305.9 469.6 287.3 458.6 257.9 433 247.9 410.7 239.1 388.8 249.7 378.6 269.6Z" fill="#070707"/><path d="M453.3 254.6C430.9 227.7 387.6 243.4 378.3 270.3 388.8 249.8 412 240.9 432.7 249 445.5 254 455.5 264.5 459.5 277.2 462.7 287.3 461.8 299.2 456.6 306.9 462.9 301.5 469.7 274.4 453.3 254.6Z" fill="#070707"/><path d="M385 281.6C381.4 295.4 389.6 309.4 403.4 313 417.2 316.6 431.2 308.4 434.8 294.6 438.4 280.8 430.2 266.8 416.4 263.2 402.7 259.6 388.6 267.8 385 281.6Z" fill="#070707"/><path d="M386.8 279.1C385.8 282.9 388.1 286.8 391.9 287.8 395.7 288.8 399.6 286.5 400.6 282.7 401.6 278.9 399.3 275 395.5 274 391.7 273 387.8 275.3 386.8 279.1Z" fill="#070707"/></g><g><path d="M286.9 280.9C302.1 298.3 302.9 319.3 292.4 328.6 276.7 342.5 236.5 350.7 219.4 335.3 202.8 320.3 206.4 289.1 228.7 273.2 248.3 259.2 272.2 264.1 286.9 280.9Z" fill="#070707"/><path d="M210.8 284.5C226 253 271.8 257.7 287.4 281.5 272.2 264.1 247.6 261.2 229.5 274.1 218.3 282.1 211.2 294.7 210.4 308 209.8 318.6 213.5 329.9 220.4 336.1 212.9 332.4 199.6 307.7 210.8 284.5Z" fill="#070707"/><path d="M236.1 300C232.5 313.8 240.7 327.8 254.5 331.4 268.3 335 282.3 326.8 285.9 313 289.5 299.2 281.3 285.2 267.5 281.6 253.7 278 239.7 286.2 236.1 300Z" fill="#070707"/><path d="M237.9 297.5C236.9 301.3 239.2 305.2 243 306.2 246.8 307.2 250.7 304.9 251.7 301.1 252.7 297.3 250.4 293.4 246.6 292.4 242.8 291.4 238.9 293.6 237.9 297.5Z" fill="#070707"/></g><path d="M356.5 339.8C355.6 339.9 354.7 339.3 354.4 338.4 352.4 331.8 346.6 328.1 339.4 329 332.2 329.9 327.3 335 327.2 341.8 327.2 342.9 326.3 343.7 325.2 343.7 324.1 343.7 323.3 342.8 323.3 341.7 323.5 333.1 329.9 326.2 339 325.1 348 324 355.7 328.9 358.2 337.3 358.5 338.3 357.9 339.4 356.9 339.7L356.5 339.8Z" fill="#070707"/><g><path d="M405.6 365.4C408.3 387.2 384.5 408.1 352.6 412 320.6 415.9 292.5 401.5 289.8 379.7 287.1 357.9 314.8 358.6 346.6 353.2 378.3 347.9 402.9 343.6 405.6 365.4Z" fill="#070707"/><path d="M384.5 348.2C374.2 348.1 361.1 350.3 346.5 352.7 330.1 355.4 314.9 356.7 304 359.7 314.6 369 329.7 373.9 345.8 372 362.7 369.8 376.6 360.6 384.5 348.2Z" fill="#070707"/><path d="M365.7 393.4C342.3 391.8 321.3 397 309.3 406.2 320.9 412.1 336.3 414.8 352.6 412.8 367.6 410.9 380.8 405.5 390.5 397.9 383 395.7 374.6 394.1 365.7 393.4Z" fill="#070707"/></g><path d="M551.6 153.4C562.1 147.3 568.8 137 568.3 125.4 567.8 112.3 558.1 101.4 544.7 97 549 92.5 551.3 87.2 551.1 81.6 550.5 66.4 530.8 54.9 507.2 55.8 505.4 55.9 503.6 56 501.8 56.3 502.6 54.3 503 52.2 502.9 50 502.6 43.1 497.8 37.3 490.9 34.4 489.4 27.4 484.6 21.3 477.1 18 463.8 12.1 447 17 438.9 29 431.6 24.8 422.8 22.5 413.3 22.9 406.5 23.2 400.2 24.8 394.6 27.5 402.2 19.1 405 10.9 401.1 5.5 394.4-3.7 370.6-1 348 11.4 340.3 15.6 333.8 20.4 328.8 25.3 328.6 16.6 323.5 8.6 314.5 4.6 300.8-1.5 283.4 3.9 275.6 16.6 272.8 21.2 271.6 26 271.9 30.7 265.5 27.9 258.2 26.4 250.5 26.7 233.9 27.4 219.8 36.1 213.2 48.3 209.6 41.6 201.2 37.1 191.7 37.5 179.2 38 169.4 46.7 169.8 57 170 62.2 172.8 66.7 177 69.9 174.4 72.2 172.5 75 171.6 78.1 157.5 75.6 144.8 78.9 141.8 86.4 140.1 90.5 141.8 95.2 145.8 99.5 127.7 103.7 114.7 115.8 115.3 129.6 115.4 131 115.6 132.4 115.9 133.8 104 133 92.9 137.3 87.7 145.8 80.4 157.7 87.7 173.3 104 180.5 104.4 180.7 104.8 180.8 105.2 181 105.1 181.3 104.9 181.6 104.8 182 101.8 191.7 104.6 201.4 111.4 208.5 107.7 212.4 105.5 218 105.8 224 106.3 235.4 115.2 244.3 125.7 243.9 127.7 243.8 129.6 243.4 131.4 242.7 133.8 249.5 137.5 253.8 142.1 254.1 151.8 254.8 161.6 237.7 164.1 215.9 164.4 213.3 164.6 210.7 164.6 208.2 167.7 205 170.2 201.1 171.5 196.8 172.2 194.4 172.6 192.1 172.7 189.7 173.5 189.7 174.3 189.7 175.1 189.7 187.6 189.2 197.4 180.4 197 170.2 196.7 161.7 189.5 154.9 179.9 153L180.1 152.9C231.7 165.6 253.3 110.7 253.4 109.6 257.1 111.4 261.4 112.4 266 112.2 273.4 111.9 279.8 108.7 283.7 104.1 295.9 111.7 312.7 116 331.1 115.3 352.2 114.4 370.6 107.1 382.1 96.4 383.9 106.2 392.5 114 404 117.1 403.8 118.2 403.6 119.2 403.5 120.3 401.6 141.9 428.5 160.9 463.5 162.8 467.3 163 471 163 474.6 162.8 465.3 173.1 462.3 184.1 468.1 190 473.6 195.6 485.3 195.2 497.8 190 497.9 192.4 498.2 194.8 498.9 197.2 503 213.1 517.2 223.9 530.6 221.2 544 218.5 551.5 203.4 547.4 187.5 547.3 187.1 547.1 186.7 547 186.2 555.5 183.2 561.3 176.2 561 168.2 560.8 161.8 557.1 156.6 551.6 153.4Z" fill="#070707"/></g></g><path d="M532.3 642.5C532.3 649.7 527.5 655.5 521.5 655.5 515.5 655.5 510.7 649.7 510.7 642.5 510.7 635.3 515.5 629.5 521.5 629.5 527.4 629.6 532.3 635.4 532.3 642.5Z" fill="#070707"/><path d="M522.3 653.5C522.3 660.7 517.6 657 513.5 654.6 508.4 651.6 490.1 629.9 493.1 617 494.7 610 514 620 514.4 625.9 515.2 638.1 522.3 646.3 522.3 653.5Z" fill="#070707"/><g><path d="M654.6 907.6C667.7 899.5 653.9 850.8 650.9 821.7 636.2 822.8 596.5 824.4 584.8 823.6 583 838.8 586.8 907.5 587.4 919.2 599.5 919.8 646.6 910.8 654.6 907.6Z" fill="#070707"/><path d="M568.9 750.9C574.1 753 597.4 755.9 606.9 755.6 608.3 748.1 619.2 694 604.7 664.7 600.1 655.5 566.2 655.5 562.3 656.4 572.9 661.2 571.8 729.3 568.9 750.9Z" fill="#070707"/><path d="M529 717.8C531.6 721.5 563.8 724.3 572 725.8 572.6 713.5 579.3 680 574.2 665.6 570 653.7 557.3 653.5 549.6 664.1 536.8 681.8 531.9 706.1 529 717.8Z" fill="#070707"/><path d="M539.1 715.3C541.1 718.4 561.6 719 568.1 720.2 568.7 709.6 574.5 680.5 570.6 668.1 567.3 657.9 559.9 657.5 553.6 666.8 543.1 682.2 540.1 706.6 539.1 715.3Z" fill="#070707"/><path d="M469.9 750.5C475.8 751.7 501 750.5 511 748.6 511.1 741 512.7 685.8 491.9 659.4 485.4 651.1 449.5 657 445.6 658.6 457.5 661.4 468.9 728.7 469.9 750.5Z" fill="#070707"/><path d="M421.6 724.8C425 728 459.6 725.3 468.5 725.3 466.9 713.1 467.8 679 459.7 665.6 453 654.6 439.6 656.6 433.4 668.4 423.2 687.9 422.5 712.7 421.6 724.8Z" fill="#070707"/><path d="M431.8 720.5C434.5 723.2 456.3 720.3 463.4 720.3 462.1 709.7 462.9 680.1 456.4 668.6 451.1 659.1 443.1 660 438.2 670.2 430 687.2 431.3 711.8 431.8 720.5Z" fill="#070707"/><path d="M500.5 667.9C500.5 646.4 517.3 629.6 538.7 629.6 562.3 629.6 574.6 649.2 574.6 668.5 574.6 690.7 559.8 706.3 538.6 706.2 517.2 706.2 500.5 689.4 500.5 667.9ZM508 667.9C508 686.5 526.5 699.4 538.6 699.4 551.7 699.4 567.7 686.3 567.7 668.9 567.7 649.7 549.9 636.3 538.6 636.3 526.6 636.3 508.1 649.3 508 667.9Z" fill="#070707"/><path d="M399.5 932.2C406.8 934.7 455.9 947.3 472.8 950.7 538.2 953.6 629.3 943.3 647 930.4 650.1 877.2 643.8 712.3 620.8 690.3 600.4 670.7 440 668.8 425.6 687.5 411.9 722 399 904.7 399.5 932.2Z" fill="#070707"/><g opacity="0.2"><path d="M422.2 707.7C432.6 687 457.2 679.6 469.6 698.6 489.7 729.3 485.1 827.5 487.7 850.7 550.2 852.4 629.5 851.4 646.4 843.7 644.6 757.2 639.9 700.9 616 690.2 595.2 680.8 474.1 666.3 428.8 688.6 426.6 696.3 420.6 710.7 422.2 707.7Z" fill="#070707"/></g><path d="M420 702.4C430.4 681.7 468.8 683.6 481.2 702.5 501.3 733.2 499.5 809.1 502.2 832.4 564.7 834.1 644.5 833.9 661.3 826.1 664 745.8 645.8 694.9 622 684.1 601.2 674.7 466.9 664.3 421.6 686.5 419.4 694.4 418.5 705.5 420 702.4Z" fill="#070707"/><path d="M396 931.8C402.6 936.1 455.7 950.6 472.8 950.7 473.8 900.6 472.8 720 465.7 699.3 459.3 680.9 423.6 684.2 419.2 701.8 412.9 726.3 394.5 907.2 396 931.8Z" fill="#070707"/><path d="M647.4 869.4C648 894.4 648.4 916.6 647.6 930.7 629.9 943.6 538.1 953.7 472.8 950.8 455.9 947.4 406.8 934.7 399.5 932.3 399.4 924.2 400.4 902.5 402.2 875.2 429.8 877.2 489.8 881.6 647.4 869.4Z" fill="#070707"/><path d="M396 931.8C395.5 924 397 900.8 399.5 871.8 424.4 873.7 449.9 875.6 473 877.3 473.2 908.3 473.1 935.5 472.8 950.6 455.7 950.7 402.6 936.2 396 931.8Z" fill="#070707"/><path d="M522.9 938.5C522.4 930.7 521.7 913.2 524.2 884.2 549.1 886.1 612.4 877 633.4 876.2 636.5 892.3 634.9 915.4 633.9 927.7 615.7 931.9 529.4 942.8 522.9 938.5Z" fill="#070707"/><g opacity="0.2"><path d="M531.9 919.3C531.5 909.5 532.9 897.4 524.5 884.4 549.4 885.7 607.9 882.4 628.9 881.9 635.3 890.9 635.6 901.4 634.6 909.5 616.1 915.3 577.3 923.9 531.9 919.3Z" fill="#070707"/></g><path d="M534.1 909.5C533.4 898.6 531.7 891.3 524 883.9 548.9 885.1 613.9 876.3 634.9 875.8 641.3 884.8 640.6 892.3 639.6 900.5 638 907.5 536.4 921.6 534.1 909.5Z" fill="#070707"/><path d="M607.3 679.4C611.8 680.5 616.1 686 617.1 687.5 647.5 736.3 640 855.4 639.9 856.9 639.7 860.1 637.1 862.5 633.9 862.5 633.8 862.5 633.5 862.5 633.5 862.5 630.2 862.3 627.7 859.4 627.9 856.1 630.7 811.8 626.2 681.8 587.5 677 585.8 676.8 605.2 678.9 607.3 679.4Z" fill="#070707"/><path d="M500.9 672.5 501.1 672.5C507.2 672.1 513.4 670.9 517.4 672.1 521.6 674.2 524.7 678.1 526.7 681.8 542.7 711.7 550.6 772.6 550.2 863.8 550.2 867.1 547.5 869.8 544.2 869.8 540.9 869.8 538.2 867.1 538.2 863.8 538.7 749 524.8 677.9 500.9 672.5Z" fill="#070707"/><path d="M534.2 824C533.4 823.6 532.9 822.8 533 821.9 533.2 818.6 533.3 807.4 532.2 802.2 532.1 801.5 532.3 800.8 532.8 800.2 533.3 799.7 534 799.5 534.7 799.5 535.6 799.5 548.5 799.2 549.1 799.3 550.1 799.3 551 800 551.2 801 551.9 803.9 552.8 817.8 552 822.1 551.9 822.9 551.3 823.5 550.6 823.8 549 824.4 546.4 824.8 542.3 824.8 538.6 824.8 535.1 824.5 534.2 824ZM548.8 803.7C547.9 803.7 538.8 804 537 804 537.6 809.2 537.6 816.4 537.5 820.1 540.5 820.3 546.5 820.3 549.4 819.9 549.7 816 549.3 807.7 548.8 803.7Z" fill="#070707"/><path d="M625.2 819C624.4 818.6 623.9 817.8 624 816.9 624.2 813.6 624.3 802.4 623.2 797.2 623.1 796.5 623.3 795.8 623.8 795.2 624.3 794.7 625 794.5 625.7 794.5 626.6 794.5 639.5 794.2 640.1 794.3 641.1 794.3 642 795 642.2 796 642.9 798.9 643.8 812.8 643 817.1 642.9 817.9 642.3 818.5 641.6 818.8 640 819.4 637.4 819.8 633.3 819.8 629.7 819.8 626.2 819.5 625.2 819ZM639.9 798.7C639 798.7 629.9 799 628.1 799 628.7 804.2 628.7 811.4 628.6 815.1 631.6 815.3 637.6 815.3 640.5 814.9 640.7 811 640.3 802.7 639.9 798.7Z" fill="#070707"/><path d="M406.4 924.8C395.1 916.2 407.1 864.3 409.7 833.4 422.5 834.5 456.9 836.3 467.1 835.5 468.6 851.6 465.3 924.8 464.8 937.2 454.2 937.8 413.3 928.2 406.4 924.8Z" fill="#070707"/><g opacity="0.2"><path d="M406.1 862.1C407.2 853 407.8 847.1 411.5 837.2 423.6 838.4 455.6 836.7 465.8 836.2 462.3 842.5 458.7 859.9 458.2 868.1 449.4 870.9 409.3 865 406.1 862.1Z" fill="#070707"/></g><path d="M455.6 861.6C458.1 848.6 461.2 838.8 467.2 835.4 451.2 836.2 420.3 833.5 410.2 833 404.9 835.6 401.4 843.7 401 855.6 409.8 858.4 443.7 861.1 455.6 861.6Z" fill="#070707"/></g><path d="M543.5 662.6C545.3 660.6 548.8 652.2 550.6 645.5 551.3 663.9 538.1 665.6 540.7 668 543.4 670.4 551.7 670.7 554.9 667 557.2 664.4 562.2 653 564 645.6 565.9 659.7 555.2 666.8 558.3 668.2 561.6 669.7 567.6 667.7 570.4 663.7 574.3 658.2 577 635.9 574.1 632 570.8 627.5 553.9 616.9 538.6 610.3 520.8 602.6 500 597.6 494.7 608.5 484.1 630.3 509.2 631.6 524 635.4 527 655.3 516.2 652.3 519.2 656.3 521.4 659.2 529.9 659.3 532.8 656 534.2 654.4 536.6 649.1 538.4 643.7 538.9 659.5 527.3 660.6 529.8 662.8 532.6 665.3 540.5 665.9 543.5 662.6Z" fill="#070707"/></g></svg>