<svg width="473.3" height="981.6" viewBox="0 0 473.3 981.6" xmlns="http://www.w3.org/2000/svg" xmlns:xlink="http://www.w3.org/1999/xlink" overflow="hidden"><defs></defs><g><path d="M186 944.2 225 938C219.6 882.8 210.4 770.7 201.8 686.9L131.6 698.5C148.8 775.5 173.5 888.1 186 944.2Z" fill="#FFD5C7"/><path d="M389 925.7 349.2 938C329.5 886.2 287.9 781.6 258.4 702.7L333.6 679.9C351.8 756.8 375.7 869.7 389 925.7Z" fill="#FFD5C7"/><path d="M377.2 651.7C261.9 719.9 135.6 673.4 118.4 660.2 131.2 528 126.1 483 149.9 408.2 170.5 406.1 281.7 406.1 322.6 410.4 343.3 410 362.3 423.4 366.2 449 372.2 487.8 373.9 575.5 377.2 651.7Z" fill="#DD8717"/><path d="M367 450.2C366.2 444.8 364.9 439.9 363 435.5 357 421.6 338.8 421.7 332.3 435.4 329.2 441.9 327.3 449.6 326.8 458.3 324.4 501.6 331.2 595.3 335.8 680.4 349.6 675 363.5 668 377.3 659.1 374.2 580.6 372.7 490.2 367 450.2Z" fill="#F9BB3D"/><path d="M335.4 670.3C349.2 665 363.1 658.3 376.9 649.7 375.9 624.9 374.5 577 374.5 577 374.5 577 346 580.2 330 578.2 331.7 608.2 333.7 639.8 335.4 670.3Z" opacity="0.22"/><path d="M336.4 680.4C351.7 675 367 668 382.2 659.1 381.1 633.5 380.1 606.7 379.2 580.7 379.1 578.7 377.2 577.5 375.5 578.4 366.3 583.5 348.2 587.3 330.5 585.3 332.3 616.2 334.5 648.9 336.4 680.4Z" fill="#F9BB3D"/><path d="M116.7 634.5C121.2 727.3 143.6 829.3 167.5 897.3 186.3 894.4 209.7 892.5 228.4 889.9 225.1 839.8 217.6 784.5 212.9 725.7 212.1 715.8 215.8 702.3 230.1 702.1 244.4 701.9 256.4 716.6 260.9 726 284.4 775.4 310.7 842 326.3 889.9 348.9 889.6 371.5 883.2 392.4 877.4 371.9 810.4 342 703.3 323.7 634.5 251.1 642.8 188.9 631.9 116.7 634.5Z" fill="#872C1A"/><path d="M116.7 634.5C117.9 659.9 120.1 682.7 122.8 703.9 143.6 692.6 157.6 672.1 157.6 648.5 157.6 643.6 156.9 638.9 155.8 634.3 143 634.1 130.1 634 116.7 634.5Z" fill="#B75B46"/><path d="M342.2 696.1C337 675.4 329.2 654.7 323.8 634.5 305.9 636.5 288.6 637.4 271.6 637.6 274.8 669.6 306.4 694.7 342.2 696.1Z" fill="#B75B46"/><path d="M179.1 945.2 227.9 946.5C228.8 940.5 229.6 922.4 230.8 915.4L170.7 913.9C173.8 924.6 176.8 939.5 179.1 945.2Z" fill="#FFFFFF"/><g><path d="M157.6 935.4C158.5 932.2 160.4 928.3 161.8 924.6 162.9 921.9 189.6 922.8 189.5 929.3 189.5 931 189.4 932.5 189.2 933.8 193.8 933.9 198.7 934 204 933.9 215.4 933.7 225.6 932.9 232.8 931.9 233.1 942.3 231.9 960.2 232.1 971.7 232.1 971.7 112.7 992 94.2 974.4 89 969.5 119.2 948.3 157.6 935.4Z" fill="#B75B46"/><path d="M232.1 964.5C232.1 967.1 232 969.5 232.1 971.7 232.1 971.7 112.7 992 94.2 974.4 93.5 973.7 93.4 972.7 94 971.4 126.8 979.1 202.4 969 232.1 964.5Z" fill="#872C1A"/><path d="M165.3 945.5C165.6 946 166.2 946.2 166.7 946.2 167 946.2 167.4 946.1 167.6 945.9 168.3 945.4 168.5 944.3 168 943.6 163.5 937.4 155.5 934.1 148.5 935.4 147.6 935.6 147 936.5 147.2 937.4 147.4 938.3 148.3 938.9 149.2 938.7 154.9 937.4 161.5 940.3 165.3 945.5ZM156.8 949.4C157.1 949.8 157.6 950 158.1 949.9 158.5 949.9 158.9 949.7 159.2 949.5 159.9 948.9 159.9 947.8 159.3 947.1 154.1 941.4 147 938.6 139.7 939.3 138.8 939.4 138.1 940.2 138.2 941.1 138.3 942 139.1 942.7 140 942.6 143.6 942.3 150.7 942.7 156.8 949.4ZM128.5 945.7C128.6 946.6 129.5 947.2 130.4 947.1 136 946.2 143.2 949 148 953.8 148.3 954.1 148.8 954.3 149.2 954.3 149.6 954.3 150 954.1 150.3 953.8 151 953.2 151 952.1 150.3 951.4 144.8 945.9 136.4 942.7 129.8 943.7 129 944 128.4 944.8 128.5 945.7Z" fill="#D3DAE5"/></g><path d="M387.8 941.6 339 942.9C338.1 936.9 337.3 918.8 336.1 911.8L396.2 910.3C393.1 921 390.1 935.9 387.8 941.6Z" fill="#FFFFFF"/><path d="M407.2 537.2C369.8 503.4 313.7 451.7 305.3 447.3L264.2 499.6C273.2 512.7 340.5 545.6 384.2 573.7 390.8 577.2 426.3 570.6 407.2 537.2Z" fill="#E4A78E"/><path d="M33 498.6C81.5 479.9 152.1 444.7 161.9 443.3L187.2 506.8C173.8 515.7 96.1 525 43.3 537 35.6 538.1 2.8 522.2 33 498.6Z" fill="#E4A78E"/><path d="M338.4 685.6C223.3 712.4 132.4 672.6 117.6 662.8 116 650.6 123.9 626.7 132.9 600.9 169 596.4 289.2 616.2 323.4 619.6 323.4 642.9 334.2 662.6 338.4 685.6Z" opacity="0.22"/><path d="M356 663.9C233.7 694.9 126.4 666.3 110.7 656.5 121.2 560.7 144 497.5 165 443.4 203.3 439 274 439.9 310.3 443.4 310.3 492.9 329.4 569.9 356 663.9Z" fill="#3191BC"/><path d="M200.2 402.4 200.2 446C200.2 455.4 213.8 463 230.6 463 247.4 463 261 455.4 261 446L261 402.4 200.2 402.4Z" fill="#E4A78E"/><g><path d="M409.3 931.8C408.4 928.6 406.5 924.7 405.1 921 404 918.3 377.3 919.2 377.4 925.7 377.4 927.4 377.5 928.9 377.7 930.2 373.1 930.3 368.2 930.4 362.9 930.3 351.5 930.1 341.3 929.3 334.1 928.3 333.8 938.7 335 956.6 334.8 968.1 334.8 968.1 454.2 988.4 472.7 970.8 478 965.9 447.7 944.8 409.3 931.8Z" fill="#B75B46"/><path d="M334.8 960.9C334.8 963.5 334.9 965.9 334.8 968.1 334.8 968.1 454.2 988.4 472.7 970.8 473.4 970.1 473.5 969.1 472.9 967.8 440.2 975.5 364.5 965.4 334.8 960.9Z" fill="#872C1A"/><path d="M417.7 935C418.6 935.2 419.5 934.6 419.7 933.7 419.9 932.8 419.3 931.9 418.4 931.7 411.5 930.3 403.5 933.7 398.9 939.9 398.4 940.6 398.5 941.7 399.3 942.2 399.6 942.4 399.9 942.5 400.2 942.5 400.7 942.5 401.2 942.3 401.6 941.8 405.4 936.7 412 933.8 417.7 935ZM427 939.1C427.9 939.3 428.7 938.5 428.8 937.6 428.9 936.7 428.2 935.9 427.3 935.8 420 935.1 412.8 937.9 407.7 943.6 407.1 944.3 407.1 945.3 407.8 946 408.1 946.3 408.5 946.4 408.9 946.4 409.4 946.4 409.8 946.2 410.2 945.9 416.2 939.1 423.3 938.7 427 939.1ZM437 940.2C430.4 939.2 422 942.3 416.5 947.9 415.9 948.6 415.9 949.6 416.5 950.3 416.8 950.6 417.2 950.8 417.6 950.8 418 950.8 418.5 950.6 418.8 950.3 423.6 945.5 430.8 942.6 436.4 943.6 437.3 943.8 438.2 943.1 438.3 942.2 438.6 941.2 437.9 940.4 437 940.2Z" fill="#D3DAE5"/></g><path d="M402.9 888.1C381.3 894.1 339.6 901.3 329.1 902.2L322.4 877C328.3 877.1 390.7 864.1 396.7 862.9L402.9 888.1Z" fill="#B75B46"/><path d="M164.3 906.4C186.5 906.8 225.1 903.5 235.3 901.6L235.3 875.5C229.7 877.1 166.8 880.3 160.8 880.5L164.3 906.4Z" fill="#B75B46"/><path d="M391.5 503.2C388.1 534.9 332.2 563.1 324.5 559.4 324.5 559.4 302.7 448.6 304.7 441.5 306.6 441.2 391.5 503.2 391.5 503.2Z" fill="#3191BC"/><path d="M67.8 474.1C59.9 508.3 122.1 548.2 133.1 547.4 133.1 547.4 177.3 445.1 177.6 437 175.2 435.8 67.8 474.1 67.8 474.1Z" fill="#3191BC"/><g><path d="M311.9 470.2C262.8 472.4 208.5 471.2 156.6 465.4 155.8 467.5 155 469.8 154.2 472 190 476.1 227.1 478.3 262.9 478.4 280 478.4 296.5 477.9 312.7 477.2 312.4 474.8 312.2 472.5 311.9 470.2Z" fill="#97DAF2"/><path d="M252.2 570C279 570.1 305.3 568.6 329.8 566 329.2 563.6 328.8 561.4 328.2 559.1 266.6 565.7 194.5 564.3 129.5 551.3 128.9 553.6 128.3 555.7 127.8 558.1 167.9 566.1 210.7 569.9 252.2 570Z" fill="#97DAF2"/><path d="M265.9 522.6C284.5 522.7 302.5 522.1 320 521.2 319.6 519 319 516.6 318.6 514.4 263.1 517.1 200.2 515.3 142 507.6 141.3 509.8 140.6 512.1 139.9 514.3 180.9 519.8 224.3 522.5 265.9 522.6Z" fill="#97DAF2"/><path d="M226.9 654.1C270.4 654.2 312.6 648.9 349.3 640.1 348.7 637.9 348.1 635.7 347.5 633.5 279.1 650 190.9 653 113.7 633.6 113.4 635.9 113.1 638.3 112.8 640.6 149.4 649.6 188.5 654 226.9 654.1Z" fill="#97DAF2"/><path d="M242.1 611.5C276.5 611.6 309.7 609.2 339.8 604.9 339.2 602.7 338.6 600.3 338 598.1 272.8 607.2 192.2 607.2 120.2 593 119.8 595.2 119.4 597.6 119 599.9 158.8 607.7 201.1 611.4 242.1 611.5Z" fill="#97DAF2"/></g><path d="M341.3 602.1C340.8 602.1 340.4 602 339.9 601.9 305.9 591.2 287.1 549.8 283.5 513.5 283 508.6 285.5 504 289 503.3 292.5 502.5 295.8 506.1 296.2 511 299.2 541.1 314.7 575.4 342.7 584.2 346.2 585.3 348.3 590.1 347.6 595 346.9 599.3 344.2 602.1 341.3 602.1Z" fill="#DD8717"/><path d="M306.5 432.7C302.7 454.3 306.7 496.1 307.4 505.3 308.1 514.9 300.6 523 291.4 523.3 282.3 523.6 275.6 516 274.3 506.4 271.6 486.5 269.3 459 273.7 433L306.5 432.7Z" fill="#FBB03B"/><path d="M299.1 494.1C298.9 496.3 301.7 498.3 305.1 498.7 308.5 499.1 311.4 497.6 311.6 495.4 311.8 493.2 309.3 491.1 306 490.7 302.6 490.4 299.4 491.9 299.1 494.1Z" fill="#E4A78E"/><path d="M293.8 486.4C295.8 488.5 296.4 478.5 310 478.5 305.4 480.2 300.9 482.4 299.6 483.6 296.8 486.2 297.2 493.5 299.7 495.3 303.2 497.8 300.3 488.6 317.5 490.7 321.2 503.3 322.9 524.9 341.4 515.2 350.6 510.4 345.8 492.6 338.7 477.5 332.6 464.5 323 450.2 319.1 447.5 315.7 445.1 296.6 448 291.9 451.5 288.5 454 286.9 459.2 288.3 462 289.6 464.6 295.4 455.2 307.6 456.5 301.3 458.2 291.6 462.8 289.4 464.8 286.3 467.7 286.8 474.8 288.9 477.1 291 479.3 292.2 467.9 308 468 302.3 469.7 295.2 472.9 293.5 474.5 290.9 477.3 291.7 484.2 293.8 486.4Z" fill="#FFD5C7"/><path d="M330.4 517.6C354.9 561.3 388.6 575.2 388.6 575.2 418.3 584.9 426.7 545.2 406.2 536.9 387.9 531.9 364.7 517.2 344.4 499.5 340.9 496.5 328.1 513.6 330.4 517.6Z" fill="#FFD5C7"/><path d="M116.4 602.1C116.8 602.1 117.2 602 117.6 601.9 147.1 591.2 163.4 549.8 166.5 513.5 166.9 508.6 164.8 504 161.8 503.3 158.7 502.5 155.9 506.1 155.5 511 152.9 541.1 139.5 575.4 115.2 584.2 112.2 585.3 110.3 590.1 111 595 111.5 599.3 113.8 602.1 116.4 602.1Z" fill="#DD8717"/><path d="M194.2 436.2C186.7 456.8 183.4 498.7 182.4 507.9 181.4 517.5 172.6 524.2 163.5 522.9 154.5 521.6 149.2 512.9 149.6 503.3 150.4 483.3 151.4 460.2 160.3 435.3L194.2 436.2Z" fill="#FBB03B"/><path d="M176.8 474.4C175.1 472.8 168 469.6 162.2 467.9 178.1 467.8 179.3 479.2 181.4 477 183.6 474.7 184 467.6 180.9 464.7 178.7 462.7 168.9 458 162.6 456.3 174.9 455 180.7 464.4 182 461.8 183.4 459 181.8 453.8 178.4 451.2 173.7 447.7 154.5 444.8 151 447.2 147 449.9 137.4 464.3 131.3 477.4 124.1 492.6 119.3 510.5 128.6 515.3 147.2 525 148.9 503.3 152.6 490.6 169.9 488.5 167.1 497.8 170.6 495.3 173.2 493.5 173.5 486.1 170.7 483.5 169.4 482.3 164.8 480.1 160.2 478.3 173.9 478.2 174.6 488.3 176.6 486.2 178.8 483.9 179.6 477.1 176.8 474.4Z" fill="#FFD5C7"/><path d="M135.4 517.7C102.1 540.2 43 542.1 43 542.1 8.3 539.5 12.3 501.1 44.4 498.4 66.9 498.6 98.7 501.1 127.8 492.6 132.8 491.2 139.7 514.8 135.4 517.7Z" fill="#FFD5C7"/><path d="M2.8 297.8C13.2 337.8 52.2 363 81.4 359.1 110.7 355.2 116.3 322.3 111.1 283.7 105.9 245.1 78 216.9 48.7 220.9 8.8 226.5-7 260.2 2.8 297.8Z" fill="#FAC7B3"/><path d="M38 306.5C40.3 323.4 54.2 335.5 69.1 333.5 84 331.5 94.3 316.2 92 299.2 89.7 282.3 75.8 270.2 60.9 272.2 46 274.2 35.8 289.6 38 306.5Z" fill="#E4A68D"/><path d="M468.6 300.3C457.8 340.2 418.5 365 389.3 360.7 360.1 356.5 354.8 323.5 360.4 285 366 246.5 394.2 218.6 423.4 222.9 463.3 228.8 478.8 262.7 468.6 300.3Z" fill="#FAC7B3"/><path d="M431.1 308.5C428.7 325.4 414.6 337.3 399.7 335.2 384.8 333 374.7 317.6 377.2 300.7 379.6 283.8 393.7 271.9 408.6 274 423.5 276.2 433.6 291.7 431.1 308.5Z" fill="#E4A68D"/><path d="M449.5 169.3C453.8 294.9 361.5 351 239.6 350.4 117.7 349.8 30.2 287.9 29.2 167.1 28.3 54 114.8-0.6 236.7 0 358.6 0.6 445.4 50.9 449.5 169.3Z" fill="#774839"/><path d="M415.6 212.8C421.2 360 338.9 426 233.1 425.4 127.3 424.8 51.5 355.9 57.3 208.7 61.9 90 129.3 60.1 235 60.7 340.8 61.3 410.8 87.2 415.6 212.8Z" fill="#FBD3C7"/><path d="M367 84.5C368.2 111.4 310.2 136 237.4 139.3 164.6 142.7 104.6 123.6 103.3 96.7 102.1 69.8 160.1 45.2 232.9 41.9 305.8 38.5 365.8 57.6 367 84.5Z" fill="#774839"/><path d="M383.6 324.4C383.5 344.2 367.3 360.2 347.5 360.1 327.7 360 311.7 343.8 311.8 324 311.9 304.2 328.1 288.2 347.9 288.3 367.7 288.4 383.7 304.5 383.6 324.4Z" fill="#FFC0C0"/><path d="M163 323.9C162.9 343.7 146.7 359.7 126.9 359.6 107.1 359.5 91.1 343.3 91.2 323.5 91.3 303.7 107.5 287.7 127.3 287.8 147.1 287.9 163.1 304.1 163 323.9Z" fill="#FFC0C0"/><g><path d="M273.7 286.4C273.7 286.4 305.4 294.4 330.6 283.3 350.9 274.4 364.2 251 360.1 242 356.2 233.3 328.3 229 309.9 239.8 284 255.1 273.7 286.4 273.7 286.4Z" fill="#F9FEFF"/><path d="M324.6 235.7C324.3 235.6 324 235.5 323.7 235.4 318.6 236.5 313.7 238.3 309.3 240.9 300.9 245.8 294.1 252.2 288.6 258.8 289 267.5 293.7 275.7 302 279.9 314.2 286.2 329.2 281.3 335.5 269.1 341.6 256.9 336.8 241.9 324.6 235.7Z" fill="#461D14"/><path d="M296.3 251.8C294.8 254.8 296 258.4 298.9 260 301.9 261.5 305.5 260.3 307.1 257.4 308.6 254.4 307.4 250.8 304.5 249.2 301.5 247.7 297.9 248.8 296.3 251.8Z" fill="#F9FEFF"/><path d="M352.5 265.6C357.3 258.6 361.2 246.4 359 242.5 357.8 240.3 354.8 238.1 350.2 236.7 339.8 233.4 322.8 233.7 310.6 240.9 301.5 246.2 292.8 254 285 264.1 289.6 255 297.5 245.2 306.5 239.7 333.8 222.9 362.4 234.2 363.7 237.2 366.1 242.5 360.6 257.5 352.5 265.6Z" fill="#461D14"/></g><g><path d="M197.1 286C197.1 286 165.3 293.6 140.3 282.3 120.1 273.2 107 249.7 111.2 240.7 115.2 232 143.1 228 161.4 239 187.2 254.5 197.1 286 197.1 286Z" fill="#F9FEFF"/><path d="M146.8 234.8C147.1 234.7 147.4 234.6 147.7 234.5 152.7 235.7 157.7 237.5 162.1 240.2 170.4 245.2 177.2 251.7 182.7 258.4 182.3 267.1 177.4 275.2 169.1 279.4 156.8 285.5 141.9 280.5 135.8 268.3 129.5 255.8 134.5 240.9 146.8 234.8Z" fill="#461D14"/><path d="M174.9 251.2C176.4 254.2 175.2 257.8 172.2 259.3 169.2 260.8 165.6 259.6 164.1 256.6 162.6 253.6 163.8 250 166.8 248.5 169.7 247 173.4 248.2 174.9 251.2Z" fill="#F9FEFF"/><path d="M118.6 264.4C113.9 257.3 110.1 245.1 112.3 241.2 113.5 239 116.6 236.9 121.1 235.5 131.6 232.3 148.5 232.8 160.7 240.1 169.7 245.5 178.4 253.4 186 263.6 181.5 254.5 173.7 244.5 164.8 238.9 137.6 221.8 109 232.8 107.6 235.8 105.2 241.1 110.6 256.2 118.6 264.4Z" fill="#461D14"/></g><path d="M352.2 180.3C351 180.3 349.9 179.9 348.9 179 337 168.3 314.3 165.2 296.1 171.9 293.6 172.8 290.7 171.5 289.8 169 288.9 166.5 290.2 163.6 292.7 162.7 314.4 154.7 340.8 158.5 355.5 171.8 357.5 173.6 357.7 176.7 355.8 178.7 354.9 179.8 353.5 180.3 352.2 180.3Z" fill="#774839"/><path d="M117.3 179.1C116 179.1 114.6 178.5 113.6 177.4 111.8 175.4 112 172.3 114 170.5 128.8 157.4 155.2 153.9 176.9 162.1 179.4 163.1 180.7 165.9 179.8 168.4 178.8 170.9 176 172.2 173.5 171.3 155.4 164.4 132.6 167.3 120.6 177.9 119.7 178.7 118.5 179.1 117.3 179.1Z" fill="#774839"/><path d="M247.9 305.5C247.1 305.5 246.3 304.9 246.2 304 245.2 298 240.5 294 234.1 294 227.7 294 222.8 297.9 221.9 303.8 221.8 304.7 220.9 305.4 219.9 305.3 219 305.2 218.3 304.3 218.4 303.3 219.5 295.7 226 290.5 234 290.5 242 290.5 248.3 295.7 249.5 303.4 249.7 304.3 249 305.2 248.1 305.4L247.9 305.5Z" fill="#C68C75"/><g><path d="M307 322.4C300 301.2 269.7 311.9 250.5 317.9 245.4 319.4 240.6 320.6 236.9 320.9 234.7 320.8 232.1 320.5 229.2 319.8 211.1 315.7 173.2 299.9 166.9 323.9 161.2 345.8 196 379.4 239.4 377 289.6 374.2 313.7 342.4 307 322.4Z" fill="#5B0000"/><path d="M287.7 309.2C275.9 309.2 261.6 313.5 250.8 316.8 245.6 318.4 240.8 319.6 236.9 319.8 234.6 319.7 232 319.4 229 318.7 217.7 316.1 198.7 309.5 184.3 310.2 187.2 323.4 209.4 333.4 236.3 333.1 263.1 332.9 285.1 322.4 287.7 309.2Z" fill="#FFFFFF"/><path d="M245 355.5C222.5 350.6 201.8 355 191.6 365.3 204.6 373.3 221.2 378.6 239.3 377.6 253.6 376.8 265.8 373.6 275.8 369.1 267.7 363 257.1 358.1 245 355.5Z" fill="#E5897A"/></g></g></svg>