<svg width="500.7" height="982.1" viewBox="0 0 500.7 982.1" xmlns="http://www.w3.org/2000/svg" xmlns:xlink="http://www.w3.org/1999/xlink" overflow="hidden"><defs></defs><g><path d="M93.4 943.3C106.8 938.4 122.6 942.6 135.8 937.3 141.2 888.6 155.9 818.6 172.4 715.5 148.3 703.2 123.2 693.7 98.8 682.2 90.8 784.7 91.3 896.5 93.4 943.3Z" fill="#CC6A1F"/><path d="M92.6 939.9 142.6 941C143.6 933.4 143.8 922.3 143.6 912.2L80.3 905.9C85.5 939.3 92 936.8 92.6 939.9Z" fill="#FFFFFD"/><path d="M366.5 805.2C372.5 803.8 367.5 762.9 361.4 763.4 318.3 766.6 272.6 771 263.6 766.9 256.7 763.7 256.5 707.3 252.3 664.1L172.5 679.1C178.7 720 204.7 813.3 216.9 821.7 233.2 833 360.2 806.7 366.5 805.2Z" fill="#CC6A1F"/><path d="M339.1 762.3C330.2 763.2 325 761.7 317.9 762.5L324.3 821.6C324.3 821.6 345.5 812.7 352.9 812 368.6 805.3 354.8 765.6 339.1 762.3Z" fill="#FFFFFD"/><path d="M105.6 604.3C105.6 604.3 39.7 653.2 23.7 680.6 60.9 770.7 254 819.5 359.8 664.1 341 641 283.2 606 257.7 598.7L105.6 604.3Z" fill="#1D7D82"/><g><path d="M68.1 933.8C69.1 930.5 71.2 926.3 72.8 922.5 74 919.7 102 921.3 101.8 928.2 101.8 930 101.6 931.5 101.4 932.9 106.2 933.1 111.4 933.3 116.9 933.3 128.9 933.3 139.6 932.8 147.2 931.9 147.3 942.9 145.5 961.8 145.5 974 145.5 974 19.5 992.5 0.5 973.4-4.8 968.1 27.5 946.6 68.1 933.8Z" fill="#48ABB5"/><path d="M145.8 966.4C145.7 969.1 145.6 971.7 145.6 974 145.6 974 19.6 992.5 0.6 973.4-0.2 972.6-0.1 971.6 0.5 970.2 34.7 979.2 114.5 970.4 145.8 966.4Z" fill="#1D7D82"/><path d="M76 944.6C76.3 945.1 76.9 945.4 77.4 945.4 77.7 945.4 78.1 945.3 78.4 945.1 79.2 944.5 79.4 943.4 78.8 942.6 74.2 935.9 65.9 932.2 58.5 933.5 57.5 933.7 56.9 934.6 57.1 935.5 57.3 936.5 58.2 937.1 59.1 936.9 65.3 935.9 72.2 939.1 76 944.6ZM67 948.6C67.3 949 67.8 949.2 68.3 949.2 68.7 949.2 69.1 949.1 69.5 948.8 70.2 948.2 70.3 947 69.7 946.3 64.4 940.2 57 937 49.3 937.6 48.3 937.7 47.6 938.5 47.7 939.5 47.8 940.5 48.6 941.3 49.6 941.1 53.3 940.8 60.7 941.4 67 948.6ZM37.3 944C37.4 945 38.3 945.7 39.3 945.5 45.2 944.6 52.7 947.8 57.6 953 57.9 953.4 58.4 953.6 58.9 953.6 59.3 953.6 59.8 953.4 60.1 953.1 60.8 952.4 60.8 951.3 60.2 950.6 54.6 944.6 45.8 941.1 38.9 942 37.9 942.2 37.2 943 37.3 944Z" fill="#D3DAE5"/></g><g><path d="M356 825.6C352.8 825.7 348.5 825.2 344.7 825 341.9 824.8 334.4 799.9 340.5 797.9 342.1 797.4 343.5 797 344.7 796.7 343.4 792.4 341.9 787.9 340.2 783 336.5 772.5 332.6 763.3 329.4 757 338.9 753.5 355.9 749 366.5 745.3 366.5 745.3 422.4 849.4 411.9 872 408.9 878.4 379.9 857 356 825.6Z" fill="#48ABB5"/><path d="M359.8 747.6C362.2 746.8 364.5 746.1 366.5 745.4 366.5 745.4 422.4 849.5 411.9 872.1 411.5 873 410.5 873.3 409.2 873.2 406 840.5 373.1 773.7 359.8 747.6Z" fill="#1D7D82"/><path d="M362.9 815.3C363.2 814.8 363.3 814.3 363.1 813.8 363 813.5 362.8 813.2 362.5 813 361.8 812.5 360.8 812.7 360.2 813.4 355.9 819.5 355.3 827.9 358.7 833.9 359.1 834.7 360.1 834.9 360.9 834.5 361.7 834.1 361.9 833.1 361.5 832.3 358.7 827.4 359.3 820.4 362.9 815.3ZM369.2 822C369.4 821.6 369.5 821.1 369.3 820.7 369.2 820.3 368.9 820 368.6 819.8 367.8 819.4 366.8 819.7 366.4 820.4 362.8 826.9 362.4 834.4 365.3 841 365.7 841.8 366.6 842.2 367.4 841.8 368.2 841.4 368.6 840.4 368.2 839.7 366.8 836.3 364.9 829.7 369.2 822ZM374.6 849.3C375.4 848.9 375.7 847.9 375.3 847.1 372.7 842.3 373.1 834.7 376 828.8 376.2 828.4 376.2 827.9 376.1 827.5 376 827.1 375.7 826.8 375.3 826.6 374.5 826.2 373.5 826.5 373.1 827.3 369.7 834.1 369.4 842.8 372.4 848.6 372.8 849.4 373.8 849.7 374.6 849.3Z" fill="#D3DAE5"/></g><path d="M115.2 576.1C115.2 610.2 81.8 639.4 66.8 639.4 51.8 639.4 47.7 606.1 52.5 569 57.1 532.7 66.6 499.6 81.6 499.6 96.6 499.5 115.2 542 115.2 576.1Z" fill="#CC6A1F"/><path d="M71.8 624.8C208 682.9 268.8 630.7 278.3 612.1 262 581.9 253 506.4 244.8 463.4 216.6 462.5 145.3 457.5 103.8 468.4 81.2 498.9 77.6 605.6 71.8 624.8Z" fill="#48ABB5"/><path d="M202.2 421.6 202.2 467.4C202.2 477.2 188.7 485.2 172.1 485.2 155.5 485.2 142 477.2 142 467.4L142 421.6 202.2 421.6Z" fill="#AF5315"/><g><g><path d="M5.6 293.1C3.5 332 20.2 362.7 37.2 364.8 54.2 366.9 63.8 337.8 68.5 301.3 73.2 264.8 63.3 233.4 46.2 231.4 22.9 228.6 7.5 256.6 5.6 293.1Z" fill="#CC6A1F"/><path d="M24.9 315.4C27.7 331.1 37.3 341.1 46.4 337.9 55.5 334.6 60.6 319.3 57.8 303.6 55 287.9 45.4 277.9 36.3 281.1 27.2 284.4 22.1 299.7 24.9 315.4Z" fill="#994710"/><path d="M55.1 208C39 327.5 106.1 391.2 210.2 405.1 314.3 419 410.6 376.4 414.1 255.8 417.4 140 315.1 97.1 253.5 84.4 150.6 63.3 71.3 88.4 55.1 208Z" fill="#351601"/><path d="M75.2 152.6C70.8 155.8 68.2 160.9 67.8 173.1 64.1 265.4 43 272.5 35.4 328.9 27.9 384.4 58.1 423.2 101.9 439.2 144.6 454.8 259.3 475.8 335 371.1 367.1 326.7 379.5 226.6 374.7 206.3 358.3 137.6 322.8 139.6 238.1 128.3 158.7 117.7 124.8 116 75.2 152.6Z" fill="#CC6A1F"/><path d="M328.3 264.4C317.3 299.3 310.9 328.6 333.1 352 359 379.3 397.2 302 404.8 245.2 412.5 188.4 378.1 140.9 305.3 136.3 268 133.8 358 170.6 328.3 264.4Z" fill="#351601"/><path d="M411.3 368.9C392.8 405 350.4 420.8 323.5 410.9 296.5 400.9 298.2 368.3 311.4 332.4 324.6 296.6 357.2 275.5 384.1 285.5 420.9 299.2 428.7 334.9 411.3 368.9Z" fill="#CC6A1F"/><path d="M364.2 371.6C354.3 387.4 334.2 390.9 327 384.8 318.9 378 320.8 368 327.4 352 335.1 333.3 345.8 324.1 358.2 330.8 371.2 337.9 375.9 353.1 364.2 371.6Z" fill="#994710"/><path d="M224.5 374.1C222.3 390.4 233.7 405.3 249.9 407.5 266.1 409.7 281 398.2 283.2 382 285.4 365.7 274 350.8 257.8 348.6 241.6 346.4 226.7 357.8 224.5 374.1Z" fill="#CC5121"/><path d="M44.6 362C42.6 376.8 50.6 390.1 62.4 391.7 74.2 393.3 85.4 382.5 87.4 367.7 89.4 352.9 81.4 339.6 69.6 338 57.9 336.4 46.6 347.2 44.6 362Z" fill="#CC5121"/></g><g><path d="M193 323.4C193 323.4 226 337.9 248.6 330.2 258.2 327 265.9 319.7 268.5 305.7 272.3 285 252 270 238 269.4 222.4 268.6 206.6 280.2 198.6 297.2 194.8 305.1 192.7 314 193 323.4Z" fill="#FFFFFF"/><path d="M248.9 330.2C257.5 326.1 264 321.1 267.5 307.1 270.8 293.8 261.4 270.7 237.4 270.5 222.5 270.4 208.7 279 197 300.8 200.9 290.5 211.9 273.3 228.4 268.6 258.1 260.2 277 284.5 271.1 305.6 265.9 324.4 253.1 329.9 248.9 330.2Z" fill="#602220"/><path d="M255.1 298.5C258.5 309.9 252 321.8 240.7 325.2 229.4 328.6 217.5 322.1 214.1 310.8 210.7 299.4 217.2 287.5 228.5 284.1 239.9 280.7 251.8 287.2 255.1 298.5Z" fill="#461D14"/><path d="M253.7 295C254.6 298.2 252.8 301.5 249.7 302.4 246.6 303.3 243.3 301.5 242.3 298.4 241.4 295.2 243.2 291.9 246.3 291 249.5 290 252.8 291.8 253.7 295Z" fill="#FEFFFE"/></g><g><path d="M120.9 320.1C120.9 320.1 88.8 327.4 70.6 315.3 62.9 310.1 57.6 301.5 58.4 287.3 59.5 266.3 80.5 255.9 93 258.1 106.8 260.6 118.2 275.2 121.7 293.4 123.3 301.8 123.2 311 120.9 320.1Z" fill="#FFFFFF"/><path d="M70.4 315.2C63.7 309.4 59.1 303.2 59 288.8 58.9 275.2 72.1 254.6 93.3 259.3 106.4 262.2 116.7 273.6 122.3 297.2 121 286.3 115.1 267.3 101.6 259.3 77.3 245 55.5 264.8 56.1 286.6 56.7 306 66.6 314.1 70.4 315.2Z" fill="#602220"/><path d="M111.8 287.6C114.2 299 107.8 310.8 97.4 313.8 87 316.8 76.6 310 74.2 298.6 71.8 287.2 78.2 275.4 88.6 272.4 99 269.3 109.4 276.2 111.8 287.6Z" fill="#461D14"/><path d="M110.7 284C111.4 287.2 109.6 290.4 106.7 291.3 103.8 292.1 100.9 290.3 100.3 287.1 99.6 283.9 101.4 280.7 104.3 279.8 107.1 278.9 110 280.8 110.7 284Z" fill="#FEFFFE"/></g><path d="M73.5 208.1C74.5 208.2 75.6 208 76.5 207.4 88 199.5 108 199.6 122.8 207.5 124.9 208.6 127.5 207.8 128.6 205.7 129.7 203.6 128.9 201 126.8 199.9 109.1 190.4 85.8 190.6 71.6 200.3 69.6 201.6 69.1 204.3 70.5 206.3 71.2 207.3 72.3 207.9 73.5 208.1Z" fill="#461D14"/><path d="M70.7 211.1C69.4 210.5 68.3 209.5 67.4 208.3 66.2 206.5 65.8 204.4 66.2 202.3 66.6 200.2 67.8 198.4 69.6 197.1 84.9 186.7 110 186.5 128.6 196.5 132.5 198.6 134 203.4 131.9 207.3 130.9 209.2 129.2 210.6 127.2 211.2 125.1 211.8 122.9 211.5 121.1 210.6 107.5 203.3 88.9 203.2 78.6 210.3 77 211.4 75 211.9 73 211.6 72.2 211.7 71.4 211.4 70.7 211.1ZM122.4 201.9C106.2 194.4 86.2 194.9 73.8 203.4L73.5 208.1 74 204.4C74 204.4 74.2 204.4 74.4 204.3 87 195.7 108.5 195.5 124.6 204.2L125.1 203.2C124.2 202.7 123.3 202.3 122.4 201.9Z" fill="#461D14"/><path d="M269.9 234.2C271.1 234.4 272.3 234 273.2 233.2 275 231.7 275.2 229 273.7 227.2 262.6 214.1 240.2 207.9 220.6 212.4 218.3 212.9 216.9 215.2 217.4 217.5 217.9 219.8 220.2 221.3 222.5 220.7 239 216.9 258.2 222.1 267.2 232.7 267.9 233.6 268.9 234.1 269.9 234.2Z" fill="#461D14"/><path d="M218.2 223.9C216 222.9 214.3 220.9 213.7 218.4 213.2 216.3 213.6 214.1 214.7 212.3 215.8 210.5 217.6 209.2 219.7 208.7 240.6 203.9 264.5 210.6 276.5 224.7 277.9 226.3 278.6 228.4 278.4 230.6 278.2 232.7 277.2 234.7 275.6 236 273.9 237.5 271.6 238.2 269.4 237.9 267.4 237.6 265.7 236.6 264.4 235.2 256.2 225.6 238.5 220.9 223.3 224.4 221.5 224.8 219.8 224.6 218.2 223.9ZM256.5 219.5C246.1 214.7 233.3 213.3 221.4 216L221.7 217.1C239.4 213 260.2 218.7 270.1 230.3L269.9 234.2 270.4 230.5C270.6 230.5 270.7 230.5 270.8 230.4 267.2 225.8 262.2 222.2 256.5 219.5Z" fill="#461D14"/><path d="M135.4 326.4C136.1 326.5 136.8 326.1 137 325.3 138.6 320.2 143.1 317.4 148.6 318.1 154.1 318.8 157.9 322.8 157.9 328.1 157.9 328.9 158.6 329.6 159.4 329.6 160.2 329.6 160.9 328.9 160.9 328.1 160.9 321.4 155.9 316.1 149 315.2 142.1 314.3 136.1 318 134.1 324.5 133.9 325.3 134.3 326.1 135.1 326.4L135.4 326.4Z"/><g><path d="M120.7 369.1C121.4 392.3 140.4 410.6 163.3 409.8 186.1 409.1 204.5 385.4 203.8 362.1 203.1 338.9 183.4 348.1 160.6 347.3 137.7 346.5 120 345.8 120.7 369.1Z" fill="#5B0000"/><path d="M133.4 347.7C140.5 345.8 150 346.2 160.4 346.5 172.1 346.9 183 344.6 191 346.4 185.5 351.8 178.1 362.7 161.3 362.7 147.3 362.6 133.9 353.4 133.4 347.7Z" fill="#FFFFFF"/><path d="M151.2 391.6C167.3 386.3 182.2 387.3 191.7 395 184.3 403 174.9 410.2 163.3 410.6 152.6 411 142.8 406.2 135.2 399.8 140.1 396.3 145.1 393.6 151.2 391.6Z" fill="#EF8F6F"/></g><path d="M343 218.6C341.6 218.5 340.3 218.2 339 217.9 343.7 224.8 344 233.3 339 238.9 332.8 246 320.9 245.9 312.3 238.7 303.7 231.5 301.8 220 307.9 212.9 311.6 208.6 317.4 207 323.3 207.9 318.9 202.3 316.5 195.2 317.3 187.6 317.4 186.7 317.5 185.9 317.7 185 306.1 181.9 296.2 172.1 292.9 158.7 290.3 148.2 292.2 137.8 297.5 129.9 292.6 131.7 287.5 132.3 282.6 131.7 281.4 136.2 279.4 140.7 276.3 144.8 264.8 160.3 244 164.8 229.9 154.7 221.5 148.7 217.4 139 217.9 128.8 216.5 131.7 214.8 134.5 212.8 137.2 197.2 158.2 169.2 164.4 150.4 150.9 149.3 150.1 148.4 149.3 147.4 148.5 145.1 158.2 135.3 164.9 124.4 163.8 118.4 163.2 113.2 160.2 109.8 156.1 109.8 156.7 109.8 157.2 109.7 157.8 107.6 177.8 94.9 193.7 79.4 197.9 79.3 205.1 74.7 213 66.8 218.1 55.4 225.6 41.3 224.6 35.4 215.9 34.1 213.9 33.3 211.8 33 209.5 30.3 210.4 27.4 210.7 24.5 210.4 12.8 209.2 4.3 198.4 5.6 186.3 6.9 174.2 17.5 165.4 29.2 166.7 32 167 34.6 167.9 37 169.1 36.1 165.8 35.6 162.4 35.4 158.9 32.8 157.8 30.4 156.4 28 154.8 8.7 141 5.8 112.6 21.5 91.4 29.6 80.5 41.1 73.6 52.9 71.4 50.7 67.8 49.6 63.6 50 59.2 51.2 48.2 61.6 40.3 73.4 41.5 77.4 41.9 80.9 43.3 83.9 45.4 86.2 40.2 89.1 35.2 92.7 30.4 115.2 0.1 154.6-9.3 180.7 9.5 189.8 16 196.1 25.1 199.5 35.4 208.6 28.1 220.9 24.1 233.9 25.5 244.9 26.7 254.6 31.4 261.8 38.3 271.1 28.6 286.1 23 302.4 24.7 327.7 27.4 346.5 46.6 344.2 67.6 343.6 73.4 341.4 78.7 338 83.4 344.8 88.7 348.7 97.1 347.8 106.2 347.6 107.9 347.2 109.6 346.7 111.2 355.7 109.4 365.5 112 372.4 119 382.9 129.9 382.5 147 371.5 157.3 367.3 161.2 362.2 163.6 356.8 164.4 368.4 169 376 180.7 374.6 193.4 372.8 209.1 358.7 220.2 343 218.6Z" fill="#351601"/><path d="M451.3 294.8C465.1 298.6 478.1 295.2 481.3 286.5 483.7 279.9 479.8 271.9 472 265.9 475 261.8 477 257.1 477.7 252.1 490.3 248.1 498.9 240.9 500.5 231.5 502.4 220.6 494.2 209.4 480.3 200.8 484.5 194.6 487.5 187.6 488.8 179.8 493.9 150 473.1 121.6 442.3 116.4 434.7 115.1 427.3 115.4 420.3 116.9 421.4 112.7 421.2 108.2 419.6 103.9 415.3 92.2 402 86.4 389.9 90.9 382.7 93.6 377.6 99.4 375.5 106 375.8 94.4 371 93.3 363.4 91.3 353.7 88.9 342.9 91.2 339 106.9 336.5 116.8 337.5 126.3 341 132.6 334.7 133.8 329.9 137 328.1 141.9 325.3 149.7 331.3 159.4 342 165.6 337.8 168.9 334.4 173.3 332.4 178.7 327.6 191.9 332.8 206.2 344.2 213.4 336.3 224.4 334.2 236.5 339.9 244.5 345.4 252.2 356.7 254.1 369 250.8 365.7 254.8 363.4 259.6 362.4 265 359.3 283.2 373.3 300.7 393.7 304.1 399.1 305 404.4 304.8 409.3 303.7 409.5 305.5 409.9 307.2 410.6 308.9 414.9 320.6 427.4 326.7 438.6 322.5 449.4 318.5 454.9 306.2 451.3 294.8ZM392.1 238.1C392.4 237.8 392.7 237.6 393 237.3 393.2 237.5 393.5 237.7 393.8 237.9 393.3 237.9 392.7 238 392.1 238.1Z" fill="#351601"/><path d="M375.5 90C412.3 144.3 424.4 212.6 408.6 277.3 415.4 217.3 388.3 152.4 356.6 107.5 350.7 99.2 344.2 90.9 337.3 82.9 347.4 82.1 369.7 89 375.5 90Z" fill="#FBB03B"/></g><path d="M42.2 539C56.1 545.4 85.8 551.1 114.8 551.1 118.2 529.3 100.2 490.1 104.4 468.4 81.3 469.8 47.3 525.4 42.2 539Z" fill="#48ABB5"/><path d="M282.1 634.1C272.9 640.4 273.7 593.2 270.4 590.7 281.8 577.8 274.5 571.9 224.2 515.8 231.1 498 234.8 485.7 248.7 468.4 313.7 518.6 361.4 586.2 282.1 634.1Z" fill="#CC6A1F"/><path d="M320.4 517.7C302 548.1 260.4 574.8 250.8 569.8 250.8 569.8 193.3 511.9 244.8 463.4 257.4 468.7 320.4 517.7 320.4 517.7Z" fill="#48ABB5"/><g><g><path d="M104.4 706.3 280.1 683.1 276 507.6 248.8 494.9C246.4 493.8 243.9 493.3 241.3 493.5L95.6 506.1C93.5 506.3 92 508.1 92 510.1L99.9 702.5C100.1 704.9 102.1 706.6 104.4 706.3Z" fill="#F9BB3D"/><path d="M108.8 702.1 135.4 717.2 272.4 699.8 265.1 510 245.7 500.6 102.6 514.4Z" fill="#F9E7D7"/><path d="M142.4 722.1 283.1 699.5 276 507.6 134.2 522.8C131.1 523.1 128.7 525.8 128.8 529L135.5 716.4C135.5 720 138.8 722.7 142.4 722.1Z" fill="#F9BB3D"/></g><g><path d="M153.2 651.8C158.3 650.5 163.2 648.6 167.9 646.3 175.6 644.1 182.9 640.8 189.6 636.5 196.1 633.1 202.1 628.9 207.5 624 212.8 625.5 217.7 627.4 221.8 629.3 241.5 621.6 256.1 614.3 267.2 602.6 284.3 588.4 309.7 618.4 287.1 640.1 287.1 640.1 274.6 654.2 227.5 656.3 221 665.5 209.7 675.5 193.1 682.1 177.7 688.2 166 689 158.5 687.8 155.8 687.4 165.4 679.3 163.5 680.5 151.9 687.3 149.1 684.7 147.6 683.5 146.5 682.6 176.6 658.9 175.6 657.9 174.7 656.9 143.5 673.5 141 672.8 134.9 670.9 141.1 662.4 153.2 651.8Z" opacity="0.17"/><path d="M222 645.4C273.1 644.5 294.9 626.6 294.9 626.6 317.6 604.9 298.1 568.6 281 582.8 267.9 596.6 236.3 612.9 210.8 622.5 206.3 624.1 217.2 645.4 222 645.4Z" fill="#CC6A1F"/><path d="M147.6 672.3C149.1 673.4 152 676.1 163.5 669.3 165.4 668.2 155.8 676.2 158.5 676.6 166 677.8 177.7 677 193.1 670.9 223.5 658.9 236.6 635.3 233.5 625.9 231.3 619.3 182.2 599 160.7 614.8 158.5 616.4 179.3 621.1 178 624 176.3 627.9 168 628.7 160.5 634.7 143.8 648 133.9 659.5 141.1 661.5 143.6 662.2 174.8 645.7 175.7 646.6 176.5 647.7 146.4 671.5 147.6 672.3Z" fill="#CC6A1F"/></g></g><path d="M102.6 670C88.5 664.4 81.4 656.4 72.4 643.7 65.2 633.4 57.9 623.5 62.2 608 63.2 604.3 68.2 599 78.8 595.6 87.8 594.4 103.4 594.6 111.2 597 115.4 598.3 125.2 604.2 125.2 604.2 126.6 614.3 103 604.3 101.7 613 109.3 617.5 113.8 620.1 118.9 620.1 122.5 620.1 138.8 618.1 140.3 628.3 126.6 632.5 116.4 634.3 102.5 630.5 116.9 638.7 139.2 632.1 137.2 645.1 126.7 647.2 114.5 649 100.5 644.1 103.1 646.3 113.5 649.8 114.9 650 122 651.1 130.4 648.4 130.8 658.2 118.8 661 107.7 659.9 101 657.5 104.6 662.9 121.8 661.7 120.4 672.8 114.4 671.6 107.7 672.1 102.6 670Z" opacity="0.17"/><path d="M95.3 674.2C81.2 668.6 74.1 660.6 65.1 647.9 58 637.5 50.7 627.6 55 612.1 56 608.4 61 603.1 71.6 599.7 80.6 598.5 96.2 598.7 104 601.1 108.2 602.4 118 608.3 118 608.3 119.4 618.4 95.8 608.4 94.5 617.1 102.1 621.6 106.6 624.2 111.7 624.2 115.3 624.2 131.6 622.2 133.1 632.4 119.4 636.6 109.2 638.4 95.3 634.6 109.7 642.8 132 636.2 130 649.2 119.5 651.3 107.3 653.1 93.3 648.2 95.9 650.4 106.3 653.9 107.7 654.1 114.8 655.2 123.2 652.5 123.6 662.3 111.6 665.1 100.5 664 93.8 661.6 97.4 667 114.6 665.8 113.2 676.9 107.2 675.7 100.5 676.2 95.3 674.2Z" fill="#CC6A1F"/></g></svg>