<svg width="104" height="8.6" viewBox="0 0 104 8.6" xmlns="http://www.w3.org/2000/svg" xmlns:xlink="http://www.w3.org/1999/xlink" overflow="hidden"><defs></defs><g><g><g><g><path d="M29 5.6 29 7.5C29 7.7 29 7.9 29.1 8.1L53.5 8.1 53.5 5.6 29 5.6Z" fill="#48484B"/><path d="M29 6.1 29 7.5C29 7.5 29 7.6 29 7.6L53.5 7.6 53.5 6.1 29 6.1Z" fill="#2B2B2C"/><g><path d="M33 7.8C33 8.2 32.6 8.6 32.2 8.6 31.8 8.6 31.4 8.2 31.4 7.8 31.4 7.4 31.8 7 32.2 7 32.7 7 33 7.3 33 7.8Z" fill="#363635"/><path d="M33 7.8C33 8.2 32.6 8.6 32.2 8.6 31.8 8.6 31.4 8.2 31.4 7.8 31.4 7.4 31.8 7 32.2 7 32.7 7 33 7.3 33 7.8Z" fill="#222222"/><path d="M32.8 7.8C32.8 8.1 32.6 8.3 32.3 8.3 32 8.3 31.8 8.1 31.8 7.8 31.8 7.5 32 7.3 32.3 7.3 32.5 7.2 32.8 7.5 32.8 7.8Z"/><path d="M32.6 7.7C32.6 7.9 32.5 8 32.3 8 32.1 8 32 7.9 32 7.7 32 7.5 32.1 7.4 32.3 7.4 32.4 7.4 32.6 7.6 32.6 7.7Z" fill="#222222"/><path d="M32.4 7.6C32.4 7.6 32.4 7.6 32.4 7.6 32.4 7.6 32.4 7.6 32.4 7.6 32.4 7.6 32.4 7.6 32.4 7.6 32.4 7.6 32.4 7.6 32.4 7.6Z" fill="#4C4C49"/><path d="M32.3 7.5C32.3 7.6 32.3 7.6 32.3 7.5 32.2 7.6 32.2 7.6 32.3 7.5 32.2 7.5 32.2 7.5 32.3 7.5 32.3 7.5 32.3 7.5 32.3 7.5Z" fill="#4C4C49"/><path d="M32.1 7.6C32.1 7.6 32.1 7.6 32.1 7.6 32 7.6 32 7.6 32.1 7.6 32 7.6 32 7.6 32.1 7.6 32.1 7.6 32.1 7.6 32.1 7.6Z" fill="#4C4C49"/><path d="M32.4 7.9C32.4 7.9 32.4 7.9 32.4 7.9 32.4 7.9 32.4 7.9 32.4 7.9 32.4 8 32.4 8 32.4 7.9 32.4 8 32.4 8 32.4 7.9Z" fill="#4C4C49"/><path d="M32.5 7.8C32.5 7.8 32.5 7.7 32.5 7.8 32.5 7.7 32.4 7.8 32.5 7.8 32.4 7.8 32.5 7.8 32.5 7.8 32.5 7.8 32.5 7.8 32.5 7.8Z" fill="#4C4C49"/><path d="M32 7.8C32 7.8 32 7.7 32 7.8 32 7.7 31.9 7.8 32 7.8 31.9 7.8 32 7.8 32 7.8 32 7.8 32 7.8 32 7.8Z" fill="#4C4C49"/><path d="M32.3 8C32.3 8 32.3 8 32.3 8 32.2 8 32.2 8 32.3 8 32.2 8 32.2 8 32.3 8 32.3 8 32.3 8 32.3 8Z" fill="#4C4C49"/><path d="M32.1 7.9C32.1 7.9 32.1 7.9 32.1 7.9 32 7.9 32 7.9 32.1 7.9 32 8 32 8 32.1 7.9 32.1 8 32.1 8 32.1 7.9Z" fill="#4C4C49"/></g><g><path d="M35.9 7.8C35.9 8.2 35.5 8.6 35.1 8.6 34.7 8.6 34.3 8.2 34.3 7.8 34.3 7.4 34.7 7 35.1 7 35.6 7 35.9 7.3 35.9 7.8Z" fill="#363635"/><path d="M35.9 7.8C35.9 8.2 35.5 8.6 35.1 8.6 34.7 8.6 34.3 8.2 34.3 7.8 34.3 7.4 34.7 7 35.1 7 35.6 7 35.9 7.3 35.9 7.8Z" fill="#222222"/><path d="M35.7 7.8C35.7 8.1 35.5 8.3 35.2 8.3 34.9 8.3 34.7 8.1 34.7 7.8 34.7 7.5 34.9 7.3 35.2 7.3 35.4 7.2 35.7 7.5 35.7 7.8Z"/><path d="M35.4 7.7C35.4 7.9 35.3 8 35.1 8 34.9 8 34.8 7.9 34.8 7.7 34.8 7.5 34.9 7.4 35.1 7.4 35.3 7.4 35.4 7.6 35.4 7.7Z" fill="#222222"/><path d="M35.3 7.6C35.3 7.6 35.3 7.6 35.3 7.6 35.3 7.6 35.2 7.6 35.3 7.6 35.2 7.6 35.3 7.6 35.3 7.6 35.3 7.6 35.3 7.6 35.3 7.6Z" fill="#4C4C49"/><path d="M35.2 7.5C35.2 7.6 35.1 7.6 35.2 7.5 35.1 7.6 35.1 7.6 35.2 7.5 35.1 7.5 35.1 7.5 35.2 7.5 35.1 7.5 35.2 7.5 35.2 7.5Z" fill="#4C4C49"/><path d="M35 7.6C35 7.6 35 7.6 35 7.6 34.9 7.6 34.9 7.6 35 7.6 34.9 7.6 34.9 7.6 35 7.6 35 7.6 35 7.6 35 7.6Z" fill="#4C4C49"/><path d="M35.3 7.9C35.3 7.9 35.3 7.9 35.3 7.9 35.3 7.9 35.2 7.9 35.3 7.9 35.2 8 35.3 8 35.3 7.9 35.3 8 35.3 8 35.3 7.9Z" fill="#4C4C49"/><path d="M35.4 7.8C35.4 7.8 35.4 7.7 35.4 7.8 35.3 7.7 35.3 7.8 35.4 7.8 35.3 7.8 35.3 7.8 35.4 7.8 35.4 7.8 35.4 7.8 35.4 7.8Z" fill="#4C4C49"/><path d="M34.9 7.8C34.9 7.8 34.9 7.7 34.9 7.8 34.8 7.7 34.8 7.8 34.9 7.8 34.8 7.8 34.8 7.8 34.9 7.8 34.9 7.8 34.9 7.8 34.9 7.8Z" fill="#4C4C49"/><path d="M35.2 8C35.2 8 35.1 8 35.2 8 35.1 8 35.1 8 35.2 8 35.1 8 35.1 8 35.2 8 35.1 8 35.2 8 35.2 8Z" fill="#4C4C49"/><path d="M35 7.9C35 7.9 35 7.9 35 7.9 34.9 7.9 34.9 7.9 35 7.9 34.9 8 34.9 8 35 7.9 35 8 35 8 35 7.9Z" fill="#4C4C49"/></g><g><path d="M49.6 7.8C49.6 8.2 49.2 8.6 48.8 8.6 48.4 8.6 48 8.2 48 7.8 48 7.3 48.4 7 48.8 7 49.2 7 49.6 7.3 49.6 7.8Z" fill="#363635"/><path d="M49.6 7.8C49.6 8.2 49.2 8.6 48.8 8.6 48.4 8.6 48 8.2 48 7.8 48 7.3 48.4 7 48.8 7 49.2 7 49.6 7.3 49.6 7.8Z" fill="#222222"/><path d="M49.3 7.8C49.3 8.1 49.1 8.3 48.8 8.3 48.5 8.3 48.3 8.1 48.3 7.8 48.3 7.5 48.5 7.3 48.8 7.3 49.1 7.2 49.3 7.5 49.3 7.8Z"/><path d="M49.1 7.7C49.1 7.9 49 8 48.8 8 48.6 8 48.5 7.9 48.5 7.7 48.5 7.5 48.6 7.4 48.8 7.4 49 7.4 49.1 7.6 49.1 7.7Z" fill="#222222"/><path d="M49 7.6C49 7.6 49 7.6 49 7.6 48.9 7.6 48.9 7.6 49 7.6 48.9 7.6 48.9 7.6 49 7.6 49 7.6 49 7.6 49 7.6Z" fill="#4C4C49"/><path d="M48.8 7.5C48.8 7.6 48.8 7.6 48.8 7.5 48.8 7.6 48.8 7.6 48.8 7.5 48.8 7.5 48.8 7.5 48.8 7.5 48.8 7.5 48.8 7.5 48.8 7.5Z" fill="#4C4C49"/><path d="M48.7 7.6C48.7 7.6 48.7 7.6 48.7 7.6 48.6 7.6 48.6 7.6 48.7 7.6 48.6 7.6 48.6 7.6 48.7 7.6 48.7 7.6 48.7 7.6 48.7 7.6Z" fill="#4C4C49"/><path d="M49 7.9C49 7.9 49 7.9 49 7.9 48.9 7.9 48.9 7.9 49 7.9 48.9 8 48.9 8 49 7.9 49 8 49 8 49 7.9Z" fill="#4C4C49"/><path d="M49.1 7.8C49.1 7.8 49.1 7.7 49.1 7.8 49 7.7 49 7.8 49.1 7.8 49 7.8 49 7.8 49.1 7.8 49.1 7.8 49.1 7.8 49.1 7.8Z" fill="#4C4C49"/><path d="M48.6 7.8C48.6 7.8 48.6 7.7 48.6 7.8 48.5 7.7 48.5 7.8 48.6 7.8 48.5 7.8 48.5 7.8 48.6 7.8 48.6 7.8 48.6 7.8 48.6 7.8Z" fill="#4C4C49"/><path d="M48.8 8C48.8 8 48.8 8 48.8 8 48.8 8 48.8 8 48.8 8 48.8 8 48.8 8 48.8 8 48.8 8 48.8 8 48.8 8Z" fill="#4C4C49"/><path d="M48.7 7.9C48.7 7.9 48.7 7.9 48.7 7.9 48.6 7.9 48.6 7.9 48.7 7.9 48.6 8 48.6 8 48.7 7.9 48.7 8 48.7 8 48.7 7.9Z" fill="#4C4C49"/></g><g><path d="M52.5 7.8C52.5 8.2 52.1 8.6 51.7 8.6 51.3 8.6 50.9 8.2 50.9 7.8 50.9 7.4 51.3 7 51.7 7 52.1 7 52.5 7.3 52.5 7.8Z" fill="#363635"/><path d="M52.5 7.8C52.5 8.2 52.1 8.6 51.7 8.6 51.3 8.6 50.9 8.2 50.9 7.8 50.9 7.4 51.3 7 51.7 7 52.1 7 52.5 7.3 52.5 7.8Z" fill="#222222"/><path d="M52.2 7.8C52.2 8.1 52 8.3 51.7 8.3 51.4 8.3 51.2 8.1 51.2 7.8 51.2 7.5 51.4 7.3 51.7 7.3 52 7.2 52.2 7.5 52.2 7.8Z"/><path d="M52 7.7C52 7.9 51.9 8 51.7 8 51.5 8 51.4 7.9 51.4 7.7 51.4 7.5 51.5 7.4 51.7 7.4 51.9 7.4 52 7.6 52 7.7Z" fill="#222222"/><path d="M51.9 7.6C51.9 7.6 51.9 7.6 51.9 7.6 51.8 7.6 51.8 7.6 51.9 7.6 51.8 7.6 51.8 7.6 51.9 7.6 51.9 7.6 51.9 7.6 51.9 7.6Z" fill="#4C4C49"/><path d="M51.7 7.5C51.7 7.6 51.7 7.6 51.7 7.5 51.7 7.6 51.6 7.6 51.7 7.5 51.6 7.5 51.7 7.5 51.7 7.5 51.7 7.5 51.7 7.5 51.7 7.5Z" fill="#4C4C49"/><path d="M51.6 7.6C51.6 7.6 51.5 7.6 51.6 7.6 51.5 7.6 51.5 7.6 51.6 7.6 51.5 7.6 51.5 7.6 51.6 7.6 51.5 7.6 51.6 7.6 51.6 7.6Z" fill="#4C4C49"/><path d="M51.9 7.9C51.9 7.9 51.9 7.9 51.9 7.9 51.8 7.9 51.8 7.9 51.9 7.9 51.8 8 51.8 8 51.9 7.9 51.9 8 51.9 8 51.9 7.9Z" fill="#4C4C49"/><path d="M52 7.8C52 7.8 52 7.7 52 7.8 51.9 7.7 51.9 7.8 52 7.8 51.9 7.8 51.9 7.8 52 7.8 52 7.8 52 7.8 52 7.8Z" fill="#4C4C49"/><path d="M51.5 7.8C51.5 7.8 51.5 7.7 51.5 7.8 51.4 7.7 51.4 7.8 51.5 7.8 51.4 7.8 51.4 7.8 51.5 7.8 51.5 7.8 51.5 7.8 51.5 7.8Z" fill="#4C4C49"/><path d="M51.7 8C51.7 8 51.7 8 51.7 8 51.7 8 51.6 8 51.7 8 51.6 8 51.7 8 51.7 8 51.7 8 51.7 8 51.7 8Z" fill="#4C4C49"/><path d="M51.6 7.9C51.6 7.9 51.5 7.9 51.6 7.9 51.5 7.9 51.5 7.9 51.6 7.9 51.5 8 51.5 8 51.6 7.9 51.5 8 51.6 8 51.6 7.9Z" fill="#4C4C49"/></g><g><path d="M52 0 30.7 0.1C30.2 0.1 29.7 0.2 29.3 0.6 29.2 0.8 29.1 1 29 1.3L29 7.5C29 7.8 29 8.1 29.2 8.2 29.3 8.3 29.4 8.3 29.6 8.4L30.3 8.4 30.5 7.2 52.9 7.2 53 8.4 53.4 8.4C53.4 8.4 53.9 8.4 54 7.9L54 1.1C54.1 1.1 54.1 0 52 0Z" fill="#D4ECCF"/></g><g><path d="M52 0 30.7 0.1C30.2 0.1 29.7 0.2 29.3 0.6 29.2 0.8 29.1 1 29 1.3L29 1.9 54 1.9 54 1.1C54.1 1.1 54.1 0 52 0Z" fill="#2B528B"/><path d="M29 4.3 29 7.5C29 7.8 29 8.1 29.2 8.2 29.3 8.3 29.4 8.3 29.6 8.4L30.3 8.4 30.5 7.2 52.9 7.2 53 8.4 53.4 8.4C53.4 8.4 53.9 8.4 54 7.9L54 4.3 29 4.3Z" fill="#EF3A25"/></g><g><path d="M29 5.9 29 7.5C29 7.8 29 8.1 29.2 8.2 29.3 8.3 29.4 8.3 29.6 8.4L30.3 8.4 30.5 7.2 52.9 7.2 53 8.4 53.4 8.4C53.4 8.4 53.9 8.4 54 7.9L54 5.9 29 5.9Z" fill="#2B528B"/></g><g><path d="M29 7.1 29 7.5C29 7.8 29 8.1 29.2 8.2 29.3 8.3 29.4 8.3 29.6 8.4L30.3 8.4 30.5 7.2 52.9 7.2 53 8.4 53.4 8.4C53.4 8.4 53.9 8.4 54 7.9L54 7.1 29 7.1Z" fill="#1D355C"/></g><g><g><g><path d="M31.2 4.4C31.2 4.5 31.1 4.6 31.1 4.6L30.1 4.6C30 4.6 30 4.5 30 4.4L30 3.1C29.9 3.1 30 3 30.1 3L31.1 3C31.2 3 31.2 3.1 31.2 3.2L31.2 4.4Z" fill="#343432"/><path d="M31.2 4.4C31.2 4.5 31.1 4.5 31.1 4.5L30.1 4.5C30 4.5 30 4.5 30 4.4L30 3.2C30 3.1 30.1 3.1 30.1 3.1L31.1 3.1C31.2 3.1 31.2 3.2 31.2 3.2L31.2 4.4Z" fill="#444342"/><path d="M31.2 3.8 31.2 3.1C31.2 3 31.1 2.9 31.1 2.9L30.1 2.9C30 2.9 30 3 30 3.1L30 3.8C30.3 3.7 30.8 3.6 31.2 3.8Z" fill="#343432" opacity="0.6"/></g><g><path d="M32.7 4.4C32.7 4.5 32.6 4.6 32.6 4.6L31.6 4.6C31.5 4.6 31.5 4.5 31.5 4.4L31.5 3.1C31.5 3 31.6 2.9 31.6 2.9L32.6 2.9C32.7 2.9 32.7 3 32.7 3.1L32.7 4.4Z" fill="#343432"/><path d="M32.6 4.4C32.6 4.5 32.5 4.5 32.5 4.5L31.5 4.5C31.4 4.5 31.4 4.4 31.4 4.4L31.4 3.2C31.4 3.1 31.5 3.1 31.5 3.1L32.5 3.1C32.6 3.1 32.6 3.2 32.6 3.2L32.6 4.4Z" fill="#444342"/><path d="M32.7 3.8 32.7 3.1C32.7 3 32.6 2.9 32.6 2.9L31.6 2.9C31.5 2.9 31.5 3 31.5 3.1L31.5 3.8C31.8 3.7 32.2 3.6 32.7 3.8Z" fill="#343432" opacity="0.6"/></g><g><path d="M34.1 4.4C34.1 4.5 34 4.6 34 4.6L33 4.6C32.9 4.6 32.9 4.5 32.9 4.4L32.9 3.1C32.8 3.1 32.9 3 33 3L34 3C34.1 3 34.1 3.1 34.1 3.2L34.1 4.4Z" fill="#343432"/><path d="M34.1 4.4C34.1 4.5 34 4.5 34 4.5L33 4.5C32.9 4.5 32.9 4.4 32.9 4.4L32.9 3.2C32.9 3.1 33 3.1 33 3.1L34 3.1C34.1 3.1 34.1 3.2 34.1 3.2L34.1 4.4Z" fill="#444342"/><path d="M34.1 3.8 34.1 3.1C34.1 3.1 34.1 3 34 3L33 3C32.9 3 32.9 3.1 32.9 3.2L32.9 3.9C33.2 3.7 33.7 3.6 34.1 3.8Z" fill="#343432" opacity="0.6"/></g><g><path d="M35.6 4.4C35.6 4.5 35.5 4.6 35.5 4.6L34.5 4.6C34.4 4.6 34.4 4.5 34.4 4.4L34.4 3.1C34.4 3 34.5 2.9 34.5 2.9L35.5 2.9C35.6 2.9 35.6 3 35.6 3.1L35.6 4.4Z" fill="#343432"/><path d="M35.5 4.4C35.5 4.5 35.4 4.5 35.4 4.5L34.4 4.5C34.3 4.5 34.3 4.4 34.3 4.4L34.3 3.2C34.3 3.1 34.4 3.1 34.4 3.1L35.4 3.1C35.5 3.1 35.5 3.2 35.5 3.2L35.5 4.4Z" fill="#444342"/><path d="M35.6 3.8 35.6 3.1C35.6 3 35.5 2.9 35.5 2.9L34.5 2.9C34.4 2.9 34.4 3 34.4 3.1L34.4 3.8C34.7 3.7 35.1 3.6 35.6 3.8Z" fill="#343432" opacity="0.6"/></g><g><path d="M37 4.4C37 4.5 36.9 4.6 36.9 4.6L35.9 4.6C35.8 4.6 35.8 4.5 35.8 4.4L35.8 3.1C35.8 3 35.9 2.9 35.9 2.9L36.9 2.9C37 3 37 3.1 37 3.1L37 4.4Z" fill="#343432"/><path d="M37 4.4C37 4.5 36.9 4.5 36.9 4.5L35.9 4.5C35.8 4.5 35.8 4.4 35.8 4.4L35.8 3.2C35.8 3.1 35.9 3.1 35.9 3.1L36.9 3.1C37 3.1 37 3.2 37 3.2L37 4.4Z" fill="#444342"/><path d="M37 3.8 37 3.1C37 3.1 37 3 36.9 3L35.9 3C35.8 3 35.8 3.1 35.8 3.2L35.8 3.9C36.1 3.7 36.6 3.6 37 3.8Z" fill="#343432" opacity="0.6"/></g><g><path d="M38.5 4.4C38.5 4.5 38.4 4.6 38.4 4.6L37.4 4.6C37.3 4.6 37.3 4.5 37.3 4.4L37.3 3.1C37.3 3 37.4 2.9 37.4 2.9L38.4 2.9C38.5 2.9 38.5 3 38.5 3.1L38.5 4.4Z" fill="#343432"/><path d="M38.4 4.4C38.4 4.5 38.3 4.5 38.3 4.5L37.3 4.5C37.2 4.5 37.2 4.4 37.2 4.4L37.2 3.2C37.2 3.1 37.3 3.1 37.3 3.1L38.3 3.1C38.4 3.1 38.4 3.2 38.4 3.2L38.4 4.4Z" fill="#444342"/><path d="M38.5 3.8 38.5 3.1C38.5 3 38.4 2.9 38.4 2.9L37.4 2.9C37.3 2.9 37.3 3 37.3 3.1L37.3 3.8C37.6 3.7 38 3.6 38.5 3.8Z" fill="#343432" opacity="0.6"/></g></g><g><g><path d="M41.4 4.4C41.4 4.5 41.3 4.6 41.3 4.6L40.3 4.6C40.2 4.6 40.2 4.5 40.2 4.4L40.2 3.1C40.2 3 40.3 2.9 40.3 2.9L41.3 2.9C41.4 2.9 41.4 3 41.4 3.1L41.4 4.4Z" fill="#343432"/><path d="M41.3 4.4C41.3 4.5 41.2 4.5 41.2 4.5L40.2 4.5C40.1 4.5 40.1 4.4 40.1 4.4L40.1 3.2C40.1 3.1 40.2 3.1 40.2 3.1L41.2 3.1C41.3 3.1 41.3 3.2 41.3 3.2L41.3 4.4Z" fill="#444342"/><path d="M41.4 3.8 41.4 3.1C41.4 3 41.3 2.9 41.3 2.9L40.3 2.9C40.2 2.9 40.2 3 40.2 3.1L40.2 3.8C40.5 3.7 40.9 3.6 41.4 3.8Z" fill="#343432" opacity="0.6"/></g><g><path d="M42.8 4.4C42.8 4.5 42.7 4.6 42.7 4.6L41.7 4.6C41.6 4.6 41.6 4.5 41.6 4.4L41.6 3.1C41.6 3 41.7 2.9 41.7 2.9L42.7 2.9C42.8 2.9 42.8 3 42.8 3.1L42.8 4.4Z" fill="#343432"/><path d="M42.8 4.4C42.8 4.5 42.7 4.5 42.7 4.5L41.7 4.5C41.6 4.5 41.6 4.4 41.6 4.4L41.6 3.2C41.6 3.1 41.7 3.1 41.7 3.1L42.7 3.1C42.8 3.1 42.8 3.2 42.8 3.2L42.8 4.4Z" fill="#444342"/><path d="M42.8 3.8 42.8 3.1C42.8 3 42.7 2.9 42.7 2.9L41.7 2.9C41.6 2.9 41.6 3 41.6 3.1L41.6 3.8C41.9 3.7 42.4 3.6 42.8 3.8Z" fill="#343432" opacity="0.6"/></g><g><path d="M45.7 4.4C45.7 4.5 45.6 4.6 45.6 4.6L44.6 4.6C44.5 4.6 44.5 4.5 44.5 4.4L44.5 3.1C44.5 3 44.6 2.9 44.6 2.9L45.6 2.9C45.7 2.9 45.7 3 45.7 3.1L45.7 4.4Z" fill="#343432"/><path d="M45.7 4.4C45.7 4.5 45.6 4.5 45.6 4.5L44.6 4.5C44.5 4.5 44.5 4.4 44.5 4.4L44.5 3.2C44.5 3.1 44.6 3.1 44.6 3.1L45.6 3.1C45.7 3.1 45.7 3.2 45.7 3.2L45.7 4.4Z" fill="#444342"/><path d="M45.7 3.8 45.7 3.1C45.7 3 45.6 2.9 45.6 2.9L44.6 2.9C44.5 2.9 44.5 3 44.5 3.1L44.5 3.8C44.8 3.7 45.3 3.6 45.7 3.8Z" fill="#343432" opacity="0.6"/></g><g><path d="M47.2 4.4C47.2 4.5 47.1 4.6 47.1 4.6L46.1 4.6C46 4.6 46 4.5 46 4.4L46 3.1C45.9 3.1 45.9 3 46 3L47 3C47.1 3 47.1 3.1 47.1 3.2L47.1 4.4Z" fill="#343432"/><path d="M47.1 4.4C47.1 4.5 47 4.5 47 4.5L46 4.5C45.9 4.5 45.9 4.4 45.9 4.4L45.9 3.2C45.9 3.1 46 3.1 46 3.1L47 3.1C47.1 3.1 47.1 3.2 47.1 3.2L47.1 4.4Z" fill="#444342"/><path d="M47.2 3.8 47.2 3.1C47.2 3.1 47.1 3 47 3L46 3C45.9 3 45.9 3.1 45.9 3.2L45.9 3.9C46.3 3.7 46.7 3.6 47.2 3.8Z" fill="#343432" opacity="0.6"/></g><g><path d="M48.6 4.4C48.6 4.5 48.5 4.6 48.5 4.6L47.5 4.6C47.4 4.6 47.4 4.5 47.4 4.4L47.4 3.1C47.4 3 47.5 2.9 47.5 2.9L48.5 2.9C48.6 2.9 48.6 3 48.6 3.1L48.6 4.4Z" fill="#343432"/><path d="M48.5 4.4C48.5 4.5 48.4 4.5 48.4 4.5L47.4 4.5C47.3 4.5 47.3 4.4 47.3 4.4L47.3 3.2C47.3 3.1 47.4 3.1 47.4 3.1L48.4 3.1C48.5 3.1 48.5 3.2 48.5 3.2L48.5 4.4Z" fill="#444342"/><path d="M48.6 3.8 48.6 3.1C48.6 3 48.5 2.9 48.5 2.9L47.5 2.9C47.4 2.9 47.4 3 47.4 3.1L47.4 3.8C47.7 3.7 48.1 3.6 48.6 3.8Z" fill="#343432" opacity="0.6"/></g><g><path d="M50.1 4.4C50.1 4.5 50 4.6 50 4.6L49 4.6C48.9 4.6 48.9 4.5 48.9 4.4L48.9 3.1C48.9 3 49 2.9 49 2.9L50 2.9C50.1 2.9 50.1 3 50.1 3.1L50.1 4.4Z" fill="#343432"/><path d="M50 4.4C50 4.5 49.9 4.5 49.9 4.5L48.9 4.5C48.8 4.5 48.8 4.4 48.8 4.4L48.8 3.2C48.8 3.1 48.9 3.1 48.9 3.1L49.9 3.1C50 3.1 50 3.2 50 3.2L50 4.4Z" fill="#444342"/><path d="M50.1 3.8 50.1 3.1C50.1 3.1 50 3 49.9 3L48.9 3C48.8 3 48.8 3.1 48.8 3.2L48.8 3.9C49.2 3.7 49.6 3.6 50.1 3.8Z" fill="#343432" opacity="0.6"/></g><g><path d="M51.5 4.4C51.5 4.5 51.4 4.6 51.4 4.6L50.4 4.6C50.3 4.6 50.3 4.5 50.3 4.4L50.3 3.1C50.3 3 50.4 2.9 50.4 2.9L51.4 2.9C51.5 2.9 51.5 3 51.5 3.1L51.5 4.4Z" fill="#343432"/><path d="M51.5 4.4C51.5 4.5 51.4 4.5 51.4 4.5L50.4 4.5C50.3 4.5 50.3 4.4 50.3 4.4L50.3 3.2C50.3 3.1 50.4 3.1 50.4 3.1L51.4 3.1C51.5 3.1 51.5 3.2 51.5 3.2L51.5 4.4Z" fill="#444342"/><path d="M51.5 3.8 51.5 3.1C51.5 3 51.4 2.9 51.4 2.9L50.4 2.9C50.3 2.9 50.3 3 50.3 3.1L50.3 3.8C50.6 3.7 51.1 3.6 51.5 3.8Z" fill="#343432" opacity="0.6"/></g><g><path d="M53 4.4C53 4.5 52.9 4.6 52.9 4.6L51.9 4.6C51.8 4.6 51.8 4.5 51.8 4.4L51.8 3.1C51.8 3 51.9 2.9 51.9 2.9L52.9 2.9C52.9 3 53 3.1 53 3.1L53 4.4Z" fill="#343432"/><path d="M52.9 4.4C52.9 4.5 52.8 4.5 52.8 4.5L51.8 4.5C51.7 4.5 51.7 4.4 51.7 4.4L51.7 3.2C51.7 3.1 51.8 3.1 51.8 3.1L52.8 3.1C52.9 3.1 52.9 3.2 52.9 3.2L52.9 4.4Z" fill="#444342"/><path d="M53 3.8 53 3.1C53 3.1 52.9 3 52.8 3L51.8 3C51.7 3 51.7 3.1 51.7 3.2L51.7 3.9C52.1 3.7 52.5 3.6 53 3.8Z" fill="#343432" opacity="0.6"/></g></g></g><g><path d="M29.7 6.1 30.5 6.1C30.5 6.1 30.5 6.2 30.4 6.2 30.3 6.3 30 6.2 30 6.2 30 6.2 29.8 6.2 29.8 6.1 29.6 6.1 29.6 6.1 29.7 6.1Z" fill="#E86408"/><path d="M29.7 6.1 30.2 6.1C30.2 6.1 30.2 6.2 30.1 6.2 30 6.2 29.8 6.2 29.8 6.2 29.8 6.2 29.7 6.2 29.7 6.1 29.7 6.1 29.7 6.1 29.7 6.1Z" fill="#E86408" opacity="0.5"/></g><path d="M30.4 0.4 53.2 0.3C53.1 0.3 37.6 0.8 30.4 0.4Z" fill="#2B528B"/><g><path d="M52.9 6.1 53.7 6.1C53.7 6.1 53.7 6.2 53.6 6.2 53.5 6.3 53.2 6.2 53.2 6.2 53.2 6.2 53 6.2 53 6.1 52.8 6.1 52.8 6.1 52.9 6.1Z" fill="#E86408"/><path d="M52.9 6.1 53.4 6.1C53.4 6.1 53.4 6.2 53.3 6.2 53.2 6.2 53 6.2 53 6.2 53 6.2 52.9 6.2 52.9 6.1 52.9 6.1 52.9 6.1 52.9 6.1Z" fill="#E86408" opacity="0.5"/></g></g></g><g><rect x="39.6" y="2.8" width="3.9" height="5.2" fill="#2B528B"/><rect x="39.7" y="2.9" width="1.8" height="5.2" fill="#E0DECE"/><rect x="41.6" y="2.9" width="1.8" height="5.2" fill="#E0DECE"/><rect x="39.7" y="5.7" width="1.8" height="2.3" fill="#CFCDC0"/><rect x="41.6" y="5.7" width="1.8" height="2.3" fill="#CFCDC0"/><rect x="39.7" y="7" width="1.8" height="1.1" fill="#CFCDC0"/><rect x="41.6" y="7" width="1.8" height="1.1" fill="#CFCDC0"/><g><g><path d="M41.3 4.6C41.3 4.7 41.2 4.8 41.2 4.8L40.2 4.8C40.1 4.8 40.1 4.7 40.1 4.6L40.1 3.3C40.1 3.2 40.2 3.1 40.2 3.1L41.2 3.1C41.3 3.1 41.3 3.2 41.3 3.3L41.3 4.6Z" fill="#343432"/><path d="M41.3 4.5C41.3 4.6 41.2 4.6 41.2 4.6L40.2 4.6C40.1 4.6 40.1 4.5 40.1 4.5L40.1 3.4C40.1 3.3 40.2 3.3 40.2 3.3L41.2 3.3C41.3 3.3 41.3 3.4 41.3 3.4L41.3 4.5Z" fill="#444342"/><path d="M41.3 3.9 41.3 3.3C41.3 3.2 41.2 3.1 41.2 3.1L40.2 3.1C40.1 3.1 40.1 3.2 40.1 3.3L40.1 4C40.4 3.8 40.9 3.8 41.3 3.9Z" fill="#343432" opacity="0.6"/></g><g><path d="M43.1 4.6C43.1 4.7 43 4.8 43 4.8L42 4.8C41.9 4.8 41.9 4.7 41.9 4.6L41.9 3.3C41.9 3.2 42 3.1 42 3.1L43 3.1C43.1 3.1 43.1 3.2 43.1 3.3L43.1 4.6Z" fill="#343432"/><path d="M43 4.5C43 4.6 42.9 4.6 42.9 4.6L41.9 4.6C41.8 4.6 41.8 4.5 41.8 4.5L41.8 3.4C41.8 3.3 41.9 3.3 41.9 3.3L42.9 3.3C43 3.2 43 3.3 43 3.4L43 4.5Z" fill="#444342"/><path d="M43.1 3.9 43.1 3.3C43.1 3.2 43 3.1 43 3.1L42 3.1C41.9 3.1 41.9 3.2 41.9 3.3L41.9 4C42.2 3.8 42.6 3.8 43.1 3.9Z" fill="#343432" opacity="0.6"/></g></g></g></g><g><g><g><path d="M54 5.6 54 7.5C54 7.7 54 7.9 54.1 8.1L78.5 8.1 78.5 5.6 54 5.6Z" fill="#48484B"/><path d="M54 6.1 54 7.5C54 7.5 54 7.6 54 7.6L78.5 7.6 78.5 6.1 54 6.1Z" fill="#2B2B2C"/><g><path d="M58 7.8C58 8.2 57.6 8.6 57.2 8.6 56.8 8.6 56.4 8.2 56.4 7.8 56.4 7.4 56.8 7 57.2 7 57.7 7 58 7.3 58 7.8Z" fill="#363635"/><path d="M58 7.8C58 8.2 57.6 8.6 57.2 8.6 56.8 8.6 56.4 8.2 56.4 7.8 56.4 7.4 56.8 7 57.2 7 57.7 7 58 7.3 58 7.8Z" fill="#222222"/><path d="M57.8 7.8C57.8 8.1 57.6 8.3 57.3 8.3 57 8.3 56.8 8.1 56.8 7.8 56.8 7.5 57 7.3 57.3 7.3 57.5 7.2 57.8 7.5 57.8 7.8Z"/><path d="M57.5 7.7C57.5 7.9 57.4 8 57.2 8 57 8 56.9 7.9 56.9 7.7 56.9 7.5 57 7.4 57.2 7.4 57.4 7.4 57.5 7.6 57.5 7.7Z" fill="#222222"/><path d="M57.4 7.6C57.4 7.6 57.4 7.6 57.4 7.6 57.4 7.6 57.4 7.6 57.4 7.6 57.4 7.6 57.4 7.6 57.4 7.6 57.4 7.6 57.4 7.6 57.4 7.6Z" fill="#4C4C49"/><path d="M57.3 7.5C57.3 7.6 57.2 7.6 57.3 7.5 57.2 7.6 57.2 7.6 57.3 7.5 57.2 7.5 57.2 7.5 57.3 7.5 57.2 7.5 57.3 7.5 57.3 7.5Z" fill="#4C4C49"/><path d="M57.1 7.6C57.1 7.6 57.1 7.6 57.1 7.6 57 7.6 57 7.6 57.1 7.6 57 7.6 57 7.6 57.1 7.6 57.1 7.6 57.1 7.6 57.1 7.6Z" fill="#4C4C49"/><path d="M57.4 7.9C57.4 7.9 57.4 7.9 57.4 7.9 57.4 7.9 57.4 7.9 57.4 7.9 57.4 8 57.4 8 57.4 7.9 57.4 8 57.4 8 57.4 7.9Z" fill="#4C4C49"/><path d="M57.5 7.8C57.5 7.8 57.5 7.7 57.5 7.8 57.4 7.7 57.4 7.8 57.5 7.8 57.4 7.8 57.4 7.8 57.5 7.8 57.5 7.8 57.5 7.8 57.5 7.8Z" fill="#4C4C49"/><path d="M57 7.8C57 7.8 57 7.7 57 7.8 57 7.7 56.9 7.8 57 7.8 56.9 7.8 57 7.8 57 7.8 57 7.8 57 7.8 57 7.8Z" fill="#4C4C49"/><path d="M57.3 8C57.3 8 57.2 8 57.3 8 57.2 8 57.2 8 57.3 8 57.2 8 57.2 8 57.3 8 57.2 8 57.3 8 57.3 8Z" fill="#4C4C49"/><path d="M57.1 7.9C57.1 7.9 57.1 7.9 57.1 7.9 57 7.9 57 7.9 57.1 7.9 57 8 57 8 57.1 7.9 57.1 8 57.1 8 57.1 7.9Z" fill="#4C4C49"/></g><g><path d="M60.9 7.8C60.9 8.2 60.5 8.6 60.1 8.6 59.7 8.6 59.3 8.2 59.3 7.8 59.3 7.4 59.7 7 60.1 7 60.5 7 60.9 7.3 60.9 7.8Z" fill="#363635"/><path d="M60.9 7.8C60.9 8.2 60.5 8.6 60.1 8.6 59.7 8.6 59.3 8.2 59.3 7.8 59.3 7.4 59.7 7 60.1 7 60.5 7 60.9 7.3 60.9 7.8Z" fill="#222222"/><path d="M60.6 7.8C60.6 8.1 60.4 8.3 60.1 8.3 59.8 8.3 59.6 8.1 59.6 7.8 59.6 7.5 59.8 7.3 60.1 7.3 60.4 7.2 60.6 7.5 60.6 7.8Z"/><path d="M60.4 7.7C60.4 7.9 60.3 8 60.1 8 59.9 8 59.8 7.9 59.8 7.7 59.8 7.5 59.9 7.4 60.1 7.4 60.3 7.4 60.4 7.6 60.4 7.7Z" fill="#222222"/><path d="M60.3 7.6C60.3 7.6 60.3 7.6 60.3 7.6 60.3 7.6 60.2 7.6 60.3 7.6 60.2 7.6 60.3 7.6 60.3 7.6 60.3 7.6 60.3 7.6 60.3 7.6Z" fill="#4C4C49"/><path d="M60.2 7.5C60.2 7.6 60.1 7.6 60.2 7.5 60.1 7.6 60.1 7.6 60.2 7.5 60.1 7.5 60.1 7.5 60.2 7.5 60.1 7.5 60.2 7.5 60.2 7.5Z" fill="#4C4C49"/><path d="M60 7.6C60 7.6 60 7.6 60 7.6 59.9 7.6 59.9 7.6 60 7.6 59.9 7.6 59.9 7.6 60 7.6 60 7.6 60 7.6 60 7.6Z" fill="#4C4C49"/><path d="M60.3 7.9C60.3 7.9 60.3 7.9 60.3 7.9 60.3 7.9 60.2 7.9 60.3 7.9 60.2 8 60.3 8 60.3 7.9 60.3 8 60.3 8 60.3 7.9Z" fill="#4C4C49"/><path d="M60.4 7.8C60.4 7.8 60.4 7.7 60.4 7.8 60.3 7.7 60.3 7.8 60.4 7.8 60.3 7.8 60.3 7.8 60.4 7.8 60.4 7.8 60.4 7.8 60.4 7.8Z" fill="#4C4C49"/><path d="M59.9 7.8C59.9 7.8 59.9 7.7 59.9 7.8 59.8 7.7 59.8 7.8 59.9 7.8 59.8 7.8 59.8 7.8 59.9 7.8 59.9 7.8 59.9 7.8 59.9 7.8Z" fill="#4C4C49"/><path d="M60.2 8C60.2 8 60.1 8 60.2 8 60.1 8 60.1 8 60.2 8 60.1 8 60.1 8 60.2 8 60.1 8 60.2 8 60.2 8Z" fill="#4C4C49"/><path d="M60 7.9C60 7.9 60 7.9 60 7.9 59.9 7.9 59.9 7.9 60 7.9 59.9 8 59.9 8 60 7.9 60 8 60 8 60 7.9Z" fill="#4C4C49"/></g><g><path d="M74.6 7.8C74.6 8.2 74.2 8.6 73.8 8.6 73.4 8.6 73 8.2 73 7.8 73 7.3 73.4 7 73.8 7 74.2 7 74.6 7.3 74.6 7.8Z" fill="#363635"/><path d="M74.6 7.8C74.6 8.2 74.2 8.6 73.8 8.6 73.4 8.6 73 8.2 73 7.8 73 7.3 73.4 7 73.8 7 74.2 7 74.6 7.3 74.6 7.8Z" fill="#222222"/><path d="M74.3 7.8C74.3 8.1 74.1 8.3 73.8 8.3 73.5 8.3 73.3 8.1 73.3 7.8 73.3 7.5 73.5 7.3 73.8 7.3 74.1 7.2 74.3 7.5 74.3 7.8Z"/><path d="M74.1 7.7C74.1 7.9 74 8 73.8 8 73.6 8 73.5 7.9 73.5 7.7 73.5 7.5 73.6 7.4 73.8 7.4 74 7.4 74.1 7.6 74.1 7.7Z" fill="#222222"/><path d="M74 7.6C74 7.6 74 7.6 74 7.6 73.9 7.6 73.9 7.6 74 7.6 73.9 7.6 73.9 7.6 74 7.6 74 7.6 74 7.6 74 7.6Z" fill="#4C4C49"/><path d="M73.8 7.5C73.8 7.6 73.8 7.6 73.8 7.5 73.8 7.6 73.8 7.6 73.8 7.5 73.8 7.5 73.8 7.5 73.8 7.5 73.8 7.5 73.8 7.5 73.8 7.5Z" fill="#4C4C49"/><path d="M73.7 7.6C73.7 7.6 73.6 7.6 73.7 7.6 73.6 7.6 73.6 7.6 73.7 7.6 73.6 7.6 73.6 7.6 73.7 7.6 73.6 7.6 73.7 7.6 73.7 7.6Z" fill="#4C4C49"/><path d="M74 7.9C74 7.9 74 7.9 74 7.9 73.9 7.9 73.9 7.9 74 7.9 73.9 8 73.9 8 74 7.9 74 8 74 8 74 7.9Z" fill="#4C4C49"/><path d="M74.1 7.8C74.1 7.8 74.1 7.7 74.1 7.8 74 7.7 74 7.8 74.1 7.8 74 7.8 74 7.8 74.1 7.8 74.1 7.8 74.1 7.8 74.1 7.8Z" fill="#4C4C49"/><path d="M73.6 7.8C73.6 7.8 73.6 7.7 73.6 7.8 73.5 7.7 73.5 7.8 73.6 7.8 73.5 7.8 73.5 7.8 73.6 7.8 73.6 7.8 73.6 7.8 73.6 7.8Z" fill="#4C4C49"/><path d="M73.8 8C73.8 8 73.8 8 73.8 8 73.8 8 73.8 8 73.8 8 73.8 8 73.8 8 73.8 8 73.8 8 73.8 8 73.8 8Z" fill="#4C4C49"/><path d="M73.7 7.9C73.7 7.9 73.6 7.9 73.7 7.9 73.6 7.9 73.6 7.9 73.7 7.9 73.6 8 73.6 8 73.7 7.9 73.6 8 73.7 8 73.7 7.9Z" fill="#4C4C49"/></g><g><path d="M77.5 7.8C77.5 8.2 77.1 8.6 76.7 8.6 76.3 8.6 75.9 8.2 75.9 7.8 75.9 7.4 76.3 7 76.7 7 77.1 7 77.5 7.3 77.5 7.8Z" fill="#363635"/><path d="M77.5 7.8C77.5 8.2 77.1 8.6 76.7 8.6 76.3 8.6 75.9 8.2 75.9 7.8 75.9 7.4 76.3 7 76.7 7 77.1 7 77.5 7.3 77.5 7.8Z" fill="#222222"/><path d="M77.2 7.8C77.2 8.1 77 8.3 76.7 8.3 76.4 8.3 76.2 8.1 76.2 7.8 76.2 7.5 76.4 7.3 76.7 7.3 77 7.2 77.2 7.5 77.2 7.8Z"/><path d="M77 7.7C77 7.9 76.9 8 76.7 8 76.5 8 76.4 7.9 76.4 7.7 76.4 7.5 76.5 7.4 76.7 7.4 76.9 7.4 77 7.6 77 7.7Z" fill="#222222"/><path d="M76.9 7.6C76.9 7.6 76.9 7.6 76.9 7.6 76.8 7.6 76.8 7.6 76.9 7.6 76.8 7.6 76.8 7.6 76.9 7.6 76.9 7.6 76.9 7.6 76.9 7.6Z" fill="#4C4C49"/><path d="M76.7 7.5C76.7 7.6 76.7 7.6 76.7 7.5 76.7 7.6 76.6 7.6 76.7 7.5 76.6 7.5 76.7 7.5 76.7 7.5 76.7 7.5 76.7 7.5 76.7 7.5Z" fill="#4C4C49"/><path d="M76.6 7.6C76.6 7.6 76.5 7.6 76.6 7.6 76.5 7.6 76.5 7.6 76.6 7.6 76.5 7.6 76.5 7.6 76.6 7.6 76.5 7.6 76.6 7.6 76.6 7.6Z" fill="#4C4C49"/><path d="M76.9 7.9C76.9 7.9 76.9 7.9 76.9 7.9 76.8 7.9 76.8 7.9 76.9 7.9 76.8 8 76.8 8 76.9 7.9 76.9 8 76.9 8 76.9 7.9Z" fill="#4C4C49"/><path d="M77 7.8C77 7.8 77 7.7 77 7.8 76.9 7.7 76.9 7.8 77 7.8 76.9 7.8 76.9 7.8 77 7.8 77 7.8 77 7.8 77 7.8Z" fill="#4C4C49"/><path d="M76.5 7.8C76.5 7.8 76.5 7.7 76.5 7.8 76.4 7.7 76.4 7.8 76.5 7.8 76.4 7.8 76.4 7.8 76.5 7.8 76.5 7.8 76.5 7.8 76.5 7.8Z" fill="#4C4C49"/><path d="M76.7 8C76.7 8 76.7 8 76.7 8 76.7 8 76.6 8 76.7 8 76.6 8 76.7 8 76.7 8 76.7 8 76.7 8 76.7 8Z" fill="#4C4C49"/><path d="M76.6 7.9C76.6 7.9 76.5 7.9 76.6 7.9 76.5 7.9 76.5 7.9 76.6 7.9 76.5 8 76.5 8 76.6 7.9 76.5 8 76.6 8 76.6 7.9Z" fill="#4C4C49"/></g><g><path d="M77 0 55.7 0.1C55.2 0.1 54.7 0.2 54.3 0.6 54.2 0.8 54.1 1 54 1.3L54 7.5C54 7.8 54 8.1 54.2 8.2 54.3 8.3 54.4 8.3 54.6 8.4L55.3 8.4 55.5 7.2 77.9 7.2 78 8.4 78.4 8.4C78.4 8.4 78.9 8.4 79 7.9L79 1.1C79.1 1.1 79.1 0 77 0Z" fill="#FFFDEE"/></g><g><path d="M77 0 55.7 0.1C55.2 0.1 54.7 0.2 54.3 0.6 54.2 0.8 54.1 1 54 1.3L54 1.9 79 1.9 79 1.1C79.1 1.1 79.1 0 77 0Z" fill="#2B528B"/><path d="M54 4.3 54 7.5C54 7.8 54 8.1 54.2 8.2 54.3 8.3 54.4 8.3 54.6 8.4L55.3 8.4 55.5 7.2 77.9 7.2 78 8.4 78.4 8.4C78.4 8.4 78.9 8.4 79 7.9L79 4.3 54 4.3Z" fill="#EF3A25"/></g><g><path d="M54 5.9 54 7.5C54 7.8 54 8.1 54.2 8.2 54.3 8.3 54.4 8.3 54.6 8.4L55.3 8.4 55.5 7.2 77.9 7.2 78 8.4 78.4 8.4C78.4 8.4 78.9 8.4 79 7.9L79 5.9 54 5.9Z" fill="#2B528B"/></g><g><path d="M54 7.1 54 7.5C54 7.8 54 8.1 54.2 8.2 54.3 8.3 54.4 8.3 54.6 8.4L55.3 8.4 55.5 7.2 77.9 7.2 78 8.4 78.4 8.4C78.4 8.4 78.9 8.4 79 7.9L79 7.1 54 7.1Z" fill="#1D355C"/></g><g><g><g><path d="M56.2 4.4C56.2 4.5 56.1 4.6 56.1 4.6L55.1 4.6C55 4.6 55 4.5 55 4.4L55 3.1C54.9 3.1 55 3 55.1 3L56.1 3C56.2 3 56.2 3.1 56.2 3.2L56.2 4.4Z" fill="#343432"/><path d="M56.2 4.4C56.2 4.5 56.1 4.5 56.1 4.5L55.1 4.5C55 4.5 55 4.5 55 4.4L55 3.2C55 3.1 55.1 3.1 55.1 3.1L56.1 3.1C56.2 3.1 56.2 3.2 56.2 3.2L56.2 4.4Z" fill="#444342"/><path d="M56.2 3.8 56.2 3.1C56.2 3 56.1 2.9 56.1 2.9L55.1 2.9C55 2.9 55 3 55 3.1L55 3.8C55.3 3.7 55.8 3.6 56.2 3.8Z" fill="#343432" opacity="0.6"/></g><g><path d="M57.7 4.4C57.7 4.5 57.6 4.6 57.6 4.6L56.6 4.6C56.5 4.6 56.5 4.5 56.5 4.4L56.5 3.1C56.5 3 56.6 2.9 56.6 2.9L57.6 2.9C57.7 2.9 57.7 3 57.7 3.1L57.7 4.4Z" fill="#343432"/><path d="M57.6 4.4C57.6 4.5 57.5 4.5 57.5 4.5L56.5 4.5C56.4 4.5 56.4 4.4 56.4 4.4L56.4 3.2C56.4 3.1 56.5 3.1 56.5 3.1L57.5 3.1C57.6 3.1 57.6 3.2 57.6 3.2L57.6 4.4Z" fill="#444342"/><path d="M57.7 3.8 57.7 3.1C57.7 3 57.6 2.9 57.6 2.9L56.6 2.9C56.5 2.9 56.5 3 56.5 3.1L56.5 3.8C56.8 3.7 57.2 3.6 57.7 3.8Z" fill="#343432" opacity="0.6"/></g><g><path d="M59.1 4.4C59.1 4.5 59 4.6 59 4.6L58 4.6C57.9 4.6 57.9 4.5 57.9 4.4L57.9 3.1C57.9 3 58 2.9 58 2.9L59 2.9C59.1 2.9 59.1 3 59.1 3.1L59.1 4.4Z" fill="#343432"/><path d="M59.1 4.4C59.1 4.5 59 4.5 59 4.5L58 4.5C57.9 4.5 57.9 4.4 57.9 4.4L57.9 3.2C57.9 3.1 58 3.1 58 3.1L59 3.1C59.1 3.1 59.1 3.2 59.1 3.2L59.1 4.4Z" fill="#444342"/><path d="M59.1 3.8 59.1 3.1C59.1 3.1 59.1 3 59 3L58 3C57.9 3 57.9 3.1 57.9 3.2L57.9 3.9C58.2 3.7 58.7 3.6 59.1 3.8Z" fill="#343432" opacity="0.6"/></g><g><path d="M60.6 4.4C60.6 4.5 60.5 4.6 60.5 4.6L59.5 4.6C59.4 4.6 59.4 4.5 59.4 4.4L59.4 3.1C59.4 3 59.5 2.9 59.5 2.9L60.5 2.9C60.6 2.9 60.6 3 60.6 3.1L60.6 4.4Z" fill="#343432"/><path d="M60.5 4.4C60.5 4.5 60.4 4.5 60.4 4.5L59.4 4.5C59.3 4.5 59.3 4.4 59.3 4.4L59.3 3.2C59.3 3.1 59.4 3.1 59.4 3.1L60.4 3.1C60.5 3.1 60.5 3.2 60.5 3.2L60.5 4.4Z" fill="#444342"/><path d="M60.6 3.8 60.6 3.1C60.6 3 60.5 2.9 60.5 2.9L59.5 2.9C59.4 2.9 59.4 3 59.4 3.1L59.4 3.8C59.7 3.7 60.1 3.6 60.6 3.8Z" fill="#343432" opacity="0.6"/></g><g><path d="M62 4.4C62 4.5 61.9 4.6 61.9 4.6L60.9 4.6C60.8 4.6 60.8 4.5 60.8 4.4L60.8 3.1C60.8 3 60.9 2.9 60.9 2.9L61.9 2.9C62 3 62 3.1 62 3.1L62 4.4Z" fill="#343432"/><path d="M62 4.4C62 4.5 61.9 4.5 61.9 4.5L60.9 4.5C60.8 4.5 60.8 4.4 60.8 4.4L60.8 3.2C60.8 3.1 60.9 3.1 60.9 3.1L61.9 3.1C62 3.1 62 3.2 62 3.2L62 4.4Z" fill="#444342"/><path d="M62 3.8 62 3.1C62 3.1 62 3 61.9 3L60.9 3C60.8 3 60.8 3.1 60.8 3.2L60.8 3.9C61.1 3.7 61.6 3.6 62 3.8Z" fill="#343432" opacity="0.6"/></g><g><path d="M63.5 4.4C63.5 4.5 63.4 4.6 63.4 4.6L62.4 4.6C62.3 4.6 62.3 4.5 62.3 4.4L62.3 3.1C62.3 3 62.4 2.9 62.4 2.9L63.4 2.9C63.5 2.9 63.5 3 63.5 3.1L63.5 4.4Z" fill="#343432"/><path d="M63.4 4.4C63.4 4.5 63.3 4.5 63.3 4.5L62.3 4.5C62.2 4.5 62.2 4.4 62.2 4.4L62.2 3.2C62.2 3.1 62.3 3.1 62.3 3.1L63.3 3.1C63.4 3.1 63.4 3.2 63.4 3.2L63.4 4.4Z" fill="#444342"/><path d="M63.5 3.8 63.5 3.1C63.5 3 63.4 2.9 63.4 2.9L62.4 2.9C62.3 2.9 62.3 3 62.3 3.1L62.3 3.8C62.6 3.7 63 3.6 63.5 3.8Z" fill="#343432" opacity="0.6"/></g></g><g><g><path d="M66.4 4.4C66.4 4.5 66.3 4.6 66.3 4.6L65.3 4.6C65.2 4.6 65.2 4.5 65.2 4.4L65.2 3.1C65.2 3 65.3 2.9 65.3 2.9L66.3 2.9C66.4 2.9 66.4 3 66.4 3.1L66.4 4.4Z" fill="#343432"/><path d="M66.3 4.4C66.3 4.5 66.2 4.5 66.2 4.5L65.2 4.5C65.1 4.5 65.1 4.4 65.1 4.4L65.1 3.2C65.1 3.1 65.2 3.1 65.2 3.1L66.2 3.1C66.3 3.1 66.3 3.2 66.3 3.2L66.3 4.4Z" fill="#444342"/><path d="M66.4 3.8 66.4 3.1C66.4 3 66.3 2.9 66.3 2.9L65.3 2.9C65.2 2.9 65.2 3 65.2 3.1L65.2 3.8C65.5 3.7 65.9 3.6 66.4 3.8Z" fill="#343432" opacity="0.6"/></g><g><path d="M67.8 4.4C67.8 4.5 67.7 4.6 67.7 4.6L66.7 4.6C66.6 4.6 66.6 4.5 66.6 4.4L66.6 3.1C66.6 3 66.7 2.9 66.7 2.9L67.7 2.9C67.8 2.9 67.8 3 67.8 3.1L67.8 4.4Z" fill="#343432"/><path d="M67.8 4.4C67.8 4.5 67.7 4.5 67.7 4.5L66.7 4.5C66.6 4.5 66.6 4.4 66.6 4.4L66.6 3.2C66.6 3.1 66.7 3.1 66.7 3.1L67.7 3.1C67.8 3.1 67.8 3.2 67.8 3.2L67.8 4.4Z" fill="#444342"/><path d="M67.8 3.8 67.8 3.1C67.8 3 67.7 2.9 67.7 2.9L66.7 2.9C66.6 2.9 66.6 3 66.6 3.1L66.6 3.8C66.9 3.7 67.4 3.6 67.8 3.8Z" fill="#343432" opacity="0.6"/></g><g><path d="M70.7 4.4C70.7 4.5 70.6 4.6 70.6 4.6L69.6 4.6C69.5 4.6 69.5 4.5 69.5 4.4L69.5 3.1C69.5 3 69.6 2.9 69.6 2.9L70.6 2.9C70.7 2.9 70.7 3 70.7 3.1L70.7 4.4Z" fill="#343432"/><path d="M70.6 4.4C70.6 4.5 70.5 4.5 70.5 4.5L69.5 4.5C69.4 4.5 69.4 4.4 69.4 4.4L69.4 3.2C69.4 3.1 69.5 3.1 69.5 3.1L70.5 3.1C70.6 3.1 70.6 3.2 70.6 3.2L70.6 4.4Z" fill="#444342"/><path d="M70.7 3.8 70.7 3.1C70.7 3 70.6 2.9 70.6 2.9L69.6 2.9C69.5 2.9 69.5 3 69.5 3.1L69.5 3.8C69.8 3.7 70.2 3.6 70.7 3.8Z" fill="#343432" opacity="0.6"/></g><g><path d="M72.2 4.4C72.2 4.5 72.1 4.6 72.1 4.6L71.1 4.6C71 4.6 71 4.5 71 4.4L71 3.1C70.8 3.1 70.9 3 71 3L72 3C72.1 3 72.1 3.1 72.1 3.2L72.1 4.4Z" fill="#343432"/><path d="M72.1 4.4C72.1 4.5 72 4.5 72 4.5L71 4.5C70.9 4.5 70.9 4.4 70.9 4.4L70.9 3.2C70.9 3.1 71 3.1 71 3.1L72 3.1C72.1 3.1 72.1 3.2 72.1 3.2L72.1 4.4Z" fill="#444342"/><path d="M72.2 3.8 72.2 3.1C72.2 3.1 72.1 3 72 3L71 3C70.9 3 70.9 3.1 70.9 3.2L70.9 3.9C71.3 3.7 71.7 3.6 72.2 3.8Z" fill="#343432" opacity="0.6"/></g><g><path d="M73.6 4.4C73.6 4.5 73.5 4.6 73.5 4.6L72.5 4.6C72.4 4.6 72.4 4.5 72.4 4.4L72.4 3.1C72.4 3 72.5 2.9 72.5 2.9L73.5 2.9C73.6 2.9 73.6 3 73.6 3.1L73.6 4.4Z" fill="#343432"/><path d="M73.5 4.4C73.5 4.5 73.4 4.5 73.4 4.5L72.4 4.5C72.3 4.5 72.3 4.4 72.3 4.4L72.3 3.2C72.3 3.1 72.4 3.1 72.4 3.1L73.4 3.1C73.5 3.1 73.5 3.2 73.5 3.2L73.5 4.4Z" fill="#444342"/><path d="M73.6 3.8 73.6 3.1C73.6 3 73.5 2.9 73.5 2.9L72.5 2.9C72.4 2.9 72.4 3 72.4 3.1L72.4 3.8C72.7 3.7 73.1 3.6 73.6 3.8Z" fill="#343432" opacity="0.6"/></g><g><path d="M75 4.4C75 4.5 74.9 4.6 74.9 4.6L73.9 4.6C73.8 4.6 73.8 4.5 73.8 4.4L73.8 3.1C73.8 3 73.9 2.9 73.9 2.9L74.9 2.9C75 3 75 3.1 75 3.1L75 4.4Z" fill="#343432"/><path d="M75 4.4C75 4.5 74.9 4.5 74.9 4.5L73.9 4.5C73.8 4.5 73.8 4.4 73.8 4.4L73.8 3.2C73.8 3.1 73.9 3.1 73.9 3.1L74.9 3.1C75 3.1 75 3.2 75 3.2L75 4.4Z" fill="#444342"/><path d="M75 3.8 75 3.1C75 3.1 75 3 74.9 3L73.9 3C73.8 3 73.8 3.1 73.8 3.2L73.8 3.9C74.1 3.7 74.6 3.6 75 3.8Z" fill="#343432" opacity="0.6"/></g><g><path d="M76.5 4.4C76.5 4.5 76.4 4.6 76.4 4.6L75.4 4.6C75.3 4.6 75.3 4.5 75.3 4.4L75.3 3.1C75.3 3 75.4 2.9 75.4 2.9L76.4 2.9C76.5 2.9 76.5 3 76.5 3.1L76.5 4.4Z" fill="#343432"/><path d="M76.5 4.4C76.5 4.5 76.4 4.5 76.4 4.5L75.4 4.5C75.3 4.5 75.3 4.4 75.3 4.4L75.3 3.2C75.3 3.1 75.4 3.1 75.4 3.1L76.4 3.1C76.5 3.1 76.5 3.2 76.5 3.2L76.5 4.4Z" fill="#444342"/><path d="M76.5 3.8 76.5 3.1C76.5 3 76.4 2.9 76.4 2.9L75.4 2.9C75.3 2.9 75.3 3 75.3 3.1L75.3 3.8C75.6 3.7 76.1 3.6 76.5 3.8Z" fill="#343432" opacity="0.6"/></g><g><path d="M78 4.4C78 4.5 77.9 4.6 77.9 4.6L76.9 4.6C76.8 4.6 76.8 4.5 76.8 4.4L76.8 3.1C76.8 3 76.9 2.9 76.9 2.9L77.9 2.9C77.9 3 78 3.1 78 3.1L78 4.4Z" fill="#343432"/><path d="M77.9 4.4C77.9 4.5 77.8 4.5 77.8 4.5L76.8 4.5C76.7 4.5 76.7 4.4 76.7 4.4L76.7 3.2C76.7 3.1 76.8 3.1 76.8 3.1L77.8 3.1C77.9 3.1 77.9 3.2 77.9 3.2L77.9 4.4Z" fill="#444342"/><path d="M78 3.8 78 3.1C78 3.1 77.9 3 77.8 3L76.8 3C76.7 3 76.7 3.1 76.7 3.2L76.7 3.9C77.1 3.7 77.5 3.6 78 3.8Z" fill="#343432" opacity="0.6"/></g></g></g><g><path d="M54.7 6.1 55.5 6.1C55.5 6.1 55.5 6.2 55.4 6.2 55.3 6.3 55 6.2 55 6.2 55 6.2 54.8 6.2 54.8 6.1 54.6 6.1 54.6 6.1 54.7 6.1Z" fill="#E86408"/><path d="M54.7 6.1 55.2 6.1C55.2 6.1 55.2 6.2 55.1 6.2 55 6.2 54.8 6.2 54.8 6.2 54.8 6.2 54.7 6.2 54.7 6.1 54.7 6.1 54.6 6.1 54.7 6.1Z" fill="#E86408" opacity="0.5"/></g><path d="M55.3 0.4 78.1 0.3C78.1 0.3 62.6 0.8 55.3 0.4Z" fill="#2B528B"/><g><path d="M77.9 6.1 78.7 6.1C78.7 6.1 78.7 6.2 78.6 6.2 78.5 6.3 78.2 6.2 78.2 6.2 78.2 6.2 78 6.2 78 6.1 77.8 6.1 77.8 6.1 77.9 6.1Z" fill="#E86408"/><path d="M77.9 6.1 78.4 6.1C78.4 6.1 78.4 6.2 78.3 6.2 78.2 6.2 78 6.2 78 6.2 78 6.2 77.9 6.2 77.9 6.1 77.8 6.1 77.8 6.1 77.9 6.1Z" fill="#E86408" opacity="0.5"/></g></g></g><g><rect x="64.6" y="2.8" width="3.9" height="5.2" fill="#2B528B"/><rect x="64.7" y="2.9" width="1.8" height="5.2" fill="#E0DECE"/><rect x="66.6" y="2.9" width="1.8" height="5.2" fill="#E0DECE"/><rect x="64.7" y="5.7" width="1.8" height="2.3" fill="#CFCDC0"/><rect x="66.6" y="5.7" width="1.8" height="2.3" fill="#CFCDC0"/><rect x="64.7" y="7" width="1.8" height="1.1" fill="#CFCDC0"/><rect x="66.6" y="7" width="1.8" height="1.1" fill="#CFCDC0"/><g><g><path d="M66.3 4.6C66.3 4.7 66.2 4.8 66.2 4.8L65.2 4.8C65.1 4.8 65.1 4.7 65.1 4.6L65.1 3.3C65.1 3.2 65.2 3.1 65.2 3.1L66.2 3.1C66.3 3.1 66.3 3.2 66.3 3.3L66.3 4.6Z" fill="#343432"/><path d="M66.2 4.5C66.2 4.6 66.1 4.6 66.1 4.6L65.1 4.6C65 4.6 65 4.5 65 4.5L65 3.4C65 3.3 65.1 3.3 65.1 3.3L66.1 3.3C66.2 3.3 66.2 3.4 66.2 3.4L66.2 4.5Z" fill="#444342"/><path d="M66.3 3.9 66.3 3.3C66.3 3.2 66.2 3.1 66.2 3.1L65.2 3.1C65.1 3.1 65.1 3.2 65.1 3.3L65.1 4C65.4 3.8 65.8 3.8 66.3 3.9Z" fill="#343432" opacity="0.6"/></g><g><path d="M68.1 4.6C68.1 4.7 68 4.8 68 4.8L67 4.8C66.9 4.8 66.9 4.7 66.9 4.6L66.9 3.3C66.9 3.2 67 3.1 67 3.1L68 3.1C68.1 3.1 68.1 3.2 68.1 3.3L68.1 4.6Z" fill="#343432"/><path d="M68 4.5C68 4.6 67.9 4.6 67.9 4.6L66.9 4.6C66.8 4.6 66.8 4.5 66.8 4.5L66.8 3.4C66.8 3.3 66.9 3.3 66.9 3.3L67.9 3.3C68 3.2 68 3.3 68 3.4L68 4.5Z" fill="#444342"/><path d="M68.1 3.9 68.1 3.3C68.1 3.2 68 3.1 68 3.1L67 3.1C66.9 3.1 66.9 3.2 66.9 3.3L66.9 4C67.2 3.8 67.6 3.8 68.1 3.9Z" fill="#343432" opacity="0.6"/></g></g></g></g><g><g><g><path d="M79 5.6 79 7.5C79 7.7 79 7.9 79.1 8.1L103.5 8.1 103.5 5.6 79 5.6Z" fill="#48484B"/><path d="M79 6.1 79 7.5C79 7.5 79 7.6 79 7.6L103.5 7.6 103.5 6.1 79 6.1Z" fill="#2B2B2C"/><g><path d="M83 7.8C83 8.2 82.6 8.6 82.2 8.6 81.8 8.6 81.4 8.2 81.4 7.8 81.4 7.4 81.8 7 82.2 7 82.6 7 83 7.3 83 7.8Z" fill="#363635"/><path d="M83 7.8C83 8.2 82.6 8.6 82.2 8.6 81.8 8.6 81.4 8.2 81.4 7.8 81.4 7.4 81.8 7 82.2 7 82.6 7 83 7.3 83 7.8Z" fill="#222222"/><path d="M82.7 7.8C82.7 8.1 82.5 8.3 82.2 8.3 81.9 8.3 81.7 8.1 81.7 7.8 81.7 7.5 81.9 7.3 82.2 7.3 82.5 7.2 82.7 7.5 82.7 7.8Z"/><path d="M82.5 7.7C82.5 7.9 82.4 8 82.2 8 82 8 81.9 7.9 81.9 7.7 81.9 7.5 82 7.4 82.2 7.4 82.4 7.4 82.5 7.6 82.5 7.7Z" fill="#222222"/><path d="M82.4 7.6C82.4 7.6 82.4 7.6 82.4 7.6 82.4 7.6 82.3 7.6 82.4 7.6 82.3 7.6 82.4 7.6 82.4 7.6 82.4 7.6 82.4 7.6 82.4 7.6Z" fill="#4C4C49"/><path d="M82.2 7.5C82.2 7.6 82.2 7.6 82.2 7.5 82.2 7.6 82.2 7.6 82.2 7.5 82.2 7.5 82.2 7.5 82.2 7.5 82.2 7.5 82.2 7.5 82.2 7.5Z" fill="#4C4C49"/><path d="M82.1 7.6C82.1 7.6 82.1 7.6 82.1 7.6 82 7.6 82 7.6 82.1 7.6 82 7.6 82 7.6 82.1 7.6 82.1 7.6 82.1 7.6 82.1 7.6Z" fill="#4C4C49"/><path d="M82.4 7.9C82.4 7.9 82.4 7.9 82.4 7.9 82.4 7.9 82.3 7.9 82.4 7.9 82.3 8 82.4 8 82.4 7.9 82.4 8 82.4 8 82.4 7.9Z" fill="#4C4C49"/><path d="M82.5 7.8C82.5 7.8 82.5 7.7 82.5 7.8 82.4 7.7 82.4 7.8 82.5 7.8 82.4 7.8 82.4 7.8 82.5 7.8 82.5 7.8 82.5 7.8 82.5 7.8Z" fill="#4C4C49"/><path d="M82 7.8C82 7.8 82 7.7 82 7.8 81.9 7.7 81.9 7.8 82 7.8 81.9 7.8 81.9 7.8 82 7.8 82 7.8 82 7.8 82 7.8Z" fill="#4C4C49"/><path d="M82.2 8C82.2 8 82.2 8 82.2 8 82.2 8 82.2 8 82.2 8 82.2 8 82.2 8 82.2 8 82.2 8 82.2 8 82.2 8Z" fill="#4C4C49"/><path d="M82.1 7.9C82.1 7.9 82.1 7.9 82.1 7.9 82 7.9 82 7.9 82.1 7.9 82 8 82 8 82.1 7.9 82.1 8 82.1 8 82.1 7.9Z" fill="#4C4C49"/></g><g><path d="M85.9 7.8C85.9 8.2 85.5 8.6 85.1 8.6 84.7 8.6 84.3 8.2 84.3 7.8 84.3 7.4 84.7 7 85.1 7 85.5 7 85.9 7.3 85.9 7.8Z" fill="#363635"/><path d="M85.9 7.8C85.9 8.2 85.5 8.6 85.1 8.6 84.7 8.6 84.3 8.2 84.3 7.8 84.3 7.4 84.7 7 85.1 7 85.5 7 85.9 7.3 85.9 7.8Z" fill="#222222"/><path d="M85.6 7.8C85.6 8.1 85.4 8.3 85.1 8.3 84.8 8.3 84.6 8.1 84.6 7.8 84.6 7.5 84.8 7.3 85.1 7.3 85.4 7.2 85.6 7.5 85.6 7.8Z"/><path d="M85.4 7.7C85.4 7.9 85.3 8 85.1 8 84.9 8 84.8 7.9 84.8 7.7 84.8 7.5 84.9 7.4 85.1 7.4 85.3 7.4 85.4 7.6 85.4 7.7Z" fill="#222222"/><path d="M85.3 7.6C85.3 7.6 85.3 7.6 85.3 7.6 85.2 7.6 85.2 7.6 85.3 7.6 85.2 7.6 85.2 7.6 85.3 7.6 85.3 7.6 85.3 7.6 85.3 7.6Z" fill="#4C4C49"/><path d="M85.1 7.5C85.1 7.6 85.1 7.6 85.1 7.5 85.1 7.6 85.1 7.6 85.1 7.5 85.1 7.5 85.1 7.5 85.1 7.5 85.1 7.5 85.1 7.5 85.1 7.5Z" fill="#4C4C49"/><path d="M85 7.6C85 7.6 84.9 7.6 85 7.6 84.9 7.6 84.9 7.6 85 7.6 84.9 7.6 84.9 7.6 85 7.6 84.9 7.6 85 7.6 85 7.6Z" fill="#4C4C49"/><path d="M85.3 7.9C85.3 7.9 85.3 7.9 85.3 7.9 85.2 7.9 85.2 7.9 85.3 7.9 85.2 8 85.2 8 85.3 7.9 85.3 8 85.3 8 85.3 7.9Z" fill="#4C4C49"/><path d="M85.4 7.8C85.4 7.8 85.4 7.7 85.4 7.8 85.3 7.7 85.3 7.8 85.4 7.8 85.3 7.8 85.3 7.8 85.4 7.8 85.4 7.8 85.4 7.8 85.4 7.8Z" fill="#4C4C49"/><path d="M84.9 7.8C84.9 7.8 84.9 7.7 84.9 7.8 84.8 7.7 84.8 7.8 84.9 7.8 84.8 7.8 84.8 7.8 84.9 7.8 84.9 7.8 84.9 7.8 84.9 7.8Z" fill="#4C4C49"/><path d="M85.1 8C85.1 8 85.1 8 85.1 8 85.1 8 85.1 8 85.1 8 85.1 8 85.1 8 85.1 8 85.1 8 85.1 8 85.1 8Z" fill="#4C4C49"/><path d="M85 7.9C85 7.9 84.9 7.9 85 7.9 84.9 7.9 84.9 7.9 85 7.9 84.9 8 84.9 8 85 7.9 84.9 8 85 8 85 7.9Z" fill="#4C4C49"/></g><g><path d="M99.6 7.8C99.6 8.2 99.2 8.6 98.8 8.6 98.4 8.6 98 8.2 98 7.8 98 7.3 98.3 7 98.8 7 99.2 7 99.6 7.3 99.6 7.8Z" fill="#363635"/><path d="M99.6 7.8C99.6 8.2 99.2 8.6 98.8 8.6 98.4 8.6 98 8.2 98 7.8 98 7.3 98.3 7 98.8 7 99.2 7 99.6 7.3 99.6 7.8Z" fill="#222222"/><path d="M99.3 7.8C99.3 8.1 99.1 8.3 98.8 8.3 98.5 8.3 98.3 8.1 98.3 7.8 98.3 7.5 98.5 7.3 98.8 7.3 99.1 7.2 99.3 7.5 99.3 7.8Z"/><path d="M99.1 7.7C99.1 7.9 99 8 98.8 8 98.6 8 98.5 7.9 98.5 7.7 98.5 7.5 98.6 7.4 98.8 7.4 99 7.4 99.1 7.6 99.1 7.7Z" fill="#222222"/><path d="M99 7.6C99 7.6 99 7.6 99 7.6 98.9 7.6 98.9 7.6 99 7.6 98.9 7.6 98.9 7.6 99 7.6 99 7.6 99 7.6 99 7.6Z" fill="#4C4C49"/><path d="M98.8 7.5C98.8 7.6 98.8 7.6 98.8 7.5 98.8 7.6 98.7 7.6 98.8 7.5 98.7 7.5 98.8 7.5 98.8 7.5 98.8 7.5 98.8 7.5 98.8 7.5Z" fill="#4C4C49"/><path d="M98.6 7.6C98.6 7.6 98.6 7.6 98.6 7.6 98.6 7.6 98.6 7.6 98.6 7.6 98.6 7.6 98.6 7.6 98.6 7.6 98.6 7.6 98.6 7.6 98.6 7.6Z" fill="#4C4C49"/><path d="M99 7.9C99 7.9 99 7.9 99 7.9 98.9 7.9 98.9 7.9 99 7.9 98.9 8 98.9 8 99 7.9 99 8 99 8 99 7.9Z" fill="#4C4C49"/><path d="M99.1 7.8C99.1 7.8 99 7.7 99.1 7.8 99 7.7 99 7.8 99.1 7.8 99 7.8 99 7.8 99.1 7.8 99 7.8 99.1 7.8 99.1 7.8Z" fill="#4C4C49"/><path d="M98.6 7.8C98.6 7.8 98.6 7.7 98.6 7.8 98.5 7.7 98.5 7.8 98.6 7.8 98.5 7.8 98.5 7.8 98.6 7.8 98.6 7.8 98.6 7.8 98.6 7.8Z" fill="#4C4C49"/><path d="M98.8 8C98.8 8 98.8 8 98.8 8 98.8 8 98.7 8 98.8 8 98.7 8 98.8 8 98.8 8 98.8 8 98.8 8 98.8 8Z" fill="#4C4C49"/><path d="M98.6 7.9C98.6 7.9 98.6 7.9 98.6 7.9 98.6 7.9 98.6 7.9 98.6 7.9 98.6 8 98.6 8 98.6 7.9 98.6 8 98.6 8 98.6 7.9Z" fill="#4C4C49"/></g><g><path d="M102.5 7.8C102.5 8.2 102.1 8.6 101.7 8.6 101.3 8.6 100.9 8.2 100.9 7.8 100.9 7.4 101.3 7 101.7 7 102.1 7 102.5 7.3 102.5 7.8Z" fill="#363635"/><path d="M102.5 7.8C102.5 8.2 102.1 8.6 101.7 8.6 101.3 8.6 100.9 8.2 100.9 7.8 100.9 7.4 101.3 7 101.7 7 102.1 7 102.5 7.3 102.5 7.8Z" fill="#222222"/><path d="M102.2 7.8C102.2 8.1 102 8.3 101.7 8.3 101.4 8.3 101.2 8.1 101.2 7.8 101.2 7.5 101.4 7.3 101.7 7.3 102 7.2 102.2 7.5 102.2 7.8Z"/><path d="M102 7.7C102 7.9 101.9 8 101.7 8 101.5 8 101.4 7.9 101.4 7.7 101.4 7.5 101.5 7.4 101.7 7.4 101.8 7.4 102 7.6 102 7.7Z" fill="#222222"/><path d="M101.9 7.6C101.9 7.6 101.9 7.6 101.9 7.6 101.8 7.6 101.8 7.6 101.9 7.6 101.8 7.6 101.8 7.6 101.9 7.6 101.9 7.6 101.9 7.6 101.9 7.6Z" fill="#4C4C49"/><path d="M101.7 7.5C101.7 7.6 101.7 7.6 101.7 7.5 101.6 7.6 101.6 7.6 101.7 7.5 101.6 7.5 101.6 7.5 101.7 7.5 101.7 7.5 101.7 7.5 101.7 7.5Z" fill="#4C4C49"/><path d="M101.5 7.6C101.5 7.6 101.5 7.6 101.5 7.6 101.5 7.6 101.5 7.6 101.5 7.6 101.5 7.6 101.5 7.6 101.5 7.6 101.5 7.6 101.5 7.6 101.5 7.6Z" fill="#4C4C49"/><path d="M101.9 7.9C101.9 7.9 101.9 7.9 101.9 7.9 101.8 7.9 101.8 7.9 101.9 7.9 101.8 8 101.8 8 101.9 7.9 101.9 8 101.9 8 101.9 7.9Z" fill="#4C4C49"/><path d="M101.9 7.8C101.9 7.8 101.9 7.7 101.9 7.8 101.9 7.7 101.9 7.8 101.9 7.8 101.9 7.8 101.9 7.8 101.9 7.8 101.9 7.8 101.9 7.8 101.9 7.8Z" fill="#4C4C49"/><path d="M101.5 7.8C101.5 7.8 101.4 7.7 101.5 7.8 101.4 7.7 101.4 7.8 101.5 7.8 101.4 7.8 101.4 7.8 101.5 7.8 101.4 7.8 101.5 7.8 101.5 7.8Z" fill="#4C4C49"/><path d="M101.7 8C101.7 8 101.7 8 101.7 8 101.6 8 101.6 8 101.7 8 101.6 8 101.6 8 101.7 8 101.7 8 101.7 8 101.7 8Z" fill="#4C4C49"/><path d="M101.5 7.9C101.5 7.9 101.5 7.9 101.5 7.9 101.5 7.9 101.5 7.9 101.5 7.9 101.5 8 101.5 8 101.5 7.9 101.5 8 101.5 8 101.5 7.9Z" fill="#4C4C49"/></g><g><path d="M102 0 80.7 0.1C80.2 0.1 79.7 0.2 79.3 0.6 79.2 0.8 79.1 1 79 1.3L79 7.5C79 7.8 79 8.1 79.2 8.2 79.3 8.3 79.4 8.3 79.6 8.4L80.3 8.4 80.5 7.2 102.9 7.2 103.1 8.4 103.5 8.4C103.5 8.4 104 8.4 104.1 7.9L104.1 1.1C104 1.1 104 0 102 0Z" fill="#FFFDEE"/></g><g><path d="M102 0 80.7 0.1C80.2 0.1 79.7 0.2 79.3 0.6 79.2 0.8 79.1 1 79 1.3L79 1.9 104 1.9 104 1.1C104 1.1 104 0 102 0Z" fill="#EEEDE0"/><path d="M79 4.3 79 7.5C79 7.8 79 8.1 79.2 8.2 79.3 8.3 79.4 8.3 79.6 8.4L80.3 8.4 80.5 7.2 102.9 7.2 103.1 8.4 103.5 8.4C103.5 8.4 104 8.4 104.1 7.9L104.1 4.3 79 4.3Z" fill="#EF3A25"/></g><g><path d="M79 5.9 79 7.5C79 7.8 79 8.1 79.2 8.2 79.3 8.3 79.4 8.3 79.6 8.4L80.3 8.4 80.5 7.2 102.9 7.2 103.1 8.4 103.5 8.4C103.5 8.4 104 8.4 104.1 7.9L104.1 5.9 79 5.9Z" fill="#2B528B"/></g><g><path d="M79 7.1 79 7.5C79 7.8 79 8.1 79.2 8.2 79.3 8.3 79.4 8.3 79.6 8.4L80.3 8.4 80.5 7.2 102.9 7.2 103.1 8.4 103.5 8.4C103.5 8.4 104 8.4 104.1 7.9L104.1 7.1 79 7.1Z" fill="#1D355C"/></g><g><g><g><path d="M81.2 4.4C81.2 4.5 81.1 4.6 81.1 4.6L80.1 4.6C80 4.6 80 4.5 80 4.4L80 3.1C79.9 3.1 80 3 80 3L81 3C81.1 3 81.1 3.1 81.1 3.2L81.1 4.4Z" fill="#343432"/><path d="M81.2 4.4C81.2 4.5 81.1 4.5 81.1 4.5L80.1 4.5C80 4.5 80 4.5 80 4.4L80 3.2C80 3.1 80.1 3.1 80.1 3.1L81.1 3.1C81.2 3.1 81.2 3.2 81.2 3.2L81.2 4.4Z" fill="#444342"/><path d="M81.2 3.8 81.2 3.1C81.2 3 81.1 2.9 81.1 2.9L80.1 2.9C80 2.9 80 3 80 3.1L80 3.8C80.3 3.7 80.8 3.6 81.2 3.8Z" fill="#343432" opacity="0.6"/></g><g><path d="M82.7 4.4C82.7 4.5 82.6 4.6 82.6 4.6L81.6 4.6C81.5 4.6 81.5 4.5 81.5 4.4L81.5 3.1C81.5 3 81.6 2.9 81.6 2.9L82.6 2.9C82.7 2.9 82.7 3 82.7 3.1L82.7 4.4Z" fill="#343432"/><path d="M82.6 4.4C82.6 4.5 82.5 4.5 82.5 4.5L81.5 4.5C81.4 4.5 81.4 4.4 81.4 4.4L81.4 3.2C81.4 3.1 81.5 3.1 81.5 3.1L82.5 3.1C82.6 3.1 82.6 3.2 82.6 3.2L82.6 4.4Z" fill="#444342"/><path d="M82.7 3.8 82.7 3.1C82.7 3 82.6 2.9 82.6 2.9L81.6 2.9C81.5 2.9 81.5 3 81.5 3.1L81.5 3.8C81.8 3.7 82.2 3.6 82.7 3.8Z" fill="#343432" opacity="0.6"/></g><g><path d="M84.1 4.4C84.1 4.5 84 4.6 84 4.6L83 4.6C82.9 4.6 82.9 4.5 82.9 4.4L82.9 3.1C82.9 3 83 2.9 83 2.9L84 2.9C84.1 2.9 84.1 3 84.1 3.1L84.1 4.4Z" fill="#343432"/><path d="M84 4.4C84 4.5 83.9 4.5 83.9 4.5L82.9 4.5C82.8 4.5 82.8 4.4 82.8 4.4L82.8 3.2C82.8 3.1 82.9 3.1 82.9 3.1L83.9 3.1C84 3.1 84 3.1 84 3.2L84 4.4Z" fill="#444342"/><path d="M84.1 3.8 84.1 3.1C84.1 3.1 84 3 84 3L83 3C82.9 3 82.9 3.1 82.9 3.2L82.9 3.9C83.2 3.7 83.6 3.6 84.1 3.8Z" fill="#343432" opacity="0.6"/></g><g><path d="M85.6 4.4C85.6 4.5 85.5 4.6 85.5 4.6L84.5 4.6C84.4 4.6 84.4 4.5 84.4 4.4L84.4 3.1C84.4 3 84.5 2.9 84.5 2.9L85.5 2.9C85.6 2.9 85.6 3 85.6 3.1L85.6 4.4Z" fill="#343432"/><path d="M85.5 4.4C85.5 4.5 85.4 4.5 85.4 4.5L84.4 4.5C84.3 4.5 84.3 4.4 84.3 4.4L84.3 3.2C84.3 3.1 84.4 3.1 84.4 3.1L85.4 3.1C85.5 3.1 85.5 3.2 85.5 3.2L85.5 4.4Z" fill="#444342"/><path d="M85.6 3.8 85.6 3.1C85.6 3 85.5 2.9 85.5 2.9L84.5 2.9C84.4 2.9 84.4 3 84.4 3.1L84.4 3.8C84.6 3.7 85.1 3.6 85.6 3.8Z" fill="#343432" opacity="0.6"/></g><g><path d="M87 4.4C87 4.5 86.9 4.6 86.9 4.6L85.9 4.6C85.8 4.6 85.8 4.5 85.8 4.4L85.8 3.1C85.8 3 85.9 2.9 85.9 2.9L86.9 2.9C86.9 3 87 3.1 87 3.1L87 4.4Z" fill="#343432"/><path d="M86.9 4.4C86.9 4.5 86.8 4.5 86.8 4.5L85.8 4.5C85.7 4.5 85.7 4.4 85.7 4.4L85.7 3.2C85.7 3.1 85.8 3.1 85.8 3.1L86.8 3.1C86.9 3.1 86.9 3.2 86.9 3.2L86.9 4.4Z" fill="#444342"/><path d="M87 3.8 87 3.1C87 3.1 86.9 3 86.9 3L85.9 3C85.8 3 85.8 3.1 85.8 3.2L85.8 3.9C86.1 3.7 86.5 3.6 87 3.8Z" fill="#343432" opacity="0.6"/></g><g><path d="M88.4 4.4C88.4 4.5 88.3 4.6 88.3 4.6L87.3 4.6C87.2 4.6 87.2 4.5 87.2 4.4L87.2 3.1C87.2 3 87.3 2.9 87.3 2.9L88.3 2.9C88.4 2.9 88.4 3 88.4 3.1L88.4 4.4Z" fill="#343432"/><path d="M88.4 4.4C88.4 4.5 88.3 4.5 88.3 4.5L87.3 4.5C87.2 4.5 87.2 4.4 87.2 4.4L87.2 3.2C87.2 3.1 87.3 3.1 87.3 3.1L88.3 3.1C88.4 3.1 88.4 3.2 88.4 3.2L88.4 4.4Z" fill="#444342"/><path d="M88.4 3.8 88.4 3.1C88.4 3 88.3 2.9 88.3 2.9L87.3 2.9C87.2 2.9 87.2 3 87.2 3.1L87.2 3.8C87.5 3.7 88 3.6 88.4 3.8Z" fill="#343432" opacity="0.6"/></g></g><g><g><path d="M91.3 4.4C91.3 4.5 91.2 4.6 91.2 4.6L90.2 4.6C90.1 4.6 90.1 4.5 90.1 4.4L90.1 3.1C90 3.1 90.1 3 90.2 3L91.2 3C91.3 3 91.3 3.1 91.3 3.2L91.3 4.4Z" fill="#343432"/><path d="M91.3 4.4C91.3 4.5 91.2 4.5 91.2 4.5L90.2 4.5C90.1 4.5 90.1 4.4 90.1 4.4L90.1 3.2C90.1 3.1 90.2 3.1 90.2 3.1L91.2 3.1C91.3 3.1 91.3 3.2 91.3 3.2L91.3 4.4Z" fill="#444342"/><path d="M91.3 3.8 91.3 3.1C91.3 3 91.2 2.9 91.2 2.9L90.2 2.9C90.1 3 90 3.1 90 3.1L90 3.8C90.4 3.7 90.9 3.6 91.3 3.8Z" fill="#343432" opacity="0.6"/></g><g><path d="M92.8 4.4C92.8 4.5 92.7 4.6 92.7 4.6L91.7 4.6C91.6 4.6 91.6 4.5 91.6 4.4L91.6 3.1C91.6 3 91.7 2.9 91.7 2.9L92.7 2.9C92.8 2.9 92.8 3 92.8 3.1L92.8 4.4Z" fill="#343432"/><path d="M92.7 4.4C92.7 4.5 92.6 4.5 92.6 4.5L91.6 4.5C91.5 4.5 91.5 4.4 91.5 4.4L91.5 3.2C91.5 3.1 91.6 3.1 91.6 3.1L92.6 3.1C92.7 3.1 92.7 3.2 92.7 3.2L92.7 4.4Z" fill="#444342"/><path d="M92.8 3.8 92.8 3.1C92.8 3 92.7 2.9 92.7 2.9L91.7 2.9C91.6 2.9 91.6 3 91.6 3.1L91.6 3.8C91.9 3.7 92.3 3.6 92.8 3.8Z" fill="#343432" opacity="0.6"/></g><g><path d="M95.7 4.4C95.7 4.5 95.6 4.6 95.6 4.6L94.6 4.6C94.5 4.6 94.5 4.5 94.5 4.4L94.5 3.1C94.5 3 94.6 2.9 94.6 2.9L95.6 2.9C95.7 2.9 95.7 3 95.7 3.1L95.7 4.4Z" fill="#343432"/><path d="M95.6 4.4C95.6 4.5 95.5 4.5 95.5 4.5L94.5 4.5C94.4 4.5 94.4 4.4 94.4 4.4L94.4 3.2C94.4 3.1 94.5 3.1 94.5 3.1L95.5 3.1C95.6 3.1 95.6 3.2 95.6 3.2L95.6 4.4Z" fill="#444342"/><path d="M95.7 3.8 95.7 3.1C95.7 3 95.6 2.9 95.6 2.9L94.6 2.9C94.5 2.9 94.5 3 94.5 3.1L94.5 3.8C94.8 3.7 95.2 3.6 95.7 3.8Z" fill="#343432" opacity="0.6"/></g><g><path d="M97.1 4.4C97.1 4.5 97 4.6 97 4.6L96 4.6C95.9 4.6 95.9 4.5 95.9 4.4L95.9 3.1C95.8 3.1 95.9 3 96 3L97 3C97.1 3 97.1 3.1 97.1 3.2L97.1 4.4Z" fill="#343432"/><path d="M97.1 4.4C97.1 4.5 97 4.5 97 4.5L96 4.5C95.9 4.5 95.9 4.4 95.9 4.4L95.9 3.2C95.9 3.1 96 3.1 96 3.1L97 3.1C97.1 3.1 97.1 3.2 97.1 3.2L97.1 4.4Z" fill="#444342"/><path d="M97.1 3.8 97.1 3.1C97.1 3.1 97.1 3 97 3L96 3C95.9 3 95.9 3.1 95.9 3.2L95.9 3.9C96.2 3.7 96.7 3.6 97.1 3.8Z" fill="#343432" opacity="0.6"/></g><g><path d="M98.6 4.4C98.6 4.5 98.5 4.6 98.5 4.6L97.5 4.6C97.4 4.6 97.4 4.5 97.4 4.4L97.4 3.1C97.4 3 97.5 2.9 97.5 2.9L98.5 2.9C98.6 2.9 98.6 3 98.6 3.1L98.6 4.4Z" fill="#343432"/><path d="M98.5 4.4C98.5 4.5 98.4 4.5 98.4 4.5L97.4 4.5C97.3 4.5 97.3 4.4 97.3 4.4L97.3 3.2C97.3 3.1 97.4 3.1 97.4 3.1L98.4 3.1C98.5 3.1 98.5 3.2 98.5 3.2L98.5 4.4Z" fill="#444342"/><path d="M98.6 3.8 98.6 3.1C98.6 3 98.5 2.9 98.5 2.9L97.5 2.9C97.4 2.9 97.4 3 97.4 3.1L97.4 3.8C97.7 3.7 98.1 3.6 98.6 3.8Z" fill="#343432" opacity="0.6"/></g><g><path d="M100 4.4C100 4.5 99.9 4.6 99.9 4.6L98.9 4.6C98.8 4.6 98.8 4.5 98.8 4.4L98.8 3.1C98.8 3 98.9 2.9 98.9 2.9L99.9 2.9C100 2.9 100 3 100 3.1L100 4.4Z" fill="#343432"/><path d="M100 4.4C100 4.5 99.9 4.5 99.9 4.5L98.9 4.5C98.8 4.5 98.8 4.4 98.8 4.4L98.8 3.2C98.8 3.1 98.9 3.1 98.9 3.1L99.9 3.1C100 3.1 100 3.2 100 3.2L100 4.4Z" fill="#444342"/><path d="M100 3.8 100 3.1C100 3.1 100 3 99.9 3L98.9 3C98.8 3 98.8 3.1 98.8 3.2L98.8 3.9C99.1 3.7 99.6 3.6 100 3.8Z" fill="#343432" opacity="0.6"/></g><g><path d="M101.5 4.4C101.5 4.5 101.4 4.6 101.4 4.6L100.4 4.6C100.3 4.6 100.3 4.5 100.3 4.4L100.3 3.1C100.3 3 100.4 2.9 100.4 2.9L101.4 2.9C101.5 2.9 101.5 3 101.5 3.1L101.5 4.4Z" fill="#343432"/><path d="M101.4 4.4C101.4 4.5 101.3 4.5 101.3 4.5L100.3 4.5C100.2 4.5 100.2 4.4 100.2 4.4L100.2 3.2C100.2 3.1 100.3 3.1 100.3 3.1L101.3 3.1C101.4 3.1 101.4 3.2 101.4 3.2L101.4 4.4Z" fill="#444342"/><path d="M101.5 3.8 101.5 3.1C101.5 3 101.4 2.9 101.4 2.9L100.4 2.9C100.3 2.9 100.3 3 100.3 3.1L100.3 3.8C100.6 3.7 101 3.6 101.5 3.8Z" fill="#343432" opacity="0.6"/></g><g><path d="M102.9 4.4C102.9 4.5 102.8 4.6 102.8 4.6L101.8 4.6C101.7 4.6 101.7 4.5 101.7 4.4L101.7 3.1C101.7 3 101.8 2.9 101.8 2.9L102.8 2.9C102.9 2.9 102.9 3 102.9 3.1L102.9 4.4Z" fill="#343432"/><path d="M102.9 4.4C102.9 4.5 102.8 4.5 102.8 4.5L101.8 4.5C101.7 4.5 101.7 4.4 101.7 4.4L101.7 3.2C101.7 3.1 101.8 3.1 101.8 3.1L102.8 3.1C102.9 3.1 102.9 3.2 102.9 3.2L102.9 4.4Z" fill="#444342"/><path d="M102.9 3.8 102.9 3.1C102.9 3 102.8 2.9 102.8 2.9L101.8 2.9C101.7 2.9 101.7 3 101.7 3.1L101.7 3.8C102 3.7 102.5 3.6 102.9 3.8Z" fill="#343432" opacity="0.6"/></g></g></g><g><path d="M79.7 6.1 80.5 6.1C80.5 6.1 80.5 6.2 80.4 6.2 80.3 6.3 80 6.2 80 6.2 80 6.2 79.8 6.2 79.8 6.1 79.6 6.1 79.6 6.1 79.7 6.1Z" fill="#E86408"/><path d="M79.7 6.1 80.2 6.1C80.2 6.1 80.2 6.2 80.1 6.2 80 6.2 79.8 6.2 79.8 6.2 79.8 6.2 79.7 6.2 79.7 6.1 79.6 6.1 79.6 6.1 79.7 6.1Z" fill="#E86408" opacity="0.5"/></g><path d="M80.3 0.4 103.1 0.3C103.1 0.3 87.5 0.8 80.3 0.4Z" fill="#FFFFFF"/><g><path d="M102.9 6.1 103.7 6.1C103.7 6.1 103.7 6.2 103.6 6.2 103.5 6.3 103.2 6.2 103.2 6.2 103.2 6.2 103 6.2 103 6.1 102.8 6.1 102.8 6.1 102.9 6.1Z" fill="#E86408"/><path d="M102.9 6.1 103.4 6.1C103.4 6.1 103.4 6.2 103.3 6.2 103.2 6.2 103 6.2 103 6.2 103 6.2 102.9 6.2 102.9 6.1 102.8 6.1 102.8 6.1 102.9 6.1Z" fill="#E86408" opacity="0.5"/></g></g></g><g><rect x="89.6" y="2.8" width="3.9" height="5.2" fill="#2B528B"/><rect x="89.7" y="2.9" width="1.8" height="5.2" fill="#E0DECE"/><rect x="91.6" y="2.9" width="1.8" height="5.2" fill="#E0DECE"/><rect x="89.7" y="5.7" width="1.8" height="2.3" fill="#CFCDC0"/><rect x="91.6" y="5.7" width="1.8" height="2.3" fill="#CFCDC0"/><rect x="89.7" y="7" width="1.8" height="1.1" fill="#CFCDC0"/><rect x="91.6" y="7" width="1.8" height="1.1" fill="#CFCDC0"/><g><g><path d="M91.3 4.6C91.3 4.7 91.2 4.8 91.2 4.8L90.2 4.8C90 4.7 90 4.7 90 4.6L90 3.3C90 3.2 90.1 3.1 90.1 3.1L91.1 3.1C91.2 3.1 91.2 3.2 91.2 3.3L91.2 4.6Z" fill="#343432"/><path d="M91.2 4.5C91.2 4.6 91.1 4.6 91.1 4.6L90.1 4.6C90 4.6 90 4.5 90 4.5L90 3.4C90 3.3 90.1 3.3 90.1 3.3L91.1 3.3C91.2 3.3 91.2 3.4 91.2 3.4L91.2 4.5Z" fill="#444342"/><path d="M91.3 3.9 91.3 3.3C91.3 3.2 91.2 3.1 91.2 3.1L90.2 3.1C90 3.1 90 3.2 90 3.3L90 4C90.4 3.8 90.8 3.8 91.3 3.9Z" fill="#343432" opacity="0.6"/></g><g><path d="M93.1 4.6C93.1 4.7 93 4.8 93 4.8L92 4.8C91.9 4.8 91.9 4.7 91.9 4.6L91.9 3.3C91.9 3.2 92 3.1 92 3.1L93 3.1C93.1 3.1 93.1 3.2 93.1 3.3L93.1 4.6Z" fill="#343432"/><path d="M93 4.5C93 4.6 92.9 4.6 92.9 4.6L91.9 4.6C91.8 4.6 91.8 4.5 91.8 4.5L91.8 3.4C91.8 3.3 91.9 3.3 91.9 3.3L92.9 3.3C93 3.2 93 3.3 93 3.4L93 4.5Z" fill="#444342"/><path d="M93.1 3.9 93.1 3.3C93.1 3.2 93 3.1 93 3.1L92 3.1C91.9 3.1 91.9 3.2 91.9 3.3L91.9 4C92.2 3.8 92.6 3.8 93.1 3.9Z" fill="#343432" opacity="0.6"/></g></g></g></g><g><g><path d="M28.7 8C29 8 29 7.8 29 7.6L29 5.6 6.9 5.6 6.9 8 28.7 8C28.7 8 28.7 8 28.7 8Z" fill="#48484B"/><path d="M29 7.6 29 6.1 6.9 6.1 6.9 7.6 29 7.6C29 7.6 29 7.6 29 7.6Z" fill="#2B2B2C"/><g><path d="M10.1 7.8C10.1 8.2 9.7 8.6 9.3 8.6 8.9 8.6 8.5 8.2 8.5 7.8 8.6 7.3 8.9 7 9.3 7 9.8 7 10.1 7.3 10.1 7.8Z" fill="#363635"/><path d="M10.1 7.8C10.1 8.2 9.7 8.6 9.3 8.6 8.9 8.6 8.5 8.2 8.5 7.8 8.6 7.3 8.9 7 9.3 7 9.8 7 10.1 7.3 10.1 7.8Z" fill="#222222"/><path d="M9.9 7.8C9.9 8.1 9.7 8.3 9.4 8.3 9.1 8.3 8.8 8 8.8 7.8 8.8 7.5 9 7.3 9.3 7.3 9.6 7.2 9.9 7.5 9.9 7.8Z"/><path d="M9.7 7.7C9.7 7.9 9.6 8 9.4 8 9.2 8.1 9 7.9 9 7.7 9 7.5 9.1 7.4 9.3 7.4 9.5 7.4 9.7 7.6 9.7 7.7Z" fill="#222222"/><path d="M9.6 7.6C9.6 7.6 9.5 7.6 9.6 7.6 9.5 7.6 9.5 7.6 9.6 7.6 9.5 7.6 9.5 7.5 9.6 7.6 9.5 7.5 9.6 7.6 9.6 7.6Z" fill="#4C4C49"/><path d="M9.4 7.5C9.4 7.5 9.4 7.6 9.4 7.5 9.3 7.6 9.3 7.5 9.4 7.5 9.3 7.5 9.3 7.5 9.4 7.5 9.4 7.5 9.4 7.5 9.4 7.5Z" fill="#4C4C49"/><path d="M9.2 7.6C9.2 7.6 9.2 7.6 9.2 7.6 9.2 7.6 9.1 7.6 9.2 7.6 9.1 7.6 9.2 7.5 9.2 7.6 9.2 7.5 9.2 7.6 9.2 7.6Z" fill="#4C4C49"/><path d="M9.6 7.9C9.6 7.9 9.5 7.9 9.6 7.9 9.5 7.9 9.5 7.9 9.6 7.9 9.5 7.9 9.5 8 9.6 7.9 9.5 8 9.6 7.9 9.6 7.9Z" fill="#4C4C49"/><path d="M9.6 7.8C9.6 7.7 9.6 7.7 9.6 7.8 9.6 7.7 9.6 7.7 9.6 7.8 9.6 7.8 9.6 7.8 9.6 7.8 9.6 7.8 9.6 7.8 9.6 7.8Z" fill="#4C4C49"/><path d="M9.1 7.8C9.1 7.7 9.1 7.7 9.1 7.8 9.1 7.7 9.1 7.7 9.1 7.8 9.1 7.8 9.1 7.8 9.1 7.8 9.1 7.8 9.1 7.8 9.1 7.8Z" fill="#4C4C49"/><path d="M9.4 8C9.4 8 9.4 7.9 9.4 8 9.3 7.9 9.3 8 9.4 8 9.3 8 9.3 8 9.4 8 9.4 8 9.4 8 9.4 8Z" fill="#4C4C49"/><path d="M9.2 7.9C9.2 7.9 9.2 7.9 9.2 7.9 9.2 7.9 9.1 7.9 9.2 7.9 9.1 7.9 9.2 8 9.2 7.9 9.2 8 9.2 7.9 9.2 7.9Z" fill="#4C4C49"/></g><g><path d="M13 7.8C13 8.2 12.6 8.6 12.2 8.6 11.8 8.6 11.4 8.2 11.4 7.8 11.4 7.4 11.8 7 12.2 7 12.7 7 13 7.3 13 7.8Z" fill="#363635"/><path d="M13 7.8C13 8.2 12.6 8.6 12.2 8.6 11.8 8.6 11.4 8.2 11.4 7.8 11.4 7.4 11.8 7 12.2 7 12.7 7 13 7.3 13 7.8Z" fill="#222222"/><path d="M12.8 7.8C12.8 8.1 12.6 8.3 12.3 8.3 12 8.3 11.8 8.1 11.8 7.8 11.8 7.5 12 7.3 12.3 7.3 12.5 7.2 12.8 7.5 12.8 7.8Z"/><path d="M12.6 7.7C12.6 7.9 12.5 8 12.3 8 12.1 8 12 7.9 12 7.7 12 7.5 12.1 7.4 12.3 7.4 12.4 7.4 12.6 7.6 12.6 7.7Z" fill="#222222"/><path d="M12.4 7.6C12.4 7.6 12.4 7.6 12.4 7.6 12.4 7.6 12.4 7.6 12.4 7.6 12.4 7.6 12.4 7.5 12.4 7.6 12.4 7.5 12.4 7.6 12.4 7.6Z" fill="#4C4C49"/><path d="M12.3 7.5C12.3 7.5 12.3 7.6 12.3 7.5 12.2 7.6 12.2 7.5 12.3 7.5 12.2 7.5 12.2 7.5 12.3 7.5 12.3 7.5 12.3 7.5 12.3 7.5Z" fill="#4C4C49"/><path d="M12.1 7.6C12.1 7.6 12.1 7.6 12.1 7.6 12 7.6 12 7.6 12.1 7.6 12 7.6 12 7.5 12.1 7.6 12.1 7.5 12.1 7.6 12.1 7.6Z" fill="#4C4C49"/><path d="M12.4 7.9C12.4 7.9 12.4 7.9 12.4 7.9 12.4 7.9 12.4 7.9 12.4 7.9 12.4 7.9 12.4 8 12.4 7.9 12.4 8 12.4 7.9 12.4 7.9Z" fill="#4C4C49"/><path d="M12.5 7.8C12.5 7.7 12.5 7.7 12.5 7.8 12.5 7.7 12.4 7.7 12.5 7.8 12.4 7.8 12.5 7.8 12.5 7.8 12.5 7.8 12.5 7.8 12.5 7.8Z" fill="#4C4C49"/><path d="M12 7.8C12 7.7 12 7.7 12 7.8 12 7.7 11.9 7.7 12 7.8 11.9 7.8 12 7.8 12 7.8 12 7.8 12 7.8 12 7.8Z" fill="#4C4C49"/><path d="M12.3 8C12.3 8 12.3 7.9 12.3 8 12.2 7.9 12.2 8 12.3 8 12.2 8 12.2 8 12.3 8 12.3 8 12.3 8 12.3 8Z" fill="#4C4C49"/><path d="M12.1 7.9C12.1 7.9 12.1 7.9 12.1 7.9 12 7.9 12 7.9 12.1 7.9 12 7.9 12 8 12.1 7.9 12.1 8 12.1 7.9 12.1 7.9Z" fill="#4C4C49"/></g><g><path d="M24.4 7.8C24.4 8.2 24 8.6 23.6 8.6 23.2 8.6 22.8 8.2 22.8 7.8 22.8 7.4 23.2 7 23.6 7 24 7 24.4 7.3 24.4 7.8Z" fill="#363635"/><path d="M24.4 7.8C24.4 8.2 24 8.6 23.6 8.6 23.2 8.6 22.8 8.2 22.8 7.8 22.8 7.4 23.2 7 23.6 7 24 7 24.4 7.3 24.4 7.8Z" fill="#222222"/><path d="M24.2 7.8C24.2 8.1 24 8.3 23.7 8.3 23.4 8.3 23.2 8.1 23.2 7.8 23.2 7.5 23.4 7.3 23.7 7.3 23.9 7.2 24.2 7.5 24.2 7.8Z"/><path d="M24 7.7C24 7.9 23.9 8 23.7 8 23.5 8 23.4 7.9 23.4 7.7 23.4 7.5 23.5 7.4 23.7 7.4 23.8 7.4 24 7.6 24 7.7Z" fill="#222222"/><path d="M23.8 7.6C23.8 7.6 23.8 7.6 23.8 7.6 23.8 7.6 23.8 7.6 23.8 7.6 23.8 7.6 23.8 7.5 23.8 7.6 23.8 7.5 23.8 7.6 23.8 7.6Z" fill="#4C4C49"/><path d="M23.7 7.5C23.7 7.5 23.7 7.6 23.7 7.5 23.6 7.6 23.6 7.5 23.7 7.5 23.6 7.5 23.6 7.5 23.7 7.5 23.7 7.5 23.7 7.5 23.7 7.5Z" fill="#4C4C49"/><path d="M23.5 7.6C23.5 7.6 23.5 7.6 23.5 7.6 23.4 7.6 23.4 7.6 23.5 7.6 23.4 7.6 23.4 7.5 23.5 7.6 23.5 7.5 23.5 7.6 23.5 7.6Z" fill="#4C4C49"/><path d="M23.8 7.9C23.8 7.9 23.8 7.9 23.8 7.9 23.8 7.9 23.8 7.9 23.8 7.9 23.8 7.9 23.8 8 23.8 7.9 23.8 8 23.8 7.9 23.8 7.9Z" fill="#4C4C49"/><path d="M23.9 7.8C23.9 7.7 23.9 7.7 23.9 7.8 23.9 7.7 23.8 7.7 23.9 7.8 23.8 7.8 23.9 7.8 23.9 7.8 23.9 7.8 23.9 7.8 23.9 7.8Z" fill="#4C4C49"/><path d="M23.4 7.8C23.4 7.7 23.4 7.7 23.4 7.8 23.4 7.7 23.3 7.7 23.4 7.8 23.3 7.8 23.4 7.8 23.4 7.8 23.4 7.8 23.4 7.8 23.4 7.8Z" fill="#4C4C49"/><path d="M23.7 8C23.7 8 23.7 7.9 23.7 8 23.6 7.9 23.6 8 23.7 8 23.6 8 23.6 8 23.7 8 23.7 8 23.7 8 23.7 8Z" fill="#4C4C49"/><path d="M23.5 7.9C23.5 7.9 23.5 7.9 23.5 7.9 23.4 7.9 23.4 7.9 23.5 7.9 23.4 7.9 23.4 8 23.5 7.9 23.5 8 23.5 7.9 23.5 7.9Z" fill="#4C4C49"/></g><g><path d="M27.3 7.8C27.3 8.2 26.9 8.6 26.5 8.6 26.1 8.6 25.7 8.2 25.7 7.8 25.7 7.4 26.1 7 26.5 7 27 7 27.3 7.3 27.3 7.8Z" fill="#363635"/><path d="M27.3 7.8C27.3 8.2 26.9 8.6 26.5 8.6 26.1 8.6 25.7 8.2 25.7 7.8 25.7 7.4 26.1 7 26.5 7 27 7 27.3 7.3 27.3 7.8Z" fill="#222222"/><path d="M27.1 7.8C27.1 8.1 26.9 8.3 26.6 8.3 26.2 8.3 26 8 26 7.8 26 7.5 26.2 7.3 26.5 7.3 26.8 7.2 27.1 7.5 27.1 7.8Z"/><path d="M26.8 7.7C26.8 7.9 26.7 8 26.5 8 26.3 8 26.2 7.9 26.2 7.7 26.2 7.5 26.3 7.4 26.5 7.4 26.7 7.4 26.8 7.6 26.8 7.7Z" fill="#222222"/><path d="M26.7 7.6C26.7 7.6 26.7 7.6 26.7 7.6 26.7 7.6 26.6 7.6 26.7 7.6 26.6 7.6 26.7 7.5 26.7 7.6 26.7 7.5 26.7 7.6 26.7 7.6Z" fill="#4C4C49"/><path d="M26.6 7.5C26.6 7.5 26.5 7.6 26.6 7.5 26.5 7.6 26.5 7.5 26.6 7.5 26.5 7.5 26.5 7.5 26.6 7.5 26.5 7.5 26.6 7.5 26.6 7.5Z" fill="#4C4C49"/><path d="M26.4 7.6C26.4 7.6 26.4 7.6 26.4 7.6 26.3 7.6 26.3 7.6 26.4 7.6 26.3 7.6 26.3 7.5 26.4 7.6 26.4 7.5 26.4 7.6 26.4 7.6Z" fill="#4C4C49"/><path d="M26.7 7.9C26.7 7.9 26.7 7.9 26.7 7.9 26.7 7.9 26.6 7.9 26.7 7.9 26.6 7.9 26.7 8 26.7 7.9 26.7 8 26.7 7.9 26.7 7.9Z" fill="#4C4C49"/><path d="M26.8 7.8C26.8 7.7 26.8 7.7 26.8 7.8 26.7 7.7 26.7 7.7 26.8 7.8 26.7 7.8 26.7 7.8 26.8 7.8 26.8 7.8 26.8 7.8 26.8 7.8Z" fill="#4C4C49"/><path d="M26.3 7.8C26.3 7.7 26.3 7.7 26.3 7.8 26.2 7.7 26.2 7.7 26.3 7.8 26.2 7.8 26.2 7.8 26.3 7.8 26.3 7.8 26.3 7.8 26.3 7.8Z" fill="#4C4C49"/><path d="M26.6 8C26.6 8 26.5 7.9 26.6 8 26.5 7.9 26.5 8 26.6 8 26.5 8 26.5 8 26.6 8 26.5 8 26.6 8 26.6 8Z" fill="#4C4C49"/><path d="M26.4 7.9C26.4 7.9 26.4 7.9 26.4 7.9 26.3 7.9 26.3 7.9 26.4 7.9 26.3 7.9 26.3 8 26.4 7.9 26.4 8 26.4 7.9 26.4 7.9Z" fill="#4C4C49"/></g><g><path d="M28.6 0.5C28.4 0.3 28 0.2 27.7 0.1L12.7 0.2 9.1 0.2C9.1 0.2 5.4 0.3 3.6 2.3 1.8 4.3 0.1 7.3 0.1 7.3 0.1 7.3-0.4 8.4 1.4 8.4L7.5 8.4 7.9 7.2 29 7.2 29 1.5C29 1.4 29 1.2 28.9 1.1 28.9 0.9 28.8 0.7 28.6 0.5Z" fill="#D4ECCF"/></g><g><path d="M28.6 0.5C28.4 0.3 28 0.2 27.7 0.1L12.7 0.2 9.1 0.2C9.1 0.2 6 0.3 4.1 1.8L29.1 1.8 29.1 1.5C29.1 1.4 29.1 1.2 29 1.1 28.9 0.9 28.8 0.7 28.6 0.5Z" fill="#2B528B"/><path d="M29 4.3 2 4.3C0.9 5.9 0 7.3 0 7.3 0 7.3-0.5 8.4 1.3 8.4L7.4 8.4 7.8 7.2 29 7.2 29 4.3Z" fill="#EF3A25"/></g><g><path d="M29 5.9 1 5.9C0.4 6.7 0.1 7.3 0.1 7.3 0.1 7.3-0.4 8.4 1.4 8.4L7.5 8.4 7.9 7.2 29 7.2 29 5.9Z" fill="#2B528B"/></g><g><path d="M29 7 0.2 7C0.1 7.2 0.1 7.3 0.1 7.3 0.1 7.3-0.4 8.4 1.4 8.4L7.5 8.4 7.9 7.2 29 7.2 29 7Z" fill="#1D355C"/></g><path d="M5.6 2.7 3.3 2.7C2.6 3.5 2.2 4.1 1.6 4.9L5 4.9C5.5 4.9 5.5 4.6 5.5 4.6L6 2.9C6 2.6 5.6 2.7 5.6 2.7Z" fill="#343432"/><path d="M5.5 2.7 3.2 2.7C2.6 3.5 2.2 4.1 1.6 4.8L4.9 4.8C5.4 4.8 5.4 4.5 5.4 4.5L5.8 2.9C5.9 2.6 5.5 2.7 5.5 2.7Z" fill="#444342"/><path d="M5.8 3.4 5.9 2.9C5.9 2.7 5.5 2.7 5.5 2.7L3.2 2.7C2.6 3.5 2.2 4 1.6 4.7 2.7 4.3 5.5 3.5 5.8 3.4Z" fill="#343432" opacity="0.6"/><g><path d="M1.7 6.6C1.6 6.8 1.5 6.9 1.3 6.9 1.2 6.8 1.2 6.6 1.3 6.4 1.4 6.2 1.6 6.1 1.7 6.1 1.8 6.2 1.8 6.4 1.7 6.6Z" fill="#E3EDEE" opacity="0.6"/><path d="M1 6.7C1 6.8 0.9 6.9 0.8 6.9 0.7 6.9 0.7 6.8 0.7 6.6 0.7 6.5 0.8 6.4 0.9 6.4 1 6.4 1.1 6.5 1 6.7Z" fill="#E3D8C3"/></g><g><path d="M6.4 6 7.2 6C7.2 6 7.2 6.1 7.1 6.1 7 6.2 6.7 6.1 6.7 6.1 6.7 6.1 6.5 6.1 6.5 6 6.4 6.1 6.4 6 6.4 6Z" fill="#E86408"/><path d="M6.4 6.1 6.9 6.1C6.9 6.1 6.9 6.2 6.8 6.2 6.7 6.2 6.5 6.2 6.5 6.2 6.5 6.2 6.5 6.2 6.4 6.1 6.4 6.1 6.4 6.1 6.4 6.1Z" fill="#E86408" opacity="0.5"/></g><g><path d="M27.9 6 28.7 6C28.7 6 28.7 6.1 28.6 6.1 28.5 6.2 28.2 6.1 28.2 6.1 28.2 6.1 28 6.1 28 6 27.8 6.1 27.8 6 27.9 6Z" fill="#E86408"/><path d="M27.9 6.1 28.4 6.1C28.4 6.1 28.4 6.2 28.3 6.2 28.2 6.2 28 6.2 28 6.2 28 6.2 27.9 6.2 27.9 6.1 27.8 6.1 27.8 6.1 27.9 6.1Z" fill="#E86408" opacity="0.5"/></g><path d="M5 1.4C5 1.4 6.8 0.3 10.4 0.3L19.7 0.3 10.5 0.5C10.5 0.5 7 0.6 5 1.4Z" fill="#2B528B"/><path d="M28.6 0.5C28.5 0.4 28.4 0.4 28.4 0.3L20.4 0.3C22.6 0.5 25.6 0.6 28.6 0.5 28.6 0.5 28.6 0.5 28.6 0.5Z" fill="#2B528B"/><g><rect x="15.9" y="2.8" width="3.9" height="5.2" fill="#2B528B"/><rect x="16" y="2.9" width="1.8" height="5.2" fill="#E0DECE"/><rect x="17.9" y="2.9" width="1.8" height="5.2" fill="#E0DECE"/><rect x="16" y="5.7" width="1.8" height="2.3" fill="#CFCDC0"/><rect x="17.9" y="5.7" width="1.8" height="2.3" fill="#CFCDC0"/><rect x="16" y="7" width="1.8" height="1.1" fill="#CFCDC0"/><rect x="17.9" y="7" width="1.8" height="1.1" fill="#CFCDC0"/><g><g><path d="M17.6 4.6C17.6 4.7 17.5 4.8 17.5 4.8L16.5 4.8C16.4 4.8 16.4 4.7 16.4 4.6L16.4 3.3C16.4 3.2 16.5 3.1 16.5 3.1L17.5 3.1C17.6 3.1 17.6 3.2 17.6 3.3L17.6 4.6Z" fill="#343432"/><path d="M17.5 4.5C17.5 4.6 17.4 4.6 17.4 4.6L16.4 4.6C16.3 4.6 16.3 4.5 16.3 4.5L16.3 3.3C16.3 3.2 16.4 3.2 16.4 3.2L17.4 3.2C17.5 3.2 17.5 3.3 17.5 3.3L17.5 4.5Z" fill="#444342"/><path d="M17.6 3.9 17.6 3.3C17.6 3.2 17.5 3.1 17.5 3.1L16.5 3.1C16.4 3.1 16.4 3.2 16.4 3.3L16.4 4C16.7 3.8 17.1 3.8 17.6 3.9Z" fill="#343432" opacity="0.6"/></g><g><path d="M19.4 4.6C19.4 4.7 19.3 4.8 19.3 4.8L18.3 4.8C18.2 4.8 18.2 4.7 18.2 4.6L18.2 3.3C18.2 3.2 18.3 3.1 18.3 3.1L19.3 3.1C19.4 3.1 19.4 3.2 19.4 3.3L19.4 4.6Z" fill="#343432"/><path d="M19.3 4.5C19.3 4.6 19.2 4.6 19.2 4.6L18.2 4.6C18.1 4.6 18.1 4.5 18.1 4.5L18.1 3.3C18.1 3.2 18.2 3.2 18.2 3.2L19.2 3.2C19.3 3.2 19.3 3.3 19.3 3.3L19.3 4.5Z" fill="#444342"/><path d="M19.4 3.9 19.4 3.3C19.4 3.2 19.3 3.1 19.3 3.1L18.3 3.1C18.2 3.1 18.2 3.2 18.2 3.3L18.2 4C18.5 3.8 18.9 3.8 19.4 3.9Z" fill="#343432" opacity="0.6"/></g></g></g><path d="M28.7 8.4C29 8.3 29 8 29 7.7 29 7.7 29 7.7 29 7.7L29 7.2 27.7 7.2 27.9 8.4 28.7 8.4C28.7 8.4 28.7 8.4 28.7 8.4Z" fill="#2B528B"/><path d="M28.7 8.4C29 8.3 29 8 29 7.7 29 7.7 29 7.7 29 7.7L29 7.2 27.7 7.2 27.9 8.4 28.7 8.4C28.7 8.4 28.7 8.4 28.7 8.4Z" fill="#1D355C"/></g><g><g><g><path d="M22.2 4.4C22.2 4.5 22.1 4.6 22.1 4.6L21.1 4.6C21 4.6 21 4.5 21 4.4L21 3.1C20.9 3.1 20.9 3 21 3L22 3C22.1 3 22.1 3.1 22.1 3.2L22.1 4.4Z" fill="#343432"/><path d="M22.1 4.4C22.1 4.5 22 4.5 22 4.5L21 4.5C20.9 4.5 20.9 4.4 20.9 4.4L20.9 3.2C20.9 3.1 21 3.1 21 3.1L22 3.1C22.1 3.1 22.1 3.2 22.1 3.2L22.1 4.4Z" fill="#444342"/><path d="M22.2 3.8 22.2 3.1C22.2 3.1 22.1 3 22 3L21 3C20.9 3 20.9 3.1 20.9 3.2L20.9 3.9C21.3 3.6 21.7 3.6 22.2 3.8Z" fill="#343432" opacity="0.6"/></g><g><path d="M23.6 4.4C23.6 4.5 23.5 4.6 23.5 4.6L22.5 4.6C22.4 4.6 22.4 4.5 22.4 4.4L22.4 3.1C22.4 3 22.5 2.9 22.5 2.9L23.5 2.9C23.6 2.9 23.6 3 23.6 3.1L23.6 4.4Z" fill="#343432"/><path d="M23.6 4.4C23.6 4.5 23.5 4.5 23.5 4.5L22.5 4.5C22.4 4.5 22.4 4.4 22.4 4.4L22.4 3.2C22.4 3.1 22.5 3.1 22.5 3.1L23.5 3.1C23.6 3.1 23.6 3.2 23.6 3.2L23.6 4.4Z" fill="#444342"/><path d="M23.6 3.8 23.6 3.1C23.6 3 23.5 2.9 23.5 2.9L22.5 2.9C22.4 2.9 22.4 3 22.4 3.1L22.4 3.8C22.7 3.6 23.2 3.6 23.6 3.8Z" fill="#343432" opacity="0.6"/></g><g><path d="M25.1 4.4C25.1 4.5 25 4.6 25 4.6L24 4.6C23.9 4.6 23.9 4.5 23.9 4.4L23.9 3.1C23.9 3 24 2.9 24 2.9L25 2.9C25.1 2.9 25.1 3 25.1 3.1L25.1 4.4Z" fill="#343432"/><path d="M25 4.4C25 4.5 24.9 4.5 24.9 4.5L23.9 4.5C23.8 4.5 23.8 4.4 23.8 4.4L23.8 3.2C23.8 3.1 23.9 3.1 23.9 3.1L24.9 3.1C25 3.1 25 3.1 25 3.2L25 4.4Z" fill="#444342"/><path d="M25.1 3.8 25.1 3.1C25.1 3.1 25 3 24.9 3L23.9 3C23.8 3 23.8 3.1 23.8 3.2L23.8 3.9C24.2 3.6 24.6 3.6 25.1 3.8Z" fill="#343432" opacity="0.6"/></g><g><path d="M26.5 4.4C26.5 4.5 26.4 4.6 26.4 4.6L25.4 4.6C25.3 4.6 25.3 4.5 25.3 4.4L25.3 3.1C25.3 3 25.4 2.9 25.4 2.9L26.4 2.9C26.5 2.9 26.5 3 26.5 3.1L26.5 4.4Z" fill="#343432"/><path d="M26.5 4.4C26.5 4.5 26.4 4.5 26.4 4.5L25.4 4.5C25.3 4.5 25.3 4.4 25.3 4.4L25.3 3.2C25.3 3.1 25.4 3.1 25.4 3.1L26.4 3.1C26.5 3.1 26.5 3.2 26.5 3.2L26.5 4.4Z" fill="#444342"/><path d="M26.5 3.8 26.5 3.1C26.5 3 26.4 2.9 26.4 2.9L25.4 2.9C25.3 2.9 25.3 3 25.3 3.1L25.3 3.8C25.6 3.6 26.1 3.6 26.5 3.8Z" fill="#343432" opacity="0.6"/></g><g><path d="M28 4.4C28 4.5 27.9 4.6 27.9 4.6L26.9 4.6C26.8 4.6 26.8 4.5 26.8 4.4L26.8 3.1C26.8 3 26.9 2.9 26.9 2.9L27.9 2.9C27.9 3 28 3.1 28 3.1L28 4.4Z" fill="#343432"/><path d="M27.9 4.4C27.9 4.5 27.8 4.5 27.8 4.5L26.8 4.5C26.7 4.5 26.7 4.4 26.7 4.4L26.7 3.2C26.7 3.1 26.8 3.1 26.8 3.1L27.8 3.1C27.9 3.1 27.9 3.2 27.9 3.2L27.9 4.4Z" fill="#444342"/><path d="M28 3.8 28 3.1C28 3.1 27.9 3 27.8 3L26.8 3C26.7 3 26.7 3.1 26.7 3.2L26.7 3.9C27.1 3.6 27.5 3.6 28 3.8Z" fill="#343432" opacity="0.6"/></g></g><g><g><path d="M9.2 4.4C9.2 4.5 9.1 4.6 9.1 4.6L8.1 4.6C8 4.6 7.9 4.5 7.9 4.4L7.9 3.1C7.9 3.1 8 3 8.1 3L9.1 3C9.2 3 9.2 3.1 9.2 3.2L9.2 4.4Z" fill="#343432"/><path d="M9.2 4.4C9.2 4.5 9.1 4.5 9.1 4.5L8.1 4.5C8 4.5 8 4.5 8 4.4L8 3.2C8 3.1 8 3.1 8.1 3.1L9.1 3.1C9.2 3.1 9.2 3.2 9.2 3.2L9.2 4.4Z" fill="#444342"/><path d="M9.2 3.8 9.2 3.1C9.2 3.1 9.2 3 9.1 3L8.1 3C8 3 7.9 3.1 7.9 3.1L7.9 3.8C8.3 3.6 8.8 3.6 9.2 3.8Z" fill="#343432" opacity="0.6"/></g><g><path d="M10.7 4.4C10.7 4.5 10.6 4.6 10.6 4.6L9.6 4.6C9.5 4.6 9.5 4.5 9.5 4.4L9.5 3.1C9.4 3.1 9.4 3 9.5 3L10.5 3C10.6 3 10.6 3.1 10.6 3.2L10.6 4.4Z" fill="#343432"/><path d="M10.6 4.4C10.6 4.5 10.5 4.5 10.5 4.5L9.5 4.5C9.4 4.5 9.4 4.4 9.4 4.4L9.4 3.2C9.4 3.1 9.5 3.1 9.5 3.1L10.5 3.1C10.6 3.1 10.6 3.2 10.6 3.2L10.6 4.4Z" fill="#444342"/><path d="M10.7 3.8 10.7 3.1C10.7 3 10.6 2.9 10.6 2.9L9.6 2.9C9.4 3 9.4 3.1 9.4 3.1L9.4 3.8C9.8 3.6 10.2 3.6 10.7 3.8Z" fill="#343432" opacity="0.6"/></g><g><path d="M12.1 4.4C12.1 4.5 12 4.6 12 4.6L11 4.6C10.9 4.6 10.9 4.5 10.9 4.4L10.9 3.1C10.9 3 11 2.9 11 2.9L12 2.9C12.1 2.9 12.1 3 12.1 3.1L12.1 4.4Z" fill="#343432"/><path d="M12.1 4.4C12.1 4.5 12 4.5 12 4.5L11 4.5C10.9 4.5 10.9 4.4 10.9 4.4L10.9 3.2C10.9 3.1 11 3.1 11 3.1L12 3.1C12.1 3.1 12.1 3.2 12.1 3.2L12.1 4.4Z" fill="#444342"/><path d="M12.1 3.8 12.1 3.1C12.1 3.1 12.1 3 12 3L11 3C10.9 3 10.9 3.1 10.9 3.2L10.9 3.9C11.2 3.6 11.7 3.6 12.1 3.8Z" fill="#343432" opacity="0.6"/></g><g><path d="M13.6 4.4C13.6 4.5 13.5 4.6 13.5 4.6L12.5 4.6C12.4 4.6 12.4 4.5 12.4 4.4L12.4 3.1C12.4 3 12.5 2.9 12.5 2.9L13.5 2.9C13.6 2.9 13.6 3 13.6 3.1L13.6 4.4Z" fill="#343432"/><path d="M13.5 4.4C13.5 4.5 13.4 4.5 13.4 4.5L12.4 4.5C12.3 4.5 12.3 4.4 12.3 4.4L12.3 3.2C12.3 3.1 12.4 3.1 12.4 3.1L13.4 3.1C13.5 3.1 13.5 3.2 13.5 3.2L13.5 4.4Z" fill="#444342"/><path d="M13.6 3.8 13.6 3.1C13.6 3 13.5 2.9 13.5 2.9L12.5 2.9C12.4 2.9 12.4 3 12.4 3.1L12.4 3.8C12.7 3.6 13.1 3.6 13.6 3.8Z" fill="#343432" opacity="0.6"/></g><g><path d="M15 4.4C15 4.5 14.9 4.6 14.9 4.6L13.9 4.6C13.8 4.6 13.8 4.5 13.8 4.4L13.8 3.1C13.8 3 13.9 2.9 13.9 2.9L14.9 2.9C15 3 15 3.1 15 3.1L15 4.4Z" fill="#343432"/><path d="M15 4.4C15 4.5 14.9 4.5 14.9 4.5L13.9 4.5C13.8 4.5 13.8 4.4 13.8 4.4L13.8 3.2C13.8 3.1 13.9 3.1 13.9 3.1L14.9 3.1C15 3.1 15 3.2 15 3.2L15 4.4Z" fill="#444342"/><path d="M15 3.8 15 3.1C15 3.1 15 3 14.9 3L13.9 3C13.8 3 13.8 3.1 13.8 3.2L13.8 3.9C14.1 3.6 14.6 3.6 15 3.8Z" fill="#343432" opacity="0.6"/></g></g></g></g></g></svg>