<svg width="929.1" height="1608.1" viewBox="0 0 929.1 1608.1" xmlns="http://www.w3.org/2000/svg" xmlns:xlink="http://www.w3.org/1999/xlink" overflow="hidden"><defs></defs><g><path d="M929.1 1577.8C929.1 1594.6 801.5 1608.2 644 1608.2 486.5 1608.2 359 1594.5 359 1577.8 359 1561.1 486.6 1547.4 644.1 1547.4 801.6 1547.4 929.1 1561 929.1 1577.8Z" opacity="0.16"/><path d="M534.8 1516.9 594.2 1517.8C602.3 1384.7 609.1 1114.9 620.9 912.6L521.2 912.6C524.2 1102.2 532.7 1378.8 534.8 1516.9Z" fill="#FFC19F"/><path d="M531.1 1520.9 595.6 1526.6C597.6 1518.3 601.6 1493.2 604.1 1483.5L524.6 1476.6C527.2 1491.8 528.9 1512.7 531.1 1520.9Z" fill="#FFFFFF"/><g><path d="M496.4 1508.9C497.8 1504.2 500.5 1498.2 502.7 1492.8 504.3 1488.8 543.7 1490.1 543.6 1499.9 543.6 1502.4 543.4 1504.6 543.2 1506.6 549.9 1506.8 557.3 1506.8 565 1506.7 581.8 1506.4 596.9 1505.3 607.5 1503.7 607.9 1519.2 606.1 1545.9 606.5 1563.1 606.5 1563.1 430.1 1593.3 402.9 1567 395.1 1559.6 439.8 1528.2 496.4 1508.9Z" fill="#E85673"/><path d="M606.5 1552.3C606.4 1556.1 606.4 1559.8 606.5 1563.1 606.5 1563.1 430.1 1593.3 402.9 1567 401.8 1566 401.8 1564.4 402.7 1562.5 450.9 1574 562.6 1559 606.5 1552.3Z" fill="#AA314E"/><path d="M507.8 1523.9C508.3 1524.6 509.1 1524.9 509.8 1524.9 510.3 1524.9 510.8 1524.7 511.2 1524.4 512.3 1523.6 512.5 1522 511.7 1520.9 505 1511.6 493.2 1506.7 483 1508.7 481.7 1509 480.8 1510.3 481.1 1511.6 481.4 1512.9 482.7 1513.8 484 1513.5 492.4 1511.9 502.2 1516.2 507.8 1523.9ZM495.3 1529.7C495.8 1530.2 496.5 1530.5 497.2 1530.5 497.8 1530.5 498.4 1530.3 498.8 1529.9 499.8 1529 499.9 1527.4 499 1526.4 491.4 1518 480.8 1513.7 470 1514.8 468.6 1514.9 467.7 1516.1 467.8 1517.5 467.9 1518.9 469.2 1520 470.5 1519.7 475.8 1519.2 486.3 1519.8 495.3 1529.7ZM453.5 1524.3C453.7 1525.7 454.9 1526.6 456.3 1526.4 464.5 1525 475.2 1529.2 482.3 1536.4 482.8 1536.9 483.4 1537.2 484.1 1537.1 484.7 1537.1 485.3 1536.8 485.8 1536.4 486.8 1535.4 486.8 1533.9 485.8 1532.9 477.7 1524.7 465.3 1519.9 455.6 1521.5 454.2 1521.7 453.3 1522.9 453.5 1524.3Z" fill="#D3DAE5"/></g><path d="M753.7 1545.4 694.3 1547.2C684.2 1414.3 678.4 1144.7 663.7 942.6L758.5 940.9C758.3 1130.5 753.8 1407.3 753.7 1545.4Z" fill="#FFC19F"/><path d="M785.9 1209.4C787.1 1131.6 779.3 839 777.9 825.1 726.3 822.4 556.7 826.4 499.8 829 499.8 829 504.2 1130.5 509.2 1221.4 534.2 1235.9 730 1264.1 785.9 1209.4Z" fill="#89213F"/><path d="M756.6 1520.9 692.1 1526.6C690.1 1518.3 686.1 1493.2 683.6 1483.5L763.1 1476.6C760.4 1491.8 758.7 1512.7 756.6 1520.9Z" fill="#FFFFFF"/><g><path d="M791.2 1508.9C789.8 1504.2 787.1 1498.2 784.9 1492.8 783.3 1488.8 743.9 1490.1 744 1499.9 744 1502.4 744.2 1504.6 744.4 1506.6 737.7 1506.8 730.3 1506.8 722.6 1506.7 705.8 1506.4 690.7 1505.3 680.1 1503.7 679.7 1519.2 681.5 1545.9 681.1 1563.1 681.1 1563.1 857.5 1593.3 884.7 1567 892.6 1559.6 847.9 1528.2 791.2 1508.9Z" fill="#E85673"/><path d="M681.2 1552.3C681.3 1556.1 681.3 1559.8 681.2 1563.1 695.8 1565.4 724.7 1570.2 770.8 1575.6 818.3 1581.2 877.2 1578.9 884.9 1567 885.7 1565.7 886 1564.4 885.1 1562.5 836.8 1574 725 1559 681.2 1552.3Z" fill="#AA314E"/><path d="M803.6 1513.7C804.9 1513.9 806.2 1513.1 806.5 1511.8 806.8 1510.5 805.9 1509.1 804.6 1508.9 794.3 1506.8 782.5 1511.8 775.9 1521.1 775.1 1522.2 775.3 1523.8 776.4 1524.6 776.8 1524.9 777.3 1525.1 777.8 1525.1 778.6 1525.1 779.3 1524.8 779.8 1524.1 785.4 1516.2 795.2 1511.9 803.6 1513.7ZM817.3 1519.7C818.6 1519.9 819.9 1518.8 820 1517.5 820.1 1516.1 819.1 1514.9 817.8 1514.8 807 1513.7 796.5 1518 788.8 1526.4 787.9 1527.4 788 1529 789 1529.9 789.5 1530.3 790 1530.5 790.6 1530.5 791.3 1530.5 792 1530.2 792.5 1529.7 801.4 1519.8 811.8 1519.2 817.3 1519.7ZM832.1 1521.4C822.4 1519.9 810 1524.6 801.9 1532.8 800.9 1533.8 801 1535.3 801.9 1536.3 802.4 1536.8 803 1537 803.6 1537 804.2 1537 804.9 1536.8 805.4 1536.3 812.4 1529.1 823.2 1524.9 831.4 1526.3 832.8 1526.5 834 1525.6 834.2 1524.2 834.4 1522.9 833.5 1521.7 832.1 1521.4Z" fill="#D3DAE5"/></g><g><g><path d="M833.6 253.6C830.1 250.5 834.2 240.1 842.7 230.5 851.2 220.9 861 215.7 864.5 218.9 868 222 863.9 232.3 855.4 241.9 846.9 251.5 837.1 256.8 833.6 253.6Z" fill="#EA65BA"/><path d="M833.6 253.6C833.7 248.9 844.1 245.3 856.9 245.5 869.7 245.7 880.1 249.6 880 254.4 879.9 259.1 869.5 262.8 856.7 262.6 843.8 262.4 833.5 258.4 833.6 253.6Z" fill="#EA65BA"/></g><g><path d="M440.3 214.6C444.4 212.2 442.4 201.2 435.9 190.2 429.4 179.1 420.8 172.1 416.8 174.5 412.7 176.9 414.7 187.8 421.2 198.8 427.6 209.9 436.2 217 440.3 214.6Z" fill="#EA65BA"/><path d="M440.3 214.6C441.2 210 431.7 204.4 419 202 406.4 199.7 395.5 201.5 394.6 206.2 393.7 210.8 403.3 216.5 415.9 218.8 428.5 221.2 439.4 219.3 440.3 214.6Z" fill="#EA65BA"/></g><path d="M842.1 187.1C849.3 214.6 835.1 266.1 862.5 288.5 885.8 307.6 895.1 309.2 880.1 336 865 363 900.9 356.7 911.6 384.8 919.7 405.9 873.5 428 885 438.7 902.4 454.9 880 481.8 818.6 481.2 782.8 549.6 427.1 528.4 412.7 448.6 369.4 440.4 364.1 413.4 382.1 401.8 393.2 394.6 304.3 365.8 377.3 329.8 403.3 317 390.4 316 382.4 296.3 363.9 250.6 431.9 267.9 446.1 166.3 493.2 150.6 725.7 150.5 842.1 187.1Z" fill="#AD4128"/></g><path d="M137.4 597.1C120.4 611.9 115.4 627.6 123.6 648.9 300.5 716.4 400.3 690.7 537.7 562 527.3 533.7 514.5 510.1 487.3 495.1 379.4 624.5 297.5 651.7 137.4 597.1Z" fill="#FFC19F"/><path d="M177.6 601.4C166 624.7 160 646.8 160.8 673 311.4 727.4 416.3 695 527.2 582.1 518.5 548.9 511.5 516.5 482.6 495 390.6 592.3 313.3 642.4 177.6 601.4Z" fill="#934899"/><path d="M812.4 792.9C828.1 785.5 850.5 753.4 859.4 723.9 857.8 623.9 814.9 582.5 774.6 492.2 748.9 489.7 720.5 483.8 698.3 500 736.5 591.4 791.8 696.5 812.4 792.9Z" fill="#934899"/><path d="M82.4 645.7C73 646.1 28.7 639.5 29 645 29.4 652.6 60.7 661.3 87.3 663.7 106 665.4 134.2 662.4 147.5 652.9 171.1 638.1 168.9 615.3 155.2 594.5 134.7 563.4 101.2 548.3 81 533.9 71.6 527.2 69.5 538.8 75.7 547.7 83.2 558.4 92.5 565.9 102.3 573 106.6 576.1 109.8 580.1 104.3 580.8 65.7 580.7 18.4 551.7 13.3 558.6 7 567.2 49.3 588.9 79.4 600.1 49.2 600.2 3.2 575.2 0.2 583.9-3.5 594.5 43.3 615.5 78.7 623.2 62.4 626 10.3 606.8 9 614.6 7.2 626.6 61.3 643 82.4 645.7Z" fill="#FFC19F"/><path d="M793.6 898.8C716.5 919.3 526 920.7 484.1 903.5 486.8 832.5 500.2 491.8 500.2 491.8 561.6 477.7 703 477.4 758.7 491.8 772.1 563.5 784.3 825.6 793.6 898.8Z" fill="#E55CA1"/><path d="M549.4 484.5C550.8 519.5 585.4 547.5 628.2 547.5 671.3 547.5 706.2 519.1 707.1 483.7 657.6 476.9 598.6 476.9 549.4 484.5Z" fill="#FFC19F"/><path d="M713.5 946C758 944.6 809.2 940.7 816.7 934.6 811.3 869.3 774.6 493.4 774.6 493.4 761.2 489.4 729.5 483.9 711.8 481.2 710.6 529.9 711.3 843.5 713.5 946Z" fill="#934899"/><path d="M549.7 949.9C524 950.6 497.7 949.1 463.5 946 468.9 880.7 486.1 494.3 486.1 494.3 499.5 490.3 539.4 484.8 557.1 482.1 558.3 530.8 551.8 847.4 549.7 949.9Z" fill="#934899"/><path d="M586.1 439.1 586.1 500C586 513.1 605.1 523.9 629 524 652.8 524.1 672.4 513.6 672.5 500.4L672.5 439.1 586.1 439.1Z" fill="#FFC19F"/><g><path d="M836.8 348C822 381.6 781.6 399.4 753.9 393.1 726.2 386.8 724.8 357.8 734.4 325 744 292.2 774.2 270.6 801.8 277 839.6 285.7 850.8 316.4 836.8 348Z" fill="#FFC19F"/><path d="M806.9 349.1C802.8 365.9 787.8 376.5 773.2 372.9 758.7 369.3 750.2 352.8 754.3 336.1 758.4 319.3 773.4 308.7 787.9 312.3 802.5 315.9 811 332.4 806.9 349.1Z" fill="#E0956C"/><path d="M427.5 307.4C435.4 343.2 471.5 368.7 499.9 367.9 528.3 367.1 535.4 339 532.4 305 529.4 270.9 504.1 243.8 475.7 244.6 437 245.8 420 273.7 427.5 307.4Z" fill="#FFC19F"/><path d="M456.6 314.4C457.3 331.6 470 345.1 484.9 344.4 499.8 343.7 511.4 329.2 510.7 312 510 294.8 497.3 281.3 482.4 282 467.5 282.6 455.9 297.1 456.6 314.4Z" fill="#E0956C"/><path d="M840.6 215.8C827.1 355.1 752.2 409.8 632.7 398.2 513.1 386.7 431.5 315.5 445 176.2 452.7 96.2 485.5 29.1 542.3 29.7 569.9-3 640.2-2.4 675.8 2.3 770.3 14.8 854.1 76.5 840.6 215.8Z" fill="#AD4128"/><path d="M550.4 422.5C551.8 457.5 586.4 485.5 629.2 485.5 672.3 485.5 707.2 457.1 708.1 421.7 658.6 414.9 599.5 414.9 550.4 422.5Z" opacity="0.15"/><path d="M812.3 153.4C820.3 177.7 779.3 375.2 759 403.4 736 435.3 657.8 462.4 617.9 458.6 581.5 455.1 504.2 414.2 488.4 378.9 469.7 337.1 472.1 156.1 481.4 135 512.8 63.7 575.4 67.2 657 75.1 733.3 82.3 791.6 90.2 812.3 153.4Z" fill="#FFC19F"/><path d="M833.5 240.6C818.8 241.6 783 242.4 761 224.1 721.1 190.9 721.8 166.7 688.2 162.3 639 155.8 642.8 94.3 590.6 83.6 616.9 104.2 628.5 136.3 637.8 151.3 648 167.9 670 183.7 692.9 187.7 663 190 631 187.5 609.1 146.9 585.2 102.6 545.5 100 550.1 53.4 561.6 16.2 660.8 5.3 720.6 27.6 823.8 66.1 844.2 203.6 833.5 240.6Z" fill="#AD4128"/><path d="M468 129.4C454.9 173.4 461.4 206.2 464.7 212.2 514.2 208.9 559.9 118 549.8 47.5 519.6 59.6 485.1 72.2 468 129.4Z" fill="#AD4128"/><path d="M763.9 213.9C762.7 213.8 761.6 213.3 760.7 212.3 749.1 199.7 725.4 194.3 705.4 199.6 702.7 200.3 700 198.7 699.3 196.1 698.6 193.5 700.2 190.7 702.8 190 726.4 183.7 753.8 190.3 768 205.6 769.9 207.6 769.7 210.8 767.7 212.6 766.7 213.6 765.3 214 763.9 213.9Z" fill="#893324"/><path d="M516.1 189.9C514.7 189.8 513.5 189.1 512.6 187.9 511 185.7 511.5 182.6 513.7 181 530.5 168.7 558.7 167.5 580.6 178.2 583.1 179.4 584.1 182.4 582.9 184.8 581.7 187.3 578.7 188.3 576.3 187.1 557.7 178.1 533.3 178.9 519.6 189 518.5 189.8 517.3 190.1 516.1 189.9Z" fill="#893324"/><g><path d="M587.7 268.2C594 289.9 590.6 305 570.9 310.8 551.1 316.5 517.6 313.2 507.1 277.1 501 256.1 518.1 235.5 538.6 234.2 562.1 232.7 581.6 247.2 587.7 268.2Z" fill="#F9FEFF"/><path d="M506.2 278.6C496.4 251 516.9 231.7 534.5 230.2 563.3 227.7 584.6 246.6 587.7 268.3 581.6 247.1 561 233.6 538.7 235 528.5 235.7 518.7 241.2 512.6 250 506.8 258.2 505.1 267.8 507.8 277 511.3 289 517.9 298.5 526 304.8 516.3 298.4 510.4 290.5 506.2 278.6Z" fill="#7F342A"/><path d="M527 270.5C520.6 283 525.5 298.3 538 304.7 550.5 311.1 565.8 306.2 572.2 293.7 578.6 281.2 573.7 265.9 561.2 259.5 548.7 253.2 533.4 258.1 527 270.5Z" fill="#5E2318"/><path d="M529.4 266.7C527.6 270.2 529 274.4 532.4 276.2 535.9 278 540.1 276.6 541.9 273.2 543.7 269.7 542.3 265.5 538.9 263.7 535.4 261.9 531.2 263.3 529.4 266.7Z" fill="#FEFFFE"/></g><g><path d="M676.8 276.8C666.5 296.9 666.9 312.4 685.2 321.8 703.5 331.2 737 334.4 754.2 300.9 764.2 281.5 751.4 258 731.5 252.7 708.7 246.8 686.8 257.4 676.8 276.8Z" fill="#F9FEFF"/><path d="M754.8 302.6C769.7 277.3 753.3 254.5 736.3 249.6 708.5 241.6 684 256.1 676.8 276.8 686.9 257.2 709.7 247.8 731.3 253.5 741.2 256.1 749.7 263.5 754 273.2 758.1 282.4 757.9 292.1 753.5 300.6 747.8 311.7 739.5 319.7 730.4 324.4 741.1 320.2 748.4 313.5 754.8 302.6Z" fill="#7F342A"/><path d="M682.3 285.6C675.9 298.1 680.8 313.4 693.3 319.8 705.8 326.2 721.1 321.3 727.5 308.8 733.9 296.3 729 281 716.5 274.6 704 268.2 688.7 273.1 682.3 285.6Z" fill="#5E2318"/><path d="M684.7 281.7C682.9 285.2 684.3 289.4 687.7 291.2 691.2 293 695.4 291.6 697.2 288.2 699 284.7 697.6 280.5 694.2 278.7 690.7 276.9 686.5 278.3 684.7 281.7Z" fill="#FEFFFE"/></g><path d="M641.6 337.3C640.7 337.2 640 336.5 639.9 335.6 639.5 329.1 634.8 324.5 628.1 323.9 621.3 323.2 615.8 326.9 614.3 333.1 614.1 334.1 613.1 334.7 612.1 334.5 611.1 334.3 610.5 333.3 610.7 332.3 612.6 324.4 619.9 319.5 628.4 320.3 636.9 321.1 643 327.2 643.5 335.4 643.6 336.4 642.8 337.3 641.8 337.4L641.6 337.3Z" fill="#C68C75"/><g><path d="M684.4 367.1C687.5 389.5 650.8 417.2 619.5 413.2 588.4 409.2 569.3 381.4 571.3 358.9 574.3 346.8 594.4 351.7 625.3 353.4 656.1 355 682.6 353.4 684.4 367.1Z" fill="#701608"/><path d="M624.4 393.1C609.9 392.2 598.7 395 591.1 401.2 598.9 407.2 609.6 413 621.6 413.7 635.2 414.5 647.3 413 656.6 404.6 653.5 398 637.4 393.9 624.4 393.1Z" fill="#D37B6C"/><path d="M669.6 356.4C659.2 352.6 642.4 353.8 627.1 352.9 609.8 352 597.2 349.1 586.3 350.9 589.9 360.4 604 367.2 623.9 368.5 646.9 369.9 665.9 366.1 669.6 356.4Z" fill="#FFFFFF"/></g></g><ellipse cx="805.3" cy="763.6" rx="24.1" ry="30.7" fill="#934899"/><g><rect x="210.6" y="548.2" width="273.6" height="341.4" fill="#D14646"/><rect x="484.1" y="548.2" width="273.6" height="341.4" fill="#D14646"/><path d="M484.1 875.2C434 860.6 282.9 859.4 223.8 869.1L223.8 574.7C305.6 542.4 484.1 562.6 484.1 562.6L484.1 875.2Z" fill="#FFFFFF"/><path d="M744.4 875.2C671.7 851.4 484.1 875.2 484.1 875.2L484.1 562.5C484.1 562.5 614.3 544.8 735.5 562.5L744.4 875.2Z" fill="#FFFFFF"/><path d="M547.1 752.2C545.9 750.9 545.2 749.3 545.1 747.4 545 741 546.1 731.4 548.5 718.6 550.9 705.8 553.8 692.5 557.4 678.6 560.9 664.8 564.7 651.8 568.7 639.7 572.7 627.6 576.1 619.1 579.1 614.2 580.3 612.3 583.8 610.6 589.5 609 595.3 607.5 601.6 606.4 608.6 605.8 615.6 605.2 622.3 605.2 628.7 605.8 635.1 606.4 639.7 607.9 642.2 610.3 645.9 613.8 650.2 621.6 655.3 633.7 660.3 645.7 665.2 658.8 670 673 674.8 687.2 679.1 700.7 682.9 713.8 686.7 726.8 689.2 736 690.5 741.4 691.4 745.3 691.1 748.1 689.7 749.6 688.3 751.1 685.9 752.2 682.5 752.8 676.7 753.8 669.5 754.5 661 755 652.4 755.5 647 755.6 644.9 755.3 644 755.2 643.3 754.9 642.5 754.4 640.1 752.9 637.9 748.8 635.7 741.9 633.5 735 631.4 730.3 629.2 727.8 628 726.3 626.3 725.4 624.3 725.1L608 725.1C602.9 725.2 599.6 726.9 598.1 730.1 596.1 734.2 593.9 738.8 591.4 743.9 588.9 749 587.1 752.1 585.9 753.3 585.3 754 584.4 754.5 583.2 754.8 580.5 755.4 574.1 755.5 564.1 755.2 554.2 754.9 548.5 753.9 547.1 752.2ZM611 665.2C608.8 667.5 606.7 671.4 604.5 676.8 602.4 682.2 601.6 685.8 602.2 687.5 603.2 690.4 607.4 691.7 615 691.4 622.5 691.1 626.6 689.3 627.3 685.9 627.7 683.9 625.7 679.2 621.4 672 617 664.7 613.5 662.5 611 665.2Z" fill="#874F48"/><g><path d="M539.9 819.5C539.5 820.4 538.9 821 538 821.4 537.1 821.8 536.2 821.8 535.3 821.4 534.4 821 533.8 820.4 533.4 819.5 533 818.6 533 817.7 533.4 816.8 534.7 813.6 537.8 806.7 542.7 796.3 547.2 786.6 549.5 781.6 549.5 781.6 549.8 780.8 550.3 780.1 551.1 779.7 552.3 779 553.5 779 554.7 779.7 555 779.8 555.2 780 555.4 780.3 555.6 780.5 555.9 780.9 555.9 780.9L556 781.1C556.2 781.4 556.4 781.8 556.6 782.3 556.9 783 557.2 784.1 557.6 785.6 558.4 788.2 559.4 791.7 560.5 796 563.2 805.9 565 813.1 565.9 817.6 566.1 818.6 565.9 819.4 565.4 820.2 564.9 821 564.1 821.5 563.2 821.7 562.2 821.9 561.4 821.7 560.6 821.2 559.8 820.6 559.3 819.9 559.1 819 558.7 816.9 557.9 813.5 556.7 809 553.9 809.2 549.9 809.1 544.7 808.7 542.4 813.7 540.8 817.3 539.9 819.5ZM552.3 792.3C550.2 796.8 548.3 801 547.9 801.8 550.7 802 553.1 802.1 554.9 802 554.6 800.5 552.8 793.9 552.3 792.3ZM556 784.1 556.2 783.8 556 784.1Z" fill="#874F48"/><path d="M577.1 808.3C576.7 812.7 576.3 815.9 576.1 817.8 576 818.8 575.6 819.5 574.8 820.2 574 820.8 573.2 821.1 572.2 821 571.2 820.9 570.5 820.4 569.8 819.7 569.2 818.9 568.9 818.1 569.1 817.1 569.3 815.3 570.9 799.8 571.1 797.4 571.3 796.3 571.5 794.4 571.9 791.9 572.3 789.3 572.5 787.3 572.7 785.9 572.5 785 572.6 784.1 573 783.2 573.2 782.3 573.6 781.7 574.3 781.1 575 780.6 575.8 780.3 576.7 780.4 577.2 780.4 577.6 780.5 578 780.7 587.4 778.7 593.9 779.8 597.6 783.9 598.7 785.2 599.5 786.6 599.9 788.3 600.3 790 600.5 791.4 600.4 792.5 600.3 793.6 600.1 794.6 599.8 795.5 598.6 799.3 595.1 802.4 589.2 804.9 586 806.1 582 807.3 577.1 808.3ZM579.7 787.4C579.5 788.6 579.3 790.4 578.9 792.7 578.6 795.1 578.3 796.8 578.2 798 578.1 798.9 578 799.8 577.9 800.9 581.3 800.1 584.2 799.2 586.6 798.2 590.5 796.6 592.7 794.9 593.3 793.2 593.5 792.7 593.6 792 593.5 790.9 593.4 789.8 593.1 789 592.5 788.4 592.2 788.1 591.8 787.8 591.3 787.5 590.8 787.2 590 787 589.1 786.8 588.2 786.6 586.9 786.5 585.3 786.6 583.6 786.7 581.7 787 579.7 787.4Z" fill="#874F48"/><path d="M611.4 808.3C611 812.7 610.6 815.9 610.4 817.8 610.3 818.8 609.9 819.5 609.1 820.2 608.3 820.8 607.5 821.1 606.5 821 605.5 820.9 604.8 820.4 604.1 819.7 603.5 818.9 603.2 818.1 603.4 817.1 603.6 815.3 605.2 799.8 605.4 797.4 605.6 796.3 605.8 794.4 606.2 791.9 606.6 789.3 606.8 787.3 607 785.9 606.8 785 606.9 784.1 607.3 783.2 607.5 782.3 607.9 781.7 608.6 781.1 609.3 780.6 610.1 780.3 611 780.4 611.5 780.4 611.9 780.5 612.3 780.7 621.7 778.7 628.2 779.8 631.9 783.9 633 785.2 633.8 786.6 634.2 788.3 634.6 790 634.8 791.4 634.7 792.5 634.6 793.6 634.4 794.6 634.1 795.5 632.9 799.3 629.4 802.4 623.5 804.9 620.4 806.1 616.3 807.3 611.4 808.3ZM614 787.4C613.8 788.6 613.6 790.4 613.2 792.7 612.8 795.1 612.6 796.8 612.5 798 612.4 798.9 612.3 799.8 612.2 800.9 615.6 800.1 618.5 799.2 620.9 798.2 624.8 796.6 627 794.9 627.6 793.2 627.8 792.7 627.9 792 627.8 790.9 627.7 789.8 627.4 789 626.8 788.4 626.5 788.1 626.1 787.8 625.6 787.5 625.1 787.2 624.3 787 623.4 786.8 622.5 786.6 621.2 786.5 619.6 786.6 617.9 786.7 616.1 787 614 787.4Z" fill="#874F48"/><path d="M639.9 821.8C638.9 821.9 638.1 821.6 637.3 820.9 636.6 820.3 636.2 819.5 636.1 818.5 636 817.4 636.4 816.4 637.2 815.6 637.2 815.6 637.9 811.5 638.3 809.5 638.6 807.5 639 805.2 639.3 802.6 639.6 800 641.6 784.5 641.6 783.7 641.7 782.7 642.2 782 642.9 781.4 643.7 780.8 644.5 780.6 645.5 780.7 646.5 780.8 647.2 781.3 647.8 782 648.4 782.8 648.6 783.7 648.5 784.6 648.4 785.3 645.7 806.9 645.4 808.8 645.1 810.7 644.8 812.6 644.5 814.5 647.9 814.4 652.6 814.3 658.8 814.3 659.8 814.3 660.6 814.6 661.3 815.3 662 816 662.3 816.8 662.3 817.8 662.3 818.8 662 819.6 661.3 820.3 660.6 821 659.8 821.3 658.8 821.3 650.6 821.3 644.3 821.5 639.9 821.8Z" fill="#874F48"/><path d="M673.1 814.1C674.4 814.1 676.3 814.1 678.8 813.9 680 813.9 681.4 813.8 683.1 813.7 684.8 813.6 686.2 813.5 687.2 813.5 688.3 813.4 689 813.4 689.4 813.4 690.4 813.4 691.2 813.7 691.9 814.4 692.6 815.1 692.9 815.9 692.9 816.9 692.9 817.9 692.6 818.7 691.9 819.4 691.2 820.1 690.4 820.4 689.4 820.4 689 820.4 688.3 820.4 687.3 820.5 686.3 820.6 680.4 820.9 679.2 821 676.5 821.2 674.4 821.2 672.9 821.2 671.9 821.2 671.1 821.2 670.5 821.1 670 821 669.6 820.9 669.3 820.8 668.4 820.5 667.7 820.1 667.2 819.4 666.8 818.8 666.5 818.2 666.4 817.3 666.4 817 666.3 816.5 666.3 816 666.3 815.2 666.3 814.1 666.3 812.7 666.3 810.1 666.4 807 666.6 803.2 666.9 796.5 667.4 790.8 668 786.3 667.6 785.8 667.3 785.2 667.2 784.5 667.1 783.5 667.3 782.7 667.9 781.9 668.5 781.1 669.3 780.7 670.3 780.6L670.7 780.5C671.2 780.3 671.7 780.3 672.3 780.3 680.9 779.3 686.9 778.7 690.3 778.7 691.3 778.7 692.1 779 692.8 779.7 693.5 780.4 693.9 781.2 693.9 782.2 693.9 783.2 693.6 784 692.9 784.7 692.2 785.4 691.4 785.8 690.4 785.8 687 785.9 681.8 786.3 675 787.2 674.7 789.6 674.4 792.5 674.2 795.8 678.4 795.3 682.3 794.7 686 794.1 687 793.9 687.8 794.2 688.6 794.7 689.4 795.3 689.9 796 690 797 690.2 798 690 798.8 689.4 799.6 688.8 800.4 688.1 800.9 687.2 801 683.1 801.7 678.6 802.3 673.7 802.9 673.7 803.1 673.6 803.5 673.6 803.5 673.4 807.2 673.3 810.2 673.3 812.7 673.1 813.3 673.1 813.7 673.1 814.1Z" fill="#874F48"/></g><g><path d="M414.6 677.1C409.7 669.7 397.2 663.4 386.2 663 373.2 662.5 370.1 669.7 357.2 668.9 348 668.3 340.2 662.1 331.3 659.6 313.9 654.8 295 666.4 286.8 682.5 278.6 698.6 279.2 717.9 283 735.5 288.2 759.6 301.3 784.4 324.3 793 330.5 795.3 337.7 796.3 343.5 793.1 345.4 792 347.1 790.6 349.2 789.9 352.8 788.8 356.6 790.4 360.2 791.4 371.7 794.4 384.2 790.4 393.5 783.2 402.9 775.9 409.4 765.6 414.6 755 426.8 729.8 430.2 700.3 414.6 677.1Z" fill="#BA1C1C"/><path d="M416.7 680.1C411.8 672.7 403.2 665.5 394.5 663.7 371.2 658.7 368.7 670.4 359.6 668.9 332.8 664.5 298.3 670 299.2 707.5 300.8 774 339.4 769.7 357.9 780.6 382.2 794.9 409.5 764.9 414.7 754.2 426.8 729 432.2 703.4 416.7 680.1Z" fill="#E23B3B"/><path d="M341.8 635.3C341.2 635.2 340.5 635.5 339.9 635.8 338.4 636.6 336.9 637.4 335.4 638.2 342.2 643.9 346.8 652.5 350.2 661.4 352 666.2 352.9 671.7 353.7 676.8 355.4 677.1 357.5 677.9 358.8 676.6 359.4 676 358.5 672.8 358.3 672.1 355.4 657.7 345.1 639.6 344.1 637.8 343.6 636.7 342.9 635.5 341.8 635.3Z" fill="#A9D85D"/><path d="M374.5 650.1C369 653.7 362.3 654.6 355.8 655.5 355.2 655.6 354.6 655.7 354 655.7 353.6 655.8 353.1 655.8 352.8 655.6 352.3 655.3 352.2 654.7 352.2 654.2 351.6 648.4 351 642.6 351.7 636.8 352.3 631 354.3 625.2 358.2 621 364.9 613.6 375.7 612 385.6 611.1 386.9 618.2 387.5 625.5 386 632.5 384.3 639.4 380.5 646.2 374.5 650.1Z" fill="#A9D85D"/><path d="M337.8 670.4C337.8 670.4 345.3 676.2 356.6 676.1 364.1 676 372.4 669.9 372.4 669.9 372.4 669.9 370.1 679.3 354.7 678.2 342.5 677.4 337.8 670.4 337.8 670.4Z" fill="#B31E23"/></g><path d="M470.9 857.3C428.2 844.8 299.2 843.5 247.3 852.1L245.8 850.8 245.8 587.1 246.6 585.9C316.6 558.3 470 585.6 471.5 585.8L472.6 587.1 472.6 856.1 470.9 857.3ZM341.8 844.1C391.8 844.1 444.4 847.5 469.9 854.4L469.9 588.1C456.2 585.7 314.9 562.3 248.3 587.9L248.3 849.3C270.4 845.9 305.4 844.1 341.8 844.1Z" fill="#B5B4B4"/></g><path d="M684.1 839.4C685.2 844.5 710.7 837.8 727.9 827.8 730.7 826.1 709.6 838.6 712 841.8 716.6 847.9 747.2 850 770 841 815 823.1 832.4 798.2 823.2 767.2 814.6 738.3 776.6 732.5 758.3 733.7 758.2 745 759.6 758.5 757.8 762.6 755.2 768.3 734.7 773.2 715.9 785 693.8 798.7 676 817.4 686.6 820.3 690.3 821.3 746.2 791.6 747.4 793 751.3 797.6 681.9 829.3 684.1 839.4Z" opacity="0.15"/><path d="M690.9 842.5C692 847.5 716.4 841.2 732.8 831.6 735.5 830 713.9 844.4 717.7 845 728.3 846.7 744.9 845.5 766.6 836.9 809.6 819.9 832.8 803.7 823.6 773.4 815.1 745.2 775.3 739.2 757.8 740.2 757.8 751.2 758.7 767.5 757 771.6 754.6 777.1 737.6 780.3 719.7 791.6 698.7 804.8 681.6 819.7 691.8 822.5 695.3 823.5 750 796.4 751.2 797.9 754.8 802.4 688.6 832.6 690.9 842.5Z" fill="#FFC19F"/></g></svg>