<svg width="79.8" height="139.4" viewBox="0 0 79.8 139.4" xmlns="http://www.w3.org/2000/svg" xmlns:xlink="http://www.w3.org/1999/xlink" overflow="hidden"><defs></defs><g><g><path d="M50.1 118.8C52.5 119.2 54.5 118.5 55.7 118 56.5 121.8 58.7 125.1 63.9 127.7 64.2 128 66.3 129.6 64.5 131.5 62.5 133.6 52.4 134.1 49.4 123.7L49.4 123.7C49.8 122.2 50.3 120.7 50.1 118.8Z" fill="#EAE3D0"/><g><path d="M50.1 118.8C50.1 118.7 50.1 118.5 50 118.3 49.3 114.5 47.3 102 47.3 102L54 100.9C54 100.9 54.6 110.7 55.7 117.7 55.7 117.8 55.7 117.8 55.7 117.9 54.5 118.5 52.5 119.1 50.1 118.8Z" fill="#FDC689"/><g><path d="M47.3 102C47.3 102 49.4 114.5 50 118.3 50 118.5 50 118.6 50.1 118.8 52.5 119.2 54.5 118.5 55.7 118 55.7 117.9 55.7 117.8 55.7 117.8 54.6 110.8 54 101 54 101L47.3 102ZM49.1 106.3C49.1 106.3 51.2 107.1 53.2 105.9 53.2 105.9 54.1 114.9 54.4 116.5 54.6 118.2 51.2 118.6 50.6 116.9 50 115.2 49.1 106.3 49.1 106.3ZM52.6 103.6C52.6 103.6 51 105.5 49 104.3 47.8 103.6 52.6 103 52.6 103.6Z" fill="#FCAC64"/></g><path d="M52.2 104.4C52.2 104.4 51.5 105.1 49.7 105 50.8 106.2 52.2 104.4 52.2 104.4Z" fill="#EE893F"/></g><path d="M64.5 131.5C66.3 129.6 64.2 127.9 63.9 127.7 64.2 127.8 64.4 128 64.7 128.1 68.7 129.8 70.1 131.5 69.7 134.9 69.4 138.3 64.7 139.5 59.1 139.4 53.6 139.3 49.5 131.6 49 127.6 48.8 126.1 49.1 124.9 49.4 123.7L49.4 123.7C52.4 134.2 62.5 133.6 64.5 131.5Z" fill="#3C3C3B"/><path d="M55.5 118C55.5 118 55.7 120 55.9 121.7 56 121.7 55.2 121.4 55.5 118Z" fill="#C3BFB0"/><path d="M50.3 119C50.3 119 50.5 121 50.8 122.7 50.8 122.7 50 122.4 50.3 119Z" fill="#C3BFB0"/><path d="M60.8 125.6C60.8 125.6 55.2 125.1 54.3 131 50.9 128.9 50.9 127.5 50.9 127.5 50.9 127.5 53.9 122.9 58.4 123.5 59.3 123.9 60.8 125.6 60.8 125.6Z" fill="#3C3C3B"/><path d="M55 119.3C55 119.3 55.3 122 56.2 122.2 57.1 122.4 58 123.3 54.8 123.6 52.4 123.8 52.3 124.9 51.6 125.7 50.9 126.4 50.2 123.2 51 123.6 51.8 123.9 51 122.1 50.9 120.5 50.8 118.9 55 119.3 55 119.3Z" fill="#FFF6E1"/><path d="M60.3 126.1C60.3 126.1 61.8 127.3 63.7 128.2 65.5 129.2 65 131.8 60.8 131.9 56.6 132.1 54.1 130.1 55.8 128.2 57.5 126.3 60.3 126.1 60.3 126.1Z" fill="#FFF6E1"/><g><path d="M58.3 123.6C58.4 123.6 58.5 123.7 58.6 123.7 56 123.6 53.5 125 52.6 126.4 51.5 128.2 53.8 129.9 54.6 128.1 56.1 125.3 57.8 125.3 59.3 125.1 59.8 125 60 124.9 60 124.7 60.5 125.1 60.8 125.5 60.8 125.5 60.8 125.5 55.2 125 54.3 130.9 50.9 128.8 50.9 127.4 50.9 127.4 50.9 127.4 53.9 123 58.3 123.6Z" fill="#2A2A28"/></g><g><path d="M49 127.6C49.6 131.6 53.6 139.3 59.1 139.4 64 139.5 68.3 138.5 69.4 135.9 60 142.8 53.9 133.4 59.8 133.6 66 133.9 66 130.8 66.9 130.4 67.7 130.1 68.6 130.8 69 131.1 68.2 129.9 66.9 129 64.7 128.1 64.4 128 64.2 127.8 63.9 127.7 64.2 128 66.3 129.6 64.5 131.5 62.5 133.6 52.4 134.1 49.4 123.7L49.4 123.7C49.1 124.9 48.8 126.1 49 127.6ZM50.5 128.4C52.3 131.3 55.2 132.7 55.2 132.7 57.2 133.9 56 136.7 52.9 134.1 49.9 131.7 49.2 125.8 50.5 128.4Z" fill="#2A2A28"/></g><path d="M69 132.3C69 132.3 67.5 130.9 66.5 132.6 65.5 134.3 63.4 134.6 61.3 134.6 59.8 134.6 60.4 136.2 61.1 136.8 62.5 137.8 64.6 137.7 66.1 137.1 67.6 136.5 70.5 134.5 69 132.3Z" fill="#5B5A59"/><path d="M59.1 124.9C59.1 124.9 56.8 124.5 55.3 126.4 53.8 128.3 53.8 125.5 56.3 124.5 58.8 123.6 59.9 124.8 59.1 124.9Z" fill="#4D4D4C"/><path d="M52.1 108C52.1 108 54.3 115.8 52.5 116.1 50.6 116.3 49.7 105.5 52.1 108Z" fill="#FDD09E"/></g><g><g><path d="M40 100.7C40 100.7 30 100.7 25.6 95.5 25.1 94.6 29 88.9 40 100.7Z" fill="#142C4D"/><path d="M29.7 95.7 29.5 97.5C29.5 97.5 27 96.7 26.6 95.7 26.2 94.7 28.7 94.7 29.7 95.7Z" fill="#123861"/></g><g><g><g><path d="M24.7 118.2C24.8 118.1 24.8 117.9 24.9 117.8 26.1 114 30.6 94.7 30.6 94.7L37.1 96.8C37.1 96.8 32.6 112.9 30.2 119.8 30.2 119.9 30.2 120 30.1 120 28.8 120 26.6 119.6 24.7 118.2Z" fill="#FDC689"/><g><path d="M30.5 94.7C30.5 94.7 26 114 24.8 117.8 24.8 118 24.7 118.1 24.6 118.2 26.6 119.6 28.7 120 30 120 30 119.9 30 119.8 30.1 119.8 32.4 112.9 37 96.8 37 96.8L30.5 94.7ZM29.3 101.8C29.3 101.8 30.7 103.5 33.2 103.3 33.2 103.3 30.1 116.4 29.6 118.1 29 119.7 25.7 118.6 26 116.7 26.3 114.9 29.3 101.8 29.3 101.8ZM33.7 100.9C33.7 100.9 31.4 101.9 30.1 99.9 29.4 98.8 33.9 100.4 33.7 100.9Z" fill="#FCAC64"/></g><path d="M32.9 101.5C32.9 101.5 32 101.9 30.4 100.9 30.8 102.5 32.9 101.5 32.9 101.5Z" fill="#EE893F"/></g><path d="M31.2 104.8C31.2 104.8 29.9 117.5 28.1 116.9 26.2 116.2 30.3 101.4 31.2 104.8Z" fill="#FDD09E"/></g><path d="M30.7 119.3C28 119.4 25.8 118.6 24.5 118 23.3 121.7 20.6 124.8 14.5 126.9 14.1 127.1 11.6 128.6 13.5 130.7 15.5 132.9 26.8 134.5 31 124.4 31 124.4 31 124.4 31 124.4 30.7 122.7 30.3 121.2 30.7 119.3Z" fill="#EAE3D0"/><path d="M13.5 130.6C11.6 128.5 14.1 127.1 14.5 126.8 14.2 126.9 13.9 127 13.6 127.1 8.9 128.4 7.3 130 7.4 133.4 7.5 136.8 12.6 138.5 18.8 138.9 25 139.4 30.1 132 31.1 128.1 31.4 126.6 31.2 125.4 31 124.2 31 124.2 31 124.2 31 124.2 26.8 134.4 15.5 132.8 13.5 130.6Z" fill="#3C3C3B"/><path d="M25.1 117.8C25.1 117.8 24.8 119.8 24.5 121.5 24.5 121.5 25.2 121.3 25.1 117.8Z" fill="#C3BFB0"/><path d="M30.5 119.4C30.5 119.4 30.1 121.4 29.7 123.1 29.6 123.1 30.5 122.9 30.5 119.4Z" fill="#C3BFB0"/><path d="M18.2 125C18.2 125 24.5 125.1 25 131.1 29 129.3 29.1 128 29.1 128 29.1 128 26.1 123.2 21.1 123.3 20 123.5 18.2 125 18.2 125Z" fill="#3C3C3B"/><path d="M25.2 119.3C25.2 119.3 24.6 122 23.6 122.1 22.6 122.2 21.5 123 25 123.6 27.7 124.1 27.6 125.2 28.4 126 29.2 126.8 30.2 123.7 29.2 123.9 28.3 124.2 29.3 122.4 29.6 120.9 29.9 119.3 25.2 119.3 25.2 119.3Z" fill="#FFF6E1"/><path d="M18.7 125.5C18.7 125.5 16.9 126.5 14.8 127.3 12.7 128.1 13 130.7 17.7 131.3 22.3 131.9 25.3 130.1 23.6 128.1 21.9 126 18.7 125.5 18.7 125.5Z" fill="#FFF6E1"/><g><path d="M21.1 123.3C21 123.3 20.9 123.3 20.8 123.4 23.7 123.6 26.4 125.2 27.3 126.7 28.4 128.6 25.7 130 24.9 128.2 23.4 125.3 21.5 125.1 19.9 124.8 19.4 124.7 19.2 124.5 19.1 124.3 18.5 124.7 18.1 125 18.1 125 18.1 125 24.4 125.1 24.9 131.1 28.9 129.3 29 128 29 128 29 128 26.1 123.1 21.1 123.3Z" fill="#2A2A28"/></g><g><path d="M31 124.2C31 124.2 31 124.2 31 124.2 26.8 134.3 15.5 132.8 13.5 130.5 11.6 128.4 14.1 127 14.5 126.7 14.2 126.8 13.9 126.9 13.6 127 11.1 127.7 9.4 128.5 8.5 129.6 8.9 129.3 10 128.7 10.9 129.1 11.9 129.6 11.6 132.6 18.5 133 25.2 133.3 17.5 142.2 7.6 134.3 8.6 137 13.3 138.4 18.8 138.8 25 139.3 30.1 131.9 31.1 128 31.5 126.7 31.3 125.4 31 124.2ZM26.2 134.3C22.6 136.5 21.4 133.6 23.8 132.7 23.8 132.7 27.2 131.6 29.4 128.8 31.1 126.3 29.8 132.1 26.2 134.3Z" fill="#2A2A28"/></g><path d="M8.4 130.8C8.4 130.8 10.1 129.5 11.2 131.3 12.3 133.1 14.6 133.4 16.9 133.6 18.5 133.7 17.9 135.3 17 135.8 15.4 136.7 13.1 136.5 11.4 135.8 9.8 135 6.6 132.9 8.4 130.8Z" fill="#5B5A59"/><path d="M20.1 124.5C20.1 124.5 22.7 124.3 24.2 126.3 25.7 128.3 25.9 125.5 23.3 124.3 20.6 123.2 19.2 124.4 20.1 124.5Z" fill="#4D4D4C"/></g><path d="M33.3 98.5C31.8 97.2 30.6 96.7 30.1 96.6 30.4 95.5 30.5 94.8 30.5 94.8L37 96.9C37 96.9 35.5 102.2 33.8 108 34.1 106.2 34.2 105.1 34.7 101.7 35 100.9 35.4 100.3 33.3 98.5Z" fill="#F4A15D"/></g><g><path d="M58.4 80.9C58.4 80.9 60.2 85.7 60.3 87.4 62.9 89.2 65.4 91 63.9 93.3 62.4 95.6 52.6 109.4 37.5 99.3 30.2 95 27 93 25.7 95.5 25.3 96.1 25.3 91.9 27.6 87.7 28.1 83.9 29.4 80.9 29.4 80.9 29.4 80.9 42.9 88.1 58.4 80.9Z" fill="#17467A"/><g><path d="M25.7 95.5C27 93 30.2 95 37.6 99.4 52.7 109.5 62.5 95.7 64 93.4 65.5 91.1 62.9 89.3 60.4 87.5 60.3 85.8 58.5 81 58.5 81 43 88.2 29.5 81 29.5 81 29.5 81 28.2 84.1 27.7 87.8 25.3 91.8 25.3 96.1 25.7 95.5ZM30.4 84.8C30.4 84.8 39.4 89.5 46.5 86.1 51.6 87.2 55 86.8 55.9 85.8 56.8 84.8 60.9 88 57.4 92.3 53.9 96.6 59.5 93 60.9 90.6 62.2 88.2 64 95.2 54.9 99.8 45.7 104.4 40.1 100 36.7 97.3 33.2 94.7 30.5 93.2 29.2 93.4 27.7 93.8 28.1 82.8 30.4 84.8Z" fill="#123861"/></g><g><path d="M54.5 87.8C54.5 87.8 51.9 91.4 38 91.1 42 92 52 92.1 54.5 87.8Z" fill="#142C4D"/><path d="M60.3 87.4C60.3 87.4 60.4 89.4 59.2 91.2 58.6 92.2 61 90.7 60.3 87.4Z" fill="#142C4D"/><path d="M27.8 87C27.8 87 27.6 90 27.7 91.5 27.8 92.9 26.7 90.4 27.8 87Z" fill="#142C4D"/></g><path d="M27.1 89.6C27.1 89.6 27.1 92.4 27.3 93.3 27.4 94.2 24.8 92.9 27.1 89.6Z" fill="#17467A"/><path d="M51.9 89C51.9 89 43.4 91.1 38 90.2 32.6 89.3 37.3 94.7 49.5 91.4 55.8 89.4 55.3 92.7 51.3 94.9 47.3 97 54.5 97 57.9 94.6 61.3 92.1 53 105.1 42 99.6 34.7 95.1 33.2 92.8 31 92.9 28.9 93 29.5 84.7 30.9 86.5 32.3 88.3 38.2 89.6 45 88.2 51.8 86.7 54.8 88.1 51.9 89Z" fill="#FFFFFF" opacity="0.4"/></g><g><path d="M59.7 67.3 62 69 60.5 73.2C60.5 73.2 58.8 73.7 59.4 76.6 60 79.5 59.2 80.8 57.4 82.7 55.6 84.6 57.4 85.7 58.4 85.5 57.7 86.7 59.4 87.2 60.3 86.9 60.1 88.1 61.4 88.4 62.3 88.5 62 90.1 63.7 90.7 65.4 89.2 67 87.6 68.6 85.7 67.5 82.7 68.1 80.6 67.6 77.1 65.7 74.2 67.7 71.6 67.7 67.5 66.5 66.4 65.3 65.3 64.4 64.4 64.4 64.4 64.4 64.4 62.5 66.7 59.7 67.3Z" fill="#FDC689"/><g><path d="M58.5 85.5C57.8 86.7 59.5 87.2 60.4 86.9 60.2 88.1 61.5 88.4 62.4 88.5 62.1 90.1 63.8 90.7 65.5 89.2 67.1 87.6 68.7 85.7 67.6 82.7 68.2 80.6 67.7 77.1 65.8 74.2 67.8 71.6 67.8 67.5 66.6 66.4 65.4 65.3 64.5 64.4 64.5 64.4 64.5 64.4 62.6 66.7 59.8 67.3L62.1 69 60.6 73.2C60.6 73.2 58.9 73.7 59.5 76.6 60.1 79.5 59.3 80.8 57.5 82.7 55.7 84.6 57.5 85.7 58.5 85.5ZM64.9 72.4C64.4 71.5 63 71.3 62.2 71.7 61.4 72.1 62 70.9 62.5 69.2 63 67.5 62.9 67.2 62.2 68 61.5 68.7 60.6 67.4 60.6 67.4 62.7 67.2 64.1 65.6 64.1 65.6 64.1 65.6 65.7 66.3 66.2 67.7 66.9 70.1 65.4 73.3 64.9 72.4ZM66 78C65.3 75.6 63.7 76.1 63.6 75.2 63.5 74.2 62.2 73.8 62.2 73.8 60.8 73.6 62.9 72.7 64.3 73.5 67.1 75.2 66.7 80.4 66 78ZM63.7 88.6C66.4 87.7 67.2 84.3 67.2 84.3 67.4 83.8 68.5 85 66.3 87.7 64.2 90.5 62.2 89 63.7 88.6ZM61.9 86.4C64.9 84.7 65.5 82.1 65.5 82.1 66.2 81.5 67.2 84.5 64.4 86.8 61.7 89.1 60.6 87.1 61.9 86.4ZM60 85C64.7 81.5 63.7 77.2 63.7 77.2 64.4 76.5 66 80.3 63.4 83.7 60.7 87.1 58.4 86.2 60 85ZM58.8 82.2C62 78.1 60.4 76 60.4 76 59.7 75.3 60.6 74.4 61.6 75.1 62.6 75.9 63 79.4 60.9 82.6 58.7 85.8 57 84.4 58.8 82.2Z" fill="#FCAC64"/></g><g><path d="M62.4 88.5C62.4 88.5 65 88.9 66.5 85.5 68.1 82.1 65.5 79.9 65.5 79.9 65.5 79.9 69 85.5 62.4 88.5Z" fill="#EE893F"/><path d="M63.3 76.1C63.3 76.1 66.3 76.6 65.5 80.7 64.7 84.8 61.5 86.6 60.4 86.9 60.4 86.9 64.2 85 65 81 65.8 77 63.3 76.1 63.3 76.1Z" fill="#EE893F"/><path d="M59.8 76.2C59.8 76.2 60.3 80 57.9 82.4 59.7 81.6 61 77.5 59.8 76.2Z" fill="#EE893F"/><path d="M58.7 85.4C58.7 85.4 62.7 84.1 63.2 78.6 63.7 73.1 60.3 73.8 59.6 74.2 61.4 73.8 63.1 74.8 62.7 78.8 62.2 82.9 58.7 85.4 58.7 85.4Z" fill="#EE893F"/><path d="M65.2 73.8C65.2 73.8 63 71.5 60.9 73.1 61.3 72 64 71.4 65.2 73.8Z" fill="#EE893F"/><path d="M62.4 67.9 62 69.2C62 69.2 62.5 68.8 62.4 67.9Z" fill="#EE893F"/></g></g><g><path d="M53.7 56.1C53.7 56.1 57.9 57.2 63.4 61.9 64.6 60.9 65.6 61.5 64.9 63.6 64.2 65.7 59.4 68.2 57.6 67.1 55.9 65.9 53.7 56.1 53.7 56.1Z" fill="#EAE3D0"/><path d="M63.4 61.9C63.4 61.9 62 63.6 60.4 64 58.8 64.3 62.5 65.5 63.4 61.9Z" fill="#C3BFB0"/><path d="M62.5 62C62.5 62 58.9 58.8 57.1 58.2 55.4 57.6 57.4 59.9 58.7 61.9 60 63.7 62.1 63.4 62.5 62Z" fill="#FFF6E1"/><path d="M63.7 62.2C63.7 62.2 63.9 63.8 61.1 65.1 58.3 66.4 61.7 66.6 63.5 64.8 65.4 63 64.3 61.4 63.7 62.2Z" fill="#FFF6E1"/></g><path d="M53.2 54.1C53.2 54.1 61.5 64.7 59.1 79.4 56.5 65.7 54.8 62.7 49.7 53.7 52.7 53.4 53.2 54.1 53.2 54.1Z" fill="#EB5B91"/><g><path d="M69.1 50.3C69.1 50.3 71.9 50.2 72 52.3 72.1 54.4 70.9 56.2 70.6 57.3 70.3 58.4 66.8 55.7 66.6 53.2 66.4 50.7 68.4 50.3 69.1 50.3L69.1 50.3Z" fill="#D9531E"/><path d="M69.3 50.3C69.9 50.3 71.4 50.5 71.8 51.7 71.9 51.9 71.9 52 71.9 52.3 72 53.5 71.6 54.7 71.1 55.6 70.6 56.2 70.2 56.7 70.1 56.9 69.8 56.8 69.3 56.8 68.6 56.8 67.8 56.2 67 55.2 66.6 54.1 66.5 53.9 66.5 53.6 66.4 53.4 66.5 53.4 66.5 53.4 66.6 53.4 67 53.5 67.3 53.5 67.6 53.5 67.5 53.9 67.5 54.4 67.8 54.8 68.5 55.8 69.2 56.5 69.4 56.4 69.5 56.4 69.5 56.1 69.4 55.6 69.1 54.7 69.1 54 69.2 54 69.3 54 69.5 54.2 69.8 54.7 69.9 54.9 70 55 70.1 54.9 70.7 54.7 71.3 50.9 69.6 51.2 69.6 51.2 69.5 51.2 69.5 51.2 69.4 51.3 69.1 51.4 68.9 51.6 69.2 51.3 69.3 50.8 69.3 50.3L69.3 50.3Z" fill="#891402"/><path d="M69.2 55.4C69.2 55.3 69.1 54.5 68.7 53.9 68.3 53.3 68.1 54.4 68.4 55.1 68.8 55.7 69.4 56 69.2 55.4Z" fill="#F5884B"/><path d="M70.1 54.3C70.1 54.3 69.3 53.3 69.5 52.6 69.7 51.8 70.5 51.9 70.4 53.3 70.3 54.5 70.2 54.4 70.1 54.3Z" fill="#F5884B"/><path d="M68.1 44.7C68.1 44.7 70.4 47.5 68.9 52.2 68.7 52.8 69.2 53.7 66.7 53.4 64.2 53.1 62.5 50.4 62.2 49.1 62.1 47.8 65.9 42.9 68.1 44.7L68.1 44.7Z" fill="#D9531E"/><path d="M68.1 44.7C68.1 44.7 68.1 44.7 68.1 44.7 68.1 44.7 68.6 45.3 68.9 46.3 69.4 47.6 69.7 49.6 68.9 52.2 68.8 52.6 68.9 53.2 68.4 53.4 68.1 53.5 67.6 53.5 66.8 53.4 65.6 53.2 64.5 52.5 63.8 51.6 64 51.4 64.2 51.2 64.4 51 64.6 51.4 64.9 51.7 65.3 52 66.2 52.6 66.9 52.9 67.3 52.7 67.6 52.6 67.6 52.2 67 51.5 66.2 50.6 66.2 49.2 66.3 48.6 66.4 48.5 66.4 48.4 66.5 48.3 66.5 48.3 66.6 48.4 66.6 48.6 66.8 49.6 67.7 50.8 68.3 50.6 68.5 50.5 68.7 50.3 68.8 50 69.4 48.4 68.4 46.8 68.1 46.4 68 46.3 67.8 46.2 67.6 46.2 67.7 45.9 67.9 45.3 68.1 44.7L68.1 44.7Z" fill="#991603"/><path d="M67.2 47C67.3 46.9 67.5 47 67.8 47.2 68.8 48.1 68.2 49.8 68.2 49.8 68.2 50 68.1 50.2 68 50.2 67.8 50.3 67.5 50.1 67.2 49.4 66.9 48.9 66.8 48.2 66.9 47.7 67 47.4 67.1 47.2 67.2 47 67.2 47 67.2 47 67.2 47L67.2 47Z" fill="#EF7C41"/><path d="M66.7 52.1C66.7 52.1 66 51.3 65.7 50.1 65.4 48.9 64.2 49.2 64.6 50.8 65 52.2 67.2 52.7 66.7 52.1L66.7 52.1Z" fill="#F5884B"/><path d="M70.2 57.1C70.2 57.1 76.9 55.9 79.6 60.5 80.2 61.6 79.3 60.5 78.2 60.5 77.1 60.5 80.2 64.1 78.7 67.7 78.1 69.1 77.2 66.7 76 66.9 74.7 67.1 72.2 66.5 71.4 65.8 70.7 65.1 71.4 66.2 71.6 66.4 71.8 66.6 65.8 64.1 69.8 57.3L70.2 57.1 70.2 57.1Z" fill="#D9531E"/><path d="M78.1 59.6C78 59.6 76.5 59.1 75.6 59.2 75.5 59.2 75.4 59.2 75.3 59.3 74.8 59.5 77.8 59.9 78.3 63 78.7 65.7 78.6 66.9 78.3 67 78.2 67 78.1 67 78 66.8 77.6 66.1 76.7 65.4 75.7 65.1 75.5 65.1 75.4 65 75.4 65.1 75.2 65.2 76.4 65.8 76 66.3 76 66.3 75.9 66.4 75.8 66.4 74.9 66.7 71.5 65.4 71.1 63.9 71 63.4 70.9 63.2 70.8 63.3 70.6 63.4 70.5 64.5 70.6 64.9 70.6 65 70.6 65 70.6 65 70.4 65.1 68.9 63.8 69.4 61.2 69.7 59.8 70.6 58.8 71.9 58.3 73.3 57.8 75.1 57.9 76.8 58.9 77.8 59.4 78.2 59.6 78.1 59.6L78.1 59.6ZM70.4 57.4C70.2 57.9 69.4 58.8 68.7 59.5 68.2 61 68.3 62.3 68.7 63.3 69.5 65.5 71.5 66.4 71.6 66.4 71.6 66.4 71.6 66.4 71.6 66.4 71.6 66.4 71.6 66.4 71.6 66.4 71.5 66.3 71.1 65.8 71.1 65.6 71.1 65.6 71.1 65.5 71.1 65.5 71.1 65.5 71.2 65.5 71.4 65.7 72.1 66.4 74.7 67 76 66.8 77 66.6 77.8 68.2 78.4 68 78.5 68 78.6 67.8 78.7 67.6 79.6 65.6 79 63.6 78.5 62.3 78.4 62 78.3 61.6 78.2 61.4 78 60.9 77.9 60.6 78.1 60.5 78.1 60.5 78.2 60.5 78.2 60.5 78.9 60.5 79.6 61 79.7 61 79.7 61 79.7 61 79.7 60.9 79.7 60.8 79.6 60.7 79.5 60.5 78.5 58.8 77 57.9 75.5 57.4 75.4 57.4 75.4 57.5 75.3 57.5 75.2 57.5 75.1 57.6 74.9 57.6 74 57.9 71.4 57.8 70.4 57.4L70.4 57.4Z" fill="#991603"/><path d="M72.1 58.7C72.1 58.7 73.9 58 75.5 58.7 77.1 59.3 74.2 58.3 73.7 59 73.2 59.7 77.4 60.3 77.7 62.6 77.7 62.6 77.5 61.9 76.3 61.6 75.1 61.3 78 62.5 77.8 65.1 77.8 65.1 78.2 64.2 75.8 63.5 73.4 62.8 71.5 61 71.4 60.4 71.3 59.8 72 61.3 73.9 61.7 75.8 62.1 73 61.1 72.6 60.2 72.2 59.3 72.5 59.8 73.5 60 74.5 60.2 72.7 58.8 72.1 58.7Z" fill="#F5884B"/><path d="M71.8 61.9C71.8 61.9 73.4 63.5 75.1 64.2 76.8 64.8 74.3 64.5 73.2 63.8 72.2 63.1 74.3 65.3 75.1 65.7 75.9 66.1 72.6 65.2 71.5 63.4 70.4 61.6 71.4 62.7 71.9 63.1 72.5 63.3 71.5 61.4 71.8 61.9Z" fill="#F5884B"/><path d="M65.9 57.2C67.7 56.5 69.6 56.7 70.2 56.9 70.5 56.4 71.8 54.6 73.8 53.8 76.2 52.8 74.5 54.7 75.2 55.6 76 56.4 76.5 57.5 75.1 57.7 74 57.9 71.4 57.8 70.4 57.5 70 58.4 68.5 60 67.7 60.6 66.6 61.4 66.3 60.3 66.2 59.3 66.1 58.2 63.7 58.1 65.9 57.2L65.9 57.2Z" fill="#E3E65B"/><path d="M69.5 57.3C69.4 57.3 69.3 57.4 69.2 57.4 69 57.4 68.8 57.5 68.7 57.5 68.3 57.6 68.5 57.8 68.9 57.7 69.5 57.6 69.6 57.6 69.3 57.8 69.2 57.8 69.3 57.8 69.3 57.8 69.3 57.8 69.4 57.8 69.5 57.7 69.6 57.7 69.7 57.6 69.8 57.6 70 57.5 70.2 57.5 70 57.8 70 57.8 68.7 59.9 67.7 60.3 67.5 60.4 67.4 60.4 67.3 60.3 66.3 60 66.9 59.2 67 58.9 67.1 58.6 66.6 58.5 66.1 58.3 65.7 58.1 65.9 57.6 66.8 57.3 67.1 57.2 67.4 57.1 67.9 57.1 69.3 56.9 69.9 57.1 69.5 57.3L69.5 57.3ZM74.9 57.3C74.8 57.3 74.7 57.4 74.5 57.4 73 57.6 71.1 57.2 71.1 57.2 70.9 57 70.9 57 71 56.9 71.1 56.9 71.5 56.9 71.8 56.8 71.9 56.8 72 56.8 72 56.8 72.1 56.8 71.7 56.7 71.2 56.6 70.5 56.5 72.5 55.9 71.8 55.9 71.7 55.9 71.6 55.9 71.5 56 71.3 56.1 71.1 56.2 71 56.3 70.9 56.4 70.8 56.5 70.8 56.5 70.8 56.5 70.8 56.4 71 56.2 71.4 55.7 72.7 54.6 73.7 54.3 74 54.2 74.3 54.1 74.5 54.2 75.3 54.5 74.2 55.5 74.8 55.7 75.2 56 75.9 56.9 74.9 57.3L74.9 57.3ZM74.1 53.6C74 53.6 73.9 53.7 73.8 53.7 72.7 54.2 71.9 54.9 71.2 55.5 70.7 56.1 70.3 56.6 70.2 56.8 69.9 56.7 69.4 56.7 68.7 56.7 67.9 56.7 67 56.8 66.1 57.1 66 57.1 65.9 57.2 65.9 57.2 65.1 57.5 65 57.7 65 57.9 65.1 58.2 66 58.5 66.2 59 66.2 59.1 66.2 59.1 66.2 59.2 66.2 59.5 66.3 59.8 66.4 60.1 66.6 60.6 66.9 60.9 67.4 60.7 67.5 60.7 67.7 60.6 67.8 60.5 68.6 59.9 70.1 58.2 70.5 57.4 71.5 57.8 74 57.8 75.2 57.6 75.3 57.6 75.5 57.5 75.6 57.5 76.1 57.3 76.2 56.9 76.1 56.5 76 56.2 75.7 55.8 75.4 55.4 75.3 55.3 75.3 55.2 75.2 55.1 75 54.6 75.3 53.8 75.2 53.5 75 53.5 74.7 53.4 74.1 53.6L74.1 53.6Z" fill="#ABB81F"/><path d="M72.1 55.7C72.1 55.7 73.4 54.6 74.2 54.7 75 54.9 74.3 55.5 73.7 55.6 73.1 55.7 74.3 55.9 73.8 56.2 73.2 56.4 71.6 56.7 72.2 56.3 72.6 55.9 71.6 56 72.1 55.7Z" fill="#EEF09E"/><path d="M72.5 56.8C72.6 56.8 73.9 56.3 74.8 56.6 75.7 56.9 73.8 57.3 72.8 57.2 71.8 57.2 72 57 72.5 56.8Z" fill="#EEF09E"/><path d="M69.4 58.2C69.4 58.2 68 60.1 67.2 60.1 66.5 60 66.9 59.3 67.4 58.9 67.9 58.6 66.1 58.6 66.7 58.2 67.3 57.8 69.2 57.6 68.7 58 68.2 58.3 68.1 58.6 68.6 58.4 69.2 58.1 69.7 57.8 69.4 58.2Z" fill="#EEF09E"/><path d="M68.7 57.2C68.7 57.2 67 57 66.6 57.6 66.1 58.1 68.4 57.2 68.7 57.2Z" fill="#EEF09E"/></g><g><path d="M15.4 50.6C15.4 50.6 12.6 50.5 12.5 52.6 12.4 54.7 13.6 56.5 14 57.6 14.3 58.7 17.8 56 18 53.5 18.1 51 16 50.6 15.4 50.6L15.4 50.6Z" fill="#D9531E"/><path d="M15.1 50.6C14.5 50.6 13 50.8 12.6 52 12.5 52.2 12.5 52.3 12.5 52.6 12.4 53.8 12.8 55 13.3 55.9 13.8 56.5 14.2 57 14.3 57.2 14.6 57.1 15.1 57.1 15.8 57.1 16.6 56.5 17.4 55.5 17.8 54.4 17.9 54.2 17.9 53.9 18 53.7 17.9 53.7 17.9 53.7 17.8 53.7 17.4 53.8 17.1 53.8 16.8 53.8 16.9 54.2 16.9 54.7 16.6 55.1 15.9 56.1 15.2 56.8 15 56.7 14.9 56.7 14.9 56.4 15 55.9 15.3 55 15.3 54.3 15.2 54.3 15.1 54.3 14.9 54.5 14.6 55 14.5 55.2 14.4 55.3 14.3 55.2 13.7 55 13.1 51.2 14.8 51.5 14.8 51.5 14.9 51.5 14.9 51.5 15 51.6 15.3 51.7 15.5 51.9 15.2 51.6 15.1 51.1 15.1 50.6L15.1 50.6Z" fill="#891402"/><path d="M15.2 55.7C15.2 55.6 15.3 54.8 15.7 54.2 16.1 53.6 16.3 54.7 16 55.4 15.6 56 15 56.3 15.2 55.7Z" fill="#F5884B"/><path d="M14.3 54.6C14.3 54.6 15.1 53.6 14.9 52.9 14.7 52.1 13.9 52.2 14 53.6 14.1 54.8 14.2 54.7 14.3 54.6Z" fill="#F5884B"/><path d="M16.3 45C16.3 45 14 47.8 15.5 52.5 15.7 53.1 15.2 54 17.7 53.7 20.2 53.4 21.9 50.7 22.2 49.4 22.4 48.1 18.5 43.2 16.3 45L16.3 45Z" fill="#D9531E"/><path d="M16.3 45 16.3 45C16.3 45 15.8 45.6 15.5 46.6 15 47.9 14.7 49.9 15.5 52.5 15.6 52.9 15.5 53.5 16.1 53.7 16.4 53.8 16.9 53.8 17.7 53.7 18.9 53.5 20 52.8 20.7 51.9 20.5 51.7 20.3 51.5 20.1 51.3 19.9 51.7 19.6 52 19.2 52.3 18.3 52.9 17.6 53.2 17.2 53 17 53.1 17 52.7 17.6 52 18.4 51.1 18.4 49.7 18.3 49.1 18.2 49 18.2 48.9 18.1 48.8 18.1 48.8 18 48.9 18 49.1 17.8 50.1 16.9 51.3 16.3 51.1 16.1 51 15.9 50.8 15.8 50.5 15.2 48.9 16.2 47.3 16.5 46.9 16.6 46.8 16.8 46.7 17 46.7 16.7 46.2 16.5 45.6 16.3 45L16.3 45Z" fill="#991603"/><path d="M17.2 47.3C17.1 47.2 16.9 47.3 16.6 47.5 15.6 48.4 16.2 50.1 16.2 50.1 16.2 50.3 16.3 50.5 16.4 50.5 16.6 50.6 16.9 50.4 17.2 49.7 17.5 49.2 17.6 48.5 17.5 48 17.5 47.7 17.3 47.5 17.2 47.3 17.2 47.3 17.2 47.3 17.2 47.3L17.2 47.3Z" fill="#EF7C41"/><path d="M17.7 52.4C17.7 52.4 18.4 51.6 18.8 50.4 19.1 49.2 20.3 49.5 19.9 51.1 19.4 52.6 17.2 53 17.7 52.4L17.7 52.4Z" fill="#F5884B"/><path d="M14.2 57.5C14.2 57.5 7.5 56.3 4.8 60.9 4.2 62 5.1 60.9 6.2 60.9 7.3 60.9 4.2 64.5 5.7 68.1 6.3 69.5 7.2 67.1 8.4 67.3 9.7 67.5 12.2 66.9 13 66.2 13.7 65.5 13 66.6 12.8 66.8 12.6 67 18.6 64.5 14.6 57.7L14.2 57.5 14.2 57.5Z" fill="#D9531E"/><path d="M6.3 60C6.2 60 6.6 59.8 7.6 59.2 9.3 58.3 11.1 58.1 12.5 58.6 13.8 59.1 14.8 60.1 15 61.5 15.5 64.1 14 65.4 13.8 65.3 13.8 65.3 13.8 65.2 13.8 65.2 13.9 64.8 13.8 63.7 13.6 63.6 13.5 63.6 13.4 63.7 13.3 64.2 12.9 65.7 9.5 67 8.6 66.7 8.5 66.7 8.5 66.6 8.5 66.6 8.1 66.1 9.3 65.5 9.1 65.4 9.1 65.4 9 65.4 8.8 65.4 7.8 65.6 6.9 66.4 6.5 67.1 6.4 67.3 6.3 67.3 6.2 67.3 5.9 67.2 5.8 66 6.2 63.3 6.7 60.1 9.7 59.7 9.2 59.6 9.1 59.6 9 59.6 8.9 59.5 7.9 59.5 6.5 60 6.3 60L6.3 60ZM14 57.8C13 58.2 10.5 58.2 9.3 58 9.2 58 9.1 58 9 57.9 8.9 57.9 8.9 57.8 8.8 57.8 7.3 58.3 5.8 59.2 4.8 60.9 4.7 61.1 4.6 61.2 4.6 61.2 4.6 61.3 4.6 61.3 4.6 61.3 4.7 61.3 5.4 60.8 6.1 60.8 6.1 60.8 6.2 60.8 6.2 60.8 6.4 60.9 6.3 61.2 6.1 61.7 6 62 5.9 62.3 5.8 62.6 5.3 64 4.7 66 5.6 68 5.7 68.2 5.8 68.4 5.9 68.4 6.5 68.6 7.3 67 8.3 67.2 9.6 67.4 12.1 66.8 12.9 66.1 13.1 65.9 13.2 65.9 13.2 65.9 13.2 65.9 13.2 65.9 13.2 66 13.1 66.2 12.8 66.6 12.7 66.8 12.7 66.8 12.7 66.8 12.7 66.8 12.7 66.8 12.7 66.8 12.7 66.8 12.8 66.8 14.8 65.9 15.6 63.7 16 62.7 16 61.5 15.6 59.9 15 59.2 14.3 58.3 14 57.8L14 57.8Z" fill="#991603"/><path d="M12.3 59.1C12.3 59.1 10.5 58.4 8.9 59.1 7.3 59.7 10.2 58.7 10.7 59.4 11.2 60.1 7 60.7 6.6 63 6.6 63 6.8 62.3 8 62 9.2 61.7 6.3 62.9 6.5 65.5 6.5 65.5 6.1 64.6 8.5 63.9 10.9 63.2 12.8 61.4 12.9 60.8 13 60.2 12.3 61.7 10.4 62.1 8.5 62.5 11.3 61.4 11.7 60.6 12.1 59.7 11.8 60.2 10.8 60.4 9.9 60.6 11.7 59.2 12.3 59.1Z" fill="#F5884B"/><path d="M12.6 62.2C12.6 62.2 11 63.8 9.3 64.5 7.6 65.1 10.1 64.8 11.2 64.1 12.2 63.4 10.1 65.6 9.3 66 8.5 66.4 11.8 65.5 12.9 63.7 14 61.9 13 63 12.5 63.4 11.9 63.6 12.9 61.7 12.6 62.2Z" fill="#F5884B"/><path d="M18.6 57.6C16.8 56.9 14.9 57.1 14.3 57.3 14 56.8 12.7 55 10.7 54.2 8.3 53.2 10 55.1 9.3 56 8.5 56.8 8 57.9 9.4 58.1 10.5 58.3 13.1 58.2 14.1 57.9 14.5 58.8 16 60.4 16.8 61 17.9 61.8 18.2 60.7 18.3 59.7 18.3 58.6 20.7 58.4 18.6 57.6L18.6 57.6Z" fill="#E3E65B"/><path d="M15 57.6C14.5 57.4 15.1 57.2 16.7 57.3 17.1 57.3 17.5 57.4 17.8 57.5 18.7 57.8 18.8 58.3 18.5 58.5 18 58.7 17.5 58.8 17.6 59.1 17.7 59.4 18.3 60.2 17.3 60.5 17.2 60.5 17 60.5 16.9 60.5 15.9 60.1 14.6 58 14.6 58 14.4 57.7 14.6 57.8 14.8 57.8 14.9 57.8 15 57.9 15.1 57.9 15.2 57.9 15.3 58 15.3 58 15.3 58 15.4 58 15.3 58 15 57.8 15.1 57.7 15.7 57.9 16.1 58 16.3 57.9 15.9 57.7 15.8 57.7 15.6 57.6 15.4 57.6 15.2 57.7 15.1 57.6 15 57.6L15 57.6ZM9.5 57.6C8.5 57.3 9.2 56.4 9.7 56.2 10.3 56 9.2 55 10 54.7 10.2 54.6 10.5 54.7 10.8 54.8 11.8 55.2 13.1 56.2 13.5 56.7 13.6 56.9 13.7 57 13.7 57 13.7 57 13.6 56.9 13.5 56.8 13.4 56.7 13.2 56.6 13 56.5 12.9 56.5 12.8 56.4 12.7 56.4 12 56.4 14 57 13.3 57.1 12.7 57.2 12.3 57.2 12.5 57.3 12.5 57.3 12.6 57.3 12.7 57.3 13 57.3 13.4 57.3 13.5 57.4 13.6 57.4 13.6 57.5 13.3 57.6 13.3 57.6 11.4 58 9.9 57.8 9.7 57.7 9.6 57.6 9.5 57.6L9.5 57.6ZM10.3 54C9.7 53.8 9.4 53.8 9.4 54 9.3 54.3 9.6 55.1 9.4 55.6 9.4 55.7 9.3 55.8 9.2 55.9 8.9 56.2 8.6 56.6 8.5 57 8.3 57.4 8.4 57.8 9 58 9.1 58 9.2 58 9.3 58 10.4 58.2 13 58.1 14 57.8 14.4 58.7 15.9 60.3 16.7 60.9 16.8 61 17 61.1 17.1 61.1 17.6 61.3 17.9 61 18.1 60.5 18.2 60.2 18.3 59.9 18.3 59.6 18.3 59.5 18.3 59.5 18.3 59.4 18.5 58.9 19.3 58.6 19.5 58.3 19.6 58.1 19.4 57.9 18.6 57.6 18.5 57.6 18.4 57.5 18.4 57.5 17.5 57.2 16.6 57.1 15.8 57.1 15.1 57.1 14.6 57.2 14.3 57.2 14.1 57 13.8 56.5 13.3 55.9 12.7 55.3 11.8 54.5 10.7 54.1 10.5 54.1 10.4 54 10.3 54L10.3 54Z" fill="#ABB81F"/><path d="M12.4 56C12.4 56 11.1 54.9 10.3 55 9.5 55.2 10.2 55.8 10.8 55.9 11.4 56 10.2 56.2 10.7 56.4 11.3 56.6 12.9 56.9 12.3 56.5 11.8 56.2 12.8 56.3 12.4 56Z" fill="#EEF09E"/><path d="M11.9 57.1C11.9 57.1 10.5 56.6 9.6 56.9 8.7 57.2 10.6 57.6 11.6 57.5 12.7 57.5 12.4 57.3 11.9 57.1Z" fill="#EEF09E"/><path d="M15 58.5C15 58.5 16.4 60.4 17.2 60.4 17.9 60.3 17.5 59.6 17 59.2 16.5 58.9 18.3 58.9 17.7 58.5 17.1 58.1 15.2 57.9 15.7 58.3 16.2 58.6 16.4 58.9 15.8 58.7 15.3 58.5 14.7 58.2 15 58.5Z" fill="#EEF09E"/><path d="M15.8 57.5C15.8 57.5 17.5 57.3 17.9 57.9 18.3 58.5 16 57.5 15.8 57.5Z" fill="#EEF09E"/></g><g><path d="M50.3 54.7C50.3 54.7 59.1 66.9 59 80.4 58.6 83.5 50.3 86.6 46.1 84.3 42.1 86.8 33.2 85.9 29.6 82.3 27.9 80.4 28.1 78 28.9 76.4 28.6 72.5 29.1 60.2 34.8 53.3 43.8 55.5 50.3 54.7 50.3 54.7Z" fill="#EAE3D0"/><g><path d="M50.8 62.2C50.1 64.7 49.4 62.8 47.9 61.8 46.4 60.8 45.6 60.3 43.6 60.8 41.8 60.1 40.5 59.8 38.8 61.6 37.1 63.4 36.8 63.2 35.6 61.4 34.8 60.3 33.7 58.2 33.1 55.9 33.6 55 34.2 54.1 34.9 53.3 43.8 55.4 50.3 54.7 50.3 54.7 50.3 54.7 50.5 54.9 50.7 55.3 51 56.9 51.2 59.7 50.8 62.2Z" fill="#C3BFB0"/></g><path d="M46.2 84.3C46.2 84.3 44.8 84.3 42.9 82.6 42.9 82.7 43 84.3 46.2 84.3Z" fill="#C3BFB0"/><path d="M47.9 62.6C47.9 62.6 47.3 64.7 47 65.1 46.7 65.5 48.9 71.3 51.4 76.9 52.4 79.5 47.2 82.4 47.2 82.4 47.2 82.4 48.3 84.6 53 83.1 57.7 81.6 58.1 80 57.3 74.7 56.5 69.4 51.7 58.4 51.7 58.4 51.7 58.4 51.5 65.6 50.2 64.1 48.8 62.6 47.7 62.3 47.9 62.6Z" fill="#FFF6E1"/><path d="M38.5 63C38.5 63 38.7 64.4 39.4 65.1 40.1 65.8 33.1 64.4 32.1 63.9 31 63.4 32.7 58 34.1 60.1 35.5 62.2 35.7 64.5 38.5 63Z" fill="#FFF6E1"/><path d="M38.2 73.4 36.8 78.1C36.8 78.1 38.6 80.7 40.8 82.6 43 84.4 38.2 85.1 33.5 83.3 28.8 81.5 29.8 78.8 31.8 76.9 34 75 38.2 73.4 38.2 73.4Z" fill="#FFF6E1"/><g><path d="M38.6 66.2 30.3 64.5 29.4 69.7 32.4 74.2 37.5 72Z" fill="#C3BFB0"/><path d="M37.9 66.5 37.7 67.8 30.3 66.4 30.7 65Z" fill="#EAE3D0"/><path d="M37.4 68.5 30.3 67C30.3 67 29.4 69 30.2 70 31 71 32 73.5 32.9 73 33.8 72.5 36.9 71.7 37.1 71.1 37.3 70.5 37.8 68.5 37.4 68.5Z" fill="#EAE3D0"/><path d="M36.8 68.9C36.8 68.9 33.7 68.2 32.6 68 31.5 67.7 31.5 69.4 32.3 70.9 33.1 72.3 35.1 71.6 36 71.1 37 70.6 37.5 69 36.8 68.9Z" fill="#FFF6E1"/><path d="M37.2 66.5C37.2 66.5 34.8 65.9 33.7 66 32.6 66.1 33.5 66.7 34.9 67 37.5 67.5 38.3 66.7 37.2 66.5Z" fill="#FFF6E1"/></g><g><path d="M47.4 59.6C47.4 59.6 47.3 64.7 43.9 65.7 40.4 66.7 39 61.7 39.1 59.8 39.1 58 44.4 58.6 47.4 59.6Z" fill="#123861"/><path d="M45.6 64 50.8 78.1 44.2 83.3 38.4 77.8 42.3 64.4Z" fill="#123861"/><path d="M43.4 61.2C43.4 61.2 46.3 60 46 61.5 45.8 63 45.1 65 42.5 64.7 39.9 64.4 38.9 58.1 43.4 61.2Z" fill="#17467A"/><path d="M45.4 65.9C45.4 65.9 47.5 72.2 48.7 76 49.4 78.2 47.3 79.5 45.3 81.1 43.3 82.7 40.3 78.5 39.6 77.6 38.9 76.7 42.2 68.2 42.6 66.8 42.9 65.4 45.3 64.9 45.4 65.9Z" fill="#17467A"/><g><path d="M41.7 66.4 48.2 71.2 50.3 76.9 40.7 69.9Z" fill="#FFFFFF"/><path d="M47.4 80.8 44.2 83.3 38.4 77.8 39.2 74.8Z" fill="#FFFFFF"/></g><path d="M43.8 61.6C43.8 61.6 45.6 60.7 45.4 62.1 45.2 63.6 44 64.2 43.4 63.9 42.8 63.6 42.6 62.1 43.8 61.6Z" fill="#FFFFFF" opacity="0.4"/></g><g><g><path d="M46.9 54.3C46.3 55.7 45.1 58 43.3 60.3 40.4 57.3 39.5 55.8 39.2 53.5 41.7 53.7 44.7 54 46.9 54.3Z" fill="#FCB879"/><path d="M49.9 54.6C49.9 54.6 50.8 59.5 50 62.4 49.5 64 48.7 58.9 43.3 60.2 45.1 58 46.3 55.6 46.9 54.2 48.7 54.5 49.9 54.6 49.9 54.6Z" fill="#EAE3D0"/><path d="M34.9 53.3C35.5 53.2 37.2 53.3 39.2 53.4 39.5 55.8 40.4 57.2 43.3 60.2 41.7 59.4 40.5 59 38.6 61.1 36.7 63.2 36.3 61.8 35.1 59.5 34 57.2 33.1 53.7 34.9 53.3Z" fill="#EAE3D0"/></g><path d="M47.2 56.2C47.2 56.2 46.6 57.7 45.6 58.7 44.5 59.7 48.2 59 49.1 60.9 49.8 62.8 51.2 55.1 47.2 56.2Z" fill="#FFF6E1"/><path d="M38.4 55.6C38.4 55.6 38.9 56.8 40.4 58.3 41.9 59.9 39.4 59.1 37.9 60.4 36.4 61.6 35.8 59.2 35.3 56.9 34.7 54.5 36.2 54.5 38.4 55.6Z" fill="#FFF6E1"/><path d="M44.9 56C44.9 56 43 56.1 41 55.8 39.5 55.6 42.5 58.2 43.2 58.9 44 59.7 45.6 56.1 44.9 56Z" fill="#FDD09E"/></g></g><g><path d="M22.4 40.1C20.3 40.8 17.3 38 17.6 33.1 17.9 28.1 21.8 29 23.2 33.6 23.2 28 24.3 18.4 29.7 13.9 31.8 19.3 35.2 19.1 35.2 19.1 35.2 19.1 32.6 16.2 35.8 11 40.8 18 48.4 17.8 48.4 17.8 48.4 17.8 47.5 16.6 45.4 12.7 56.3 13.4 60.2 21.1 60.2 21.1 60.2 21.1 61.6 19 60 15.7 69.2 19.2 67 31.2 67 31.2 67 31.2 66.9 31.7 68.6 38.5 70.2 47.1 64.2 53.8 54.1 55.2 37.2 57.2 30.3 52 30.3 52 27 49.5 23.2 44.4 22.4 40.1Z" fill="#FDD09E"/><path d="M62.8 36.5C62.8 36.5 60.8 34.4 57.8 35.1 57.1 35.2 58 34.6 58.6 34.4 58.5 32.1 58.5 27.7 62.2 29.1 65.5 30.3 62.4 35.2 62.4 35.2 62.4 35.2 62.9 35.6 62.8 36.5Z" fill="#FCB879"/><path d="M43.2 30.8C43.2 30.8 41 28.4 37.2 29.2 37.7 28.2 39 28.2 39 28.2 39 28.2 37.7 22.1 42.3 22.9 43.7 23.1 45.9 26.3 42.5 29.3 43.2 29.9 43.2 30.8 43.2 30.8Z" fill="#FCB879"/><g><path d="M22.4 40.1C23.2 44.4 27 49.5 30.3 51.9 30.3 51.9 37.2 57.1 54.1 55.1 64.2 53.8 70.3 47 68.6 38.4 66.9 31.6 67 31.1 67 31.1 67 31.1 69.2 19.1 60 15.6 61.6 18.9 60.2 21 60.2 21 60.2 21 56.3 13.2 45.4 12.6 47.5 16.6 48.4 17.7 48.4 17.7 48.4 17.7 40.8 18 35.8 11 32.6 16.2 35.2 19.1 35.2 19.1 35.2 19.1 31.7 19.3 29.7 13.9 24.3 18.4 23.2 28 23.2 33.6 21.8 29 17.9 28.2 17.6 33.1 17.3 38.1 20.2 40.9 22.4 40.1ZM29.1 32.3C28 30.3 26.9 22.7 29.8 17.5 31.6 21.4 36.7 22.1 36 20 35.2 17.9 35.3 14.5 35.9 15.7 36.4 16.9 37.9 18.2 37.9 18.2 36 20.7 36.9 22 38.5 20.2 44.1 14.8 47.5 25.5 48.4 23.6 49.3 21.7 45.4 18.1 46.6 18.5 47.8 18.9 50.3 19.8 50.3 19.8 50.3 19.8 50.7 18 48.3 14.7 53.9 15.4 59.4 21.1 60.1 22.4 61.9 20.6 62.2 18.8 62.2 18.8 68.1 23.2 65.6 30.8 66 35.2 72 47.2 61.5 56.9 43.2 54.8 24.7 52.7 21.3 34.7 29.1 32.3Z" fill="#FCB879"/></g><path d="M43 30.3C43 30.3 40.7 28.3 37.8 29 39.1 28.2 41.6 28.2 43 30.3Z" fill="#E7A760"/><path d="M62.5 36C62.5 36 60.6 34.3 58.2 34.9 59.3 34.3 61.4 34.3 62.5 36Z" fill="#E7A760"/><g><path d="M43.5 25.2C43.5 25.2 43.5 23.6 42.1 23.2 40.4 22.7 38.4 25.2 39.9 25.2 41 25.1 43 24.2 43.5 25.2Z" fill="#6F1200"/><path d="M43.5 27.1C43 28.6 41.8 29.4 40.7 28.9 39.6 28.4 39.1 26.7 39.6 25.2 40.1 23.7 41.3 22.9 42.4 23.4 43.4 24 43.9 25.6 43.5 27.1Z" fill="#FFE293"/><path d="M43.3 27.1C42.9 28.5 41.7 29.3 40.7 28.8 39.7 28.3 39.3 26.8 39.7 25.4 40.1 24 41.3 23.2 42.3 23.7 43.3 24.1 43.8 25.7 43.3 27.1Z" fill="#FEFDF2"/><path d="M43 27C42.6 28.2 41.6 28.9 40.8 28.4 39.9 28 39.6 26.7 39.9 25.5 40.3 24.3 41.3 23.6 42.1 24.1 43 24.5 43.4 25.8 43 27Z" fill="#FFF2D1"/><path d="M39.9 27C40 28 40.7 28.7 41.4 28.5 42.1 28.3 42.7 27.3 42.6 26.3 42.5 25.3 41.8 24.6 41.1 24.8 40.4 25 39.8 25.9 39.9 27Z" fill="#9D641A"/><path d="M40.1 26.9C40.2 27.7 40.7 28.2 41.3 28.1 41.9 27.9 42.3 27.2 42.2 26.4 42.1 25.6 41.6 25.1 41 25.2 40.5 25.3 40 26.1 40.1 26.9Z" fill="#3E1700"/><path d="M41.2 25.7C41.3 26.2 41.8 26.5 42.2 26.3 42.6 26.1 42.8 25.5 42.7 24.9 42.6 24.4 42.1 24.1 41.7 24.3 41.3 24.5 41.1 25.1 41.2 25.7Z" fill="#FEFDF2"/><path d="M40.6 28.1C40.7 28.4 40.9 28.6 41.1 28.5 41.3 28.4 41.4 28.1 41.4 27.8 41.3 27.5 41.1 27.3 40.9 27.4 40.7 27.5 40.5 27.8 40.6 28.1Z" fill="#EAEFF2"/></g><g><path d="M59.4 30.6C59.4 30.6 59.8 29.2 61.1 29.2 62.7 29.2 64 31.8 62.7 31.5 61.6 31.2 60.1 29.8 59.4 30.6Z" fill="#6F1200"/><path d="M59 32.4C59.1 33.9 60 34.9 61.1 34.6 62.2 34.4 63 33 62.9 31.6 62.8 30.1 61.9 29.1 60.8 29.4 59.7 29.6 58.9 30.9 59 32.4Z" fill="#FFE293"/><path d="M59.1 32.4C59.2 33.8 60 34.7 61 34.5 62 34.3 62.8 33 62.7 31.7 62.6 30.3 61.8 29.4 60.8 29.6 59.8 29.8 59.1 31 59.1 32.4Z" fill="#FEFDF2"/><path d="M59.4 32.4C59.5 33.6 60.2 34.4 61.1 34.2 62 34 62.6 32.9 62.6 31.8 62.5 30.6 61.8 29.8 60.9 30 60 30.1 59.4 31.2 59.4 32.4Z" fill="#FFF2D1"/><path d="M59.4 32.7C59.5 33.6 60.2 34.2 60.8 34 61.5 33.8 61.9 32.9 61.8 32 61.7 31.1 61 30.5 60.4 30.7 59.8 30.8 59.3 31.7 59.4 32.7Z" fill="#9D641A"/><path d="M59.5 32.6C59.6 33.3 60.1 33.8 60.6 33.7 61.1 33.5 61.5 32.8 61.4 32.1 61.3 31.4 60.8 30.9 60.2 31 59.8 31.1 59.5 31.9 59.5 32.6Z" fill="#3E1700"/><path d="M60.6 31.5C60.8 32 61.2 32.3 61.5 32.1 61.9 31.9 62.1 31.3 61.9 30.8 61.8 30.3 61.3 30 61 30.2 60.6 30.4 60.4 31 60.6 31.5Z" fill="#FEFDF2"/><path d="M60 33.7C60.1 34 60.3 34.1 60.4 34 60.6 33.9 60.7 33.6 60.7 33.4 60.6 33.1 60.4 33 60.3 33.1 60.1 33.2 60 33.4 60 33.7Z" fill="#EAEFF2"/></g><g><path d="M53.5 34.8C53.5 34.8 53.1 36.3 53.8 36.5 53.8 36.5 54.6 36 55.2 36.7 55.8 37.4 55 38.5 54.2 38.8 53.4 39.1 56.2 38.9 55.7 36.7 55.2 35.6 53.8 36.2 53.8 36.2 53.8 36.2 53.4 35.9 53.5 34.8Z" fill="#E7A760"/><path d="M55.2 37C55.3 37.3 55 37.7 54.6 37.8 54.2 37.9 53.7 37.8 53.7 37.4 53.6 37.1 53.9 36.7 54.3 36.6 54.7 36.5 55.2 36.7 55.2 37Z" fill="#FED9B1"/></g><g><path d="M65.8 29.3C65.8 29.3 62.1 20.1 57.1 27.4 58.8 22.8 63.5 21.6 65.8 29.3Z" fill="#FCB879"/><path d="M65.9 28.9C65.9 28.9 62.2 19.7 57.2 27 58.9 22.5 63.6 21.2 65.9 28.9Z" fill="#F27227"/><path d="M59.1 24.6C59.1 24.6 61.2 22.5 63.8 25.3 63 23.4 60.5 22.8 59.1 24.6Z" fill="#F68C26"/></g><g><path d="M47.9 23.4C47.9 23.4 42.9 13.6 37.5 20.9 39.1 16.2 44.6 15.2 47.9 23.4Z" fill="#FCB879"/><path d="M48 23C48 23 43 13.2 37.6 20.5 39.2 15.8 44.6 14.8 48 23Z" fill="#F27227"/><path d="M39.6 18.1C39.6 18.1 42 16.1 45.3 19.2 44.2 17.1 41.2 16.3 39.6 18.1Z" fill="#F68C26"/></g><g><path d="M64.2 41.5C64.2 41.5 54.2 43.9 37 36.4 37.9 35.6 37.3 34.5 36.7 34.1 36.1 33.7 36.3 36.1 33.6 35.7 32.6 35.5 33.5 37.6 35 37.1 34.2 40.5 32.5 51.5 45.7 53.2 58.9 54.9 61.5 48.5 61.4 43.5 63.2 43.4 64.2 42.6 64.2 41.5Z" fill="#FCB879"/><g><path d="M63.6 42.2C63.6 42.2 63.2 42.5 61.3 42.6 59.4 42.8 61.8 43.8 63.6 42.2Z" fill="#EE934D"/><path d="M60.9 42.8C60.9 42.8 50.3 43.4 35.9 36.6 34.1 43.1 36.3 52.2 47.8 52.6 59.2 53 60.4 48.4 60.9 42.8Z" fill="#941511"/><g><path d="M48.6 45.2C39.5 43.5 38.7 40.1 39 38 48.4 41.9 55.8 42.7 59.1 42.8 58.4 44.2 56.1 46.6 48.6 45.2Z" fill="#FFE4A6"/><path d="M52.7 45.7C51.5 45.7 50.1 45.6 48.6 45.3 44.6 44.5 41.8 43.4 40.2 41.8 39.1 40.7 38.7 39.5 38.9 38L38.9 38 38.9 38C48.2 41.9 55.5 42.7 59 42.8L59 42.8 59 42.8C58.8 43.3 58.2 44.1 57.2 44.6 56.2 45.3 54.6 45.7 52.7 45.7ZM39 38C38.8 39.4 39.2 40.7 40.3 41.7 41.8 43.2 44.6 44.4 48.6 45.2 50.1 45.5 51.5 45.6 52.7 45.6 54.5 45.6 57.8 45.2 59 42.8 57.4 42.7 54.7 42.5 51.3 41.8 47.2 41 43.1 39.7 39 38Z" fill="#FFE5A7"/></g><g><path d="M51.1 50.9C43.5 50.7 38.5 47.5 36.4 45.9 36.2 45.3 36 44.8 35.8 44.2 39 43.5 43.4 44.9 44.8 46.4 46.1 45.9 49.7 46.5 52.2 48.2 53.7 49.6 54.2 50.8 51.1 50.9Z" fill="#F58C86"/><g><path d="M51.1 50.9C54.2 50.8 53.7 49.6 52.2 48.2 55.4 47.1 57.5 48.8 58.5 49.9 56.7 51.7 53.6 52.8 47.8 52.6 41.5 52.4 38 49.5 36.4 45.8 38.5 47.5 43.5 50.7 51.1 50.9Z" fill="#FFE4A6"/><path d="M49.1 52.7C48.7 52.7 48.2 52.7 47.8 52.7 44.8 52.6 42.3 51.9 40.3 50.6 38.5 49.5 37.2 47.9 36.4 45.9L36.4 45.8 36.5 45.8C37.6 46.6 39.3 47.8 41.8 48.8 44.7 50 47.9 50.7 51.2 50.7 52.5 50.7 53.3 50.4 53.4 50 53.6 49.6 53.2 48.9 52.3 48L52.3 48 52.3 48C53 47.8 53.7 47.6 54.3 47.6 56.3 47.6 57.8 48.7 58.6 49.7L58.6 49.7 58.6 49.7C57.7 50.6 56.6 51.3 55.1 51.7 53.4 52.4 51.5 52.7 49.1 52.7ZM36.4 45.9C37.2 47.8 38.5 49.4 40.3 50.5 42.3 51.8 44.8 52.5 47.8 52.6 48.2 52.6 48.7 52.6 49.1 52.6 51.5 52.6 53.4 52.4 55 51.9 56.4 51.4 57.6 50.8 58.4 49.9 57.6 49 56.2 47.8 54.2 47.8 53.6 47.8 52.9 47.9 52.2 48.2 53.1 49.1 53.5 49.7 53.3 50.2 53.1 50.7 52.4 50.9 51 50.9 47.7 50.8 44.5 50.2 41.6 48.9 39.3 47.9 37.5 46.8 36.4 45.9Z" fill="#FFE5A7"/></g></g><path d="M44.8 46.4C44.8 46.4 45.2 47 45.4 48.1 45.6 49.3 46.4 47.8 44.8 46.4Z" fill="#EB5771"/><path d="M55 48.9C55 48.9 54.5 50.7 52.3 50.8 55.3 51.1 55.2 49.6 55 48.9Z" fill="#E7A760"/><path d="M36.7 34.7C36.7 34.7 35.9 36.3 34.1 36.1 34.6 37.1 36.4 37 36.7 34.7Z" fill="#EE934D"/><path d="M57.8 43C57.8 43 49.1 42.9 39.8 38.5 38.5 37.6 40 44.2 47.8 44.4 50.8 45.5 56.9 46.4 57.8 43Z" fill="#FFF6E1"/><path d="M55.2 48.5C55.2 48.5 56.5 51 53.1 51.1 49.7 51.2 47.5 50.7 46.9 51 44.9 50.3 41.1 49.5 39.1 48.2 37.1 46.9 39.2 52 46.4 52.4 53.6 52.8 56.3 51.8 57.1 50.5 58.1 49.1 55.2 47.6 55.2 48.5Z" fill="#FFF6E1"/><path d="M52.9 48.3C52.9 48.3 53.8 48.5 53.7 49.7 53.6 50.9 56.3 47.2 52.9 48.3Z" fill="#FFF6E1"/><path d="M46.8 46.6C46.8 46.6 49.9 47 49.6 48.1 49.2 49.2 44.3 46.2 46.8 46.6Z" fill="#F8AAA5"/><path d="M59.1 44.6C59.1 44.6 56.8 46.7 49.7 45.9 45.2 45.2 39.7 43.6 38.8 40.3 38.1 37.8 36.6 36.8 36.2 40 35.8 43.2 36.5 43.7 38.8 43.7 41.1 43.7 43.3 44.9 44.4 45.6 45.4 46.3 47.8 44.9 52 47.7 54.5 47 57.3 47.6 58.2 48.6 59 49.5 61 43.6 59.1 44.6Z" fill="#C24A41"/><path d="M56.5 43.3C56.5 43.3 47.7 42.6 41.3 39.6 39.9 38.9 41.6 43.6 46.6 43.8 49.5 43.9 48.5 45 52.7 45 56.7 45 56.5 43.3 56.5 43.3Z" fill="#F4F5F5"/><path d="M51.9 51.5C51.9 51.5 48.5 50.9 47.5 51.6 46.5 52.3 48 52.3 49.9 52.3 51.7 52.2 53.3 51.8 51.9 51.5Z" fill="#F4F5F5"/><path d="M45.7 50.9C45.7 50.9 42.1 50.3 40.4 49.3 38.8 48.3 39.9 50.6 43.2 51.5 46.5 52.3 47 51.2 45.7 50.9Z" fill="#F4F5F5"/><path d="M55.8 48.9C55.8 48.9 56.3 50.1 55.1 50.8 53.8 51.6 57 51.6 57 49.6 56.9 48.5 55.5 48.2 55.8 48.9Z" fill="#F4F5F5"/></g></g><g><path d="M21.7 33.7C21.7 33.7 21.3 31.8 20.1 31.9 18.9 32 17.6 36.3 20.1 38.3 22.6 40.3 23.9 37.7 22.3 36.4 20.8 35.1 20.7 34.3 21.7 33.7Z" fill="#D46429"/><g><path d="M22.3 36.4C20.8 35.1 20.7 34.4 21.7 33.7 21.7 33.7 21.4 32.3 20.6 32 20.2 32.3 19.7 33.2 20.2 35.6 20.7 37.7 21.9 38.4 22.9 38.2 23.1 37.6 22.9 36.9 22.3 36.4Z" fill="#BE4D1C"/></g></g><g><path d="M18.3 12.1C19.7 10.4 21.4 8.8 23.2 7.6 23.5 7.4 25 6.1 25.5 6.4 25.5 6.4 23.3 5.3 23.3 5.3 23.3 5.3 24.1 4.6 27.4 5.3 27.4 2.8 29.4 2 29.4 2L28.7 4.7C33.1 0.1 42.8-1.8 53.6 2 64.3 5.8 65.6 2.2 65.6 2.2 65.6 2.2 65.4 5.8 63.3 6.3 66.4 6.8 75.8 11.6 75.9 20.2 76 28.8 67.1 31.3 67.1 31.3 67.1 31.3 69.3 19.3 60.1 15.8 61.7 19.1 60.3 21.2 60.3 21.2 60.3 21.2 56.4 13.4 45.5 12.8 47.6 16.8 48.5 17.9 48.5 17.9 48.5 17.9 40.8 18 35.8 11 32.6 16.2 35.2 19.1 35.2 19.1 35.2 19.1 31.7 19.3 29.7 13.9 24.3 18.4 23.2 28 23.2 33.6 21.8 29 17.9 28.2 17.6 33.1 17.3 38 20.2 40.9 22.4 40.1 23.2 44.4 27 49.5 30.3 51.9 22.6 50.9 14.8 44 12.7 36.5 10.6 28.7 13.2 18.5 18.3 12.1Z" fill="#D9531E"/><g><path d="M12.7 36.6C14.7 44.1 22.5 51 30.3 52 27 49.5 23.3 44.4 22.4 40.2 20.3 40.9 17.3 38.1 17.6 33.2 17.9 28.2 21.8 29.1 23.2 33.7 23.2 28.1 24.3 18.5 29.7 14 31.8 19.4 35.2 19.2 35.2 19.2 35.2 19.2 32.6 16.3 35.8 11.1 40.8 18.1 48.4 17.9 48.4 17.9 48.4 17.9 47.5 16.7 45.4 12.8 56.3 13.5 60.2 21.2 60.2 21.2 60.2 21.2 61.6 19.1 60 15.8 69.2 19.3 67 31.3 67 31.3 67 31.3 75.9 28.7 75.8 20.2 75.7 11.6 66.3 6.8 63.2 6.3 65.3 5.8 65.5 2.2 65.5 2.2 65.5 2.2 64.3 5.8 53.5 2 42.8-1.8 33.1 0.1 28.7 4.8L29.4 2C29.4 2 27.4 2.8 27.3 5.2 24 4.5 23.2 5.2 23.2 5.2 23.2 5.2 25.4 6.3 25.4 6.3 25 6.1 23.4 7.3 23.1 7.5 21.3 8.8 19.6 10.3 18.2 12 13.2 18.5 10.6 28.7 12.7 36.6ZM14.5 22.1C19.4 6.1 28.5 7.3 25.9 8.3 23.3 9.4 23.9 11.1 25.8 9.6 27.7 8.1 29.4 12.7 29.1 9.8 28.8 6.8 33.8 7.7 32.1 6.8 30.5 5.9 28.5 8.2 29 6.9 32.9 0.5 44.9 0.3 50 2.4 55 4.5 57 5.5 62.8 4.9 60.9 6.3 56 6.4 59.2 6.7 68.3 7.4 74 14 74.4 19.7 74.7 25.5 69 27.5 69 27.5 73.6 18.2 65.3 10.5 65.3 10.5 62.8 8.6 67.2 14.3 67.2 19.8 64.3 13.8 60.3 10.8 55.7 9.5 51.1 8.2 58.2 12.5 59 16.5 54.4 12.3 45.5 10.8 43.9 7 42.4 3.3 42.4 11 45.2 14.8 48.1 18.7 37 12.5 35.5 8 33.1 11.4 32.1 14.5 33.5 17 33.5 17 30.9 14.8 30.3 11.7 21.7 17.6 23 30.8 22 29.3 21 27.7 18.9 28.4 18.9 28.4 18.9 28.4 18.3 26.2 19.1 24.6 18 25.8 17.6 27.7 17.5 29.7 14.5 32.5 17.1 37.9 17.1 37.9 17.1 37.9 11.9 31.4 14.5 22.1Z" fill="#991603"/></g><path d="M67.3 11.1C67.3 11.1 73.2 15.4 70.8 24.1 70.1 27.2 79.6 16.8 67.3 11.1Z" fill="#EE7A3F"/><path d="M47.8 2.8C52.5 4.4 53.5 5.4 56.4 5.9 55 7.5 51.7 5 52.4 7.9 53.2 10.8 55.9 13.5 55.9 13.5 55.9 13.5 45.1 8.9 43.3 4.7 41.6 0.4 41.3 8.4 42.7 11.8 44.1 15.2 37.4 10.4 35.4 6.4 34.3 4.8 32.7 5.6 30.8 6.2 29 6.9 38.4-0.3 47.8 2.8Z" fill="#EE7A3F"/><path d="M34.2 7.9C34.2 7.9 32.1 11.3 32.4 13.9 32.7 16.5 27.8 7.8 34.2 7.9Z" fill="#EE7A3F"/><path d="M56.6 8.3C56.6 8.3 61.1 9.6 63.4 12.8 65.6 15.9 63.8 6.3 56.6 8.3Z" fill="#EE7A3F"/><path d="M26.8 12.2C26.8 12.2 22.8 16.3 21.7 24.7 21.3 29 19.9 23 20.9 19.5 21.9 16 17.6 21.2 16.7 27.4 15.8 33.7 13.8 20.5 20.2 12.6 22.8 9.4 21.4 14.2 21.4 16.1 21.3 18.2 23 12.6 26.8 12.2Z" fill="#EE7A3F"/></g></g><g><g><path d="M25.6 48.4C25.6 48.4 17.7 39 14.5 35.1 16 34 16 28.6 14.8 26.4 13.6 24.3 11.3 21 9.9 21 8.3 21 8 23.4 8 23.4 8 23.4 3.9 21.3 3.3 25.3 1.2 25.9 0.4 27 0.8 29.1-0.6 29-0.1 32.6 1.9 34 3.4 34.9 3.7 34.2 3.7 34.2 3.7 34.2 6.1 38.9 10.4 37.4 12.3 41.1 22.3 54.8 22.3 54.8 22.3 54.8 24.6 53.1 25.6 48.4Z" fill="#FDC689"/><g><path d="M9 24.7C8 24.9 8.9 21 9.5 22.6 9.6 22.6 10.1 24.5 9 24.7Z" fill="none"/><path d="M9.1 28.3C9.1 28.3 9.5 30.4 8.9 30.3 8.2 30.2 8.2 29 8.2 28.3 8.2 27.6 9.1 28.3 9.1 28.3Z" fill="none"/><path d="M5.4 29.4C3.5 26.7 3.3 23.2 4.8 24.6 4.8 24.6 5 26.6 6.3 27.9 7.5 29.2 6.7 31.2 5.4 29.4Z" fill="none"/><path d="M4.2 33.3C4.8 33.5 6.5 33.4 6.2 31.8 7.3 32.3 7.4 31 8.4 31.7 9.4 32.4 9.9 30.9 10.5 31.6 12.3 33.6 14.4 32.9 13.4 32.1 10.7 30.8 10.7 28.5 10.8 28 10.9 27.5 11.2 27 9.6 27 7.1 27 6.9 25.6 7.7 25.7 8.5 25.8 9.5 25.9 10.2 25.6 11.8 25 13.4 26.4 14.3 27.7 14.4 27.9 14.5 28 14.6 28.2 15.5 29.9 15.4 31.8 14.6 33.6 14.3 34.2 12.2 37.3 11.9 35.5 11 36 10.4 36.7 9.2 37 5.9 37.7 3.6 33.1 4.2 33.3Z" fill="none"/><path d="M1.7 30.4C0.2 27.8 1.5 25.6 2.4 26.6 2.4 26.6 3 29.3 4.6 30.7 6.2 32.1 3.2 33 1.7 30.4Z" fill="none"/><path d="M0.5 30.2C0.5 30.2 1.4 32.6 2.8 33.1 4.1 33.6 2.6 34.6 1.3 33-0.1 31.4-0.1 29.5 0.5 30.2Z" fill="none"/><path d="M1.9 34C3.4 34.9 3.7 34.2 3.7 34.2 3.7 34.2 6.1 38.9 10.4 37.4 12.3 41.1 22.3 54.8 22.3 54.8 22.3 54.8 24.7 53.1 25.6 48.4 25.6 48.4 17.7 39 14.5 35.1 16 34 16 28.6 14.8 26.4 13.6 24.3 11.3 21 9.9 21 8.3 21 8 23.4 8 23.4 8 23.4 3.9 21.3 3.3 25.3 1.2 25.9 0.4 27 0.8 29.1-0.6 29-0.1 32.6 1.9 34ZM5.4 29.4C3.5 26.7 3.4 23.1 4.9 24.4 4.9 24.4 5.2 26 6.3 27.9 7.2 29.5 6.7 31.2 5.4 29.4ZM9 24.7C8 24.9 8.9 21 9.5 22.6 9.6 22.6 10.1 24.5 9 24.7ZM11.3 37.7C11.3 37.7 12.8 37.3 13.9 35.6 13.9 35.6 21.2 44.1 23.2 47 24.7 49.2 22.7 52 21 51.6 19.3 51.3 11.3 37.7 11.3 37.7ZM4.2 33.3C4.8 33.5 6.5 33.4 6.2 31.8 7.3 32.3 7.4 31 8.4 31.7 9.4 32.4 9.9 30.9 10.5 31.6 12.3 33.6 14.4 32.9 13.4 32.1 10.7 30.8 10.7 28.5 10.8 28 10.9 27.5 11.2 27 9.6 27 6 27 6.1 25.4 6.9 25.5 7.7 25.6 9.4 25.9 10.2 25.6 11.8 25 13.4 26.4 14.3 27.7 14.4 27.9 14.5 28 14.6 28.2 15.5 29.9 15.4 31.8 14.6 33.6 14.3 34.2 12.2 37.3 11.9 35.5 11 36 10.4 36.7 9.2 37 5.9 37.7 3.6 33.1 4.2 33.3ZM9.1 28.3C9.1 28.3 9.5 30.4 8.9 30.3 8.2 30.2 8.2 29 8.2 28.3 8.2 27.6 9.1 28.3 9.1 28.3ZM1.7 30.4C0.2 27.8 1.5 25.6 2.4 26.6 2.4 26.6 3 29.3 4.6 30.7 6.2 32.1 3.2 33 1.7 30.4ZM1.3 33C0 31.3 0 29.5 0.6 30.2 0.6 30.2 1.5 32.6 2.9 33.1 4.1 33.7 2.6 34.7 1.3 33Z" fill="#FCAC64"/></g><g><path d="M13.1 32.4C13.1 32.4 9.3 32 9.8 27.8 8 28.1 5.2 27.2 5.8 25.5 6.3 24.1 8.4 25.5 9.6 24.9 10.9 24.3 12.7 25.3 14 26.6 15.3 27.9 12.1 24.7 10 25.3 8.6 25.8 7.4 25.4 6.6 25.2 5.8 25.1 5 27.5 10.1 27.2 10.9 27.4 8.5 29.3 13.1 32.4Z" fill="#EE893F"/><path d="M10.2 30.4C10.2 30.4 7.7 32.6 7.7 27.6 7.4 30.9 8.6 32.5 10.2 30.4Z" fill="#EE893F"/><path d="M8.1 30.6C8.1 30.6 5 34.1 3.3 25.3 3.3 25.3 5.3 32.8 8.1 30.6Z" fill="#EE893F"/><path d="M0.8 29.1C0.8 29.1 1.7 33.4 4.7 32.8 5.9 32.6 5.6 30.8 5.6 30.8 5.6 30.8 5.4 32.7 3.8 32.5 2.3 32.2 0.8 29.1 0.8 29.1Z" fill="#EE893F"/><path d="M10.1 22.8C10.1 22.8 10.4 24 10.3 25 10.3 26 11 24 10.1 22.8Z" fill="#EE893F"/><path d="M11.5 36.1C11.5 36.1 11.2 36.8 10 37.3 8.9 37.8 11.1 38 11.5 36.1Z" fill="#EE893F"/></g><path d="M15.1 37.9C15.1 37.9 21.4 44.4 22.1 47.4 22.8 50.4 19.1 47.8 16.4 43.9 13.7 39.9 12.1 35.2 15.1 37.9Z" fill="#FDD09E"/><path d="M13.1 27C13.1 27 14.9 28.7 14.7 30.5 14.5 32.3 12.2 30.8 11.7 28.4 11.2 26 12 26.1 13.1 27Z" fill="#FDD09E"/><path d="M9.3 33C9.3 33 7.8 33.7 6.5 33.7 5.2 33.7 6.6 36.6 9.3 36 11.9 35.3 11.1 32.2 9.3 33Z" fill="#FDD09E"/><path d="M8 23.4 8 25.1C8 25.1 7.5 24.8 8 23.4Z" fill="#EE893F"/></g><g><path d="M31.8 55.5C31.8 55.5 29.3 51 26.7 47.8 26.9 45.9 25.3 44 25 46.7 24.7 49.4 24.2 54 19.5 54.7 18.2 55 19 57.2 21.3 56.8 26.6 61.1 29 63.6 29 63.6L31.8 55.5Z" fill="#EAE3D0"/><path d="M26.7 47.8C26.7 47.8 27 50.8 25.1 53.7 25 53.7 27.3 53.7 26.7 47.8Z" fill="#C3BFB0"/><path d="M27.7 50.8C27.7 50.8 29.7 52.8 29.3 56 29 59.2 26.7 61.9 23.5 57.3 22.9 56.3 27.1 56 27.7 50.8Z" fill="#FFF6E1"/><path d="M25.4 47.1C25.4 47.1 25.3 51.6 21.9 54.1 19.9 55.7 24.5 55.4 25.9 51.2 27.2 47.1 25.6 45.6 25.4 47.1Z" fill="#FFF6E1"/></g></g><g><path d="M32 52.9C32.9 53.4 33.9 53.7 34.6 53.9 32.5 56.9 28.7 64 29 76.4 28.4 77.6 28.3 78.6 28.3 78.6 28.3 78.6 24.6 66.9 32 52.9Z" fill="#EB5B91"/></g><path d="M52.2 56.2C52.2 56.2 56.4 63 58.2 70.6 59.1 75.2 59.3 68.1 56.9 62.2 54.6 56.2 52.2 55.1 52.2 56.2Z" fill="#F284A9"/><path d="M33.2 54.7C33.2 54.7 29.2 61 28.7 71.5 28.4 76.2 27 71.4 28.1 65.5 30.4 53.5 33.8 53.1 33.2 54.7Z" fill="#F284A9"/></g></svg>